<?xml version="1.0" encoding="UTF-8"?><svg id="Layer_1" xmlns="http://www.w3.org/2000/svg" xmlns:xlink="http://www.w3.org/1999/xlink" viewBox="0 0 604.89 530.91"><defs><style>.cls-1{clip-path:url(#clippath);}.cls-2,.cls-3,.cls-4,.cls-5,.cls-6,.cls-7{fill:none;}.cls-2,.cls-8,.cls-9,.cls-10,.cls-11,.cls-12,.cls-13,.cls-14,.cls-15,.cls-16,.cls-17,.cls-18,.cls-19,.cls-20,.cls-21,.cls-22,.cls-23,.cls-24,.cls-25,.cls-26,.cls-27,.cls-28,.cls-29,.cls-30,.cls-31,.cls-32{stroke-width:0px;}.cls-33{clip-path:url(#clippath-1);}.cls-3{stroke:#ea4044;}.cls-3,.cls-4,.cls-5,.cls-6,.cls-7{stroke-miterlimit:10;}.cls-4{stroke:#e60f19;}.cls-5{stroke-width:.59px;}.cls-5,.cls-6,.cls-7{stroke:#1a1818;}.cls-6{stroke-width:.88px;}.cls-7{stroke-width:.49px;}.cls-8{fill:#f7e5ff;}.cls-9{fill:#794594;}.cls-10{fill:#525c73;}.cls-11{fill:#522a85;}.cls-12{fill:#29461e;}.cls-13{fill:#3c3244;}.cls-14{fill:#1a1818;}.cls-15{fill:#3e1514;}.cls-16{fill:#3f2281;}.cls-17{fill:#17181d;}.cls-18{fill:#c53828;}.cls-19{fill:#b390cf;}.cls-20{fill:#b390d0;}.cls-21{fill:#9f6eac;}.cls-22{fill:#8e5da2;}.cls-23{fill:#e60f19;}.cls-24{fill:#fff;}.cls-25{fill:#ffec9f;}.cls-26{fill:#eb433e;}.cls-27{fill:#eee2ff;}.cls-28{fill:#ffae12;}.cls-29{fill:#feffe6;}.cls-30{fill:#ea3b38;}.cls-31{fill:#f49792;}.cls-32{fill:#ea4044;}</style><clipPath id="clippath"><rect class="cls-2" x="195.28" y="31.72" width="408.37" height="424.33" transform="translate(-68.55 240.58) rotate(-31)"/></clipPath><clipPath id="clippath-1"><rect class="cls-2" x="315.36" y="115.69" width="260.53" height="128.19"/></clipPath></defs><g id="Group_309"><g class="cls-1"><g id="Group_134"><path id="Path_221" class="cls-29" d="m484.91,424.48l-91.61-63.12c-6.1-4.37-13.98-5.38-20.99-2.68l-96.55,39.06c-16.98,6.87-35.61-10.12-31.53-28.74l23.2-105.92c1.57-7.61-.46-15.52-5.49-21.45l-72.4-86.37c-12.73-15.19-4.21-37.73,14.42-38.14l105.95-2.34c7.33-.12,14.04-4.16,17.6-10.57l51.81-92.45c9.11-16.26,33.02-13.2,40.44,5.17l42.27,104.48c2.87,7.22,8.9,12.72,16.36,14.92l104.42,29.24c18.36,5.14,24.61,29.57,10.57,41.33l-79.82,66.91c-5.67,4.92-8.48,12.36-7.49,19.79l12.73,110.52c2.24,19.44-17.8,31.47-33.91,20.37"/></g></g><path id="Path_561" class="cls-20" d="m294.75,342.38s16.43,37.7,5.95,63.28c0,0,29.61,63.93,3.83,104.03,0,0-16.6,12.59-44.61-1.57,0,0,4.38-63.2-18.61-92.19s-33.57-55.07-33.57-55.07c0,0-5.87-17.08-.26-33.56"/><path id="Path_562" class="cls-27" d="m315.36,287.66s65.3-120.59-38.25-177.16c0,0-33.76-16.42-89.42,7.3-55.66,23.72-72.54,76.19-167.89,39.69,0,0,4.68,26.13,15.85,35.7,0,0,.27,17.54,19.14,19.14,0,0-74.97,40.81-44.93,127.34,0,0,11.17-22.73,15.15-22.73,0,0-12.88,27.71,31.06,74.32,0,0,33.24,48.9,2.29,65.71,0,0,5.35,14.9,43.55,11.08,0,0-6.11,6.88-8.02,6.5s30.67,17.07,65.64-15.17c34.97-32.23,17.64-51.39,17.64-51.39l88.8-95.79,49.39-24.54Z"/><path id="Path_563" class="cls-20" d="m157.84,354.06s-6.02,40.68,10.79,62.64c0,0-21.75,55.56,13.61,87.53,0,0,16.54,12.53,39.88-8.45,0,0-8.1-50.69,6.53-84.68s18.02-61.93,18.02-61.93c0,0,.87,26.77-8.86,12.33"/><path id="Path_564" class="cls-20" d="m222.16,250.65l2.91,7.37c5.06,12.81,6.23,6.75-8.31,21.81-13.75,14.26-60.03,31.99-60.03,31.99-12.81,5.06-27.3-1.23-32.36-14.04,0,0,0,0,0,0l-2.91-7.37c-5.06-12.81,1.23-27.3,14.04-32.36l54.3-21.44c12.81-5.06,27.3,1.22,32.36,14.04"/><path id="Path_565" class="cls-10" d="m176.19,316.32s34.45,20.49,77.64-1.35c0,0,38.49-8.09,45.93,54.5l-15.22,17.93-13.2-5.41-13.87,9.81-16.58-9.81-15.56,12.52-1.35-8.12-10.15,6.09-18.61-8.46v10.49l-17.59-16.92-18.61,5.07,1.69-10.83-16.24-8.46,11.5-2.15s9.05-35.38,20.22-44.91"/><path id="Path_566" class="cls-20" d="m160.55,296.58l-7.13,3.45c-12.4,6-27.31.82-33.32-11.58,0,0,0,0,0,0l-20.81-62.49c-6-12.4,2.85-21.15,6.95-23.37l7.13-3.45c12.4-6,14.36.47,20.36,12.87l38.39,51.26c6,12.4.82,27.32-11.58,33.32"/><rect id="Rectangle_222" class="cls-13" x="427.38" y="195.61" width="10.48" height="139.27" transform="translate(145.14 683.41) rotate(-87)"/><path id="Path_567" class="cls-20" d="m296.37,169.84c0-30.2-20.89-56.06-51.09-56.06s-58.28,25.86-58.28,56.06c0,21.47,12.57,40.95,32.12,49.81h0s.06,15.4-2.26,16.33-18.78,31.07,33.61,5.34c0,0-4.35-15.52,1.48-17.76.44-.08.87-.17,1.3-.26.02,0,.04,0,.06,0,.52.02,1.04-.1,1.49-.35,24.41-6.04,41.56-27.94,41.56-53.09"/><path id="Path_568" class="cls-17" d="m177.33,318.11s-47.41-69.99,31.04-85.51l2.89-1.27,6.74,2.97s-11.36,15.72.65,15.72c13.21,0,28.73-7.21,28.73-7.21,0,0,7.55-5,22.64,4.17,0,0,18.83,3.58,21.28,21.75s-32.16,51.06-31.76,52.69-54.39,17.9-82.22-3.3"/><path id="Path_569" class="cls-27" d="m250.23,113.81s-12.07,22.04-44.8,16.34c0,0,25.47-28.82,44.8-16.34"/><path id="Path_570" class="cls-27" d="m250.23,113.81s-20.03,49.67,8.7,67.34c0,0,4.37-31.85,7.1-30.81,0,0-.82,10.69,15.25,27.91,0,0,.41,18.71-9.4,24.35,0,0,10.14,2.98,14.69-1.94.07-.07.13-.14.19-.22,4.45-5.23-5.32,18.68-25.88,22.54s-32.95,26.57-34.31,36.22c0,0,8.58-8.46,13.89-8.61,0,0,15.11,11.13,46.56,8.61l28.34-89.6-44.4-56.69-20.74.91Z"/><path id="Path_571" class="cls-20" d="m190.42,250.88l7.85-.65c1.81-.15,3.62.29,5.16,1.25l12.82,8c3.95,2.46,5.16,7.66,2.69,11.62-.67,1.07-1.57,1.98-2.64,2.66l-24.87,15.76c-2.66,1.69-6.05,1.75-8.77.16l-.55-.32c-2.89-1.69-4.5-4.92-4.12-8.24l2.29-20.08c.2-1.75.95-3.4,2.13-4.71l2.45-2.7c1.44-1.59,3.42-2.57,5.55-2.74"/><path id="Path_572" class="cls-20" d="m199.08,290.79l20.4-10.67s-3.07,15.6-20.4,10.67"/><path id="Path_573" class="cls-17" d="m278.25,365.17l-16.99-1.12-10.55,13.36-4.18-16.5-15.96-5.91,14.4-9.08.68-17.01,13.09,10.89,16.39-4.61-6.31,15.81,9.44,14.16Z"/><path id="Path_574" class="cls-16" d="m210.19,266.85c0,7.94-6.43,14.37-14.37,14.37s-14.37-6.43-14.37-14.37,6.43-14.37,14.37-14.37h0c7.94,0,14.37,6.43,14.37,14.37"/><path id="Path_575" class="cls-22" d="m200.08,259.48h-8.51l-4.26,7.38,4.26,7.37h8.51l4.26-7.37-4.26-7.38Z"/><path id="Path_576" class="cls-21" d="m191.56,259.48h8.51l3.87-4.47c-4.57-3.14-10.53-3.36-15.32-.58l2.94,5.05Z"/><path id="Path_577" class="cls-9" d="m181.45,266.85c0,.36.03.71.05,1.06l5.8-1.06,4.26-7.37-2.94-5.05c-4.44,2.56-7.17,7.3-7.17,12.42"/><path id="Path_578" class="cls-9" d="m181.5,267.91c.4,5.44,3.85,10.19,8.91,12.25l1.15-5.93-4.26-7.38-5.8,1.06Z"/><path id="Path_579" class="cls-11" d="m210.19,266.85c0-4.74-2.34-9.17-6.25-11.85l-3.86,4.47,4.26,7.37-4.26,7.38,3,5.01c4.4-2.57,7.11-7.29,7.11-12.38"/><path id="Path_580" class="cls-19" d="m305.4,357.08l-7.13,3.45c-12.4,6-27.31.82-33.32-11.58,0,0,0,0,0,0l-25.44-52.54c-6-12.4-.82-27.31,11.58-33.31,0,0,0,0,0,0l7.13-3.45c12.4-6,27.32-.82,33.32,11.58l25.44,52.54c6,12.4.82,27.31-11.58,33.32"/><path id="Path_581" class="cls-20" d="m362.36,294.2l3.45,7.13c6,12.4,6.71,6.26-6.65,22.37-12.65,15.25-57.47,36.38-57.47,36.38-12.4,6-27.32.82-33.32-11.58l-3.45-7.13c-6-12.4-.82-27.32,11.58-33.32l52.54-25.44c12.4-6,27.32-.82,33.32,11.58"/><path id="Path_582" class="cls-20" d="m351.01,331.07s45.27-42.04,56.83-42.04,30.05-9.7,36.46-15.89c1.69-1.64,10.54-17.99,1.01-12.87-6.73,3.61-9.36,7.77-9.36,7.77,0,0-31.15.02-42.37-1.06s-4.94-4.57-13.06-9.88c-5.3-3.47-11.22,6.36-7.72,11.27s-33.39,10.31-40.03,12.8"/><path id="Path_583" class="cls-2" d="m223.03,152.42c0-14.5-10.57-11.37-14.67-8.46-2.78,1.91-4.72,4.82-5.39,8.13-.62,3.31,0,7.57,6.12,9.7"/><path id="Path_584" class="cls-5" d="m223.03,152.42c0-14.5-10.57-11.37-14.67-8.46-2.78,1.91-4.72,4.82-5.39,8.13-.62,3.31,0,7.57,6.12,9.7"/><path id="Path_585" class="cls-14" d="m220.78,153.3c0,4.14-1.78,7.5-3.97,7.5s-3.97-3.36-3.97-7.5,1.78-7.5,3.97-7.5,3.97,3.36,3.97,7.5"/><path id="Path_586" class="cls-2" d="m224.44,170.2s-9.23-18.46,9.1-10.48"/><path id="Path_587" class="cls-6" d="m224.44,170.2s-9.23-18.46,9.1-10.48"/><path id="Path_588" class="cls-24" d="m214.13,185.61c.29,8.23,10.34,18.16,22.28,17.74s21.27-11.03,20.98-19.26c-.23-6.6-6.88,2.28-15.41,5.34-2.11.75-3.73-1.07-6.1-.99-2.41.08-3.4,1.14-5.59.51-8.66-2.47-16.4-9.91-16.17-3.35"/><rect id="Rectangle_223" class="cls-2" x="2.76" y="104.96" width="499.67" height="425.95"/><line id="Line_13" class="cls-2" x1="225.91" y1="186.48" x2="219.81" y2="196.73"/><line id="Line_14" class="cls-7" x1="225.91" y1="186.48" x2="219.81" y2="196.73"/><line id="Line_15" class="cls-2" x1="238.24" y1="188.21" x2="233.56" y2="203.25"/><line id="Line_16" class="cls-7" x1="238.24" y1="188.21" x2="233.56" y2="203.25"/><line id="Line_17" class="cls-2" x1="248.48" y1="184.38" x2="247.41" y2="199.87"/><line id="Line_18" class="cls-7" x1="248.48" y1="184.38" x2="247.41" y2="199.87"/><line id="Line_19" class="cls-2" x1="252.88" y1="182.06" x2="256.64" y2="188.72"/><line id="Line_20" class="cls-7" x1="252.88" y1="182.06" x2="256.64" y2="188.72"/><path id="Path_589" class="cls-2" d="m241.98,189.43c-1.14.3-2.35.15-3.39-.4-.85-.38-1.78-.57-2.71-.58-2.41.08-3.4,1.14-5.59.51-8.66-2.47-16.4-9.91-16.17-3.35.29,8.23,10.34,18.16,22.28,17.74s21.27-11.03,20.98-19.26c-.06-1.71-.55-2.38-1.4-2.38-2.41,0-7.69,5.46-14.01,7.72"/><path id="Path_590" class="cls-2" d="m224.27,177.73s8.45-5.83,20.28,1.86"/><path id="Path_591" class="cls-5" d="m224.27,177.73s8.45-5.83,20.28,1.86"/><path id="Path_592" class="cls-2" d="m224.42,208.38s7.41,7.11,20.32,1.41"/><path id="Path_593" class="cls-5" d="m224.42,208.38s7.41,7.11,20.32,1.41"/><path id="Path_594" class="cls-17" d="m194.41,356.77l-10.74-.71-6.67,8.45-2.65-10.44-10.1-3.74,9.11-5.74.43-10.76,8.28,6.89,10.37-2.91-3.99,10,5.98,8.96Z"/><path id="Path_595" class="cls-8" d="m163.13,471.12s28.99,15.93,56.35,0c0,0,8.35,39.82,2.63,41.23s-75.77,8.12-77.64,2.5c-4.62-13.83,22.25-31.97,18.66-43.72"/><path id="Path_596" class="cls-8" d="m257.35,484.98s28.99,15.93,56.35,0c0,0,8.35,39.82,2.63,41.23s-75.77,8.12-77.64,2.5c-4.62-13.83,22.25-31.97,18.66-43.72"/><path id="Path_597" class="cls-20" d="m130.04,203.36c0,10.95-8.88,19.83-19.83,19.83s-19.83-8.88-19.83-19.83,8.88-19.83,19.83-19.83,19.83,8.88,19.83,19.83h0"/><path id="Path_598" class="cls-20" d="m121.87,202.3h0c-3.27,0-5.91-2.65-5.91-5.91v-40.01c0-3.27,2.65-5.92,5.92-5.92s5.92,2.65,5.92,5.92v40.01c0,3.27-2.65,5.91-5.91,5.92h0"/><path id="Path_599" class="cls-20" d="m112.55,205.12h0c-2.96,1.39-6.48.11-7.86-2.84h0s-16.97-36.23-16.97-36.23c-1.39-2.96-.11-6.48,2.85-7.87s6.48-.11,7.87,2.85l16.98,36.23c1.39,2.96.11,6.48-2.85,7.86h0"/><path id="Path_600" class="cls-20" d="m93.34,213.81l-2.57-2.94c-1.65-.67-3.72-4.26-3.06-5.91l8.14-20.21c.67-1.65,3.69-1.61,5.34-.94l4.48.2c1.65.67-3.18,1.5-3.84,3.15l-8.14,20.2c-.66,1.65,1.3,7.11-.35,6.44"/><rect id="Rectangle_224" class="cls-2" x="2.76" y="104.96" width="499.67" height="425.95"/><g id="Group_259"><g class="cls-33"><g id="Group_258"><path id="Path_601" class="cls-18" d="m573.2,210.3c0,13.87-57.72,25.12-128.92,25.12s-128.91-11.25-128.91-25.12,57.72-25.12,128.91-25.12,128.92,11.25,128.92,25.12"/><path id="Path_602" class="cls-18" d="m315.36,199.24v11.06h257.83v-11.06"/><path id="Path_603" class="cls-28" d="m573.2,199.24c0,13.87-57.72,25.12-128.92,25.12s-128.91-11.25-128.91-25.12,57.72-25.12,128.91-25.12,128.92,11.25,128.92,25.12"/><path id="Path_604" class="cls-28" d="m338.11,184.27c-1.13,4.13-10.66-2.36-11.4,1.61s-6.2,9.17-7.19,9.17-.5,6.94,6.2,7.19,6.44,9.42,10.41,9.67,5.21,4.22,9.17,4.22,15.37,6.2,20.83,7.44,7.19-2.23,12.15-1.74,20.58-.7,21.07,2,0,5.18,9.67,5.18,25.29-1.24,26.53,0-6.32,7.68,8.74,3.22,22.25,11.9,29.44,11.65,2.73-16.12,7.19-15.87,7.93,2.48,12.64,3.97,8.67-1.73,14.37-1.98,9.67-6.69,10.91,4.46,3.22-2.73,5.7-4.96,5.7-9.92,9.92-7.68c4.22,2.23,8.18-1.74,8.18-2.73s3.22-16.11,9.17-9.42,16.36,29.75,14.87,14.13-6.2-26.78-9.67-25.78-25.04-22.31-29.75-21.57-13.14-3.72-13.39-6.94-7.19-9.42-9.67-9.42-7.93-1.49-7.93-6.2-3.72-12.89-9.17-12.89-12.89-5.21-13.14-6.2-5.21-4.96-7.93-4.96-1.74-.99-7.19-1.49-20.82-3.97-28.01,0-3.72,9.42-9.92,10.16-10.16-3.22-10.66,1.49-18.59,21.82-22.31,22.81-13.64-4.46-18.59.99-12.89,7.19-15.87,7.19-.5,5.7-6.69,8.68-6.94-1.72-8.68,4.59"/><path id="Path_605" class="cls-26" d="m406.45,169.5c-61.17-39.59-40.34.38-40.34.38-36.02-21.39-7.23,28.39-7.23,28.39,6.58,4.08,14.13,6.33,21.87,6.51,12.2,0,29.46-15.01,29.46-21.76s-3.75-13.51-3.75-13.51"/><path id="Path_606" class="cls-23" d="m353.05,164.7s.8-3.99-2.21-3.33,4.97,7.46,6.67,7.46,4.45-1.18,6.67.92.52,2.49,2.88,2.62-4.24-11.65-3.27-15.44,4.16-3.03,3.78-4.92-6.35,3.46-6.48,4.11c-.66,3.37,4.79,12.33,4.14,12.2s-7.46-4.32-9.16-4.19c-1.03.08-2.04.27-3.02.58"/><path id="Path_607" class="cls-31" d="m386.92,167.2c0,4.32-3.5,7.83-7.83,7.83-4.32,0-7.83-3.5-7.83-7.83,0-4.32,3.5-7.83,7.83-7.83h0c4.32,0,7.83,3.5,7.83,7.83"/><path id="Path_608" class="cls-15" d="m385.06,167.2c0,3.29-2.67,5.96-5.96,5.96s-5.96-2.67-5.96-5.96,2.67-5.96,5.96-5.96,5.96,2.67,5.96,5.96h0"/><path id="Path_609" class="cls-23" d="m370.75,186.79s5.57,14.28,8.35,13.98,8.79-2.26,9.24-2.71-4.81-15.18-7.37-15.18"/><path id="Path_610" class="cls-26" d="m371.27,185.3s4.66,10.55,6.98,10.33c2.64-.37,5.24-1.04,7.73-2,.38-.33-4.02-11.22-6.16-11.22"/><path id="Path_611" class="cls-4" d="m360.21,194.76c1.46-.09,2.92-.09,4.37,0,2.27.08,3.48.16,3.48-.73s2.51-1.46,2.51-1.46"/><path id="Path_612" class="cls-32" d="m519.13,198.03c9.63-34.77.34-34.31-1.18-34.48s1.86-5.07-3.89-8.45-10.89,3.35-14.25,2.15-16.77,8.62-16.77,8.62c0,0-6.71,12.96-6.23,15.89s1.86,21.29,14.99,21.29,27.31-5.03,27.31-5.03"/><path id="Path_613" class="cls-23" d="m499.81,158.45s-7.87-2.51-6.51-16.7c.82-8.67.76-17.4-.16-26.06,0,0,14.11,2.78,22.13,29.55,0,0,37.53-12.07,39.47-8.18s-21.98,30.73-31.31,32.87-5.73-13.48-9.38-13.64-9.89,6.06-14.25,2.15"/><path id="Path_614" class="cls-3" d="m515.05,149.11c-.37,3.64-1.09,3.58-.49,7.33"/><path id="Path_615" class="cls-3" d="m507.46,158.67s-5.52-6.03-5.46-10.79"/><path id="Path_616" class="cls-3" d="m516.43,162.9s7.72,1.88,9.43-2.99"/><path id="Path_617" class="cls-3" d="m515.84,159.18s21.47-8.79,14.68-8.63"/><path id="Path_618" class="cls-4" d="m491.82,162.57c1.6.53-.13,2.6,1.33,2.6s2.8,0,2.27,3.73,2.27,3.73,3.8,3.73,2.5-.13,2.78,1.27,1.08,2.93,3.02,2.93"/><path id="Path_619" class="cls-4" d="m506.44,171.37c1.6.53-.13,2.6,1.33,2.6s2.8,0,2.27,3.73,2.27,3.73,3.8,3.73,2.5-.13,2.78,1.27,1.08,2.93,3.02,2.93"/><path id="Path_620" class="cls-4" d="m499.83,159.71c1.6.53-.13,2.6,1.33,2.6s2.8,0,2.27,3.73,2.27,3.73,3.8,3.73,2.5-.13,2.78,1.27,1.08,2.93,3.02,2.93"/><path id="Path_621" class="cls-4" d="m507.11,159.71c1.6.53-.13,2.6,1.33,2.6s2.8,0,2.27,3.73,2.27,3.73,3.8,3.73,2.5-.13,2.78,1.27,1.08,2.93,3.02,2.93"/><path id="Path_622" class="cls-30" d="m442.02,189.41c-1.23,1.49-.13,1.89.66,1.88s1.6.58.77.86c-.34.08-.55.42-.47.76.04.15.13.29.26.38.19,0,3.55-.54,1.82-2.39s-2.38-2.28-3.04-1.48"/><path id="Path_623" class="cls-31" d="m444.24,190.06c-.25-.25-.51-.49-.8-.7-.53.53-.92,1.19-1.12,1.91.12.02.23.02.35.02.11,0,.23,0,.34.03.31-.51.73-.95,1.23-1.26"/><path id="Path_624" class="cls-31" d="m443.49,191.49c.35.19.46.48-.05.66-.08.03-.16.07-.23.12.07-.02.14-.04.22-.07.66-.2,1.37-.2,2.03,0,.14-.37.05-.8-.23-1.08-.6,0-1.2.13-1.75.37"/><path id="Path_625" class="cls-30" d="m418.26,216.93c-3.49-1.81-3.81.55-3.46,2.12s-.45,3.43-1.37,1.92c-.3-.64-1.07-.92-1.71-.61-.29.14-.52.38-.64.68.08.38,2.61,6.83,5.55,2.58s3.51-5.72,1.64-6.69"/><path id="Path_626" class="cls-31" d="m417.94,221.64c.39-.6.74-1.23,1.05-1.89-1.28-.83-2.76-1.31-4.28-1.41.02.24.05.47.1.7.05.22.08.45.08.68,1.15.39,2.2,1.04,3.05,1.91"/><path id="Path_627" class="cls-31" d="m414.76,220.78c-.24.77-.76,1.12-1.33.19-.09-.15-.2-.29-.33-.41.06.12.14.26.23.42.68,1.24.98,2.64.88,4.05.81.12,1.61-.24,2.05-.93-.28-1.19-.79-2.32-1.5-3.31"/><path id="Path_628" class="cls-30" d="m409.9,154.67c.46,3.91,2.6,2.84,3.7,1.67s3.09-1.55,2.36.06c-.36.61-.16,1.4.46,1.76.28.16.61.22.92.15.27-.28,4.18-6-.98-6.04s-6.7.31-6.45,2.4"/><path id="Path_629" class="cls-31" d="m413.98,152.29c-.72.01-1.44.08-2.15.19.04,1.53.46,3.02,1.24,4.34.19-.15.36-.31.52-.48.16-.17.33-.32.52-.45-.33-1.17-.37-2.4-.13-3.6"/><path id="Path_630" class="cls-31" d="m415.05,155.41c.77-.24,1.36,0,.9.99-.08.16-.13.33-.15.51.07-.12.14-.26.21-.42.64-1.25,1.63-2.3,2.86-3-.35-.74-1.1-1.2-1.92-1.18-.83.9-1.48,1.95-1.9,3.1"/><path id="Path_631" class="cls-30" d="m496.83,214.64c.46,3.91,2.6,2.84,3.7,1.67s3.09-1.55,2.36.06c-.36.61-.16,1.4.46,1.76.28.16.61.22.92.15.27-.28,4.18-6-.98-6.04s-6.7.31-6.45,2.4"/><path id="Path_632" class="cls-31" d="m500.91,212.26c-.72.01-1.44.08-2.15.19.04,1.53.46,3.02,1.24,4.34.19-.15.36-.31.52-.48.16-.17.33-.32.52-.45-.33-1.17-.37-2.4-.13-3.6"/><path id="Path_633" class="cls-31" d="m501.98,215.38c.77-.24,1.36,0,.9.99-.08.16-.13.33-.16.51.07-.12.14-.26.22-.42.64-1.25,1.63-2.3,2.85-3-.35-.74-1.11-1.2-1.92-1.18-.83.9-1.48,1.95-1.9,3.1"/><path id="Path_634" class="cls-12" d="m446.7,171.44s8.98-.92,10.31,0,9.75-18.17,9.75-18.17c0,0-26.99,8.31-20.07,18.17"/><path id="Path_635" class="cls-12" d="m419,185.18s3.23-2.72,9.4-2.77,2.11,2.52,8.81,0,6.86.22,8.33,0-16.11-17.2-17.41-19.3-11.56,18.06-9.13,22.06"/><path id="Path_636" class="cls-12" d="m342.04,207.32c2.05.61,3-.6,4.93-1.68s3.12-2.16,4.57-2.04.12-3.07-3.96-4.36-15.14-7.6-14.66-6.67,2.28,12.71,9.13,14.75"/><path id="Path_637" class="cls-23" d="m433.32,200.73c0,5.07-6.58,9.17-14.68,9.17s-14.68-4.11-14.68-9.17,6.58-.75,14.68-.75,14.68-4.32,14.68.75"/><path id="Path_638" class="cls-23" d="m358.89,209.79c0,.68-1.01,1.22-2.26,1.22s-2.26-.55-2.26-1.22,1.01-1.22,2.26-1.22,2.26.55,2.26,1.22"/><path id="Path_639" class="cls-23" d="m374.19,213.39c-.2.81-1.02,1.3-1.82,1.1-.81-.2-1.3-1.02-1.1-1.82.17-.67.77-1.14,1.46-1.14.91.12,1.56.95,1.46,1.87"/><path id="Path_640" class="cls-23" d="m549.95,202c0,1.53-4.52,2.77-10.09,2.77s-10.09-1.24-10.09-2.77,4.52-2.77,10.09-2.77,10.09,1.24,10.09,2.77"/><path id="Path_641" class="cls-23" d="m474.41,181.75c0,4.74-3.31,8.59-7.39,8.59s-14.54.04-14.54-4.71,10.45-3.88,14.54-3.88,7.39-4.74,7.39,0"/><path id="Path_642" class="cls-25" d="m438.42,144.15c-1.74,2.64,1.07,2.7,1.07,2.7.05-1.04.52-2.01,1.3-2.7,1.19-.75,15.49-5.29,15.37-8,0,0-15.02,3.89-17.73,8"/></g></g></g></g></svg>