<?xml version="1.0" encoding="UTF-8"?><svg id="Layer_1" xmlns="http://www.w3.org/2000/svg" viewBox="0 0 3704.57 670.92"><defs><style>.cls-1{fill:#ffa2bb;}.cls-1,.cls-2{stroke-width:0px;}.cls-2{fill:#feffe6;}</style></defs><g id="Group_121"><path id="Path_170" class="cls-1" d="m3.83,500.23l37.13,29.78c2.59,2.08,6.04,2.75,9.22,1.79l45.58-13.7c5.34-1.6,10.97,1.42,12.58,6.77.64,2.12.56,4.4-.22,6.48l-16.85,44.51c-1.17,3.11-.74,6.59,1.15,9.33l27.12,39.11c3.18,4.59,2.03,10.88-2.55,14.05-1.82,1.26-4.01,1.89-6.22,1.78l-47.55-2.26c-3.32-.16-6.51,1.33-8.52,3.97l-28.82,37.87c-3.38,4.44-9.72,5.29-14.15,1.91-1.76-1.34-3.04-3.23-3.62-5.37l-12.53-45.91c-.87-3.21-3.27-5.78-6.41-6.87l-44.93-15.7c-5.26-1.84-8.04-7.61-6.19-12.87.73-2.09,2.14-3.89,3.99-5.11l39.8-26.11c2.78-1.82,4.48-4.9,4.55-8.22l1.05-47.58c.13-5.58,4.75-10,10.33-9.87,2.22.05,4.36.83,6.09,2.22"/></g><g id="Group_121-2"><path id="Path_170-2" class="cls-1" d="m3.83,500.23l37.13,29.78c2.59,2.08,6.04,2.75,9.22,1.79l45.58-13.7c5.34-1.6,10.97,1.42,12.58,6.77.64,2.12.56,4.4-.22,6.48l-16.85,44.51c-1.17,3.11-.74,6.59,1.15,9.33l27.12,39.11c3.18,4.59,2.03,10.88-2.55,14.05-1.82,1.26-4.01,1.89-6.22,1.78l-47.55-2.26c-3.32-.16-6.51,1.33-8.52,3.97l-28.82,37.87c-3.38,4.44-9.72,5.29-14.15,1.91-1.76-1.34-3.04-3.23-3.62-5.37l-12.53-45.91c-.87-3.21-3.27-5.78-6.41-6.87l-44.93-15.7c-5.26-1.84-8.04-7.61-6.19-12.87.73-2.09,2.14-3.89,3.99-5.11l39.8-26.11c2.78-1.82,4.48-4.9,4.55-8.22l1.05-47.58c.13-5.58,4.75-10,10.33-9.87,2.22.05,4.36.83,6.09,2.22"/></g><g id="Group_56-8"><path id="Path_88-8" class="cls-1" d="m1430.27,293.67l46.62,2.22c3.26.16,6.38-1.3,8.35-3.89l28.26-37.14c3.31-4.35,9.52-5.2,13.87-1.89,1.73,1.32,2.99,3.17,3.56,5.28l12.29,45.02c.86,3.14,3.21,5.66,6.28,6.74l44.06,15.4c5.16,1.8,7.89,7.45,6.08,12.61-.72,2.06-2.1,3.82-3.92,5.02l-39.02,25.6c-2.73,1.79-4.4,4.8-4.47,8.06l-1.03,46.66c-.12,5.47-4.65,9.8-10.11,9.68-2.18-.05-4.28-.81-5.98-2.18l-36.41-29.2c-2.54-2.04-5.92-2.7-9.05-1.76l-44.69,13.44c-5.24,1.57-10.76-1.39-12.33-6.63-.63-2.09-.55-4.32.22-6.36l16.52-43.65c1.15-3.05.73-6.47-1.12-9.15l-26.59-38.36c-3.12-4.49-2-10.66,2.49-13.78,1.79-1.24,3.94-1.86,6.12-1.75"/></g><g id="Group_56-8-2"><path id="Path_88-8-2" class="cls-1" d="m1430.27,293.67l46.62,2.22c3.26.16,6.38-1.3,8.35-3.89l28.26-37.14c3.31-4.35,9.52-5.2,13.87-1.89,1.73,1.32,2.99,3.17,3.56,5.28l12.29,45.02c.86,3.14,3.21,5.66,6.28,6.74l44.06,15.4c5.16,1.8,7.89,7.45,6.08,12.61-.72,2.06-2.1,3.82-3.92,5.02l-39.02,25.6c-2.73,1.79-4.4,4.8-4.47,8.06l-1.03,46.66c-.12,5.47-4.65,9.8-10.11,9.68-2.18-.05-4.28-.81-5.98-2.18l-36.41-29.2c-2.54-2.04-5.92-2.7-9.05-1.76l-44.69,13.44c-5.24,1.57-10.76-1.39-12.33-6.63-.63-2.09-.55-4.32.22-6.36l16.52-43.65c1.15-3.05.73-6.47-1.12-9.15l-26.59-38.36c-3.12-4.49-2-10.66,2.49-13.78,1.79-1.24,3.94-1.86,6.12-1.75"/></g><g id="Group_56-8-3"><path id="Path_88-8-3" class="cls-1" d="m1345.48,234.83l46.62,2.22c3.26.16,6.38-1.3,8.35-3.89l28.26-37.14c3.31-4.35,9.52-5.2,13.87-1.89,1.73,1.32,2.99,3.17,3.56,5.28l12.29,45.02c.86,3.14,3.21,5.66,6.28,6.74l44.06,15.4c5.16,1.8,7.89,7.45,6.08,12.61-.72,2.06-2.1,3.82-3.92,5.02l-39.02,25.6c-2.73,1.79-4.4,4.8-4.47,8.06l-1.03,46.66c-.12,5.47-4.65,9.8-10.11,9.68-2.18-.05-4.28-.81-5.98-2.18l-36.41-29.2c-2.54-2.04-5.92-2.7-9.05-1.76l-44.69,13.44c-5.24,1.57-10.76-1.39-12.33-6.63-.63-2.09-.55-4.32.22-6.36l16.52-43.65c1.15-3.05.73-6.47-1.12-9.15l-26.59-38.36c-3.12-4.49-2-10.66,2.49-13.78,1.79-1.24,3.94-1.86,6.12-1.75"/></g><g id="Group_56-8-4"><path id="Path_88-8-4" class="cls-1" d="m1345.48,234.83l46.62,2.22c3.26.16,6.38-1.3,8.35-3.89l28.26-37.14c3.31-4.35,9.52-5.2,13.87-1.89,1.73,1.32,2.99,3.17,3.56,5.28l12.29,45.02c.86,3.14,3.21,5.66,6.28,6.74l44.06,15.4c5.16,1.8,7.89,7.45,6.08,12.61-.72,2.06-2.1,3.82-3.92,5.02l-39.02,25.6c-2.73,1.79-4.4,4.8-4.47,8.06l-1.03,46.66c-.12,5.47-4.65,9.8-10.11,9.68-2.18-.05-4.28-.81-5.98-2.18l-36.41-29.2c-2.54-2.04-5.92-2.7-9.05-1.76l-44.69,13.44c-5.24,1.57-10.76-1.39-12.33-6.63-.63-2.09-.55-4.32.22-6.36l16.52-43.65c1.15-3.05.73-6.47-1.12-9.15l-26.59-38.36c-3.12-4.49-2-10.66,2.49-13.78,1.79-1.24,3.94-1.86,6.12-1.75"/></g><g id="Group_56-8-5"><path id="Path_88-8-5" class="cls-1" d="m1073.84,668.9l108.73-30.36c7.59-2.12,13.65-7.84,16.21-15.29l36.64-106.76c4.29-12.51,17.91-19.17,30.42-14.88,4.99,1.71,9.27,5.02,12.18,9.41l62.45,94.03c4.36,6.57,11.67,10.57,19.55,10.69l112.87,1.85c13.22.21,23.77,11.1,23.56,24.33-.08,5.27-1.91,10.37-5.18,14.5l-70.12,88.45c-4.9,6.18-6.44,14.37-4.13,21.9l33.12,107.91c3.88,12.64-3.21,26.04-15.86,29.92-5.04,1.55-10.45,1.39-15.39-.45l-105.8-39.36c-7.39-2.75-15.65-1.69-22.11,2.84l-92.4,64.85c-10.82,7.6-25.76,4.98-33.36-5.84-3.03-4.31-4.55-9.5-4.32-14.77l4.74-112.78c.33-7.88-3.23-15.41-9.53-20.15l-90.23-67.84c-10.57-7.94-12.71-22.95-4.76-33.53,3.17-4.22,7.64-7.27,12.72-8.68"/></g><g id="Group_56-8-6"><path id="Path_88-8-6" class="cls-1" d="m1073.84,668.9l108.73-30.36c7.59-2.12,13.65-7.84,16.21-15.29l36.64-106.76c4.29-12.51,17.91-19.17,30.42-14.88,4.99,1.71,9.27,5.02,12.18,9.41l62.45,94.03c4.36,6.57,11.67,10.57,19.55,10.69l112.87,1.85c13.22.21,23.77,11.1,23.56,24.33-.08,5.27-1.91,10.37-5.18,14.5l-70.12,88.45c-4.9,6.18-6.44,14.37-4.13,21.9l33.12,107.91c3.88,12.64-3.21,26.04-15.86,29.92-5.04,1.55-10.45,1.39-15.39-.45l-105.8-39.36c-7.39-2.75-15.65-1.69-22.11,2.84l-92.4,64.85c-10.82,7.6-25.76,4.98-33.36-5.84-3.03-4.31-4.55-9.5-4.32-14.77l4.74-112.78c.33-7.88-3.23-15.41-9.53-20.15l-90.23-67.84c-10.57-7.94-12.71-22.95-4.76-33.53,3.17-4.22,7.64-7.27,12.72-8.68"/></g><g id="Group_56-8-7"><path id="Path_88-8-7" class="cls-1" d="m1213.8,405.9l77.87,81.72c5.44,5.71,13.33,8.37,21.12,7.13l111.46-17.8c13.06-2.09,25.34,6.8,27.43,19.86.83,5.2-.07,10.54-2.58,15.18l-53.67,99.31c-3.75,6.93-3.84,15.27-.26,22.29l51.39,100.51c6.02,11.77,1.36,26.2-10.41,32.22-4.69,2.4-10.05,3.19-15.23,2.23l-111.02-20.36c-7.75-1.42-15.71,1.06-21.28,6.65l-79.7,79.93c-9.33,9.37-24.5,9.39-33.86.06-3.73-3.72-6.14-8.57-6.83-13.8l-14.96-111.89c-1.04-7.81-5.87-14.61-12.89-18.18l-100.65-51.1c-11.79-5.99-16.5-20.4-10.51-32.19,2.39-4.7,6.25-8.48,11-10.75l101.78-48.8c7.11-3.41,12.09-10.09,13.31-17.88l17.5-111.52c2.05-13.07,14.29-22,27.36-19.95,5.21.82,10,3.33,13.64,7.15"/></g><g id="Group_56-8-8"><path id="Path_88-8-8" class="cls-1" d="m1213.8,405.9l77.87,81.72c5.44,5.71,13.33,8.37,21.12,7.13l111.46-17.8c13.06-2.09,25.34,6.8,27.43,19.86.83,5.2-.07,10.54-2.58,15.18l-53.67,99.31c-3.75,6.93-3.84,15.27-.26,22.29l51.39,100.51c6.02,11.77,1.36,26.2-10.41,32.22-4.69,2.4-10.05,3.19-15.23,2.23l-111.02-20.36c-7.75-1.42-15.71,1.06-21.28,6.65l-79.7,79.93c-9.33,9.37-24.5,9.39-33.86.06-3.73-3.72-6.14-8.57-6.83-13.8l-14.96-111.89c-1.04-7.81-5.87-14.61-12.89-18.18l-100.65-51.1c-11.79-5.99-16.5-20.4-10.51-32.19,2.39-4.7,6.25-8.48,11-10.75l101.78-48.8c7.11-3.41,12.09-10.09,13.31-17.88l17.5-111.52c2.05-13.07,14.29-22,27.36-19.95,5.21.82,10,3.33,13.64,7.15"/></g><g id="Group_56-8-9"><path id="Path_88-8-9" class="cls-1" d="m1426.49,535.41l77.87,81.72c5.44,5.71,13.33,8.37,21.12,7.13l111.46-17.8c13.06-2.09,25.34,6.8,27.43,19.86.83,5.2-.07,10.54-2.58,15.18l-53.67,99.31c-3.75,6.93-3.84,15.27-.26,22.29l51.39,100.51c6.02,11.77,1.36,26.2-10.41,32.22-4.69,2.4-10.05,3.19-15.23,2.23l-111.02-20.36c-7.75-1.42-15.71,1.06-21.28,6.65l-79.7,79.93c-9.33,9.37-24.5,9.39-33.86.06-3.73-3.72-6.14-8.57-6.83-13.8l-14.96-111.89c-1.04-7.81-5.87-14.61-12.89-18.18l-100.65-51.1c-11.79-5.99-16.5-20.4-10.51-32.19,2.39-4.7,6.25-8.48,11-10.75l101.78-48.8c7.11-3.41,12.09-10.09,13.31-17.88l17.5-111.52c2.05-13.07,14.29-22,27.36-19.95,5.21.82,10,3.33,13.64,7.15"/></g><g id="Group_56-8-10"><path id="Path_88-8-10" class="cls-1" d="m1426.49,535.41l77.87,81.72c5.44,5.71,13.33,8.37,21.12,7.13l111.46-17.8c13.06-2.09,25.34,6.8,27.43,19.86.83,5.2-.07,10.54-2.58,15.18l-53.67,99.31c-3.75,6.93-3.84,15.27-.26,22.29l51.39,100.51c6.02,11.77,1.36,26.2-10.41,32.22-4.69,2.4-10.05,3.19-15.23,2.23l-111.02-20.36c-7.75-1.42-15.71,1.06-21.28,6.65l-79.7,79.93c-9.33,9.37-24.5,9.39-33.86.06-3.73-3.72-6.14-8.57-6.83-13.8l-14.96-111.89c-1.04-7.81-5.87-14.61-12.89-18.18l-100.65-51.1c-11.79-5.99-16.5-20.4-10.51-32.19,2.39-4.7,6.25-8.48,11-10.75l101.78-48.8c7.11-3.41,12.09-10.09,13.31-17.88l17.5-111.52c2.05-13.07,14.29-22,27.36-19.95,5.21.82,10,3.33,13.64,7.15"/></g><g id="Group_56-8-11"><path id="Path_88-8-11" class="cls-1" d="m1585.19,348.49l27.86,109.39c1.94,7.64,7.52,13.83,14.92,16.56l105.89,39.08c12.41,4.57,18.76,18.34,14.19,30.75-1.82,4.95-5.23,9.15-9.68,11.97l-95.44,60.29c-6.66,4.21-10.83,11.43-11.14,19.31l-4.43,112.8c-.51,13.21-11.64,23.51-24.86,22.99-5.27-.21-10.32-2.14-14.37-5.51l-86.82-72.13c-6.06-5.04-14.22-6.77-21.8-4.63l-108.64,30.64c-12.73,3.59-25.96-3.81-29.55-16.54-1.43-5.07-1.15-10.48.8-15.37l41.76-104.87c2.92-7.32,2.04-15.61-2.34-22.17l-62.72-93.85c-7.35-11-4.39-25.87,6.61-33.21,4.38-2.93,9.6-4.33,14.86-3.99l112.64,7.31c7.87.51,15.48-2.88,20.36-9.07l69.88-88.65c8.18-10.39,23.24-12.18,33.63-3.99,4.14,3.26,7.09,7.8,8.39,12.91"/></g><g id="Group_56-8-12"><path id="Path_88-8-12" class="cls-1" d="m1585.19,348.49l27.86,109.39c1.94,7.64,7.52,13.83,14.92,16.56l105.89,39.08c12.41,4.57,18.76,18.34,14.19,30.75-1.82,4.95-5.23,9.15-9.68,11.97l-95.44,60.29c-6.66,4.21-10.83,11.43-11.14,19.31l-4.43,112.8c-.51,13.21-11.64,23.51-24.86,22.99-5.27-.21-10.32-2.14-14.37-5.51l-86.82-72.13c-6.06-5.04-14.22-6.77-21.8-4.63l-108.64,30.64c-12.73,3.59-25.96-3.81-29.55-16.54-1.43-5.07-1.15-10.48.8-15.37l41.76-104.87c2.92-7.32,2.04-15.61-2.34-22.17l-62.72-93.85c-7.35-11-4.39-25.87,6.61-33.21,4.38-2.93,9.6-4.33,14.86-3.99l112.64,7.31c7.87.51,15.48-2.88,20.36-9.07l69.88-88.65c8.18-10.39,23.24-12.18,33.63-3.99,4.14,3.26,7.09,7.8,8.39,12.91"/></g><g id="Group_56-8-13"><path id="Path_88-8-13" class="cls-1" d="m1662.36,160.8l100.87,105.85c7.04,7.39,17.27,10.84,27.35,9.23l144.37-23.06c16.91-2.71,32.82,8.81,35.53,25.72,1.08,6.74-.1,13.65-3.34,19.66l-69.52,128.63c-4.85,8.98-4.98,19.78-.33,28.87l66.56,130.18c7.8,15.25,1.77,33.94-13.48,41.74-6.08,3.11-13.01,4.13-19.73,2.89l-143.8-26.37c-10.04-1.84-20.35,1.38-27.56,8.61l-103.24,103.53c-12.09,12.13-31.73,12.17-43.86.08-4.84-4.82-7.95-11.1-8.85-17.87l-19.38-144.92c-1.35-10.12-7.6-18.93-16.7-23.55l-130.37-66.19c-15.27-7.75-21.37-26.42-13.61-41.7,3.09-6.08,8.1-10.98,14.25-13.93l131.84-63.21c9.21-4.41,15.65-13.07,17.24-23.16l22.67-144.45c2.65-16.92,18.52-28.49,35.44-25.84,6.75,1.06,12.96,4.31,17.67,9.26"/></g><g id="Group_56-8-14"><path id="Path_88-8-14" class="cls-1" d="m1662.36,160.8l100.87,105.85c7.04,7.39,17.27,10.84,27.35,9.23l144.37-23.06c16.91-2.71,32.82,8.81,35.53,25.72,1.08,6.74-.1,13.65-3.34,19.66l-69.52,128.63c-4.85,8.98-4.98,19.78-.33,28.87l66.56,130.18c7.8,15.25,1.77,33.94-13.48,41.74-6.08,3.11-13.01,4.13-19.73,2.89l-143.8-26.37c-10.04-1.84-20.35,1.38-27.56,8.61l-103.24,103.53c-12.09,12.13-31.73,12.17-43.86.08-4.84-4.82-7.95-11.1-8.85-17.87l-19.38-144.92c-1.35-10.12-7.6-18.93-16.7-23.55l-130.37-66.19c-15.27-7.75-21.37-26.42-13.61-41.7,3.09-6.08,8.1-10.98,14.25-13.93l131.84-63.21c9.21-4.41,15.65-13.07,17.24-23.16l22.67-144.45c2.65-16.92,18.52-28.49,35.44-25.84,6.75,1.06,12.96,4.31,17.67,9.26"/></g><g id="Group_56-8-15"><path id="Path_88-8-15" class="cls-1" d="m1669.17,456.69l77.87,81.72c5.44,5.71,13.33,8.37,21.12,7.13l111.46-17.8c13.06-2.09,25.34,6.8,27.43,19.86.83,5.2-.07,10.54-2.58,15.18l-53.67,99.31c-3.75,6.93-3.84,15.27-.26,22.29l51.39,100.51c6.02,11.77,1.36,26.2-10.41,32.22-4.69,2.4-10.05,3.19-15.23,2.23l-111.02-20.36c-7.75-1.42-15.71,1.06-21.28,6.65l-79.7,79.93c-9.33,9.37-24.5,9.39-33.86.06-3.73-3.72-6.14-8.57-6.83-13.8l-14.96-111.89c-1.04-7.81-5.87-14.61-12.89-18.18l-100.65-51.1c-11.79-5.99-16.5-20.4-10.51-32.19,2.39-4.7,6.25-8.48,11-10.75l101.78-48.8c7.11-3.41,12.09-10.09,13.31-17.88l17.5-111.52c2.05-13.07,14.29-22,27.36-19.95,5.21.82,10,3.33,13.64,7.15"/></g><g id="Group_56-8-16"><path id="Path_88-8-16" class="cls-1" d="m1669.17,456.69l77.87,81.72c5.44,5.71,13.33,8.37,21.12,7.13l111.46-17.8c13.06-2.09,25.34,6.8,27.43,19.86.83,5.2-.07,10.54-2.58,15.18l-53.67,99.31c-3.75,6.93-3.84,15.27-.26,22.29l51.39,100.51c6.02,11.77,1.36,26.2-10.41,32.22-4.69,2.4-10.05,3.19-15.23,2.23l-111.02-20.36c-7.75-1.42-15.71,1.06-21.28,6.65l-79.7,79.93c-9.33,9.37-24.5,9.39-33.86.06-3.73-3.72-6.14-8.57-6.83-13.8l-14.96-111.89c-1.04-7.81-5.87-14.61-12.89-18.18l-100.65-51.1c-11.79-5.99-16.5-20.4-10.51-32.19,2.39-4.7,6.25-8.48,11-10.75l101.78-48.8c7.11-3.41,12.09-10.09,13.31-17.88l17.5-111.52c2.05-13.07,14.29-22,27.36-19.95,5.21.82,10,3.33,13.64,7.15"/></g><g id="Group_56-8-17"><path id="Path_88-8-17" class="cls-1" d="m475.54,258.39l77.87,81.72c5.44,5.71,13.33,8.37,21.12,7.13l111.46-17.8c13.06-2.09,25.34,6.8,27.43,19.86.83,5.2-.07,10.54-2.58,15.18l-53.67,99.31c-3.75,6.93-3.84,15.27-.26,22.29l51.39,100.51c6.02,11.77,1.36,26.2-10.41,32.22-4.69,2.4-10.05,3.19-15.23,2.23l-111.02-20.36c-7.75-1.42-15.71,1.06-21.28,6.65l-79.7,79.93c-9.33,9.37-24.5,9.39-33.86.06-3.73-3.72-6.14-8.57-6.83-13.8l-14.96-111.89c-1.04-7.81-5.87-14.61-12.89-18.18l-100.65-51.1c-11.79-5.99-16.5-20.4-10.51-32.19,2.39-4.7,6.25-8.48,11-10.75l101.78-48.8c7.11-3.41,12.09-10.09,13.31-17.88l17.5-111.52c2.05-13.07,14.29-22,27.36-19.95,5.21.82,10,3.33,13.64,7.15"/></g><g id="Group_56-8-18"><path id="Path_88-8-18" class="cls-1" d="m475.54,258.39l77.87,81.72c5.44,5.71,13.33,8.37,21.12,7.13l111.46-17.8c13.06-2.09,25.34,6.8,27.43,19.86.83,5.2-.07,10.54-2.58,15.18l-53.67,99.31c-3.75,6.93-3.84,15.27-.26,22.29l51.39,100.51c6.02,11.77,1.36,26.2-10.41,32.22-4.69,2.4-10.05,3.19-15.23,2.23l-111.02-20.36c-7.75-1.42-15.71,1.06-21.28,6.65l-79.7,79.93c-9.33,9.37-24.5,9.39-33.86.06-3.73-3.72-6.14-8.57-6.83-13.8l-14.96-111.89c-1.04-7.81-5.87-14.61-12.89-18.18l-100.65-51.1c-11.79-5.99-16.5-20.4-10.51-32.19,2.39-4.7,6.25-8.48,11-10.75l101.78-48.8c7.11-3.41,12.09-10.09,13.31-17.88l17.5-111.52c2.05-13.07,14.29-22,27.36-19.95,5.21.82,10,3.33,13.64,7.15"/></g><g id="Group_56-8-19"><path id="Path_88-8-19" class="cls-1" d="m651.67,224.06l77.87,81.72c5.44,5.71,13.33,8.37,21.12,7.13l111.46-17.8c13.06-2.09,25.34,6.8,27.43,19.86.83,5.2-.07,10.54-2.58,15.18l-53.67,99.31c-3.75,6.93-3.84,15.27-.26,22.29l51.39,100.51c6.02,11.77,1.36,26.2-10.41,32.22-4.69,2.4-10.05,3.19-15.23,2.23l-111.02-20.36c-7.75-1.42-15.71,1.06-21.28,6.65l-79.7,79.93c-9.33,9.37-24.5,9.39-33.86.06-3.73-3.72-6.14-8.57-6.83-13.8l-14.96-111.89c-1.04-7.81-5.87-14.61-12.89-18.18l-100.65-51.1c-11.79-5.99-16.5-20.4-10.51-32.19,2.39-4.7,6.25-8.48,11-10.75l101.78-48.8c7.11-3.41,12.09-10.09,13.31-17.88l17.5-111.52c2.05-13.07,14.29-22,27.36-19.95,5.21.82,10,3.33,13.64,7.15"/></g><g id="Group_56-8-20"><path id="Path_88-8-20" class="cls-1" d="m651.67,224.06l77.87,81.72c5.44,5.71,13.33,8.37,21.12,7.13l111.46-17.8c13.06-2.09,25.34,6.8,27.43,19.86.83,5.2-.07,10.54-2.58,15.18l-53.67,99.31c-3.75,6.93-3.84,15.27-.26,22.29l51.39,100.51c6.02,11.77,1.36,26.2-10.41,32.22-4.69,2.4-10.05,3.19-15.23,2.23l-111.02-20.36c-7.75-1.42-15.71,1.06-21.28,6.65l-79.7,79.93c-9.33,9.37-24.5,9.39-33.86.06-3.73-3.72-6.14-8.57-6.83-13.8l-14.96-111.89c-1.04-7.81-5.87-14.61-12.89-18.18l-100.65-51.1c-11.79-5.99-16.5-20.4-10.51-32.19,2.39-4.7,6.25-8.48,11-10.75l101.78-48.8c7.11-3.41,12.09-10.09,13.31-17.88l17.5-111.52c2.05-13.07,14.29-22,27.36-19.95,5.21.82,10,3.33,13.64,7.15"/></g><g id="Group_56-8-21"><path id="Path_88-8-21" class="cls-1" d="m1258.28,224.06l77.87,81.72c5.44,5.71,13.33,8.37,21.12,7.13l111.46-17.8c13.06-2.09,25.34,6.8,27.43,19.86.83,5.2-.07,10.54-2.58,15.18l-53.67,99.31c-3.75,6.93-3.84,15.27-.26,22.29l51.39,100.51c6.02,11.77,1.36,26.2-10.41,32.22-4.69,2.4-10.05,3.19-15.23,2.23l-111.02-20.36c-7.75-1.42-15.71,1.06-21.28,6.65l-79.7,79.93c-9.33,9.37-24.5,9.39-33.86.06-3.73-3.72-6.14-8.57-6.83-13.8l-14.96-111.89c-1.04-7.81-5.87-14.61-12.89-18.18l-100.65-51.1c-11.79-5.99-16.5-20.4-10.51-32.19,2.39-4.7,6.25-8.48,11-10.75l101.78-48.8c7.11-3.41,12.09-10.09,13.31-17.88l17.5-111.52c2.05-13.07,14.29-22,27.36-19.95,5.21.82,10,3.33,13.64,7.15"/></g><g id="Group_56-8-22"><path id="Path_88-8-22" class="cls-1" d="m1258.28,224.06l77.87,81.72c5.44,5.71,13.33,8.37,21.12,7.13l111.46-17.8c13.06-2.09,25.34,6.8,27.43,19.86.83,5.2-.07,10.54-2.58,15.18l-53.67,99.31c-3.75,6.93-3.84,15.27-.26,22.29l51.39,100.51c6.02,11.77,1.36,26.2-10.41,32.22-4.69,2.4-10.05,3.19-15.23,2.23l-111.02-20.36c-7.75-1.42-15.71,1.06-21.28,6.65l-79.7,79.93c-9.33,9.37-24.5,9.39-33.86.06-3.73-3.72-6.14-8.57-6.83-13.8l-14.96-111.89c-1.04-7.81-5.87-14.61-12.89-18.18l-100.65-51.1c-11.79-5.99-16.5-20.4-10.51-32.19,2.39-4.7,6.25-8.48,11-10.75l101.78-48.8c7.11-3.41,12.09-10.09,13.31-17.88l17.5-111.52c2.05-13.07,14.29-22,27.36-19.95,5.21.82,10,3.33,13.64,7.15"/></g><g id="Group_56-8-23"><path id="Path_88-8-23" class="cls-1" d="m60.41,535.41l77.87,81.72c5.44,5.71,13.33,8.37,21.12,7.13l111.46-17.8c13.06-2.09,25.34,6.8,27.43,19.86.83,5.2-.07,10.54-2.58,15.18l-53.67,99.31c-3.75,6.93-3.84,15.27-.26,22.29l51.39,100.51c6.02,11.77,1.36,26.2-10.41,32.22-4.69,2.4-10.05,3.19-15.23,2.23l-111.02-20.36c-7.75-1.42-15.71,1.06-21.28,6.65l-79.7,79.93c-9.33,9.37-24.5,9.39-33.86.06-3.73-3.72-6.14-8.57-6.83-13.8L-.13,838.65c-1.04-7.81-5.87-14.61-12.89-18.18l-100.65-51.1c-11.79-5.99-16.5-20.4-10.51-32.19,2.39-4.7,6.25-8.48,11-10.75l101.78-48.8c7.11-3.41,12.09-10.09,13.31-17.88l17.5-111.52c2.05-13.07,14.29-22,27.36-19.95,5.21.82,10,3.33,13.64,7.15"/></g><g id="Group_56-8-24"><path id="Path_88-8-24" class="cls-1" d="m60.41,535.41l77.87,81.72c5.44,5.71,13.33,8.37,21.12,7.13l111.46-17.8c13.06-2.09,25.34,6.8,27.43,19.86.83,5.2-.07,10.54-2.58,15.18l-53.67,99.31c-3.75,6.93-3.84,15.27-.26,22.29l51.39,100.51c6.02,11.77,1.36,26.2-10.41,32.22-4.69,2.4-10.05,3.19-15.23,2.23l-111.02-20.36c-7.75-1.42-15.71,1.06-21.28,6.65l-79.7,79.93c-9.33,9.37-24.5,9.39-33.86.06-3.73-3.72-6.14-8.57-6.83-13.8L-.13,838.65c-1.04-7.81-5.87-14.61-12.89-18.18l-100.65-51.1c-11.79-5.99-16.5-20.4-10.51-32.19,2.39-4.7,6.25-8.48,11-10.75l101.78-48.8c7.11-3.41,12.09-10.09,13.31-17.88l17.5-111.52c2.05-13.07,14.29-22,27.36-19.95,5.21.82,10,3.33,13.64,7.15"/></g><g id="Group_56-8-25"><path id="Path_88-8-25" class="cls-1" d="m339.73,258.39l77.87,81.72c5.44,5.71,13.33,8.37,21.12,7.13l111.46-17.8c13.06-2.09,25.34,6.8,27.43,19.86.83,5.2-.07,10.54-2.58,15.18l-53.67,99.31c-3.75,6.93-3.84,15.27-.26,22.29l51.39,100.51c6.02,11.77,1.36,26.2-10.41,32.22-4.69,2.4-10.05,3.19-15.23,2.23l-111.02-20.36c-7.75-1.42-15.71,1.06-21.28,6.65l-79.7,79.93c-9.33,9.37-24.5,9.39-33.86.06-3.73-3.72-6.14-8.57-6.83-13.8l-14.96-111.89c-1.04-7.81-5.87-14.61-12.89-18.18l-100.65-51.1c-11.79-5.99-16.5-20.4-10.51-32.19,2.39-4.7,6.25-8.48,11-10.75l101.78-48.8c7.11-3.41,12.09-10.09,13.31-17.88l17.5-111.52c2.05-13.07,14.29-22,27.36-19.95,5.21.82,10,3.33,13.64,7.15"/></g><g id="Group_56-8-26"><path id="Path_88-8-26" class="cls-1" d="m339.73,258.39l77.87,81.72c5.44,5.71,13.33,8.37,21.12,7.13l111.46-17.8c13.06-2.09,25.34,6.8,27.43,19.86.83,5.2-.07,10.54-2.58,15.18l-53.67,99.31c-3.75,6.93-3.84,15.27-.26,22.29l51.39,100.51c6.02,11.77,1.36,26.2-10.41,32.22-4.69,2.4-10.05,3.19-15.23,2.23l-111.02-20.36c-7.75-1.42-15.71,1.06-21.28,6.65l-79.7,79.93c-9.33,9.37-24.5,9.39-33.86.06-3.73-3.72-6.14-8.57-6.83-13.8l-14.96-111.89c-1.04-7.81-5.87-14.61-12.89-18.18l-100.65-51.1c-11.79-5.99-16.5-20.4-10.51-32.19,2.39-4.7,6.25-8.48,11-10.75l101.78-48.8c7.11-3.41,12.09-10.09,13.31-17.88l17.5-111.52c2.05-13.07,14.29-22,27.36-19.95,5.21.82,10,3.33,13.64,7.15"/></g><g id="Group_56-8-27"><path id="Path_88-8-27" class="cls-2" d="m931.82,656.37l46.62,2.22c3.26.16,6.38-1.3,8.35-3.89l28.26-37.14c3.31-4.35,9.52-5.2,13.87-1.89,1.73,1.32,2.99,3.17,3.56,5.28l12.29,45.02c.86,3.14,3.21,5.66,6.28,6.74l44.06,15.4c5.16,1.8,7.89,7.45,6.08,12.61-.72,2.06-2.1,3.82-3.92,5.02l-39.02,25.6c-2.73,1.79-4.4,4.8-4.47,8.06l-1.03,46.66c-.12,5.47-4.65,9.8-10.11,9.68-2.18-.05-4.28-.81-5.98-2.18l-36.41-29.2c-2.54-2.04-5.92-2.7-9.05-1.76l-44.69,13.44c-5.24,1.57-10.76-1.39-12.33-6.63-.63-2.09-.55-4.32.22-6.36l16.52-43.65c1.15-3.05.73-6.47-1.12-9.15l-26.59-38.36c-3.12-4.49-2-10.66,2.49-13.78,1.79-1.24,3.94-1.86,6.12-1.75"/></g><g id="Group_56-8-28"><path id="Path_88-8-28" class="cls-1" d="m931.82,656.37l46.62,2.22c3.26.16,6.38-1.3,8.35-3.89l28.26-37.14c3.31-4.35,9.52-5.2,13.87-1.89,1.73,1.32,2.99,3.17,3.56,5.28l12.29,45.02c.86,3.14,3.21,5.66,6.28,6.74l44.06,15.4c5.16,1.8,7.89,7.45,6.08,12.61-.72,2.06-2.1,3.82-3.92,5.02l-39.02,25.6c-2.73,1.79-4.4,4.8-4.47,8.06l-1.03,46.66c-.12,5.47-4.65,9.8-10.11,9.68-2.18-.05-4.28-.81-5.98-2.18l-36.41-29.2c-2.54-2.04-5.92-2.7-9.05-1.76l-44.69,13.44c-5.24,1.57-10.76-1.39-12.33-6.63-.63-2.09-.55-4.32.22-6.36l16.52-43.65c1.15-3.05.73-6.47-1.12-9.15l-26.59-38.36c-3.12-4.49-2-10.66,2.49-13.78,1.79-1.24,3.94-1.86,6.12-1.75"/></g><path class="cls-1" d="m1259.76,756.91l-93.86-17.03c-6.55-1.19-12.1-5.53-14.84-11.6l-12.76-28.32,1.11-50.37c.1-4.34,2.32-8.35,5.95-10.73l51.95-34.09c2.43-1.59,4.26-3.94,5.21-6.68,2.4-6.87-1.22-14.39-8.1-16.79l-58.65-20.51c-4.1-1.43-7.23-4.79-8.37-8.97l-16.36-59.94c-.76-2.8-2.43-5.27-4.74-7.02-5.79-4.41-14.07-3.29-18.47,2.51l-37.63,49.45c-2.63,3.45-6.78,5.39-11.12,5.18l-62.07-2.96h0c-2.9-.14-5.76.68-8.14,2.33-5.98,4.15-7.47,12.36-3.33,18.35l8.54,12.32-42.22-3.9c-6.63-.61-12.54-4.45-15.79-10.26l-46.62-83.21c-2.18-3.88-5.57-6.94-9.66-8.7-10.27-4.42-22.17.33-26.59,10.59l-37.69,87.62c-2.63,6.12-8.11,10.55-14.64,11.85l-42.51,8.46-37.39-82.99c-1.83-4.06-4.94-7.4-8.86-9.51-9.84-5.3-22.12-1.61-27.41,8.23l-45.2,84c-3.16,5.87-9,9.8-15.62,10.53l-67.12,7.35-18.62-41.33c-1.83-4.06-4.94-7.4-8.86-9.51-9.84-5.3-22.12-1.61-27.41,8.23l-7,13-17.35.22c1.35-8.08-.67-16.65-7.03-23.77l-9.11-10.21,12.25-9.14c2.61-1.95,6.02-2.49,9.1-1.44l44.2,14.99c2.06.7,4.3.7,6.36,0,5.18-1.76,7.95-7.38,6.19-12.56l-14.98-44.2c-1.05-3.09-.51-6.49,1.44-9.1l27.91-37.41c1.3-1.75,2-3.88,1.97-6.05-.07-5.47-4.56-9.84-10.03-9.77l-46.67.6c-3.26.04-6.33-1.52-8.21-4.18l-26.95-38.1c-1.26-1.78-3.07-3.09-5.15-3.74-5.22-1.62-10.77,1.29-12.39,6.52l-13.85,44.57c-.97,3.11-3.4,5.55-6.52,6.52l-43.95,13.66-10.35-11.6c-6.87-7.62-9.15-18.34-5.98-28.1l45.16-141.26c7.94-24.84-18-46.38-43.9-36.45l-147.26,56.47c-10.13,3.96-21.52,3.03-30.88-2.51L39.35,207.5c-22.79-13.88-53.75,3.04-52.39,28.63l7.72,145.55c.54,10.16-4.36,20.09-13.11,26.55l-125.25,92.46h0c-22.02,16.26-15.22,48.26,11.52,54.15l152.03,33.49c10.62,2.34,19.14,9.42,22.78,18.92l52.18,136.09c9.18,23.93,44.35,26.79,59.51,4.83l4.14-6c6.41,5.45,15.81,6.53,23.45,2l81.99-48.73c5.73-3.4,12.76-3.77,18.81-.98l48.67,22.43,48.37,50.58c4.6,4.81,6.54,11.59,5.18,18.11l-19.42,93.39h0c-.91,4.36-.35,8.89,1.58,12.9,4.85,10.07,16.95,14.3,27.02,9.46l85.94-41.39c6-2.89,13.04-2.64,18.83.66l82.82,47.33c3.86,2.21,8.35,3.08,12.76,2.48,11.08-1.5,18.84-11.7,17.34-22.77l-7.93-58.55,59.03-28.43c6-2.89,13.04-2.64,18.83.66l82.82,47.33c3.86,2.21,8.35,3.08,12.76,2.48,11.08-1.5,18.84-11.7,17.34-22.77l-1.87-13.83,64.87-38.55c5.73-3.4,12.76-3.77,18.81-.98l48.66,22.43,48.37,50.59c4.6,4.81,6.54,11.59,5.18,18.11l-19.42,93.39h0c-.91,4.36-.35,8.89,1.58,12.9,4.85,10.07,16.95,14.3,27.02,9.46l85.94-41.39c6-2.89,13.04-2.64,18.83.66l82.82,47.33c3.86,2.21,8.35,3.08,12.76,2.48,11.08-1.5,18.84-11.7,17.34-22.77l-12.81-94.52c-.89-6.6,1.52-13.22,6.45-17.7l70.61-64.14c3.3-2.99,5.51-6.99,6.31-11.37,1.99-11-5.3-21.53-16.3-23.53Zm-229.35-32.87c-3.16,5.87-9,9.8-15.62,10.53l-35.62,3.9-8.9-39.43c-1.47-6.5.36-13.3,4.88-18.19l9.17-9.92-3.84,10.15c-1.02,2.71-1.13,5.68-.29,8.46,2.1,6.97,9.45,10.93,16.42,8.83l56.81-17.07-23,42.75Z"/><path class="cls-1" d="m1259.76,756.91l-93.86-17.03c-6.55-1.19-12.1-5.53-14.84-11.6l-12.76-28.32,1.11-50.37c.1-4.34,2.32-8.35,5.95-10.73l51.95-34.09c2.43-1.59,4.26-3.94,5.21-6.68,2.4-6.87-1.22-14.39-8.1-16.79l-58.65-20.51c-4.1-1.43-7.23-4.79-8.37-8.97l-16.36-59.94c-.76-2.8-2.43-5.27-4.74-7.02-5.79-4.41-14.07-3.29-18.47,2.51l-37.63,49.45c-2.63,3.45-6.78,5.39-11.12,5.18l-62.07-2.96h0c-2.9-.14-5.76.68-8.14,2.33-5.98,4.15-7.47,12.36-3.33,18.35l8.54,12.32-42.22-3.9c-6.63-.61-12.54-4.45-15.79-10.26l-46.62-83.21c-2.18-3.88-5.57-6.94-9.66-8.7-10.27-4.42-22.17.33-26.59,10.59l-37.69,87.62c-2.63,6.12-8.11,10.55-14.64,11.85l-42.51,8.46-37.39-82.99c-1.83-4.06-4.94-7.4-8.86-9.51-9.84-5.3-22.12-1.61-27.41,8.23l-45.2,84c-3.16,5.87-9,9.8-15.62,10.53l-67.12,7.35-18.62-41.33c-1.83-4.06-4.94-7.4-8.86-9.51-9.84-5.3-22.12-1.61-27.41,8.23l-7,13-17.35.22c1.35-8.08-.67-16.65-7.03-23.77l-9.11-10.21,12.25-9.14c2.61-1.95,6.02-2.49,9.1-1.44l44.2,14.99c2.06.7,4.3.7,6.36,0,5.18-1.76,7.95-7.38,6.19-12.56l-14.98-44.2c-1.05-3.09-.51-6.49,1.44-9.1l27.91-37.41c1.3-1.75,2-3.88,1.97-6.05-.07-5.47-4.56-9.84-10.03-9.77l-46.67.6c-3.26.04-6.33-1.52-8.21-4.18l-26.95-38.1c-1.26-1.78-3.07-3.09-5.15-3.74-5.22-1.62-10.77,1.29-12.39,6.52l-13.85,44.57c-.97,3.11-3.4,5.55-6.52,6.52l-43.95,13.66-10.35-11.6c-6.87-7.62-9.15-18.34-5.98-28.1l45.16-141.26c7.94-24.84-18-46.38-43.9-36.45l-147.26,56.47c-10.13,3.96-21.52,3.03-30.88-2.51L39.35,207.5c-22.79-13.88-53.75,3.04-52.39,28.63l7.72,145.55c.54,10.16-4.36,20.09-13.11,26.55l-125.25,92.46h0c-22.02,16.26-15.22,48.26,11.52,54.15l152.03,33.49c10.62,2.34,19.14,9.42,22.78,18.92l52.18,136.09c9.18,23.93,44.35,26.79,59.51,4.83l4.14-6c6.41,5.45,15.81,6.53,23.45,2l81.99-48.73c5.73-3.4,12.76-3.77,18.81-.98l48.67,22.43,48.37,50.58c4.6,4.81,6.54,11.59,5.18,18.11l-19.42,93.39h0c-.91,4.36-.35,8.89,1.58,12.9,4.85,10.07,16.95,14.3,27.02,9.46l85.94-41.39c6-2.89,13.04-2.64,18.83.66l82.82,47.33c3.86,2.21,8.35,3.08,12.76,2.48,11.08-1.5,18.84-11.7,17.34-22.77l-7.93-58.55,59.03-28.43c6-2.89,13.04-2.64,18.83.66l82.82,47.33c3.86,2.21,8.35,3.08,12.76,2.48,11.08-1.5,18.84-11.7,17.34-22.77l-1.87-13.83,64.87-38.55c5.73-3.4,12.76-3.77,18.81-.98l48.66,22.43,48.37,50.59c4.6,4.81,6.54,11.59,5.18,18.11l-19.42,93.39h0c-.91,4.36-.35,8.89,1.58,12.9,4.85,10.07,16.95,14.3,27.02,9.46l85.94-41.39c6-2.89,13.04-2.64,18.83.66l82.82,47.33c3.86,2.21,8.35,3.08,12.76,2.48,11.08-1.5,18.84-11.7,17.34-22.77l-12.81-94.52c-.89-6.6,1.52-13.22,6.45-17.7l70.61-64.14c3.3-2.99,5.51-6.99,6.31-11.37,1.99-11-5.3-21.53-16.3-23.53Zm-229.35-32.87c-3.16,5.87-9,9.8-15.62,10.53l-35.62,3.9-8.9-39.43c-1.47-6.5.36-13.3,4.88-18.19l9.17-9.92-3.84,10.15c-1.02,2.71-1.13,5.68-.29,8.46,2.1,6.97,9.45,10.93,16.42,8.83l56.81-17.07-23,42.75Z"/><g id="Group_56-8-29"><path id="Path_88-8-29" class="cls-1" d="m1098.82,166.7l-20.11,42.12c-1.4,2.94-1.27,6.38.35,9.21l23.28,40.44c2.73,4.74,1.1,10.79-3.64,13.52-1.89,1.09-4.08,1.52-6.24,1.24l-46.27-6.12c-3.23-.43-6.46.76-8.65,3.18l-31.27,34.65c-3.66,4.06-9.92,4.38-13.98.72-1.62-1.46-2.71-3.41-3.11-5.56l-8.48-45.89c-.59-3.21-2.72-5.91-5.7-7.24l-42.61-19.03c-4.99-2.23-7.24-8.08-5.01-13.07.89-1.99,2.41-3.63,4.32-4.67l41.03-22.25c2.86-1.55,4.78-4.42,5.13-7.66l4.93-46.41c.58-5.44,5.45-9.38,10.89-8.8,2.17.23,4.2,1.17,5.77,2.67l33.84,32.14c2.36,2.25,5.68,3.18,8.87,2.51l45.66-9.65c5.35-1.13,10.6,2.28,11.74,7.63.45,2.13.19,4.35-.75,6.32"/></g><g id="Group_56-8-30"><path id="Path_88-8-30" class="cls-1" d="m1098.82,166.7l-20.11,42.12c-1.4,2.94-1.27,6.38.35,9.21l23.28,40.44c2.73,4.74,1.1,10.79-3.64,13.52-1.89,1.09-4.08,1.52-6.24,1.24l-46.27-6.12c-3.23-.43-6.46.76-8.65,3.18l-31.27,34.65c-3.66,4.06-9.92,4.38-13.98.72-1.62-1.46-2.71-3.41-3.11-5.56l-8.48-45.89c-.59-3.21-2.72-5.91-5.7-7.24l-42.61-19.03c-4.99-2.23-7.24-8.08-5.01-13.07.89-1.99,2.41-3.63,4.32-4.67l41.03-22.25c2.86-1.55,4.78-4.42,5.13-7.66l4.93-46.41c.58-5.44,5.45-9.38,10.89-8.8,2.17.23,4.2,1.17,5.77,2.67l33.84,32.14c2.36,2.25,5.68,3.18,8.87,2.51l45.66-9.65c5.35-1.13,10.6,2.28,11.74,7.63.45,2.13.19,4.35-.75,6.32"/></g><g id="Group_56-8-31"><path id="Path_88-8-31" class="cls-1" d="m658.78,350.55l-34.78,31.12c-2.43,2.17-3.63,5.4-3.22,8.63l5.91,46.29c.69,5.42-3.14,10.38-8.56,11.08-2.16.28-4.35-.17-6.24-1.26l-40.34-23.47c-2.82-1.64-6.26-1.79-9.21-.4l-42.2,19.93c-4.94,2.34-10.84.22-13.18-4.72-.93-1.97-1.19-4.19-.73-6.32l9.86-45.61c.69-3.19-.24-6.51-2.47-8.88l-31.99-33.98c-3.75-3.98-3.56-10.24.42-13.99,1.59-1.49,3.62-2.42,5.79-2.64l46.43-4.73c3.24-.33,6.11-2.23,7.68-5.09l22.43-40.93c2.63-4.79,8.64-6.55,13.44-3.92,1.91,1.05,3.42,2.69,4.3,4.69l18.84,42.7c1.32,2.98,4.01,5.13,7.22,5.73l45.86,8.68c5.37,1.02,8.9,6.19,7.89,11.57-.4,2.14-1.51,4.09-3.13,5.54"/></g><g id="Group_56-8-32"><path id="Path_88-8-32" class="cls-1" d="m658.78,350.55l-34.78,31.12c-2.43,2.17-3.63,5.4-3.22,8.63l5.91,46.29c.69,5.42-3.14,10.38-8.56,11.08-2.16.28-4.35-.17-6.24-1.26l-40.34-23.47c-2.82-1.64-6.26-1.79-9.21-.4l-42.2,19.93c-4.94,2.34-10.84.22-13.18-4.72-.93-1.97-1.19-4.19-.73-6.32l9.86-45.61c.69-3.19-.24-6.51-2.47-8.88l-31.99-33.98c-3.75-3.98-3.56-10.24.42-13.99,1.59-1.49,3.62-2.42,5.79-2.64l46.43-4.73c3.24-.33,6.11-2.23,7.68-5.09l22.43-40.93c2.63-4.79,8.64-6.55,13.44-3.92,1.91,1.05,3.42,2.69,4.3,4.69l18.84,42.7c1.32,2.98,4.01,5.13,7.22,5.73l45.86,8.68c5.37,1.02,8.9,6.19,7.89,11.57-.4,2.14-1.51,4.09-3.13,5.54"/></g><g id="Group_56-8-33"><path id="Path_88-8-33" class="cls-1" d="m2414.95,267.2l28.81,13.9c2.01.97,4.37.89,6.31-.22l27.78-15.85c3.25-1.86,7.4-.73,9.26,2.53.74,1.3,1.03,2.8.83,4.28l-4.32,31.7c-.3,2.21.51,4.43,2.16,5.94l23.67,21.52c2.77,2.52,2.98,6.81.46,9.59-1,1.11-2.35,1.85-3.82,2.11l-31.48,5.69c-2.2.4-4.06,1.85-4.98,3.89l-13.16,29.16c-1.54,3.42-5.56,4.94-8.97,3.4-1.36-.61-2.48-1.66-3.19-2.98l-15.14-28.18c-1.06-1.97-3.01-3.29-5.23-3.53l-31.8-3.5c-3.73-.41-6.41-3.76-6-7.49.16-1.48.81-2.87,1.84-3.95l22.12-23.11c1.55-1.61,2.2-3.88,1.74-6.07l-6.5-31.32c-.76-3.67,1.59-7.26,5.26-8.02,1.46-.3,2.99-.12,4.33.53"/></g><g id="Group_56-8-34"><path id="Path_88-8-34" class="cls-1" d="m2414.95,267.2l28.81,13.9c2.01.97,4.37.89,6.31-.22l27.78-15.85c3.25-1.86,7.4-.73,9.26,2.53.74,1.3,1.03,2.8.83,4.28l-4.32,31.7c-.3,2.21.51,4.43,2.16,5.94l23.67,21.52c2.77,2.52,2.98,6.81.46,9.59-1,1.11-2.35,1.85-3.82,2.11l-31.48,5.69c-2.2.4-4.06,1.85-4.98,3.89l-13.16,29.16c-1.54,3.42-5.56,4.94-8.97,3.4-1.36-.61-2.48-1.66-3.19-2.98l-15.14-28.18c-1.06-1.97-3.01-3.29-5.23-3.53l-31.8-3.5c-3.73-.41-6.41-3.76-6-7.49.16-1.48.81-2.87,1.84-3.95l22.12-23.11c1.55-1.61,2.2-3.88,1.74-6.07l-6.5-31.32c-.76-3.67,1.59-7.26,5.26-8.02,1.46-.3,2.99-.12,4.33.53"/></g><g id="Group_56-8-35"><path id="Path_88-8-35" class="cls-1" d="m2944.93,361.36l28.81,13.9c2.01.97,4.37.89,6.31-.22l27.78-15.85c3.25-1.86,7.4-.73,9.26,2.53.74,1.3,1.03,2.8.83,4.28l-4.32,31.7c-.3,2.21.51,4.43,2.16,5.94l23.67,21.52c2.77,2.52,2.98,6.81.46,9.59-1,1.11-2.35,1.85-3.82,2.11l-31.48,5.69c-2.2.4-4.06,1.85-4.98,3.89l-13.16,29.16c-1.54,3.42-5.56,4.94-8.97,3.4-1.36-.61-2.48-1.66-3.19-2.98l-15.14-28.18c-1.06-1.97-3.01-3.29-5.23-3.53l-31.8-3.5c-3.73-.41-6.41-3.76-6-7.49.16-1.48.81-2.87,1.84-3.95l22.12-23.11c1.55-1.61,2.2-3.88,1.74-6.07l-6.5-31.32c-.76-3.67,1.59-7.26,5.26-8.02,1.46-.3,2.99-.12,4.33.53"/></g><g id="Group_56-8-36"><path id="Path_88-8-36" class="cls-1" d="m2944.93,361.36l28.81,13.9c2.01.97,4.37.89,6.31-.22l27.78-15.85c3.25-1.86,7.4-.73,9.26,2.53.74,1.3,1.03,2.8.83,4.28l-4.32,31.7c-.3,2.21.51,4.43,2.16,5.94l23.67,21.52c2.77,2.52,2.98,6.81.46,9.59-1,1.11-2.35,1.85-3.82,2.11l-31.48,5.69c-2.2.4-4.06,1.85-4.98,3.89l-13.16,29.16c-1.54,3.42-5.56,4.94-8.97,3.4-1.36-.61-2.48-1.66-3.19-2.98l-15.14-28.18c-1.06-1.97-3.01-3.29-5.23-3.53l-31.8-3.5c-3.73-.41-6.41-3.76-6-7.49.16-1.48.81-2.87,1.84-3.95l22.12-23.11c1.55-1.61,2.2-3.88,1.74-6.07l-6.5-31.32c-.76-3.67,1.59-7.26,5.26-8.02,1.46-.3,2.99-.12,4.33.53"/></g><g id="Group_56-8-37"><path id="Path_88-8-37" class="cls-1" d="m2956.55,243.36l9.24-9.98c.65-.7.91-1.67.7-2.59l-2.98-13.27c-.35-1.56.63-3.1,2.18-3.45.62-.14,1.27-.07,1.84.2l12.35,5.71c.86.4,1.87.35,2.68-.14l11.7-6.94c1.37-.81,3.14-.36,3.95,1.01.32.55.46,1.18.38,1.82l-1.61,13.51c-.11.94.25,1.88.96,2.51l10.22,8.98c1.2,1.05,1.32,2.88.26,4.07-.42.48-.98.8-1.61.93l-13.35,2.64c-.93.18-1.71.82-2.09,1.69l-5.39,12.49c-.63,1.46-2.33,2.14-3.79,1.51-.58-.25-1.07-.69-1.38-1.24l-6.64-11.88c-.46-.83-1.31-1.38-2.25-1.47l-13.55-1.26c-1.59-.15-2.75-1.55-2.61-3.14.06-.63.32-1.23.76-1.69"/></g><g id="Group_56-8-38"><path id="Path_88-8-38" class="cls-1" d="m2956.55,243.36l9.24-9.98c.65-.7.91-1.67.7-2.59l-2.98-13.27c-.35-1.56.63-3.1,2.18-3.45.62-.14,1.27-.07,1.84.2l12.35,5.71c.86.4,1.87.35,2.68-.14l11.7-6.94c1.37-.81,3.14-.36,3.95,1.01.32.55.46,1.18.38,1.82l-1.61,13.51c-.11.94.25,1.88.96,2.51l10.22,8.98c1.2,1.05,1.32,2.88.26,4.07-.42.48-.98.8-1.61.93l-13.35,2.64c-.93.18-1.71.82-2.09,1.69l-5.39,12.49c-.63,1.46-2.33,2.14-3.79,1.51-.58-.25-1.07-.69-1.38-1.24l-6.64-11.88c-.46-.83-1.31-1.38-2.25-1.47l-13.55-1.26c-1.59-.15-2.75-1.55-2.61-3.14.06-.63.32-1.23.76-1.69"/></g><g id="Group_56-8-39"><path id="Path_88-8-39" class="cls-1" d="m2657.03,419.5l63.21-68.29c4.41-4.77,6.2-11.4,4.77-17.74l-20.4-90.78c-2.39-10.63,4.29-21.2,14.92-23.59,4.24-.95,8.67-.48,12.62,1.34l84.47,39.03c5.9,2.73,12.76,2.37,18.35-.94l80.03-47.47c9.37-5.56,21.48-2.48,27.05,6.9,2.22,3.74,3.14,8.1,2.63,12.42l-11.01,92.39c-.77,6.45,1.69,12.87,6.57,17.16l69.87,61.44c8.19,7.2,8.99,19.67,1.8,27.86-2.87,3.26-6.73,5.49-11,6.33l-91.28,18.09c-6.37,1.26-11.72,5.58-14.29,11.55l-36.84,85.44c-4.32,10.01-15.93,14.63-25.94,10.31-3.99-1.72-7.3-4.71-9.42-8.5l-45.41-81.22c-3.17-5.67-8.93-9.42-15.4-10.02l-92.65-8.64c-10.85-1.01-18.84-10.62-17.83-21.48.4-4.33,2.22-8.4,5.17-11.59"/></g><g id="Group_56-8-40"><path id="Path_88-8-40" class="cls-1" d="m2416.08,129.41l12.26,5.91c.86.41,1.86.38,2.68-.09l11.82-6.74c1.38-.79,3.15-.31,3.94,1.07.32.55.44,1.19.35,1.82l-1.84,13.48c-.13.94.22,1.89.92,2.52l10.07,9.15c1.18,1.07,1.27,2.9.19,4.08-.43.47-1,.79-1.62.9l-13.39,2.42c-.94.17-1.73.79-2.12,1.65l-5.6,12.4c-.66,1.45-2.36,2.1-3.82,1.45-.58-.26-1.06-.71-1.36-1.27l-6.44-11.99c-.45-.84-1.28-1.4-2.23-1.5l-13.52-1.49c-1.58-.17-2.73-1.6-2.55-3.18.07-.63.35-1.22.78-1.68l9.41-9.83c.66-.69.93-1.65.74-2.58l-2.76-13.32c-.32-1.56.68-3.09,2.24-3.41.62-.13,1.27-.05,1.84.23"/></g><g id="Group_56-8-41"><path id="Path_88-8-41" class="cls-1" d="m2416.08,129.41l12.26,5.91c.86.41,1.86.38,2.68-.09l11.82-6.74c1.38-.79,3.15-.31,3.94,1.07.32.55.44,1.19.35,1.82l-1.84,13.48c-.13.94.22,1.89.92,2.52l10.07,9.15c1.18,1.07,1.27,2.9.19,4.08-.43.47-1,.79-1.62.9l-13.39,2.42c-.94.17-1.73.79-2.12,1.65l-5.6,12.4c-.66,1.45-2.36,2.1-3.82,1.45-.58-.26-1.06-.71-1.36-1.27l-6.44-11.99c-.45-.84-1.28-1.4-2.23-1.5l-13.52-1.49c-1.58-.17-2.73-1.6-2.55-3.18.07-.63.35-1.22.78-1.68l9.41-9.83c.66-.69.93-1.65.74-2.58l-2.76-13.32c-.32-1.56.68-3.09,2.24-3.41.62-.13,1.27-.05,1.84.23"/></g><g id="Group_56-8-42"><path id="Path_88-8-42" class="cls-1" d="m2953.72,594.22l-20.11,42.12c-1.4,2.94-1.27,6.38.35,9.21l23.28,40.44c2.73,4.74,1.1,10.79-3.64,13.52-1.89,1.09-4.08,1.52-6.24,1.24l-46.27-6.12c-3.23-.43-6.46.76-8.65,3.18l-31.27,34.65c-3.66,4.06-9.92,4.38-13.98.72-1.62-1.46-2.71-3.41-3.11-5.56l-8.48-45.89c-.59-3.21-2.72-5.91-5.7-7.24l-42.61-19.03c-4.99-2.23-7.24-8.08-5.01-13.07.89-1.99,2.41-3.63,4.32-4.67l41.03-22.25c2.86-1.55,4.78-4.42,5.13-7.66l4.93-46.41c.58-5.44,5.45-9.38,10.89-8.8,2.17.23,4.2,1.17,5.77,2.67l33.84,32.14c2.36,2.25,5.68,3.18,8.87,2.51l45.66-9.65c5.35-1.13,10.6,2.28,11.74,7.63.45,2.13.19,4.35-.75,6.32"/></g><g id="Group_56-8-43"><path id="Path_88-8-43" class="cls-1" d="m2953.72,594.22l-20.11,42.12c-1.4,2.94-1.27,6.38.35,9.21l23.28,40.44c2.73,4.74,1.1,10.79-3.64,13.52-1.89,1.09-4.08,1.52-6.24,1.24l-46.27-6.12c-3.23-.43-6.46.76-8.65,3.18l-31.27,34.65c-3.66,4.06-9.92,4.38-13.98.72-1.62-1.46-2.71-3.41-3.11-5.56l-8.48-45.89c-.59-3.21-2.72-5.91-5.7-7.24l-42.61-19.03c-4.99-2.23-7.24-8.08-5.01-13.07.89-1.99,2.41-3.63,4.32-4.67l41.03-22.25c2.86-1.55,4.78-4.42,5.13-7.66l4.93-46.41c.58-5.44,5.45-9.38,10.89-8.8,2.17.23,4.2,1.17,5.77,2.67l33.84,32.14c2.36,2.25,5.68,3.18,8.87,2.51l45.66-9.65c5.35-1.13,10.6,2.28,11.74,7.63.45,2.13.19,4.35-.75,6.32"/></g><g id="Group_56-8-44"><path id="Path_88-8-44" class="cls-1" d="m2957.76,513.97l-20.11,42.12c-1.4,2.94-1.27,6.38.35,9.21l23.28,40.44c2.73,4.74,1.1,10.79-3.64,13.52-1.89,1.09-4.08,1.52-6.24,1.24l-46.27-6.12c-3.23-.43-6.46.76-8.65,3.18l-31.27,34.65c-3.66,4.06-9.92,4.38-13.98.72-1.62-1.46-2.71-3.41-3.11-5.56l-8.48-45.89c-.59-3.21-2.72-5.91-5.7-7.24l-42.61-19.03c-4.99-2.23-7.24-8.08-5.01-13.07.89-1.99,2.41-3.63,4.32-4.67l41.03-22.25c2.86-1.55,4.78-4.42,5.13-7.66l4.93-46.41c.58-5.44,5.45-9.38,10.89-8.8,2.17.23,4.2,1.17,5.77,2.67l33.84,32.14c2.36,2.25,5.68,3.18,8.87,2.51l45.66-9.65c5.35-1.13,10.6,2.28,11.74,7.63.45,2.13.19,4.35-.75,6.32"/></g><g id="Group_56-8-45"><path id="Path_88-8-45" class="cls-1" d="m2957.76,513.97l-20.11,42.12c-1.4,2.94-1.27,6.38.35,9.21l23.28,40.44c2.73,4.74,1.1,10.79-3.64,13.52-1.89,1.09-4.08,1.52-6.24,1.24l-46.27-6.12c-3.23-.43-6.46.76-8.65,3.18l-31.27,34.65c-3.66,4.06-9.92,4.38-13.98.72-1.62-1.46-2.71-3.41-3.11-5.56l-8.48-45.89c-.59-3.21-2.72-5.91-5.7-7.24l-42.61-19.03c-4.99-2.23-7.24-8.08-5.01-13.07.89-1.99,2.41-3.63,4.32-4.67l41.03-22.25c2.86-1.55,4.78-4.42,5.13-7.66l4.93-46.41c.58-5.44,5.45-9.38,10.89-8.8,2.17.23,4.2,1.17,5.77,2.67l33.84,32.14c2.36,2.25,5.68,3.18,8.87,2.51l45.66-9.65c5.35-1.13,10.6,2.28,11.74,7.63.45,2.13.19,4.35-.75,6.32"/></g><g id="Group_56-8-46"><path id="Path_88-8-46" class="cls-1" d="m269.62,75.11l-20.11,42.12c-1.4,2.94-1.27,6.38.35,9.21l23.28,40.44c2.73,4.74,1.1,10.79-3.64,13.52-1.89,1.09-4.08,1.52-6.24,1.24l-46.27-6.12c-3.23-.43-6.46.76-8.65,3.18l-31.27,34.65c-3.66,4.06-9.92,4.38-13.98.72-1.62-1.46-2.71-3.41-3.11-5.56l-8.48-45.89c-.59-3.21-2.72-5.91-5.7-7.24l-42.61-19.03c-4.99-2.23-7.24-8.08-5.01-13.07.89-1.99,2.41-3.63,4.32-4.67l41.03-22.25c2.86-1.55,4.78-4.42,5.13-7.66l4.93-46.41c.58-5.44,5.45-9.38,10.89-8.8,2.17.23,4.2,1.17,5.77,2.67l33.84,32.14c2.36,2.25,5.68,3.18,8.87,2.51l45.66-9.65c5.35-1.13,10.6,2.28,11.74,7.63.45,2.13.19,4.35-.75,6.32"/></g><g id="Group_56-8-47"><path id="Path_88-8-47" class="cls-1" d="m269.62,75.11l-20.11,42.12c-1.4,2.94-1.27,6.38.35,9.21l23.28,40.44c2.73,4.74,1.1,10.79-3.64,13.52-1.89,1.09-4.08,1.52-6.24,1.24l-46.27-6.12c-3.23-.43-6.46.76-8.65,3.18l-31.27,34.65c-3.66,4.06-9.92,4.38-13.98.72-1.62-1.46-2.71-3.41-3.11-5.56l-8.48-45.89c-.59-3.21-2.72-5.91-5.7-7.24l-42.61-19.03c-4.99-2.23-7.24-8.08-5.01-13.07.89-1.99,2.41-3.63,4.32-4.67l41.03-22.25c2.86-1.55,4.78-4.42,5.13-7.66l4.93-46.41c.58-5.44,5.45-9.38,10.89-8.8,2.17.23,4.2,1.17,5.77,2.67l33.84,32.14c2.36,2.25,5.68,3.18,8.87,2.51l45.66-9.65c5.35-1.13,10.6,2.28,11.74,7.63.45,2.13.19,4.35-.75,6.32"/></g><g id="Group_56-8-48"><path id="Path_88-8-48" class="cls-1" d="m540.6,144.67l-4.39-12.56c-.31-.88-1.02-1.55-1.92-1.79l-12.84-3.51c-1.5-.41-2.39-1.96-1.98-3.47.16-.6.52-1.13,1.02-1.5l10.59-8.05c.74-.56,1.16-1.45,1.11-2.38l-.63-13.29c-.07-1.56,1.13-2.88,2.69-2.95.62-.03,1.23.15,1.74.5l10.93,7.59c.76.53,1.74.65,2.61.32l12.45-4.71c1.46-.55,3.09.18,3.64,1.64.22.58.24,1.22.06,1.81l-3.84,12.74c-.27.89-.08,1.85.5,2.58l8.32,10.38c.98,1.22.78,2.99-.44,3.97-.48.39-1.08.61-1.7.62l-13.3.29c-.93.02-1.79.5-2.3,1.27l-7.3,11.13c-.86,1.3-2.61,1.67-3.91.81-.52-.34-.91-.84-1.12-1.43"/></g><g id="Group_56-8-49"><path id="Path_88-8-49" class="cls-1" d="m540.6,144.67l-4.39-12.56c-.31-.88-1.02-1.55-1.92-1.79l-12.84-3.51c-1.5-.41-2.39-1.96-1.98-3.47.16-.6.52-1.13,1.02-1.5l10.59-8.05c.74-.56,1.16-1.45,1.11-2.38l-.63-13.29c-.07-1.56,1.13-2.88,2.69-2.95.62-.03,1.23.15,1.74.5l10.93,7.59c.76.53,1.74.65,2.61.32l12.45-4.71c1.46-.55,3.09.18,3.64,1.64.22.58.24,1.22.06,1.81l-3.84,12.74c-.27.89-.08,1.85.5,2.58l8.32,10.38c.98,1.22.78,2.99-.44,3.97-.48.39-1.08.61-1.7.62l-13.3.29c-.93.02-1.79.5-2.3,1.27l-7.3,11.13c-.86,1.3-2.61,1.67-3.91.81-.52-.34-.91-.84-1.12-1.43"/></g><g id="Group_56-8-50"><path id="Path_88-8-50" class="cls-1" d="m1694.89,102.6l10.06-8.71c.7-.61,1.06-1.52.96-2.45l-1.47-13.23c-.17-1.55.94-2.95,2.49-3.12.62-.07,1.24.07,1.77.39l11.4,6.87c.8.48,1.78.54,2.62.15l12.12-5.49c1.42-.64,3.09-.01,3.74,1.41.26.57.32,1.2.18,1.81l-3.02,12.96c-.21.91.04,1.86.66,2.54l8.97,9.83c1.05,1.15.97,2.94-.18,3.99-.46.42-1.04.67-1.66.73l-13.26,1.14c-.93.08-1.75.61-2.21,1.42l-6.58,11.57c-.77,1.36-2.49,1.83-3.85,1.06-.54-.31-.96-.78-1.21-1.36l-5.18-12.26c-.36-.86-1.12-1.48-2.03-1.67l-13.04-2.68c-1.53-.31-2.51-1.81-2.2-3.33.13-.61.45-1.16.92-1.57"/></g><g id="Group_56-8-51"><path id="Path_88-8-51" class="cls-1" d="m1694.89,102.6l10.06-8.71c.7-.61,1.06-1.52.96-2.45l-1.47-13.23c-.17-1.55.94-2.95,2.49-3.12.62-.07,1.24.07,1.77.39l11.4,6.87c.8.48,1.78.54,2.62.15l12.12-5.49c1.42-.64,3.09-.01,3.74,1.41.26.57.32,1.2.18,1.81l-3.02,12.96c-.21.91.04,1.86.66,2.54l8.97,9.83c1.05,1.15.97,2.94-.18,3.99-.46.42-1.04.67-1.66.73l-13.26,1.14c-.93.08-1.75.61-2.21,1.42l-6.58,11.57c-.77,1.36-2.49,1.83-3.85,1.06-.54-.31-.96-.78-1.21-1.36l-5.18-12.26c-.36-.86-1.12-1.48-2.03-1.67l-13.04-2.68c-1.53-.31-2.51-1.81-2.2-3.33.13-.61.45-1.16.92-1.57"/></g><g id="Group_56-8-52"><path id="Path_88-8-52" class="cls-1" d="m1541.7,181.84l10.06-8.71c.7-.61,1.06-1.52.96-2.45l-1.47-13.23c-.17-1.55.94-2.95,2.49-3.12.62-.07,1.24.07,1.77.39l11.4,6.87c.8.48,1.78.54,2.62.15l12.12-5.49c1.42-.64,3.09-.01,3.74,1.41.26.57.32,1.2.18,1.81l-3.02,12.96c-.21.91.04,1.86.66,2.54l8.97,9.83c1.05,1.15.97,2.94-.18,3.99-.46.42-1.04.67-1.66.73l-13.26,1.14c-.93.08-1.75.61-2.21,1.42l-6.58,11.57c-.77,1.36-2.49,1.83-3.85,1.06-.54-.31-.96-.78-1.21-1.36l-5.18-12.26c-.36-.86-1.12-1.48-2.03-1.67l-13.04-2.68c-1.53-.31-2.51-1.81-2.2-3.33.13-.61.45-1.16.92-1.57"/></g><g id="Group_56-8-53"><path id="Path_88-8-53" class="cls-1" d="m1541.7,181.84l10.06-8.71c.7-.61,1.06-1.52.96-2.45l-1.47-13.23c-.17-1.55.94-2.95,2.49-3.12.62-.07,1.24.07,1.77.39l11.4,6.87c.8.48,1.78.54,2.62.15l12.12-5.49c1.42-.64,3.09-.01,3.74,1.41.26.57.32,1.2.18,1.81l-3.02,12.96c-.21.91.04,1.86.66,2.54l8.97,9.83c1.05,1.15.97,2.94-.18,3.99-.46.42-1.04.67-1.66.73l-13.26,1.14c-.93.08-1.75.61-2.21,1.42l-6.58,11.57c-.77,1.36-2.49,1.83-3.85,1.06-.54-.31-.96-.78-1.21-1.36l-5.18-12.26c-.36-.86-1.12-1.48-2.03-1.67l-13.04-2.68c-1.53-.31-2.51-1.81-2.2-3.33.13-.61.45-1.16.92-1.57"/></g><g id="Group_56-8-54"><path id="Path_88-8-54" class="cls-1" d="m1105.5,358.6l-11.67,6.4c-.81.45-1.36,1.27-1.45,2.19l-1.34,13.24c-.16,1.55-1.54,2.68-3.09,2.53-.62-.06-1.2-.33-1.65-.75l-9.69-9.12c-.68-.64-1.62-.9-2.53-.7l-13.01,2.82c-1.52.33-3.03-.64-3.36-2.16-.13-.61-.06-1.24.21-1.8l5.68-12.04c.4-.84.35-1.82-.11-2.63l-6.7-11.5c-.79-1.35-.33-3.08,1.02-3.86.54-.31,1.16-.44,1.78-.36l13.2,1.68c.92.12,1.84-.23,2.46-.92l8.87-9.92c1.04-1.16,2.82-1.26,3.99-.22.46.41.78.97.89,1.58l2.48,13.07c.17.91.78,1.68,1.64,2.06l12.18,5.37c1.43.63,2.07,2.29,1.45,3.72-.25.57-.68,1.04-1.23,1.34"/></g><g id="Group_56-8-55"><path id="Path_88-8-55" class="cls-1" d="m1105.5,358.6l-11.67,6.4c-.81.45-1.36,1.27-1.45,2.19l-1.34,13.24c-.16,1.55-1.54,2.68-3.09,2.53-.62-.06-1.2-.33-1.65-.75l-9.69-9.12c-.68-.64-1.62-.9-2.53-.7l-13.01,2.82c-1.52.33-3.03-.64-3.36-2.16-.13-.61-.06-1.24.21-1.8l5.68-12.04c.4-.84.35-1.82-.11-2.63l-6.7-11.5c-.79-1.35-.33-3.08,1.02-3.86.54-.31,1.16-.44,1.78-.36l13.2,1.68c.92.12,1.84-.23,2.46-.92l8.87-9.92c1.04-1.16,2.82-1.26,3.99-.22.46.41.78.97.89,1.58l2.48,13.07c.17.91.78,1.68,1.64,2.06l12.18,5.37c1.43.63,2.07,2.29,1.45,3.72-.25.57-.68,1.04-1.23,1.34"/></g><g id="Group_56-8-56"><path id="Path_88-8-56" class="cls-1" d="m849.37,482.56l-4.39-12.56c-.31-.88-1.02-1.55-1.92-1.79l-12.84-3.51c-1.5-.41-2.39-1.96-1.98-3.47.16-.6.52-1.13,1.02-1.5l10.59-8.05c.74-.56,1.16-1.45,1.11-2.38l-.63-13.29c-.07-1.56,1.13-2.88,2.69-2.95.62-.03,1.23.15,1.74.5l10.93,7.59c.76.53,1.74.65,2.61.32l12.45-4.71c1.46-.55,3.09.18,3.64,1.64.22.58.24,1.22.06,1.81l-3.84,12.74c-.27.89-.08,1.85.5,2.58l8.32,10.38c.98,1.22.78,2.99-.44,3.97-.48.39-1.08.61-1.7.62l-13.3.29c-.93.02-1.79.5-2.3,1.27l-7.3,11.13c-.86,1.3-2.61,1.67-3.91.81-.52-.34-.91-.84-1.12-1.43"/></g><g id="Group_56-8-57"><path id="Path_88-8-57" class="cls-1" d="m849.37,482.56l-4.39-12.56c-.31-.88-1.02-1.55-1.92-1.79l-12.84-3.51c-1.5-.41-2.39-1.96-1.98-3.47.16-.6.52-1.13,1.02-1.5l10.59-8.05c.74-.56,1.16-1.45,1.11-2.38l-.63-13.29c-.07-1.56,1.13-2.88,2.69-2.95.62-.03,1.23.15,1.74.5l10.93,7.59c.76.53,1.74.65,2.61.32l12.45-4.71c1.46-.55,3.09.18,3.64,1.64.22.58.24,1.22.06,1.81l-3.84,12.74c-.27.89-.08,1.85.5,2.58l8.32,10.38c.98,1.22.78,2.99-.44,3.97-.48.39-1.08.61-1.7.62l-13.3.29c-.93.02-1.79.5-2.3,1.27l-7.3,11.13c-.86,1.3-2.61,1.67-3.91.81-.52-.34-.91-.84-1.12-1.43"/></g><path class="cls-1" d="m514.33,602.45l57.52-4.92c4.02-.34,7.95,1.31,10.51,4.43l11.94,14.52,7.33,29.6c.63,2.55-.03,5.25-1.78,7.21l-24.95,28.14c-1.16,1.31-1.86,2.97-1.99,4.73-.31,4.4,2.99,8.21,7.39,8.53l37.51,2.69c2.62.19,4.98,1.65,6.31,3.92l19.05,32.42c.89,1.51,2.25,2.69,3.88,3.35,4.08,1.66,8.74-.31,10.39-4.39l14.15-34.84c.99-2.43,3.11-4.22,5.67-4.79l36.72-8.1h0c1.71-.38,3.25-1.31,4.38-2.65,2.84-3.37,2.41-8.4-.96-11.24l-6.94-5.84,25.28-4.41c3.97-.69,8.03.61,10.85,3.49l40.41,41.23c1.89,1.92,4.35,3.17,7.02,3.55,6.7.95,12.9-3.7,13.85-10.4l8.14-57.15c.57-3.99,3.07-7.45,6.68-9.24l23.49-11.68,34.98,42.56c1.71,2.08,4.06,3.54,6.68,4.15,6.59,1.53,13.17-2.56,14.71-9.15l13.1-56.23c.91-3.93,3.7-7.15,7.46-8.62l38.05-14.92,17.42,21.19c1.71,2.08,4.06,3.54,6.68,4.15,6.59,1.53,13.17-2.56,14.71-9.15l2.03-8.7,10.1-2.88c.49,4.93,3.03,9.62,7.87,12.77l6.94,4.52-5.71,7.28c-1.22,1.55-3.12,2.41-5.09,2.28l-28.19-1.76c-1.32-.08-2.62.27-3.72,1.01-2.75,1.85-3.48,5.57-1.63,8.32l15.75,23.44c1.1,1.64,1.32,3.71.6,5.54l-10.38,26.27c-.49,1.23-.55,2.58-.19,3.85.91,3.18,4.22,5.03,7.41,4.12l27.17-7.74c1.9-.54,3.94-.11,5.46,1.14l21.78,17.99c1.02.84,2.28,1.32,3.6,1.37,3.31.12,6.09-2.46,6.21-5.77l1.03-28.23c.07-1.97,1.11-3.78,2.77-4.84l23.51-14.94,7.88,5.14c5.22,3.37,8.25,9.26,7.94,15.47l-4.01,89.67c-.71,15.77,17.86,24.24,31.41,14.34l77.08-56.31c5.29-3.92,12.09-5.18,18.44-3.42l88.2,25.59c15.51,4.5,30.91-10.28,26.07-25.02l-27.56-83.8c-1.92-5.85-.63-12.42,3.45-17.58l58.52-73.85h0c10.29-12.99,1.25-30.6-15.3-29.81l-94.11,4.51c-6.57.31-12.67-2.47-16.3-7.44l-52.03-71.23c-9.15-12.53-30.15-8.63-35.53,6.6l-1.47,4.16c-4.61-2.17-10.27-1.31-14.01,2.55l-40.18,41.45c-2.81,2.89-6.86,4.22-10.83,3.55l-31.98-5.39-36.26-21.89c-3.45-2.08-5.66-5.73-5.9-9.76l-3.44-57.63h0c-.16-2.69-1.2-5.25-2.97-7.29-4.43-5.12-12.16-5.67-17.28-1.24l-43.65,37.79c-3.05,2.64-7.2,3.61-11.1,2.6l-55.87-14.53c-2.61-.68-5.37-.48-7.85.57-6.23,2.63-9.15,9.82-6.52,16.05l13.91,32.95-29.98,25.96c-3.05,2.64-7.2,3.61-11.1,2.6l-55.87-14.53c-2.61-.68-5.37-.48-7.85.57-6.23,2.63-9.15,9.82-6.52,16.05l3.28,7.78-31.79,32.79c-2.81,2.89-6.86,4.22-10.83,3.55l-31.98-5.39-36.27-21.89c-3.45-2.08-5.66-5.73-5.9-9.76l-3.44-57.63h0c-.16-2.69-1.2-5.25-2.97-7.29-4.43-5.12-12.16-5.67-17.28-1.24l-43.65,37.79c-3.05,2.64-7.2,3.61-11.1,2.6l-55.87-14.53c-2.61-.68-5.37-.48-7.85.57-6.23,2.63-9.15,9.82-6.52,16.05l22.45,53.19c1.57,3.71,1.21,7.96-.96,11.36l-31.09,48.65c-1.45,2.27-2.11,4.96-1.88,7.64.58,6.74,6.51,11.74,13.25,11.16Zm139.18-17.12c.91-3.93,3.7-7.15,7.46-8.62l20.19-7.92,11.45,21.62c1.89,3.56,1.9,7.83.03,11.4l-3.79,7.25.64-6.54c.17-1.75-.24-3.5-1.17-4.99-2.33-3.74-7.25-4.89-10.99-2.56l-30.48,18.97,6.67-28.61Z"/><path class="cls-1" d="m514.33,602.45l57.52-4.92c4.02-.34,7.95,1.31,10.51,4.43l11.94,14.52,7.33,29.6c.63,2.55-.03,5.25-1.78,7.21l-24.95,28.14c-1.16,1.31-1.86,2.97-1.99,4.73-.31,4.4,2.99,8.21,7.39,8.53l37.51,2.69c2.62.19,4.98,1.65,6.31,3.92l19.05,32.42c.89,1.51,2.25,2.69,3.88,3.35,4.08,1.66,8.74-.31,10.39-4.39l14.15-34.84c.99-2.43,3.11-4.22,5.67-4.79l36.72-8.1h0c1.71-.38,3.25-1.31,4.38-2.65,2.84-3.37,2.41-8.4-.96-11.24l-6.94-5.84,25.28-4.41c3.97-.69,8.03.61,10.85,3.49l40.41,41.23c1.89,1.92,4.35,3.17,7.02,3.55,6.7.95,12.9-3.7,13.85-10.4l8.14-57.15c.57-3.99,3.07-7.45,6.68-9.24l23.49-11.68,34.98,42.56c1.71,2.08,4.06,3.54,6.68,4.15,6.59,1.53,13.17-2.56,14.71-9.15l13.1-56.23c.91-3.93,3.7-7.15,7.46-8.62l38.05-14.92,17.42,21.19c1.71,2.08,4.06,3.54,6.68,4.15,6.59,1.53,13.17-2.56,14.71-9.15l2.03-8.7,10.1-2.88c.49,4.93,3.03,9.62,7.87,12.77l6.94,4.52-5.71,7.28c-1.22,1.55-3.12,2.41-5.09,2.28l-28.19-1.76c-1.32-.08-2.62.27-3.72,1.01-2.75,1.85-3.48,5.57-1.63,8.32l15.75,23.44c1.1,1.64,1.32,3.71.6,5.54l-10.38,26.27c-.49,1.23-.55,2.58-.19,3.85.91,3.18,4.22,5.03,7.41,4.12l27.17-7.74c1.9-.54,3.94-.11,5.46,1.14l21.78,17.99c1.02.84,2.28,1.32,3.6,1.37,3.31.12,6.09-2.46,6.21-5.77l1.03-28.23c.07-1.97,1.11-3.78,2.77-4.84l23.51-14.94,7.88,5.14c5.22,3.37,8.25,9.26,7.94,15.47l-4.01,89.67c-.71,15.77,17.86,24.24,31.41,14.34l77.08-56.31c5.29-3.92,12.09-5.18,18.44-3.42l88.2,25.59c15.51,4.5,30.91-10.28,26.07-25.02l-27.56-83.8c-1.92-5.85-.63-12.42,3.45-17.58l58.52-73.85h0c10.29-12.99,1.25-30.6-15.3-29.81l-94.11,4.51c-6.57.31-12.67-2.47-16.3-7.44l-52.03-71.23c-9.15-12.53-30.15-8.63-35.53,6.6l-1.47,4.16c-4.61-2.17-10.27-1.31-14.01,2.55l-40.18,41.45c-2.81,2.89-6.86,4.22-10.83,3.55l-31.98-5.39-36.26-21.89c-3.45-2.08-5.66-5.73-5.9-9.76l-3.44-57.63h0c-.16-2.69-1.2-5.25-2.97-7.29-4.43-5.12-12.16-5.67-17.28-1.24l-43.65,37.79c-3.05,2.64-7.2,3.61-11.1,2.6l-55.87-14.53c-2.61-.68-5.37-.48-7.85.57-6.23,2.63-9.15,9.82-6.52,16.05l13.91,32.95-29.98,25.96c-3.05,2.64-7.2,3.61-11.1,2.6l-55.87-14.53c-2.61-.68-5.37-.48-7.85.57-6.23,2.63-9.15,9.82-6.52,16.05l3.28,7.78-31.79,32.79c-2.81,2.89-6.86,4.22-10.83,3.55l-31.98-5.39-36.27-21.89c-3.45-2.08-5.66-5.73-5.9-9.76l-3.44-57.63h0c-.16-2.69-1.2-5.25-2.97-7.29-4.43-5.12-12.16-5.67-17.28-1.24l-43.65,37.79c-3.05,2.64-7.2,3.61-11.1,2.6l-55.87-14.53c-2.61-.68-5.37-.48-7.85.57-6.23,2.63-9.15,9.82-6.52,16.05l22.45,53.19c1.57,3.71,1.21,7.96-.96,11.36l-31.09,48.65c-1.45,2.27-2.11,4.96-1.88,7.64.58,6.74,6.51,11.74,13.25,11.16Zm139.18-17.12c.91-3.93,3.7-7.15,7.46-8.62l20.19-7.92,11.45,21.62c1.89,3.56,1.9,7.83.03,11.4l-3.79,7.25.64-6.54c.17-1.75-.24-3.5-1.17-4.99-2.33-3.74-7.25-4.89-10.99-2.56l-30.48,18.97,6.67-28.61Z"/><g id="Group_121-3"><path id="Path_170-3" class="cls-1" d="m1885.27,500.23l37.13,29.78c2.59,2.08,6.04,2.75,9.22,1.79l45.58-13.7c5.34-1.6,10.97,1.42,12.58,6.77.64,2.12.56,4.4-.22,6.48l-16.85,44.51c-1.17,3.11-.74,6.59,1.15,9.33l27.12,39.11c3.18,4.59,2.03,10.88-2.55,14.05-1.82,1.26-4.01,1.89-6.22,1.78l-47.55-2.26c-3.32-.16-6.51,1.33-8.52,3.97l-28.82,37.87c-3.38,4.44-9.72,5.29-14.15,1.91-1.76-1.34-3.04-3.23-3.62-5.37l-12.53-45.91c-.87-3.21-3.27-5.78-6.41-6.87l-44.93-15.7c-5.26-1.84-8.04-7.61-6.19-12.87.73-2.09,2.14-3.89,3.99-5.11l39.8-26.11c2.78-1.82,4.48-4.9,4.55-8.22l1.05-47.58c.13-5.58,4.75-10,10.33-9.87,2.22.05,4.36.83,6.09,2.22"/></g><g id="Group_121-4"><path id="Path_170-4" class="cls-1" d="m1885.27,500.23l37.13,29.78c2.59,2.08,6.04,2.75,9.22,1.79l45.58-13.7c5.34-1.6,10.97,1.42,12.58,6.77.64,2.12.56,4.4-.22,6.48l-16.85,44.51c-1.17,3.11-.74,6.59,1.15,9.33l27.12,39.11c3.18,4.59,2.03,10.88-2.55,14.05-1.82,1.26-4.01,1.89-6.22,1.78l-47.55-2.26c-3.32-.16-6.51,1.33-8.52,3.97l-28.82,37.87c-3.38,4.44-9.72,5.29-14.15,1.91-1.76-1.34-3.04-3.23-3.62-5.37l-12.53-45.91c-.87-3.21-3.27-5.78-6.41-6.87l-44.93-15.7c-5.26-1.84-8.04-7.61-6.19-12.87.73-2.09,2.14-3.89,3.99-5.11l39.8-26.11c2.78-1.82,4.48-4.9,4.55-8.22l1.05-47.58c.13-5.58,4.75-10,10.33-9.87,2.22.05,4.36.83,6.09,2.22"/></g><g id="Group_56-8-58"><path id="Path_88-8-58" class="cls-1" d="m2955.29,668.9l108.73-30.36c7.59-2.12,13.65-7.84,16.21-15.29l36.64-106.76c4.29-12.51,17.91-19.17,30.42-14.88,4.99,1.71,9.27,5.02,12.18,9.41l62.45,94.03c4.36,6.57,11.67,10.57,19.55,10.69l112.87,1.85c13.22.21,23.77,11.1,23.56,24.33-.08,5.27-1.91,10.37-5.18,14.5l-70.12,88.45c-4.9,6.18-6.44,14.37-4.13,21.9l33.12,107.91c3.88,12.64-3.21,26.04-15.86,29.92-5.04,1.55-10.45,1.39-15.39-.45l-105.8-39.36c-7.39-2.75-15.65-1.69-22.11,2.84l-92.4,64.85c-10.82,7.6-25.76,4.98-33.36-5.84-3.03-4.31-4.55-9.5-4.32-14.77l4.74-112.78c.33-7.88-3.23-15.41-9.53-20.15l-90.23-67.84c-10.57-7.94-12.71-22.95-4.76-33.53,3.17-4.22,7.64-7.27,12.72-8.68"/></g><g id="Group_56-8-59"><path id="Path_88-8-59" class="cls-1" d="m2955.29,668.9l108.73-30.36c7.59-2.12,13.65-7.84,16.21-15.29l36.64-106.76c4.29-12.51,17.91-19.17,30.42-14.88,4.99,1.71,9.27,5.02,12.18,9.41l62.45,94.03c4.36,6.57,11.67,10.57,19.55,10.69l112.87,1.85c13.22.21,23.77,11.1,23.56,24.33-.08,5.27-1.91,10.37-5.18,14.5l-70.12,88.45c-4.9,6.18-6.44,14.37-4.13,21.9l33.12,107.91c3.88,12.64-3.21,26.04-15.86,29.92-5.04,1.55-10.45,1.39-15.39-.45l-105.8-39.36c-7.39-2.75-15.65-1.69-22.11,2.84l-92.4,64.85c-10.82,7.6-25.76,4.98-33.36-5.84-3.03-4.31-4.55-9.5-4.32-14.77l4.74-112.78c.33-7.88-3.23-15.41-9.53-20.15l-90.23-67.84c-10.57-7.94-12.71-22.95-4.76-33.53,3.17-4.22,7.64-7.27,12.72-8.68"/></g><g id="Group_56-8-60"><path id="Path_88-8-60" class="cls-1" d="m3095.24,405.9l77.87,81.72c5.44,5.71,13.33,8.37,21.12,7.13l111.46-17.8c13.06-2.09,25.34,6.8,27.43,19.86.83,5.2-.07,10.54-2.58,15.18l-53.67,99.31c-3.75,6.93-3.84,15.27-.26,22.29l51.39,100.51c6.02,11.77,1.36,26.2-10.41,32.22-4.69,2.4-10.05,3.19-15.23,2.23l-111.02-20.36c-7.75-1.42-15.71,1.06-21.28,6.65l-79.7,79.93c-9.33,9.37-24.5,9.39-33.86.06-3.73-3.72-6.14-8.57-6.83-13.8l-14.96-111.89c-1.04-7.81-5.87-14.61-12.89-18.18l-100.65-51.1c-11.79-5.99-16.5-20.4-10.51-32.19,2.39-4.7,6.25-8.48,11-10.75l101.78-48.8c7.11-3.41,12.09-10.09,13.31-17.88l17.5-111.52c2.05-13.07,14.29-22,27.36-19.95,5.21.82,10,3.33,13.64,7.15"/></g><g id="Group_56-8-61"><path id="Path_88-8-61" class="cls-1" d="m3095.24,405.9l77.87,81.72c5.44,5.71,13.33,8.37,21.12,7.13l111.46-17.8c13.06-2.09,25.34,6.8,27.43,19.86.83,5.2-.07,10.54-2.58,15.18l-53.67,99.31c-3.75,6.93-3.84,15.27-.26,22.29l51.39,100.51c6.02,11.77,1.36,26.2-10.41,32.22-4.69,2.4-10.05,3.19-15.23,2.23l-111.02-20.36c-7.75-1.42-15.71,1.06-21.28,6.65l-79.7,79.93c-9.33,9.37-24.5,9.39-33.86.06-3.73-3.72-6.14-8.57-6.83-13.8l-14.96-111.89c-1.04-7.81-5.87-14.61-12.89-18.18l-100.65-51.1c-11.79-5.99-16.5-20.4-10.51-32.19,2.39-4.7,6.25-8.48,11-10.75l101.78-48.8c7.11-3.41,12.09-10.09,13.31-17.88l17.5-111.52c2.05-13.07,14.29-22,27.36-19.95,5.21.82,10,3.33,13.64,7.15"/></g><g id="Group_56-8-62"><path id="Path_88-8-62" class="cls-1" d="m3307.93,535.41l77.87,81.72c5.44,5.71,13.33,8.37,21.12,7.13l111.46-17.8c13.06-2.09,25.34,6.8,27.43,19.86.83,5.2-.07,10.54-2.58,15.18l-53.67,99.31c-3.75,6.93-3.84,15.27-.26,22.29l51.39,100.51c6.02,11.77,1.36,26.2-10.41,32.22-4.69,2.4-10.05,3.19-15.23,2.23l-111.02-20.36c-7.75-1.42-15.71,1.06-21.28,6.65l-79.7,79.93c-9.33,9.37-24.5,9.39-33.86.06-3.73-3.72-6.14-8.57-6.83-13.8l-14.96-111.89c-1.04-7.81-5.87-14.61-12.89-18.18l-100.65-51.1c-11.79-5.99-16.5-20.4-10.51-32.19,2.39-4.7,6.25-8.48,11-10.75l101.78-48.8c7.11-3.41,12.09-10.09,13.31-17.88l17.5-111.52c2.05-13.07,14.29-22,27.36-19.95,5.21.82,10,3.33,13.64,7.15"/></g><g id="Group_56-8-63"><path id="Path_88-8-63" class="cls-1" d="m3307.93,535.41l77.87,81.72c5.44,5.71,13.33,8.37,21.12,7.13l111.46-17.8c13.06-2.09,25.34,6.8,27.43,19.86.83,5.2-.07,10.54-2.58,15.18l-53.67,99.31c-3.75,6.93-3.84,15.27-.26,22.29l51.39,100.51c6.02,11.77,1.36,26.2-10.41,32.22-4.69,2.4-10.05,3.19-15.23,2.23l-111.02-20.36c-7.75-1.42-15.71,1.06-21.28,6.65l-79.7,79.93c-9.33,9.37-24.5,9.39-33.86.06-3.73-3.72-6.14-8.57-6.83-13.8l-14.96-111.89c-1.04-7.81-5.87-14.61-12.89-18.18l-100.65-51.1c-11.79-5.99-16.5-20.4-10.51-32.19,2.39-4.7,6.25-8.48,11-10.75l101.78-48.8c7.11-3.41,12.09-10.09,13.31-17.88l17.5-111.52c2.05-13.07,14.29-22,27.36-19.95,5.21.82,10,3.33,13.64,7.15"/></g><g id="Group_56-8-64"><path id="Path_88-8-64" class="cls-1" d="m3466.64,348.49l27.86,109.39c1.94,7.64,7.52,13.83,14.92,16.56l105.89,39.08c12.41,4.57,18.76,18.34,14.19,30.75-1.82,4.95-5.23,9.15-9.68,11.97l-95.44,60.29c-6.66,4.21-10.83,11.43-11.14,19.31l-4.43,112.8c-.51,13.21-11.64,23.51-24.86,22.99-5.27-.21-10.32-2.14-14.37-5.51l-86.82-72.13c-6.06-5.04-14.22-6.77-21.8-4.63l-108.64,30.64c-12.73,3.59-25.96-3.81-29.55-16.54-1.43-5.07-1.15-10.48.8-15.37l41.76-104.87c2.92-7.32,2.04-15.61-2.34-22.17l-62.72-93.85c-7.35-11-4.39-25.87,6.61-33.21,4.38-2.93,9.6-4.33,14.86-3.99l112.64,7.31c7.87.51,15.48-2.88,20.36-9.07l69.88-88.65c8.18-10.39,23.24-12.18,33.63-3.99,4.14,3.26,7.09,7.8,8.39,12.91"/></g><g id="Group_56-8-65"><path id="Path_88-8-65" class="cls-1" d="m3466.64,348.49l27.86,109.39c1.94,7.64,7.52,13.83,14.92,16.56l105.89,39.08c12.41,4.57,18.76,18.34,14.19,30.75-1.82,4.95-5.23,9.15-9.68,11.97l-95.44,60.29c-6.66,4.21-10.83,11.43-11.14,19.31l-4.43,112.8c-.51,13.21-11.64,23.51-24.86,22.99-5.27-.21-10.32-2.14-14.37-5.51l-86.82-72.13c-6.06-5.04-14.22-6.77-21.8-4.63l-108.64,30.64c-12.73,3.59-25.96-3.81-29.55-16.54-1.43-5.07-1.15-10.48.8-15.37l41.76-104.87c2.92-7.32,2.04-15.61-2.34-22.17l-62.72-93.85c-7.35-11-4.39-25.87,6.61-33.21,4.38-2.93,9.6-4.33,14.86-3.99l112.64,7.31c7.87.51,15.48-2.88,20.36-9.07l69.88-88.65c8.18-10.39,23.24-12.18,33.63-3.99,4.14,3.26,7.09,7.8,8.39,12.91"/></g><g id="Group_56-8-66"><path id="Path_88-8-66" class="cls-1" d="m3543.8,160.8l100.87,105.85c7.04,7.39,17.27,10.84,27.35,9.23l144.37-23.06c16.91-2.71,32.82,8.81,35.53,25.72,1.08,6.74-.1,13.65-3.34,19.66l-69.52,128.63c-4.85,8.98-4.98,19.78-.33,28.87l66.56,130.18c7.8,15.25,1.77,33.94-13.48,41.74-6.08,3.11-13.01,4.13-19.73,2.89l-143.8-26.37c-10.04-1.84-20.35,1.38-27.56,8.61l-103.24,103.53c-12.09,12.13-31.73,12.17-43.86.08-4.84-4.82-7.95-11.1-8.85-17.87l-19.38-144.92c-1.35-10.12-7.6-18.93-16.7-23.55l-130.37-66.19c-15.27-7.75-21.37-26.42-13.61-41.7,3.09-6.08,8.1-10.98,14.25-13.93l131.84-63.21c9.21-4.41,15.65-13.07,17.24-23.16l22.67-144.45c2.65-16.92,18.52-28.49,35.44-25.84,6.75,1.06,12.96,4.31,17.67,9.26"/></g><g id="Group_56-8-67"><path id="Path_88-8-67" class="cls-1" d="m3543.8,160.8l100.87,105.85c7.04,7.39,17.27,10.84,27.35,9.23l144.37-23.06c16.91-2.71,32.82,8.81,35.53,25.72,1.08,6.74-.1,13.65-3.34,19.66l-69.52,128.63c-4.85,8.98-4.98,19.78-.33,28.87l66.56,130.18c7.8,15.25,1.77,33.94-13.48,41.74-6.08,3.11-13.01,4.13-19.73,2.89l-143.8-26.37c-10.04-1.84-20.35,1.38-27.56,8.61l-103.24,103.53c-12.09,12.13-31.73,12.17-43.86.08-4.84-4.82-7.95-11.1-8.85-17.87l-19.38-144.92c-1.35-10.12-7.6-18.93-16.7-23.55l-130.37-66.19c-15.27-7.75-21.37-26.42-13.61-41.7,3.09-6.08,8.1-10.98,14.25-13.93l131.84-63.21c9.21-4.41,15.65-13.07,17.24-23.16l22.67-144.45c2.65-16.92,18.52-28.49,35.44-25.84,6.75,1.06,12.96,4.31,17.67,9.26"/></g><g id="Group_56-8-68"><path id="Path_88-8-68" class="cls-1" d="m3550.61,456.69l77.87,81.72c5.44,5.71,13.33,8.37,21.12,7.13l111.46-17.8c13.06-2.09,25.34,6.8,27.43,19.86.83,5.2-.07,10.54-2.58,15.18l-53.67,99.31c-3.75,6.93-3.84,15.27-.26,22.29l51.39,100.51c6.02,11.77,1.36,26.2-10.41,32.22-4.69,2.4-10.05,3.19-15.23,2.23l-111.02-20.36c-7.75-1.42-15.71,1.06-21.28,6.65l-79.7,79.93c-9.33,9.37-24.5,9.39-33.86.06-3.73-3.72-6.14-8.57-6.83-13.8l-14.96-111.89c-1.04-7.81-5.87-14.61-12.89-18.18l-100.65-51.1c-11.79-5.99-16.5-20.4-10.51-32.19,2.39-4.7,6.25-8.48,11-10.75l101.78-48.8c7.11-3.41,12.09-10.09,13.31-17.88l17.5-111.52c2.05-13.07,14.29-22,27.36-19.95,5.21.82,10,3.33,13.64,7.15"/></g><g id="Group_56-8-69"><path id="Path_88-8-69" class="cls-1" d="m3550.61,456.69l77.87,81.72c5.44,5.71,13.33,8.37,21.12,7.13l111.46-17.8c13.06-2.09,25.34,6.8,27.43,19.86.83,5.2-.07,10.54-2.58,15.18l-53.67,99.31c-3.75,6.93-3.84,15.27-.26,22.29l51.39,100.51c6.02,11.77,1.36,26.2-10.41,32.22-4.69,2.4-10.05,3.19-15.23,2.23l-111.02-20.36c-7.75-1.42-15.71,1.06-21.28,6.65l-79.7,79.93c-9.33,9.37-24.5,9.39-33.86.06-3.73-3.72-6.14-8.57-6.83-13.8l-14.96-111.89c-1.04-7.81-5.87-14.61-12.89-18.18l-100.65-51.1c-11.79-5.99-16.5-20.4-10.51-32.19,2.39-4.7,6.25-8.48,11-10.75l101.78-48.8c7.11-3.41,12.09-10.09,13.31-17.88l17.5-111.52c2.05-13.07,14.29-22,27.36-19.95,5.21.82,10,3.33,13.64,7.15"/></g><g id="Group_56-8-70"><path id="Path_88-8-70" class="cls-1" d="m2356.98,258.39l77.87,81.72c5.44,5.71,13.33,8.37,21.12,7.13l111.46-17.8c13.06-2.09,25.34,6.8,27.43,19.86.83,5.2-.07,10.54-2.58,15.18l-53.67,99.31c-3.75,6.93-3.84,15.27-.26,22.29l51.39,100.51c6.02,11.77,1.36,26.2-10.41,32.22-4.69,2.4-10.05,3.19-15.23,2.23l-111.02-20.36c-7.75-1.42-15.71,1.06-21.28,6.65l-79.7,79.93c-9.33,9.37-24.5,9.39-33.86.06-3.73-3.72-6.14-8.57-6.83-13.8l-14.96-111.89c-1.04-7.81-5.87-14.61-12.89-18.18l-100.65-51.1c-11.79-5.99-16.5-20.4-10.51-32.19,2.39-4.7,6.25-8.48,11-10.75l101.78-48.8c7.11-3.41,12.09-10.09,13.31-17.88l17.5-111.52c2.05-13.07,14.29-22,27.36-19.95,5.21.82,10,3.33,13.64,7.15"/></g><g id="Group_56-8-71"><path id="Path_88-8-71" class="cls-1" d="m2356.98,258.39l77.87,81.72c5.44,5.71,13.33,8.37,21.12,7.13l111.46-17.8c13.06-2.09,25.34,6.8,27.43,19.86.83,5.2-.07,10.54-2.58,15.18l-53.67,99.31c-3.75,6.93-3.84,15.27-.26,22.29l51.39,100.51c6.02,11.77,1.36,26.2-10.41,32.22-4.69,2.4-10.05,3.19-15.23,2.23l-111.02-20.36c-7.75-1.42-15.71,1.06-21.28,6.65l-79.7,79.93c-9.33,9.37-24.5,9.39-33.86.06-3.73-3.72-6.14-8.57-6.83-13.8l-14.96-111.89c-1.04-7.81-5.87-14.61-12.89-18.18l-100.65-51.1c-11.79-5.99-16.5-20.4-10.51-32.19,2.39-4.7,6.25-8.48,11-10.75l101.78-48.8c7.11-3.41,12.09-10.09,13.31-17.88l17.5-111.52c2.05-13.07,14.29-22,27.36-19.95,5.21.82,10,3.33,13.64,7.15"/></g><g id="Group_56-8-72"><path id="Path_88-8-72" class="cls-1" d="m2533.12,224.06l77.87,81.72c5.44,5.71,13.33,8.37,21.12,7.13l111.46-17.8c13.06-2.09,25.34,6.8,27.43,19.86.83,5.2-.07,10.54-2.58,15.18l-53.67,99.31c-3.75,6.93-3.84,15.27-.26,22.29l51.39,100.51c6.02,11.77,1.36,26.2-10.41,32.22-4.69,2.4-10.05,3.19-15.23,2.23l-111.02-20.36c-7.75-1.42-15.71,1.06-21.28,6.65l-79.7,79.93c-9.33,9.37-24.5,9.39-33.86.06-3.73-3.72-6.14-8.57-6.83-13.8l-14.96-111.89c-1.04-7.81-5.87-14.61-12.89-18.18l-100.65-51.1c-11.79-5.99-16.5-20.4-10.51-32.19,2.39-4.7,6.25-8.48,11-10.75l101.78-48.8c7.11-3.41,12.09-10.09,13.31-17.88l17.5-111.52c2.05-13.07,14.29-22,27.36-19.95,5.21.82,10,3.33,13.64,7.15"/></g><g id="Group_56-8-73"><path id="Path_88-8-73" class="cls-1" d="m2533.12,224.06l77.87,81.72c5.44,5.71,13.33,8.37,21.12,7.13l111.46-17.8c13.06-2.09,25.34,6.8,27.43,19.86.83,5.2-.07,10.54-2.58,15.18l-53.67,99.31c-3.75,6.93-3.84,15.27-.26,22.29l51.39,100.51c6.02,11.77,1.36,26.2-10.41,32.22-4.69,2.4-10.05,3.19-15.23,2.23l-111.02-20.36c-7.75-1.42-15.71,1.06-21.28,6.65l-79.7,79.93c-9.33,9.37-24.5,9.39-33.86.06-3.73-3.72-6.14-8.57-6.83-13.8l-14.96-111.89c-1.04-7.81-5.87-14.61-12.89-18.18l-100.65-51.1c-11.79-5.99-16.5-20.4-10.51-32.19,2.39-4.7,6.25-8.48,11-10.75l101.78-48.8c7.11-3.41,12.09-10.09,13.31-17.88l17.5-111.52c2.05-13.07,14.29-22,27.36-19.95,5.21.82,10,3.33,13.64,7.15"/></g><g id="Group_56-8-74"><path id="Path_88-8-74" class="cls-1" d="m3139.73,224.06l77.87,81.72c5.44,5.71,13.33,8.37,21.12,7.13l111.46-17.8c13.06-2.09,25.34,6.8,27.43,19.86.83,5.2-.07,10.54-2.58,15.18l-53.67,99.31c-3.75,6.93-3.84,15.27-.26,22.29l51.39,100.51c6.02,11.77,1.36,26.2-10.41,32.22-4.69,2.4-10.05,3.19-15.23,2.23l-111.02-20.36c-7.75-1.42-15.71,1.06-21.28,6.65l-79.7,79.93c-9.33,9.37-24.5,9.39-33.86.06-3.73-3.72-6.14-8.57-6.83-13.8l-14.96-111.89c-1.04-7.81-5.87-14.61-12.89-18.18l-100.65-51.1c-11.79-5.99-16.5-20.4-10.51-32.19,2.39-4.7,6.25-8.48,11-10.75l101.78-48.8c7.11-3.41,12.09-10.09,13.31-17.88l17.5-111.52c2.05-13.07,14.29-22,27.36-19.95,5.21.82,10,3.33,13.64,7.15"/></g><g id="Group_56-8-75"><path id="Path_88-8-75" class="cls-1" d="m3139.73,224.06l77.87,81.72c5.44,5.71,13.33,8.37,21.12,7.13l111.46-17.8c13.06-2.09,25.34,6.8,27.43,19.86.83,5.2-.07,10.54-2.58,15.18l-53.67,99.31c-3.75,6.93-3.84,15.27-.26,22.29l51.39,100.51c6.02,11.77,1.36,26.2-10.41,32.22-4.69,2.4-10.05,3.19-15.23,2.23l-111.02-20.36c-7.75-1.42-15.71,1.06-21.28,6.65l-79.7,79.93c-9.33,9.37-24.5,9.39-33.86.06-3.73-3.72-6.14-8.57-6.83-13.8l-14.96-111.89c-1.04-7.81-5.87-14.61-12.89-18.18l-100.65-51.1c-11.79-5.99-16.5-20.4-10.51-32.19,2.39-4.7,6.25-8.48,11-10.75l101.78-48.8c7.11-3.41,12.09-10.09,13.31-17.88l17.5-111.52c2.05-13.07,14.29-22,27.36-19.95,5.21.82,10,3.33,13.64,7.15"/></g><g id="Group_56-8-76"><path id="Path_88-8-76" class="cls-1" d="m1941.85,535.41l77.87,81.72c5.44,5.71,13.33,8.37,21.12,7.13l111.46-17.8c13.06-2.09,25.34,6.8,27.43,19.86.83,5.2-.07,10.54-2.58,15.18l-53.67,99.31c-3.75,6.93-3.84,15.27-.26,22.29l51.39,100.51c6.02,11.77,1.36,26.2-10.41,32.22-4.69,2.4-10.05,3.19-15.23,2.23l-111.02-20.36c-7.75-1.42-15.71,1.06-21.28,6.65l-79.7,79.93c-9.33,9.37-24.5,9.39-33.86.06-3.73-3.72-6.14-8.57-6.83-13.8l-14.96-111.89c-1.04-7.81-5.87-14.61-12.89-18.18l-100.65-51.1c-11.79-5.99-16.5-20.4-10.51-32.19,2.39-4.7,6.25-8.48,11-10.75l101.78-48.8c7.11-3.41,12.09-10.09,13.31-17.88l17.5-111.52c2.05-13.07,14.29-22,27.36-19.95,5.21.82,10,3.33,13.64,7.15"/></g><g id="Group_56-8-77"><path id="Path_88-8-77" class="cls-1" d="m1941.85,535.41l77.87,81.72c5.44,5.71,13.33,8.37,21.12,7.13l111.46-17.8c13.06-2.09,25.34,6.8,27.43,19.86.83,5.2-.07,10.54-2.58,15.18l-53.67,99.31c-3.75,6.93-3.84,15.27-.26,22.29l51.39,100.51c6.02,11.77,1.36,26.2-10.41,32.22-4.69,2.4-10.05,3.19-15.23,2.23l-111.02-20.36c-7.75-1.42-15.71,1.06-21.28,6.65l-79.7,79.93c-9.33,9.37-24.5,9.39-33.86.06-3.73-3.72-6.14-8.57-6.83-13.8l-14.96-111.89c-1.04-7.81-5.87-14.61-12.89-18.18l-100.65-51.1c-11.79-5.99-16.5-20.4-10.51-32.19,2.39-4.7,6.25-8.48,11-10.75l101.78-48.8c7.11-3.41,12.09-10.09,13.31-17.88l17.5-111.52c2.05-13.07,14.29-22,27.36-19.95,5.21.82,10,3.33,13.64,7.15"/></g><g id="Group_56-8-78"><path id="Path_88-8-78" class="cls-1" d="m2221.17,258.39l77.87,81.72c5.44,5.71,13.33,8.37,21.12,7.13l111.46-17.8c13.06-2.09,25.34,6.8,27.43,19.86.83,5.2-.07,10.54-2.58,15.18l-53.67,99.31c-3.75,6.93-3.84,15.27-.26,22.29l51.39,100.51c6.02,11.77,1.36,26.2-10.41,32.22-4.69,2.4-10.05,3.19-15.23,2.23l-111.02-20.36c-7.75-1.42-15.71,1.06-21.28,6.65l-79.7,79.93c-9.33,9.37-24.5,9.39-33.86.06-3.73-3.72-6.14-8.57-6.83-13.8l-14.96-111.89c-1.04-7.81-5.87-14.61-12.89-18.18l-100.65-51.1c-11.79-5.99-16.5-20.4-10.51-32.19,2.39-4.7,6.25-8.48,11-10.75l101.78-48.8c7.11-3.41,12.09-10.09,13.31-17.88l17.5-111.52c2.05-13.07,14.29-22,27.36-19.95,5.21.82,10,3.33,13.64,7.15"/></g><g id="Group_56-8-79"><path id="Path_88-8-79" class="cls-1" d="m2221.17,258.39l77.87,81.72c5.44,5.71,13.33,8.37,21.12,7.13l111.46-17.8c13.06-2.09,25.34,6.8,27.43,19.86.83,5.2-.07,10.54-2.58,15.18l-53.67,99.31c-3.75,6.93-3.84,15.27-.26,22.29l51.39,100.51c6.02,11.77,1.36,26.2-10.41,32.22-4.69,2.4-10.05,3.19-15.23,2.23l-111.02-20.36c-7.75-1.42-15.71,1.06-21.28,6.65l-79.7,79.93c-9.33,9.37-24.5,9.39-33.86.06-3.73-3.72-6.14-8.57-6.83-13.8l-14.96-111.89c-1.04-7.81-5.87-14.61-12.89-18.18l-100.65-51.1c-11.79-5.99-16.5-20.4-10.51-32.19,2.39-4.7,6.25-8.48,11-10.75l101.78-48.8c7.11-3.41,12.09-10.09,13.31-17.88l17.5-111.52c2.05-13.07,14.29-22,27.36-19.95,5.21.82,10,3.33,13.64,7.15"/></g><g id="Group_56-8-80"><path id="Path_88-8-80" class="cls-2" d="m2813.26,656.37l46.62,2.22c3.26.16,6.38-1.3,8.35-3.89l28.26-37.14c3.31-4.35,9.52-5.2,13.87-1.89,1.73,1.32,2.99,3.17,3.56,5.28l12.29,45.02c.86,3.14,3.21,5.66,6.28,6.74l44.06,15.4c5.16,1.8,7.89,7.45,6.08,12.61-.72,2.06-2.1,3.82-3.92,5.02l-39.02,25.6c-2.73,1.79-4.4,4.8-4.47,8.06l-1.03,46.66c-.12,5.47-4.65,9.8-10.11,9.68-2.18-.05-4.28-.81-5.98-2.18l-36.41-29.2c-2.54-2.04-5.92-2.7-9.05-1.76l-44.69,13.44c-5.24,1.57-10.76-1.39-12.33-6.63-.63-2.09-.55-4.32.22-6.36l16.52-43.65c1.15-3.05.73-6.47-1.12-9.15l-26.59-38.36c-3.12-4.49-2-10.66,2.49-13.78,1.79-1.24,3.94-1.86,6.12-1.75"/></g><g id="Group_56-8-81"><path id="Path_88-8-81" class="cls-2" d="m2813.26,656.37l46.62,2.22c3.26.16,6.38-1.3,8.35-3.89l28.26-37.14c3.31-4.35,9.52-5.2,13.87-1.89,1.73,1.32,2.99,3.17,3.56,5.28l12.29,45.02c.86,3.14,3.21,5.66,6.28,6.74l44.06,15.4c5.16,1.8,7.89,7.45,6.08,12.61-.72,2.06-2.1,3.82-3.92,5.02l-39.02,25.6c-2.73,1.79-4.4,4.8-4.47,8.06l-1.03,46.66c-.12,5.47-4.65,9.8-10.11,9.68-2.18-.05-4.28-.81-5.98-2.18l-36.41-29.2c-2.54-2.04-5.92-2.7-9.05-1.76l-44.69,13.44c-5.24,1.57-10.76-1.39-12.33-6.63-.63-2.09-.55-4.32.22-6.36l16.52-43.65c1.15-3.05.73-6.47-1.12-9.15l-26.59-38.36c-3.12-4.49-2-10.66,2.49-13.78,1.79-1.24,3.94-1.86,6.12-1.75"/></g><path class="cls-1" d="m3148.59,675.94l-93.86-17.03c-6.55-1.19-12.1-5.53-14.84-11.6l-12.76-28.32,1.11-50.37c.1-4.34,2.32-8.35,5.95-10.73l51.95-34.09c2.43-1.59,4.26-3.94,5.21-6.68,2.4-6.87-1.22-14.39-8.1-16.79l-58.65-20.51c-4.1-1.43-7.23-4.79-8.37-8.97l-16.36-59.94c-.76-2.8-2.43-5.27-4.74-7.02-5.79-4.41-14.07-3.29-18.47,2.51l-37.63,49.45c-2.63,3.45-6.78,5.39-11.12,5.18l-62.07-2.96h0c-2.9-.14-5.76.68-8.14,2.33-5.98,4.15-7.47,12.36-3.33,18.35l8.54,12.32-42.22-3.9c-6.63-.61-12.54-4.45-15.79-10.26l-46.62-83.21c-2.18-3.88-5.57-6.94-9.66-8.7-10.27-4.42-22.17.33-26.59,10.59l-37.69,87.62c-2.63,6.12-8.11,10.55-14.64,11.85l-42.51,8.46-37.39-82.99c-1.83-4.06-4.94-7.4-8.86-9.51-9.84-5.3-22.12-1.61-27.41,8.23l-45.2,84c-3.16,5.87-9,9.8-15.62,10.53l-67.12,7.35-18.62-41.33c-1.83-4.06-4.94-7.4-8.86-9.51-9.84-5.3-22.12-1.61-27.41,8.23l-7,13-17.35.22c1.35-8.08-.67-16.65-7.03-23.77l-9.11-10.21,12.25-9.14c2.61-1.95,6.02-2.49,9.1-1.44l44.2,14.99c2.06.7,4.3.7,6.36,0,5.18-1.76,7.95-7.38,6.19-12.56l-14.98-44.2c-1.05-3.09-.51-6.49,1.44-9.1l27.91-37.41c1.3-1.75,2-3.88,1.97-6.05-.07-5.47-4.56-9.84-10.03-9.77l-46.67.6c-3.26.04-6.33-1.52-8.21-4.18l-26.95-38.1c-1.26-1.78-3.07-3.09-5.15-3.74-5.22-1.62-10.77,1.29-12.39,6.52l-13.85,44.57c-.97,3.11-3.4,5.55-6.52,6.52l-43.95,13.66-10.35-11.6c-6.87-7.62-9.15-18.34-5.98-28.1l45.16-141.26c7.94-24.84-18-46.38-43.9-36.45l-147.26,56.47c-10.13,3.96-21.52,3.03-30.88-2.51l-129.58-78.94c-22.79-13.88-53.75,3.04-52.39,28.63l7.72,145.55c.54,10.16-4.36,20.09-13.11,26.55l-125.25,92.46h0c-22.02,16.26-15.22,48.26,11.52,54.15l152.03,33.49c10.62,2.34,19.14,9.42,22.78,18.92l52.18,136.09c9.18,23.93,44.35,26.79,59.51,4.83l4.14-6c6.41,5.45,15.81,6.53,23.45,2l81.99-48.73c5.73-3.4,12.76-3.77,18.81-.98l48.67,22.43,48.37,50.58c4.6,4.81,6.54,11.59,5.18,18.11l-19.42,93.39h0c-.91,4.36-.35,8.89,1.58,12.9,4.85,10.07,16.95,14.3,27.02,9.46l85.94-41.39c6-2.89,13.04-2.64,18.83.66l82.82,47.33c3.86,2.21,8.35,3.08,12.76,2.48,11.08-1.5,18.84-11.7,17.34-22.77l-7.93-58.55,59.03-28.43c6-2.89,13.04-2.64,18.83.66l82.82,47.33c3.86,2.21,8.35,3.08,12.76,2.48,11.08-1.5,18.84-11.7,17.34-22.77l-1.87-13.83,64.87-38.55c5.73-3.4,12.76-3.77,18.81-.98l48.66,22.43,48.37,50.59c4.6,4.81,6.54,11.59,5.18,18.11l-19.42,93.39h0c-.91,4.36-.35,8.89,1.58,12.9,4.85,10.07,16.95,14.3,27.02,9.46l85.94-41.39c6-2.89,13.04-2.64,18.83.66l82.82,47.33c3.86,2.21,8.35,3.08,12.76,2.48,11.08-1.5,18.84-11.7,17.34-22.77l-12.81-94.52c-.89-6.6,1.52-13.22,6.45-17.7l70.61-64.14c3.3-2.99,5.51-6.99,6.31-11.37,1.99-11-5.3-21.53-16.3-23.53Zm-229.35-32.87c-3.16,5.87-9,9.8-15.62,10.53l-35.62,3.9-8.9-39.43c-1.47-6.5.36-13.3,4.88-18.19l9.17-9.92-3.84,10.15c-1.02,2.71-1.13,5.68-.29,8.46,2.1,6.97,9.45,10.93,16.42,8.83l56.81-17.07-23,42.75Z"/><path class="cls-1" d="m3148.59,675.94l-93.86-17.03c-6.55-1.19-12.1-5.53-14.84-11.6l-12.76-28.32,1.11-50.37c.1-4.34,2.32-8.35,5.95-10.73l51.95-34.09c2.43-1.59,4.26-3.94,5.21-6.68,2.4-6.87-1.22-14.39-8.1-16.79l-58.65-20.51c-4.1-1.43-7.23-4.79-8.37-8.97l-16.36-59.94c-.76-2.8-2.43-5.27-4.74-7.02-5.79-4.41-14.07-3.29-18.47,2.51l-37.63,49.45c-2.63,3.45-6.78,5.39-11.12,5.18l-62.07-2.96h0c-2.9-.14-5.76.68-8.14,2.33-5.98,4.15-7.47,12.36-3.33,18.35l8.54,12.32-42.22-3.9c-6.63-.61-12.54-4.45-15.79-10.26l-46.62-83.21c-2.18-3.88-5.57-6.94-9.66-8.7-10.27-4.42-22.17.33-26.59,10.59l-37.69,87.62c-2.63,6.12-8.11,10.55-14.64,11.85l-42.51,8.46-37.39-82.99c-1.83-4.06-4.94-7.4-8.86-9.51-9.84-5.3-22.12-1.61-27.41,8.23l-45.2,84c-3.16,5.87-9,9.8-15.62,10.53l-67.12,7.35-18.62-41.33c-1.83-4.06-4.94-7.4-8.86-9.51-9.84-5.3-22.12-1.61-27.41,8.23l-7,13-17.35.22c1.35-8.08-.67-16.65-7.03-23.77l-9.11-10.21,12.25-9.14c2.61-1.95,6.02-2.49,9.1-1.44l44.2,14.99c2.06.7,4.3.7,6.36,0,5.18-1.76,7.95-7.38,6.19-12.56l-14.98-44.2c-1.05-3.09-.51-6.49,1.44-9.1l27.91-37.41c1.3-1.75,2-3.88,1.97-6.05-.07-5.47-4.56-9.84-10.03-9.77l-46.67.6c-3.26.04-6.33-1.52-8.21-4.18l-26.95-38.1c-1.26-1.78-3.07-3.09-5.15-3.74-5.22-1.62-10.77,1.29-12.39,6.52l-13.85,44.57c-.97,3.11-3.4,5.55-6.52,6.52l-43.95,13.66-10.35-11.6c-6.87-7.62-9.15-18.34-5.98-28.1l45.16-141.26c7.94-24.84-18-46.38-43.9-36.45l-147.26,56.47c-10.13,3.96-21.52,3.03-30.88-2.51l-129.58-78.94c-22.79-13.88-53.75,3.04-52.39,28.63l7.72,145.55c.54,10.16-4.36,20.09-13.11,26.55l-125.25,92.46h0c-22.02,16.26-15.22,48.26,11.52,54.15l152.03,33.49c10.62,2.34,19.14,9.42,22.78,18.92l52.18,136.09c9.18,23.93,44.35,26.79,59.51,4.83l4.14-6c6.41,5.45,15.81,6.53,23.45,2l81.99-48.73c5.73-3.4,12.76-3.77,18.81-.98l48.67,22.43,48.37,50.58c4.6,4.81,6.54,11.59,5.18,18.11l-19.42,93.39h0c-.91,4.36-.35,8.89,1.58,12.9,4.85,10.07,16.95,14.3,27.02,9.46l85.94-41.39c6-2.89,13.04-2.64,18.83.66l82.82,47.33c3.86,2.21,8.35,3.08,12.76,2.48,11.08-1.5,18.84-11.7,17.34-22.77l-7.93-58.55,59.03-28.43c6-2.89,13.04-2.64,18.83.66l82.82,47.33c3.86,2.21,8.35,3.08,12.76,2.48,11.08-1.5,18.84-11.7,17.34-22.77l-1.87-13.83,64.87-38.55c5.73-3.4,12.76-3.77,18.81-.98l48.66,22.43,48.37,50.59c4.6,4.81,6.54,11.59,5.18,18.11l-19.42,93.39h0c-.91,4.36-.35,8.89,1.58,12.9,4.85,10.07,16.95,14.3,27.02,9.46l85.94-41.39c6-2.89,13.04-2.64,18.83.66l82.82,47.33c3.86,2.21,8.35,3.08,12.76,2.48,11.08-1.5,18.84-11.7,17.34-22.77l-12.81-94.52c-.89-6.6,1.52-13.22,6.45-17.7l70.61-64.14c3.3-2.99,5.51-6.99,6.31-11.37,1.99-11-5.3-21.53-16.3-23.53Zm-229.35-32.87c-3.16,5.87-9,9.8-15.62,10.53l-35.62,3.9-8.9-39.43c-1.47-6.5.36-13.3,4.88-18.19l9.17-9.92-3.84,10.15c-1.02,2.71-1.13,5.68-.29,8.46,2.1,6.97,9.45,10.93,16.42,8.83l56.81-17.07-23,42.75Z"/><path class="cls-1" d="m3082.47,928.59l-93.86-17.03c-6.55-1.19-12.1-5.53-14.84-11.6l-12.76-28.32,1.11-50.37c.1-4.34,2.32-8.35,5.95-10.73l51.95-34.09c2.43-1.59,4.26-3.94,5.21-6.68,2.4-6.87-1.22-14.39-8.1-16.79l-58.65-20.51c-4.1-1.43-7.23-4.79-8.37-8.97l-16.36-59.94c-.76-2.8-2.43-5.27-4.74-7.02-5.79-4.41-14.07-3.29-18.47,2.51l-37.63,49.45c-2.63,3.45-6.78,5.39-11.12,5.18l-62.07-2.96h0c-2.9-.14-5.76.68-8.14,2.33-5.98,4.15-7.47,12.36-3.33,18.35l8.54,12.32-42.22-3.9c-6.63-.61-12.54-4.45-15.79-10.26l-46.62-83.21c-2.18-3.88-5.57-6.94-9.66-8.7-10.27-4.42-22.17.33-26.59,10.59l-37.69,87.62c-2.63,6.12-8.11,10.55-14.64,11.85l-42.51,8.46-37.39-82.99c-1.83-4.06-4.94-7.4-8.86-9.51-9.84-5.3-22.12-1.61-27.41,8.23l-45.2,84c-3.16,5.87-9,9.8-15.62,10.53l-67.12,7.35-18.62-41.33c-1.83-4.06-4.94-7.4-8.86-9.51-9.84-5.3-22.12-1.61-27.41,8.23l-7,13-17.35.22c1.35-8.08-.67-16.65-7.03-23.77l-9.11-10.21,12.25-9.14c2.61-1.95,6.02-2.49,9.1-1.44l44.2,14.99c2.06.7,4.3.7,6.36,0,5.18-1.76,7.95-7.38,6.19-12.56l-14.98-44.2c-1.05-3.09-.51-6.49,1.44-9.1l27.91-37.41c1.3-1.75,2-3.88,1.97-6.05-.07-5.47-4.56-9.84-10.03-9.77l-46.67.6c-3.26.04-6.33-1.52-8.21-4.18l-26.95-38.1c-1.26-1.78-3.07-3.09-5.15-3.74-5.22-1.62-10.77,1.29-12.39,6.52l-13.85,44.57c-.97,3.11-3.4,5.55-6.52,6.52l-43.95,13.66-10.35-11.6c-6.87-7.62-9.15-18.34-5.98-28.1l45.16-141.26c7.94-24.84-18-46.38-43.9-36.45l-147.26,56.47c-10.13,3.96-21.52,3.03-30.88-2.51l-129.58-78.94c-22.79-13.88-53.75,3.04-52.39,28.63l7.72,145.55c.54,10.16-4.36,20.09-13.11,26.55l-125.25,92.46h0c-22.02,16.26-15.22,48.26,11.52,54.15l152.03,33.49c10.62,2.34,19.14,9.42,22.78,18.92l52.18,136.09c9.18,23.93,44.35,26.79,59.51,4.83l4.14-6c6.41,5.45,15.81,6.53,23.45,2l81.99-48.73c5.73-3.4,12.76-3.77,18.81-.98l48.67,22.43,48.37,50.58c4.6,4.81,6.54,11.59,5.18,18.11l-19.42,93.39h0c-.91,4.36-.35,8.89,1.58,12.9,4.85,10.07,16.95,14.3,27.02,9.46l85.94-41.39c6-2.89,13.04-2.64,18.83.66l82.82,47.33c3.86,2.21,8.35,3.08,12.76,2.48,11.08-1.5,18.84-11.7,17.34-22.77l-7.93-58.55,59.03-28.43c6-2.89,13.04-2.64,18.83.66l82.82,47.33c3.86,2.21,8.35,3.08,12.76,2.48,11.08-1.5,18.84-11.7,17.34-22.77l-1.87-13.83,64.87-38.55c5.73-3.4,12.76-3.77,18.81-.98l48.66,22.43,48.37,50.59c4.6,4.81,6.54,11.59,5.18,18.11l-19.42,93.39h0c-.91,4.36-.35,8.89,1.58,12.9,4.85,10.07,16.95,14.3,27.02,9.46l85.94-41.39c6-2.89,13.04-2.64,18.83.66l82.82,47.33c3.86,2.21,8.35,3.08,12.76,2.48,11.08-1.5,18.84-11.7,17.34-22.77l-12.81-94.52c-.89-6.6,1.52-13.22,6.45-17.7l70.61-64.14c3.3-2.99,5.51-6.99,6.31-11.37,1.99-11-5.3-21.53-16.3-23.53Zm-229.35-32.87c-3.16,5.87-9,9.8-15.62,10.53l-35.62,3.9-8.9-39.43c-1.47-6.5.36-13.3,4.88-18.19l9.17-9.92-3.84,10.15c-1.02,2.71-1.13,5.68-.29,8.46,2.1,6.97,9.45,10.93,16.42,8.83l56.81-17.07-23,42.75Z"/><path class="cls-1" d="m3082.47,928.59l-93.86-17.03c-6.55-1.19-12.1-5.53-14.84-11.6l-12.76-28.32,1.11-50.37c.1-4.34,2.32-8.35,5.95-10.73l51.95-34.09c2.43-1.59,4.26-3.94,5.21-6.68,2.4-6.87-1.22-14.39-8.1-16.79l-58.65-20.51c-4.1-1.43-7.23-4.79-8.37-8.97l-16.36-59.94c-.76-2.8-2.43-5.27-4.74-7.02-5.79-4.41-14.07-3.29-18.47,2.51l-37.63,49.45c-2.63,3.45-6.78,5.39-11.12,5.18l-62.07-2.96h0c-2.9-.14-5.76.68-8.14,2.33-5.98,4.15-7.47,12.36-3.33,18.35l8.54,12.32-42.22-3.9c-6.63-.61-12.54-4.45-15.79-10.26l-46.62-83.21c-2.18-3.88-5.57-6.94-9.66-8.7-10.27-4.42-22.17.33-26.59,10.59l-37.69,87.62c-2.63,6.12-8.11,10.55-14.64,11.85l-42.51,8.46-37.39-82.99c-1.83-4.06-4.94-7.4-8.86-9.51-9.84-5.3-22.12-1.61-27.41,8.23l-45.2,84c-3.16,5.87-9,9.8-15.62,10.53l-67.12,7.35-18.62-41.33c-1.83-4.06-4.94-7.4-8.86-9.51-9.84-5.3-22.12-1.61-27.41,8.23l-7,13-17.35.22c1.35-8.08-.67-16.65-7.03-23.77l-9.11-10.21,12.25-9.14c2.61-1.95,6.02-2.49,9.1-1.44l44.2,14.99c2.06.7,4.3.7,6.36,0,5.18-1.76,7.95-7.38,6.19-12.56l-14.98-44.2c-1.05-3.09-.51-6.49,1.44-9.1l27.91-37.41c1.3-1.75,2-3.88,1.97-6.05-.07-5.47-4.56-9.84-10.03-9.77l-46.67.6c-3.26.04-6.33-1.52-8.21-4.18l-26.95-38.1c-1.26-1.78-3.07-3.09-5.15-3.74-5.22-1.62-10.77,1.29-12.39,6.52l-13.85,44.57c-.97,3.11-3.4,5.55-6.52,6.52l-43.95,13.66-10.35-11.6c-6.87-7.62-9.15-18.34-5.98-28.1l45.16-141.26c7.94-24.84-18-46.38-43.9-36.45l-147.26,56.47c-10.13,3.96-21.52,3.03-30.88-2.51l-129.58-78.94c-22.79-13.88-53.75,3.04-52.39,28.63l7.72,145.55c.54,10.16-4.36,20.09-13.11,26.55l-125.25,92.46h0c-22.02,16.26-15.22,48.26,11.52,54.15l152.03,33.49c10.62,2.34,19.14,9.42,22.78,18.92l52.18,136.09c9.18,23.93,44.35,26.79,59.51,4.83l4.14-6c6.41,5.45,15.81,6.53,23.45,2l81.99-48.73c5.73-3.4,12.76-3.77,18.81-.98l48.67,22.43,48.37,50.58c4.6,4.81,6.54,11.59,5.18,18.11l-19.42,93.39h0c-.91,4.36-.35,8.89,1.58,12.9,4.85,10.07,16.95,14.3,27.02,9.46l85.94-41.39c6-2.89,13.04-2.64,18.83.66l82.82,47.33c3.86,2.21,8.35,3.08,12.76,2.48,11.08-1.5,18.84-11.7,17.34-22.77l-7.93-58.55,59.03-28.43c6-2.89,13.04-2.64,18.83.66l82.82,47.33c3.86,2.21,8.35,3.08,12.76,2.48,11.08-1.5,18.84-11.7,17.34-22.77l-1.87-13.83,64.87-38.55c5.73-3.4,12.76-3.77,18.81-.98l48.66,22.43,48.37,50.59c4.6,4.81,6.54,11.59,5.18,18.11l-19.42,93.39h0c-.91,4.36-.35,8.89,1.58,12.9,4.85,10.07,16.95,14.3,27.02,9.46l85.94-41.39c6-2.89,13.04-2.64,18.83.66l82.82,47.33c3.86,2.21,8.35,3.08,12.76,2.48,11.08-1.5,18.84-11.7,17.34-22.77l-12.81-94.52c-.89-6.6,1.52-13.22,6.45-17.7l70.61-64.14c3.3-2.99,5.51-6.99,6.31-11.37,1.99-11-5.3-21.53-16.3-23.53Zm-229.35-32.87c-3.16,5.87-9,9.8-15.62,10.53l-35.62,3.9-8.9-39.43c-1.47-6.5.36-13.3,4.88-18.19l9.17-9.92-3.84,10.15c-1.02,2.71-1.13,5.68-.29,8.46,2.1,6.97,9.45,10.93,16.42,8.83l56.81-17.07-23,42.75Z"/><g id="Group_56-8-82"><path id="Path_88-8-82" class="cls-1" d="m2730.81,482.56l-4.39-12.56c-.31-.88-1.02-1.55-1.92-1.79l-12.84-3.51c-1.5-.41-2.39-1.96-1.98-3.47.16-.6.52-1.13,1.02-1.5l10.59-8.05c.74-.56,1.16-1.45,1.11-2.38l-.63-13.29c-.07-1.56,1.13-2.88,2.69-2.95.62-.03,1.23.15,1.74.5l10.93,7.59c.76.53,1.74.65,2.61.32l12.45-4.71c1.46-.55,3.09.18,3.64,1.64.22.58.24,1.22.06,1.81l-3.84,12.74c-.27.89-.08,1.85.5,2.58l8.32,10.38c.98,1.22.78,2.99-.44,3.97-.48.39-1.08.61-1.7.62l-13.3.29c-.93.02-1.79.5-2.3,1.27l-7.3,11.13c-.86,1.3-2.61,1.67-3.91.81-.52-.34-.91-.84-1.12-1.43"/></g><g id="Group_56-8-83"><path id="Path_88-8-83" class="cls-1" d="m2730.81,482.56l-4.39-12.56c-.31-.88-1.02-1.55-1.92-1.79l-12.84-3.51c-1.5-.41-2.39-1.96-1.98-3.47.16-.6.52-1.13,1.02-1.5l10.59-8.05c.74-.56,1.16-1.45,1.11-2.38l-.63-13.29c-.07-1.56,1.13-2.88,2.69-2.95.62-.03,1.23.15,1.74.5l10.93,7.59c.76.53,1.74.65,2.61.32l12.45-4.71c1.46-.55,3.09.18,3.64,1.64.22.58.24,1.22.06,1.81l-3.84,12.74c-.27.89-.08,1.85.5,2.58l8.32,10.38c.98,1.22.78,2.99-.44,3.97-.48.39-1.08.61-1.7.62l-13.3.29c-.93.02-1.79.5-2.3,1.27l-7.3,11.13c-.86,1.3-2.61,1.67-3.91.81-.52-.34-.91-.84-1.12-1.43"/></g><path class="cls-1" d="m2395.77,602.45l57.52-4.92c4.02-.34,7.95,1.31,10.51,4.43l11.94,14.52,7.33,29.6c.63,2.55-.03,5.25-1.78,7.21l-24.95,28.14c-1.16,1.31-1.86,2.97-1.99,4.73-.31,4.4,2.99,8.21,7.39,8.53l37.51,2.69c2.62.19,4.98,1.65,6.31,3.92l19.05,32.42c.89,1.51,2.25,2.69,3.88,3.35,4.08,1.66,8.74-.31,10.39-4.39l14.15-34.84c.99-2.43,3.11-4.22,5.67-4.79l36.72-8.1h0c1.71-.38,3.25-1.31,4.38-2.65,2.84-3.37,2.41-8.4-.96-11.24l-6.94-5.84,25.28-4.41c3.97-.69,8.03.61,10.85,3.49l40.41,41.23c1.89,1.92,4.35,3.17,7.02,3.55,6.7.95,12.9-3.7,13.85-10.4l8.14-57.15c.57-3.99,3.07-7.45,6.68-9.24l23.49-11.68,34.98,42.56c1.71,2.08,4.06,3.54,6.68,4.15,6.59,1.53,13.17-2.56,14.71-9.15l13.1-56.23c.91-3.93,3.7-7.15,7.46-8.62l38.05-14.92,17.42,21.19c1.71,2.08,4.06,3.54,6.68,4.15,6.59,1.53,13.17-2.56,14.71-9.15l2.03-8.7,10.1-2.88c.49,4.93,3.03,9.62,7.87,12.77l6.94,4.52-5.71,7.28c-1.22,1.55-3.12,2.41-5.09,2.28l-28.19-1.76c-1.32-.08-2.62.27-3.72,1.01-2.75,1.85-3.48,5.57-1.63,8.32l15.75,23.44c1.1,1.64,1.32,3.71.6,5.54l-10.38,26.27c-.49,1.23-.55,2.58-.19,3.85.91,3.18,4.22,5.03,7.41,4.12l27.17-7.74c1.9-.54,3.94-.11,5.46,1.14l21.78,17.99c1.02.84,2.28,1.32,3.6,1.37,3.31.12,6.09-2.46,6.21-5.77l1.03-28.23c.07-1.97,1.11-3.78,2.77-4.84l23.51-14.94,7.88,5.14c5.22,3.37,8.25,9.26,7.94,15.47l-4.01,89.67c-.71,15.77,17.86,24.24,31.41,14.34l77.08-56.31c5.29-3.92,12.09-5.18,18.44-3.42l88.2,25.59c15.51,4.5,30.91-10.28,26.07-25.02l-27.56-83.8c-1.92-5.85-.63-12.42,3.45-17.58l58.52-73.85h0c10.29-12.99,1.25-30.6-15.3-29.81l-94.11,4.51c-6.57.31-12.67-2.47-16.3-7.44l-52.03-71.23c-9.15-12.53-30.15-8.63-35.53,6.6l-1.47,4.16c-4.61-2.17-10.27-1.31-14.01,2.55l-40.18,41.45c-2.81,2.89-6.86,4.22-10.83,3.55l-31.98-5.39-36.26-21.89c-3.45-2.08-5.66-5.73-5.9-9.76l-3.44-57.63h0c-.16-2.69-1.2-5.25-2.97-7.29-4.43-5.12-12.16-5.67-17.28-1.24l-43.65,37.79c-3.05,2.64-7.2,3.61-11.1,2.6l-55.87-14.53c-2.61-.68-5.37-.48-7.85.57-6.23,2.63-9.15,9.82-6.52,16.05l13.91,32.95-29.98,25.96c-3.05,2.64-7.2,3.61-11.1,2.6l-55.87-14.53c-2.61-.68-5.37-.48-7.85.57-6.23,2.63-9.15,9.82-6.52,16.05l3.28,7.78-31.79,32.79c-2.81,2.89-6.86,4.22-10.83,3.55l-31.98-5.39-36.27-21.89c-3.45-2.08-5.66-5.73-5.9-9.76l-3.44-57.63h0c-.16-2.69-1.2-5.25-2.97-7.29-4.43-5.12-12.16-5.67-17.28-1.24l-43.65,37.79c-3.05,2.64-7.2,3.61-11.1,2.6l-55.87-14.53c-2.61-.68-5.37-.48-7.85.57-6.23,2.63-9.15,9.82-6.52,16.05l22.45,53.19c1.57,3.71,1.21,7.96-.96,11.36l-31.09,48.65c-1.45,2.27-2.11,4.96-1.88,7.64.58,6.74,6.51,11.74,13.25,11.16Zm139.18-17.12c.91-3.93,3.7-7.15,7.46-8.62l20.19-7.92,11.45,21.62c1.89,3.56,1.9,7.83.03,11.4l-3.79,7.25.64-6.54c.17-1.75-.24-3.5-1.17-4.99-2.33-3.74-7.25-4.89-10.99-2.56l-30.48,18.97,6.67-28.61Z"/><path class="cls-1" d="m2395.77,602.45l57.52-4.92c4.02-.34,7.95,1.31,10.51,4.43l11.94,14.52,7.33,29.6c.63,2.55-.03,5.25-1.78,7.21l-24.95,28.14c-1.16,1.31-1.86,2.97-1.99,4.73-.31,4.4,2.99,8.21,7.39,8.53l37.51,2.69c2.62.19,4.98,1.65,6.31,3.92l19.05,32.42c.89,1.51,2.25,2.69,3.88,3.35,4.08,1.66,8.74-.31,10.39-4.39l14.15-34.84c.99-2.43,3.11-4.22,5.67-4.79l36.72-8.1h0c1.71-.38,3.25-1.31,4.38-2.65,2.84-3.37,2.41-8.4-.96-11.24l-6.94-5.84,25.28-4.41c3.97-.69,8.03.61,10.85,3.49l40.41,41.23c1.89,1.92,4.35,3.17,7.02,3.55,6.7.95,12.9-3.7,13.85-10.4l8.14-57.15c.57-3.99,3.07-7.45,6.68-9.24l23.49-11.68,34.98,42.56c1.71,2.08,4.06,3.54,6.68,4.15,6.59,1.53,13.17-2.56,14.71-9.15l13.1-56.23c.91-3.93,3.7-7.15,7.46-8.62l38.05-14.92,17.42,21.19c1.71,2.08,4.06,3.54,6.68,4.15,6.59,1.53,13.17-2.56,14.71-9.15l2.03-8.7,10.1-2.88c.49,4.93,3.03,9.62,7.87,12.77l6.94,4.52-5.71,7.28c-1.22,1.55-3.12,2.41-5.09,2.28l-28.19-1.76c-1.32-.08-2.62.27-3.72,1.01-2.75,1.85-3.48,5.57-1.63,8.32l15.75,23.44c1.1,1.64,1.32,3.71.6,5.54l-10.38,26.27c-.49,1.23-.55,2.58-.19,3.85.91,3.18,4.22,5.03,7.41,4.12l27.17-7.74c1.9-.54,3.94-.11,5.46,1.14l21.78,17.99c1.02.84,2.28,1.32,3.6,1.37,3.31.12,6.09-2.46,6.21-5.77l1.03-28.23c.07-1.97,1.11-3.78,2.77-4.84l23.51-14.94,7.88,5.14c5.22,3.37,8.25,9.26,7.94,15.47l-4.01,89.67c-.71,15.77,17.86,24.24,31.41,14.34l77.08-56.31c5.29-3.92,12.09-5.18,18.44-3.42l88.2,25.59c15.51,4.5,30.91-10.28,26.07-25.02l-27.56-83.8c-1.92-5.85-.63-12.42,3.45-17.58l58.52-73.85h0c10.29-12.99,1.25-30.6-15.3-29.81l-94.11,4.51c-6.57.31-12.67-2.47-16.3-7.44l-52.03-71.23c-9.15-12.53-30.15-8.63-35.53,6.6l-1.47,4.16c-4.61-2.17-10.27-1.31-14.01,2.55l-40.18,41.45c-2.81,2.89-6.86,4.22-10.83,3.55l-31.98-5.39-36.26-21.89c-3.45-2.08-5.66-5.73-5.9-9.76l-3.44-57.63h0c-.16-2.69-1.2-5.25-2.97-7.29-4.43-5.12-12.16-5.67-17.28-1.24l-43.65,37.79c-3.05,2.64-7.2,3.61-11.1,2.6l-55.87-14.53c-2.61-.68-5.37-.48-7.85.57-6.23,2.63-9.15,9.82-6.52,16.05l13.91,32.95-29.98,25.96c-3.05,2.64-7.2,3.61-11.1,2.6l-55.87-14.53c-2.61-.68-5.37-.48-7.85.57-6.23,2.63-9.15,9.82-6.52,16.05l3.28,7.78-31.79,32.79c-2.81,2.89-6.86,4.22-10.83,3.55l-31.98-5.39-36.27-21.89c-3.45-2.08-5.66-5.73-5.9-9.76l-3.44-57.63h0c-.16-2.69-1.2-5.25-2.97-7.29-4.43-5.12-12.16-5.67-17.28-1.24l-43.65,37.79c-3.05,2.64-7.2,3.61-11.1,2.6l-55.87-14.53c-2.61-.68-5.37-.48-7.85.57-6.23,2.63-9.15,9.82-6.52,16.05l22.45,53.19c1.57,3.71,1.21,7.96-.96,11.36l-31.09,48.65c-1.45,2.27-2.11,4.96-1.88,7.64.58,6.74,6.51,11.74,13.25,11.16Zm139.18-17.12c.91-3.93,3.7-7.15,7.46-8.62l20.19-7.92,11.45,21.62c1.89,3.56,1.9,7.83.03,11.4l-3.79,7.25.64-6.54c.17-1.75-.24-3.5-1.17-4.99-2.33-3.74-7.25-4.89-10.99-2.56l-30.48,18.97,6.67-28.61Z"/></svg>