<?xml version="1.0" encoding="UTF-8"?><svg id="Layer_1" xmlns="http://www.w3.org/2000/svg" viewBox="0 0 1862.02 388.94"><defs><style>.cls-1{fill:#feffe6;stroke-width:0px;}</style></defs><g id="Group_56-8"><path id="Path_88-8" class="cls-1" d="m155.54-108.94L183.4.45c1.94,7.64,7.52,13.83,14.92,16.56l105.89,39.08c12.41,4.57,18.76,18.34,14.19,30.75-1.82,4.95-5.23,9.15-9.68,11.97l-95.44,60.29c-6.66,4.21-10.83,11.43-11.14,19.31l-4.43,112.8c-.51,13.21-11.64,23.51-24.86,22.99-5.27-.21-10.32-2.14-14.37-5.51l-86.82-72.13c-6.06-5.04-14.22-6.77-21.8-4.63l-108.64,30.64c-12.73,3.59-25.96-3.81-29.55-16.54-1.43-5.07-1.15-10.48.8-15.37l41.76-104.87c2.92-7.32,2.04-15.61-2.34-22.17L-110.83,9.75c-7.35-11-4.39-25.87,6.61-33.21,4.38-2.93,9.6-4.33,14.86-3.99l112.64,7.31c7.87.51,15.48-2.88,20.36-9.07l69.88-88.65c8.18-10.39,23.24-12.18,33.63-3.99,4.14,3.26,7.09,7.8,8.39,12.91"/></g><g id="Group_56-8-2"><path id="Path_88-8-2" class="cls-1" d="m283.5,187.38l5.21,20.47c.36,1.43,1.41,2.59,2.79,3.1l19.81,7.31c2.32.86,3.51,3.43,2.65,5.75-.34.93-.98,1.71-1.81,2.24l-17.86,11.28c-1.25.79-2.03,2.14-2.08,3.61l-.83,21.1c-.1,2.47-2.18,4.4-4.65,4.3-.99-.04-1.93-.4-2.69-1.03l-16.24-13.5c-1.13-.94-2.66-1.27-4.08-.87l-20.33,5.73c-2.38.67-4.86-.71-5.53-3.09-.27-.95-.22-1.96.15-2.88l7.81-19.62c.55-1.37.38-2.92-.44-4.15l-11.73-17.56c-1.37-2.06-.82-4.84,1.24-6.21.82-.55,1.8-.81,2.78-.75l21.08,1.37c1.47.1,2.9-.54,3.81-1.7l13.08-16.59c1.53-1.94,4.35-2.28,6.29-.75.78.61,1.33,1.46,1.57,2.42"/></g><g id="Group_56-8-3"><path id="Path_88-8-3" class="cls-1" d="m470.43,287.57l5.21,20.47c.36,1.43,1.41,2.59,2.79,3.1l19.81,7.31c2.32.86,3.51,3.43,2.65,5.75-.34.93-.98,1.71-1.81,2.24l-17.86,11.28c-1.25.79-2.03,2.14-2.08,3.61l-.83,21.1c-.1,2.47-2.18,4.4-4.65,4.3-.99-.04-1.93-.4-2.69-1.03l-16.24-13.5c-1.13-.94-2.66-1.27-4.08-.87l-20.33,5.73c-2.38.67-4.86-.71-5.53-3.09-.27-.95-.22-1.96.15-2.88l7.81-19.62c.55-1.37.38-2.92-.44-4.15l-11.73-17.56c-1.37-2.06-.82-4.84,1.24-6.21.82-.55,1.8-.81,2.78-.75l21.08,1.37c1.47.1,2.9-.54,3.81-1.7l13.08-16.59c1.53-1.94,4.35-2.28,6.29-.75.78.61,1.33,1.46,1.57,2.42"/></g><g id="Group_56-8-4"><path id="Path_88-8-4" class="cls-1" d="m364.06,312.94l1.98,7.78c.14.54.53.98,1.06,1.18l7.53,2.78c.88.33,1.33,1.3,1.01,2.19-.13.35-.37.65-.69.85l-6.79,4.29c-.47.3-.77.81-.79,1.37l-.32,8.02c-.04.94-.83,1.67-1.77,1.63-.37-.01-.73-.15-1.02-.39l-6.17-5.13c-.43-.36-1.01-.48-1.55-.33l-7.72,2.18c-.9.26-1.85-.27-2.1-1.18-.1-.36-.08-.74.06-1.09l2.97-7.46c.21-.52.15-1.11-.17-1.58l-4.46-6.67c-.52-.78-.31-1.84.47-2.36.31-.21.68-.31,1.06-.28l8.01.52c.56.04,1.1-.2,1.45-.64l4.97-6.3c.58-.74,1.65-.87,2.39-.28.29.23.5.55.6.92"/></g><path class="cls-1" d="m1862.02,6.7H4.71l12.33,45.18c.59,2.14,1.86,4.02,3.62,5.37,4.44,3.38,10.77,2.52,14.15-1.91l28.82-37.87c.26-.34.54-.67.84-.97l39.29,102.47c9.18,23.93,44.35,26.79,59.51,4.83l4.14-6c6.41,5.45,15.81,6.53,23.45,2l81.99-48.73c5.73-3.4,12.76-3.77,18.81-.98l48.67,22.43,48.37,50.58c4.6,4.81,6.54,11.59,5.18,18.11l-19.42,93.39h0c-.91,4.36-.35,8.89,1.58,12.9,4.85,10.07,16.95,14.3,27.02,9.46l85.94-41.39c6-2.89,13.04-2.64,18.83.66l82.82,47.33c3.86,2.21,8.35,3.08,12.76,2.48,11.08-1.5,18.84-11.7,17.34-22.77l-7.93-58.55,59.03-28.43c6-2.89,13.04-2.64,18.83.66l82.82,47.33c3.86,2.21,8.35,3.08,12.76,2.48,11.08-1.5,18.84-11.7,17.34-22.77l-1.87-13.83,64.87-38.55c5.73-3.4,12.76-3.77,18.81-.98l48.66,22.43,48.37,50.59c4.6,4.81,6.54,11.59,5.18,18.11l-19.42,93.39h0c-.91,4.36-.35,8.89,1.58,12.9,4.85,10.07,16.95,14.3,27.02,9.46l85.94-41.39c6-2.89,13.04-2.64,18.83.66l82.82,47.33c3.86,2.21,8.35,3.08,12.76,2.48,11.08-1.5,18.84-11.7,17.34-22.77l-5.02-37.02,90.49-63.51c6.45-4.53,14.72-5.59,22.11-2.84l59.29,22.05,8.51,63.68c.7,5.23,3.1,10.08,6.83,13.8,9.37,9.33,24.53,9.31,33.86-.06l79.7-79.93c5.57-5.58,13.52-8.07,21.28-6.65l111.02,20.36c5.19.95,10.54.17,15.23-2.23,2.34-1.2,4.39-2.73,6.14-4.51,3.4-1.15,6.6-3.05,9.3-5.76l79.7-79.93c5.57-5.58,13.52-8.07,21.28-6.65l111.02,20.36c5.19.95,10.54.17,15.23-2.23,11.77-6.02,16.43-20.45,10.41-32.22l-51.39-100.51c-3.59-7.02-3.49-15.35.25-22.29"/></svg>