<?xml version="1.0" encoding="UTF-8"?><svg id="Layer_1" xmlns="http://www.w3.org/2000/svg" viewBox="0 0 2017.38 1664.33"><defs><style>.cls-1{fill:#17b975;stroke-width:0px;}</style></defs><g id="Group_121"><path id="Path_170" class="cls-1" d="m548.69,525.9l37.13,29.78c2.59,2.08,6.04,2.75,9.22,1.79l45.58-13.7c5.34-1.6,10.97,1.42,12.58,6.77.64,2.12.56,4.4-.22,6.48l-16.85,44.51c-1.17,3.11-.74,6.59,1.15,9.33l27.12,39.11c3.18,4.59,2.03,10.88-2.55,14.05-1.82,1.26-4.01,1.89-6.22,1.78l-47.55-2.26c-3.32-.16-6.51,1.33-8.52,3.97l-28.82,37.87c-3.38,4.44-9.72,5.29-14.15,1.91-1.76-1.34-3.04-3.23-3.62-5.37l-12.53-45.91c-.87-3.21-3.27-5.78-6.41-6.87l-44.93-15.7c-5.26-1.84-8.04-7.61-6.19-12.87.73-2.09,2.14-3.89,3.99-5.11l39.8-26.11c2.78-1.82,4.48-4.9,4.55-8.22l1.05-47.58c.13-5.58,4.75-10,10.33-9.87,2.22.05,4.36.83,6.09,2.22"/></g><g id="Group_121-2"><path id="Path_170-2" class="cls-1" d="m168.15,1019.1l37.13,29.78c2.59,2.08,6.04,2.75,9.22,1.79l45.58-13.7c5.34-1.6,10.97,1.42,12.58,6.77.64,2.12.56,4.4-.22,6.48l-16.85,44.51c-1.17,3.11-.74,6.59,1.15,9.33l27.12,39.11c3.18,4.59,2.03,10.88-2.55,14.05-1.82,1.26-4.01,1.89-6.22,1.78l-47.55-2.26c-3.32-.16-6.51,1.33-8.52,3.97l-28.82,37.87c-3.38,4.44-9.72,5.29-14.15,1.91-1.76-1.34-3.04-3.23-3.62-5.37l-12.53-45.91c-.87-3.21-3.27-5.78-6.41-6.87l-44.93-15.7c-5.26-1.84-8.04-7.61-6.19-12.87.73-2.09,2.14-3.89,3.99-5.11l39.8-26.11c2.78-1.82,4.48-4.9,4.55-8.22l1.05-47.58c.13-5.58,4.75-10,10.33-9.87,2.22.05,4.36.83,6.09,2.22"/></g><g id="Group_56-8"><path id="Path_88-8" class="cls-1" d="m972.63,812.54l46.62,2.22c3.26.16,6.38-1.3,8.35-3.89l28.26-37.14c3.31-4.35,9.52-5.2,13.87-1.89,1.73,1.32,2.99,3.17,3.56,5.28l12.29,45.02c.86,3.14,3.21,5.66,6.28,6.74l44.06,15.4c5.16,1.8,7.89,7.45,6.08,12.61-.72,2.06-2.1,3.82-3.92,5.02l-39.02,25.6c-2.73,1.79-4.4,4.8-4.47,8.06l-1.03,46.66c-.12,5.47-4.65,9.8-10.11,9.68-2.18-.05-4.28-.81-5.98-2.18l-36.41-29.2c-2.54-2.04-5.92-2.7-9.05-1.76l-44.69,13.44c-5.24,1.57-10.76-1.39-12.33-6.63-.63-2.09-.55-4.32.22-6.36l16.52-43.65c1.15-3.05.73-6.47-1.12-9.15l-26.59-38.36c-3.12-4.49-2-10.66,2.49-13.78,1.79-1.24,3.94-1.86,6.12-1.75"/></g><g id="Group_56-8-2"><path id="Path_88-8-2" class="cls-1" d="m1594.58,812.54l46.62,2.22c3.26.16,6.38-1.3,8.35-3.89l28.26-37.14c3.31-4.35,9.52-5.2,13.87-1.89,1.73,1.32,2.99,3.17,3.56,5.28l12.29,45.02c.86,3.14,3.21,5.66,6.28,6.74l44.06,15.4c5.16,1.8,7.89,7.45,6.08,12.61-.72,2.06-2.1,3.82-3.92,5.02l-39.02,25.6c-2.73,1.79-4.4,4.8-4.47,8.06l-1.03,46.66c-.12,5.47-4.65,9.8-10.11,9.68-2.18-.05-4.28-.81-5.98-2.18l-36.41-29.2c-2.54-2.04-5.92-2.7-9.05-1.76l-44.69,13.44c-5.24,1.57-10.76-1.39-12.33-6.63-.63-2.09-.55-4.32.22-6.36l16.52-43.65c1.15-3.05.73-6.47-1.12-9.15l-26.59-38.36c-3.12-4.49-2-10.66,2.49-13.78,1.79-1.24,3.94-1.86,6.12-1.75"/></g><g id="Group_56-8-3"><path id="Path_88-8-3" class="cls-1" d="m1323.83,744.99l46.62,2.22c3.26.16,6.38-1.3,8.35-3.89l28.26-37.14c3.31-4.35,9.52-5.2,13.87-1.89,1.73,1.32,2.99,3.17,3.56,5.28l12.29,45.02c.86,3.14,3.21,5.66,6.28,6.74l44.06,15.4c5.16,1.8,7.89,7.45,6.08,12.61-.72,2.06-2.1,3.82-3.92,5.02l-39.02,25.6c-2.73,1.79-4.4,4.8-4.47,8.06l-1.03,46.66c-.12,5.47-4.65,9.8-10.11,9.68-2.18-.05-4.28-.81-5.98-2.18l-36.41-29.2c-2.54-2.04-5.92-2.7-9.05-1.76l-44.69,13.44c-5.24,1.57-10.76-1.39-12.33-6.63-.63-2.09-.55-4.32.22-6.36l16.52-43.65c1.15-3.05.73-6.47-1.12-9.15l-26.59-38.36c-3.12-4.49-2-10.66,2.49-13.78,1.79-1.24,3.94-1.86,6.12-1.75"/></g><g id="Group_56-8-4"><path id="Path_88-8-4" class="cls-1" d="m1238.16,1187.77l108.73-30.36c7.59-2.12,13.65-7.84,16.21-15.29l36.64-106.76c4.29-12.51,17.91-19.17,30.42-14.88,4.99,1.71,9.27,5.02,12.18,9.41l62.45,94.03c4.36,6.57,11.67,10.57,19.55,10.69l112.87,1.85c13.22.21,23.77,11.1,23.56,24.33-.08,5.27-1.91,10.37-5.18,14.5l-70.12,88.45c-4.9,6.18-6.44,14.37-4.13,21.9l33.12,107.91c3.88,12.64-3.21,26.04-15.86,29.92-5.04,1.55-10.45,1.39-15.39-.45l-105.8-39.36c-7.39-2.75-15.65-1.69-22.11,2.84l-92.4,64.85c-10.82,7.6-25.76,4.98-33.36-5.84-3.03-4.31-4.55-9.5-4.32-14.77l4.74-112.78c.33-7.88-3.23-15.41-9.53-20.15l-90.23-67.84c-10.57-7.94-12.71-22.95-4.76-33.53,3.17-4.22,7.64-7.27,12.72-8.68"/></g><g id="Group_56-8-5"><path id="Path_88-8-5" class="cls-1" d="m1378.12,924.78l77.87,81.72c5.44,5.71,13.33,8.37,21.12,7.13l111.46-17.8c13.06-2.09,25.34,6.8,27.43,19.86.83,5.2-.07,10.54-2.58,15.18l-53.67,99.31c-3.75,6.93-3.84,15.27-.26,22.29l51.39,100.51c6.02,11.77,1.36,26.2-10.41,32.22-4.69,2.4-10.05,3.19-15.23,2.23l-111.02-20.36c-7.75-1.42-15.71,1.06-21.28,6.65l-79.7,79.93c-9.33,9.37-24.5,9.39-33.86.06-3.73-3.72-6.14-8.57-6.83-13.8l-14.96-111.89c-1.04-7.81-5.87-14.61-12.89-18.18l-100.65-51.1c-11.79-5.99-16.5-20.4-10.51-32.19,2.39-4.7,6.25-8.48,11-10.75l101.78-48.8c7.11-3.41,12.09-10.09,13.31-17.88l17.5-111.52c2.05-13.07,14.29-22,27.36-19.95,5.21.82,10,3.33,13.64,7.15"/></g><g id="Group_56-8-6"><path id="Path_88-8-6" class="cls-1" d="m1590.8,1054.28l77.87,81.72c5.44,5.71,13.33,8.37,21.12,7.13l111.46-17.8c13.06-2.09,25.34,6.8,27.43,19.86.83,5.2-.07,10.54-2.58,15.18l-53.67,99.31c-3.75,6.93-3.84,15.27-.26,22.29l51.39,100.51c6.02,11.77,1.36,26.2-10.41,32.22-4.69,2.4-10.05,3.19-15.23,2.23l-111.02-20.36c-7.75-1.42-15.71,1.06-21.28,6.65l-79.7,79.93c-9.33,9.37-24.5,9.39-33.86.06-3.73-3.72-6.14-8.57-6.83-13.8l-14.96-111.89c-1.04-7.81-5.87-14.61-12.89-18.18l-100.65-51.1c-11.79-5.99-16.5-20.4-10.51-32.19,2.39-4.7,6.25-8.48,11-10.75l101.78-48.8c7.11-3.41,12.09-10.09,13.31-17.88l17.5-111.52c2.05-13.07,14.29-22,27.36-19.95,5.21.82,10,3.33,13.64,7.15"/></g><g id="Group_56-8-7"><path id="Path_88-8-7" class="cls-1" d="m1749.51,867.36l27.86,109.39c1.94,7.64,7.52,13.83,14.92,16.56l105.89,39.08c12.41,4.57,18.76,18.34,14.19,30.75-1.82,4.95-5.23,9.15-9.68,11.97l-95.44,60.29c-6.66,4.21-10.83,11.43-11.14,19.31l-4.43,112.8c-.51,13.21-11.64,23.51-24.86,22.99-5.27-.21-10.32-2.14-14.37-5.51l-86.82-72.13c-6.06-5.04-14.22-6.77-21.8-4.63l-108.64,30.64c-12.73,3.59-25.96-3.81-29.55-16.54-1.43-5.07-1.15-10.48.8-15.37l41.76-104.87c2.92-7.32,2.04-15.61-2.34-22.17l-62.72-93.85c-7.35-11-4.39-25.87,6.61-33.21,4.38-2.93,9.6-4.33,14.86-3.99l112.64,7.31c7.87.51,15.48-2.88,20.36-9.07l69.88-88.65c8.18-10.39,23.24-12.18,33.63-3.99,4.14,3.26,7.09,7.8,8.39,12.91"/></g><g id="Group_56-8-8"><path id="Path_88-8-8" class="cls-1" d="m1826.67,679.67l100.87,105.85c7.04,7.39,17.27,10.84,27.35,9.23l144.37-23.06c16.91-2.71,32.82,8.81,35.53,25.72,1.08,6.74-.1,13.65-3.34,19.66l-69.52,128.63c-4.85,8.98-4.98,19.78-.33,28.87l66.56,130.18c7.8,15.25,1.77,33.94-13.48,41.74-6.08,3.11-13.01,4.13-19.73,2.89l-143.8-26.37c-10.04-1.84-20.35,1.38-27.56,8.61l-103.24,103.53c-12.09,12.13-31.73,12.17-43.86.08-4.84-4.82-7.95-11.1-8.85-17.87l-19.38-144.92c-1.35-10.12-7.6-18.93-16.7-23.55l-130.37-66.19c-15.27-7.75-21.37-26.42-13.61-41.7,3.09-6.08,8.1-10.98,14.25-13.93l131.84-63.21c9.21-4.41,15.65-13.07,17.24-23.16l22.67-144.45c2.65-16.92,18.52-28.49,35.44-25.84,6.75,1.06,12.96,4.31,17.67,9.26"/></g><g id="Group_56-8-9"><path id="Path_88-8-9" class="cls-1" d="m1833.48,975.56l77.87,81.72c5.44,5.71,13.33,8.37,21.12,7.13l111.46-17.8c13.06-2.09,25.34,6.8,27.43,19.86.83,5.2-.07,10.54-2.58,15.18l-53.67,99.31c-3.75,6.93-3.84,15.27-.26,22.29l51.39,100.51c6.02,11.77,1.36,26.2-10.41,32.22-4.69,2.4-10.05,3.19-15.23,2.23l-111.02-20.36c-7.75-1.42-15.71,1.06-21.28,6.65l-79.7,79.93c-9.33,9.37-24.5,9.39-33.86.06-3.73-3.72-6.14-8.57-6.83-13.8l-14.96-111.89c-1.04-7.81-5.87-14.61-12.89-18.18l-100.65-51.1c-11.79-5.99-16.5-20.4-10.51-32.19,2.39-4.7,6.25-8.48,11-10.75l101.78-48.8c7.11-3.41,12.09-10.09,13.31-17.88l17.5-111.52c2.05-13.07,14.29-22,27.36-19.95,5.21.82,10,3.33,13.64,7.15"/></g><g id="Group_56-8-10"><path id="Path_88-8-10" class="cls-1" d="m1096.13,1175.24l46.62,2.22c3.26.16,6.38-1.3,8.35-3.89l28.26-37.14c3.31-4.35,9.52-5.2,13.87-1.89,1.73,1.32,2.99,3.17,3.56,5.28l12.29,45.02c.86,3.14,3.21,5.66,6.28,6.74l44.06,15.4c5.16,1.8,7.89,7.45,6.08,12.61-.72,2.06-2.1,3.82-3.92,5.02l-39.02,25.6c-2.73,1.79-4.4,4.8-4.47,8.06l-1.03,46.66c-.12,5.47-4.65,9.8-10.11,9.68-2.18-.05-4.28-.81-5.98-2.18l-36.41-29.2c-2.54-2.04-5.92-2.7-9.05-1.76l-44.69,13.44c-5.24,1.57-10.76-1.39-12.33-6.63-.63-2.09-.55-4.32.22-6.36l16.52-43.65c1.15-3.05.73-6.47-1.12-9.15l-26.59-38.36c-3.12-4.49-2-10.66,2.49-13.78,1.79-1.24,3.94-1.86,6.12-1.75"/></g><path class="cls-1" d="m1424.08,1275.78l-93.86-17.03c-6.55-1.19-12.1-5.53-14.84-11.6l-12.76-28.32,1.11-50.37c.1-4.34,2.32-8.35,5.95-10.73l51.95-34.09c2.43-1.59,4.26-3.94,5.21-6.68,2.4-6.87-1.22-14.39-8.1-16.79l-58.65-20.51c-4.1-1.43-7.23-4.79-8.37-8.97l-16.36-59.94c-.76-2.8-2.43-5.27-4.74-7.02-5.79-4.41-14.07-3.29-18.47,2.51l-37.63,49.45c-2.63,3.45-6.78,5.39-11.12,5.18l-62.07-2.96h0c-2.9-.14-5.76.68-8.14,2.33-5.98,4.15-7.47,12.36-3.33,18.35l8.54,12.32-42.22-3.9c-6.63-.61-12.54-4.45-15.79-10.26l-46.62-83.21c-2.18-3.88-5.57-6.94-9.66-8.7-10.27-4.42-22.17.33-26.59,10.59l-37.69,87.62c-2.63,6.12-8.11,10.55-14.64,11.85l-42.51,8.46-37.39-82.99c-1.83-4.06-4.94-7.4-8.86-9.51-9.84-5.3-22.12-1.61-27.41,8.23l-45.2,84c-3.16,5.87-9,9.8-15.62,10.53l-67.12,7.35-18.62-41.33c-1.83-4.06-4.94-7.4-8.86-9.51-9.84-5.3-22.12-1.61-27.41,8.23l-7,13-17.35.22c1.35-8.08-.67-16.65-7.03-23.77l-9.11-10.21,12.25-9.14c2.61-1.95,6.02-2.49,9.1-1.44l44.2,14.99c2.06.7,4.3.7,6.36,0,5.18-1.76,7.95-7.38,6.19-12.56l-14.98-44.2c-1.05-3.09-.51-6.49,1.44-9.1l27.91-37.41c1.3-1.75,2-3.88,1.97-6.05-.07-5.47-4.56-9.84-10.03-9.77l-46.67.6c-3.26.04-6.33-1.52-8.21-4.18l-26.95-38.1c-1.26-1.78-3.07-3.09-5.15-3.74-5.22-1.62-10.77,1.29-12.39,6.52l-13.85,44.57c-.97,3.11-3.4,5.55-6.52,6.52l-43.95,13.66-10.35-11.6c-6.87-7.62-9.15-18.34-5.98-28.1l45.16-141.26c7.94-24.84-18-46.38-43.9-36.45l-147.26,56.47c-10.13,3.96-21.52,3.03-30.88-2.51l-129.58-78.94c-22.79-13.88-53.75,3.04-52.39,28.63l7.72,145.55c.54,10.16-4.36,20.09-13.11,26.55l-125.25,92.46h0c-22.02,16.26-15.22,48.26,11.52,54.15l152.03,33.49c10.62,2.34,19.14,9.42,22.78,18.92l52.18,136.09c9.18,23.93,44.35,26.79,59.51,4.83l4.14-6c6.41,5.45,15.81,6.53,23.45,2l81.99-48.73c5.73-3.4,12.76-3.77,18.81-.98l48.67,22.43,48.37,50.58c4.6,4.81,6.54,11.59,5.18,18.11l-19.42,93.39h0c-.91,4.36-.35,8.89,1.58,12.9,4.85,10.07,16.95,14.3,27.02,9.46l85.94-41.39c6-2.89,13.04-2.64,18.83.66l82.82,47.33c3.86,2.21,8.35,3.08,12.76,2.48,11.08-1.5,18.84-11.7,17.34-22.77l-7.93-58.55,59.03-28.43c6-2.89,13.04-2.64,18.83.66l82.82,47.33c3.86,2.21,8.35,3.08,12.76,2.48,11.08-1.5,18.84-11.7,17.34-22.77l-1.87-13.83,64.87-38.55c5.73-3.4,12.76-3.77,18.81-.98l48.66,22.43,48.37,50.59c4.6,4.81,6.54,11.59,5.18,18.11l-19.42,93.39h0c-.91,4.36-.35,8.89,1.58,12.9,4.85,10.07,16.95,14.3,27.02,9.46l85.94-41.39c6-2.89,13.04-2.64,18.83.66l82.82,47.33c3.86,2.21,8.35,3.08,12.76,2.48,11.08-1.5,18.84-11.7,17.34-22.77l-12.81-94.52c-.89-6.6,1.52-13.22,6.45-17.7l70.61-64.14c3.3-2.99,5.51-6.99,6.31-11.37,1.99-11-5.3-21.53-16.3-23.53Zm-229.35-32.87c-3.16,5.87-9,9.8-15.62,10.53l-35.62,3.9-8.9-39.43c-1.47-6.5.36-13.3,4.88-18.19l9.17-9.92-3.84,10.15c-1.02,2.71-1.13,5.68-.29,8.46,2.1,6.97,9.45,10.93,16.42,8.83l56.81-17.07-23,42.75Z"/><g id="Group_56-9"><path id="Path_88-9" class="cls-1" d="m895.38,917.92l13.63,10.94c.95.76,2.22,1.01,3.39.66l16.74-5.03c1.96-.59,4.03.52,4.62,2.48.23.78.21,1.62-.08,2.38l-6.19,16.35c-.43,1.14-.28,2.42.42,3.43l9.96,14.36c1.17,1.68.75,3.99-.93,5.16-.67.46-1.47.7-2.29.66l-17.46-.83c-1.22-.06-2.39.49-3.13,1.46l-10.58,13.91c-1.24,1.63-3.57,1.95-5.2.71-.65-.49-1.12-1.19-1.33-1.98l-4.6-16.86c-.32-1.18-1.2-2.12-2.35-2.52l-16.5-5.77c-1.93-.68-2.95-2.79-2.28-4.72.27-.77.78-1.43,1.47-1.88l14.62-9.59c1.02-.67,1.65-1.8,1.67-3.02l.38-17.47c.05-2.05,1.74-3.67,3.79-3.62.81.02,1.6.3,2.24.81"/></g><g id="Group_110"><path id="Path_160" class="cls-1" d="m1414.81,456.31l13.63,10.94c.95.76,2.22,1.01,3.39.66l16.74-5.03c1.96-.59,4.03.52,4.62,2.48.23.78.21,1.62-.08,2.38l-6.19,16.35c-.43,1.14-.28,2.42.42,3.43l9.96,14.36c1.17,1.68.75,3.99-.93,5.16-.67.46-1.47.7-2.29.66l-17.46-.83c-1.22-.06-2.39.49-3.13,1.46l-10.58,13.91c-1.24,1.63-3.57,1.95-5.2.71-.65-.49-1.12-1.19-1.33-1.98l-4.6-16.86c-.32-1.18-1.2-2.12-2.35-2.52l-16.5-5.77c-1.93-.68-2.95-2.79-2.28-4.72.27-.77.78-1.43,1.47-1.88l14.62-9.59c1.02-.67,1.65-1.8,1.67-3.02l.38-17.47c.05-2.05,1.74-3.67,3.79-3.62.81.02,1.6.3,2.24.81"/></g><g id="Group_56-8-11"><path id="Path_88-8-11" class="cls-1" d="m1754.83,38.95l-20.11,42.12c-1.4,2.94-1.27,6.38.35,9.21l23.28,40.44c2.73,4.74,1.1,10.79-3.64,13.52-1.89,1.09-4.08,1.52-6.24,1.24l-46.27-6.12c-3.23-.43-6.46.76-8.65,3.18l-31.27,34.65c-3.66,4.06-9.92,4.38-13.98.72-1.62-1.46-2.71-3.41-3.11-5.56l-8.48-45.89c-.59-3.21-2.72-5.91-5.7-7.24l-42.61-19.03c-4.99-2.23-7.24-8.08-5.01-13.07.89-1.99,2.41-3.63,4.32-4.67l41.03-22.25c2.86-1.55,4.78-4.42,5.13-7.66l4.93-46.41c.58-5.44,5.45-9.38,10.89-8.8,2.17.23,4.2,1.17,5.77,2.67l33.84,32.14c2.36,2.25,5.68,3.18,8.87,2.51l45.66-9.65c5.35-1.13,10.6,2.28,11.74,7.63.45,2.13.19,4.35-.75,6.32"/></g><g id="Group_56-8-12"><path id="Path_88-8-12" class="cls-1" d="m1681.03,388.89l-20.11,42.12c-1.4,2.94-1.27,6.38.35,9.21l23.28,40.44c2.73,4.74,1.1,10.79-3.64,13.52-1.89,1.09-4.08,1.52-6.24,1.24l-46.27-6.12c-3.23-.43-6.46.76-8.65,3.18l-31.27,34.65c-3.66,4.06-9.92,4.38-13.98.72-1.62-1.46-2.71-3.41-3.11-5.56l-8.48-45.89c-.59-3.21-2.72-5.91-5.7-7.24l-42.61-19.03c-4.99-2.23-7.24-8.08-5.01-13.07.89-1.99,2.41-3.63,4.32-4.67l41.03-22.25c2.86-1.55,4.78-4.42,5.13-7.66l4.93-46.41c.58-5.44,5.45-9.38,10.89-8.8,2.17.23,4.2,1.17,5.77,2.67l33.84,32.14c2.36,2.25,5.68,3.18,8.87,2.51l45.66-9.65c5.35-1.13,10.6,2.28,11.74,7.63.45,2.13.19,4.35-.75,6.32"/></g><g id="Group_110-2"><path id="Path_160-2" class="cls-1" d="m1907.64,241.19l-15.37,8.33c-1.07.58-1.79,1.65-1.92,2.87l-1.85,17.38c-.22,2.04-2.04,3.51-4.08,3.3-.81-.09-1.57-.44-2.16-1l-12.67-12.04c-.88-.84-2.13-1.19-3.32-.94l-17.1,3.62c-2,.42-3.97-.86-4.39-2.86-.17-.8-.07-1.63.28-2.36l7.53-15.78c.53-1.1.48-2.39-.13-3.45l-8.72-15.15c-1.02-1.77-.41-4.04,1.36-5.06.71-.41,1.53-.57,2.34-.46l17.33,2.29c1.21.16,2.42-.29,3.24-1.19l11.71-12.98c1.37-1.52,3.72-1.64,5.24-.27.61.55,1.01,1.28,1.16,2.08l3.18,17.19c.22,1.2,1.02,2.21,2.13,2.71l15.96,7.12c1.87.84,2.71,3.03,1.87,4.9-.33.74-.9,1.36-1.62,1.75"/></g><g id="Group_110-3"><path id="Path_160-3" class="cls-1" d="m328.63,584.62l-15.37,8.33c-1.07.58-1.79,1.65-1.92,2.87l-1.85,17.38c-.22,2.04-2.04,3.51-4.08,3.3-.81-.09-1.57-.44-2.16-1l-12.67-12.04c-.88-.84-2.13-1.19-3.32-.94l-17.1,3.62c-2,.42-3.97-.86-4.39-2.86-.17-.8-.07-1.63.28-2.36l7.53-15.78c.53-1.1.48-2.39-.13-3.45l-8.72-15.15c-1.02-1.77-.41-4.04,1.36-5.06.71-.41,1.53-.57,2.34-.46l17.33,2.29c1.21.16,2.42-.29,3.24-1.19l11.71-12.98c1.37-1.52,3.72-1.64,5.24-.27.61.55,1.01,1.28,1.16,2.08l3.18,17.19c.22,1.2,1.02,2.21,2.13,2.71l15.96,7.12c1.87.84,2.71,3.03,1.87,4.9-.33.74-.9,1.36-1.62,1.75"/></g><g id="Group_110-4"><path id="Path_160-4" class="cls-1" d="m1911.91,584.62l-15.37,8.33c-1.07.58-1.79,1.65-1.92,2.87l-1.85,17.38c-.22,2.04-2.04,3.51-4.08,3.3-.81-.09-1.57-.44-2.16-1l-12.67-12.04c-.88-.84-2.13-1.19-3.32-.94l-17.1,3.62c-2,.42-3.97-.86-4.39-2.86-.17-.8-.07-1.63.28-2.36l7.53-15.78c.53-1.1.48-2.39-.13-3.45l-8.72-15.15c-1.02-1.77-.41-4.04,1.36-5.06.71-.41,1.53-.57,2.34-.46l17.33,2.29c1.21.16,2.42-.29,3.24-1.19l11.71-12.98c1.37-1.52,3.72-1.64,5.24-.27.61.55,1.01,1.28,1.16,2.08l3.18,17.19c.22,1.2,1.02,2.21,2.13,2.71l15.96,7.12c1.87.84,2.71,3.03,1.87,4.9-.33.74-.9,1.36-1.62,1.75"/></g><g id="Group_110-5"><path id="Path_160-5" class="cls-1" d="m1211.25,917.92l13.63,10.94c.95.76,2.22,1.01,3.39.66l16.74-5.03c1.96-.59,4.03.52,4.62,2.48.23.78.21,1.62-.08,2.38l-6.19,16.35c-.43,1.14-.28,2.42.42,3.43l9.96,14.36c1.17,1.68.75,3.99-.93,5.16-.67.46-1.47.7-2.29.66l-17.46-.83c-1.22-.06-2.39.49-3.13,1.46l-10.58,13.91c-1.24,1.63-3.57,1.95-5.2.71-.65-.49-1.12-1.19-1.33-1.98l-4.6-16.86c-.32-1.18-1.2-2.12-2.35-2.52l-16.5-5.77c-1.93-.68-2.95-2.79-2.28-4.72.27-.77.78-1.43,1.47-1.88l14.62-9.59c1.02-.67,1.65-1.8,1.67-3.02l.38-17.47c.05-2.05,1.74-3.67,3.79-3.62.81.02,1.6.3,2.24.81"/></g><g id="Group_110-6"><path id="Path_160-6" class="cls-1" d="m1755.13,559.21l13.63,10.94c.95.76,2.22,1.01,3.39.66l16.74-5.03c1.96-.59,4.03.52,4.62,2.48.23.78.21,1.62-.08,2.38l-6.19,16.35c-.43,1.14-.28,2.42.42,3.43l9.96,14.36c1.17,1.68.75,3.99-.93,5.16-.67.46-1.47.7-2.29.66l-17.46-.83c-1.22-.06-2.39.49-3.13,1.46l-10.58,13.91c-1.24,1.63-3.57,1.95-5.2.71-.65-.49-1.12-1.19-1.33-1.98l-4.6-16.86c-.32-1.18-1.2-2.12-2.35-2.52l-16.5-5.77c-1.93-.68-2.95-2.79-2.28-4.72.27-.77.78-1.43,1.47-1.88l14.62-9.59c1.02-.67,1.65-1.8,1.67-3.02l.38-17.47c.05-2.05,1.74-3.67,3.79-3.62.81.02,1.6.3,2.24.81"/></g></svg>