<?xml version="1.0" encoding="UTF-8"?><svg id="Layer_1" xmlns="http://www.w3.org/2000/svg" viewBox="0 0 709.76 588.81"><defs><style>.cls-1{fill:none;stroke:#1b482f;stroke-miterlimit:10;stroke-width:2.94px;}.cls-2{fill:#f3f6e2;}.cls-2,.cls-3,.cls-4,.cls-5,.cls-6,.cls-7,.cls-8,.cls-9,.cls-10,.cls-11,.cls-12,.cls-13,.cls-14,.cls-15,.cls-16{stroke-width:0px;}.cls-3{fill:#f9b591;}.cls-4{fill:#55535b;}.cls-5{fill:#54535b;}.cls-6{fill:#1b482f;}.cls-7{fill:#b3cc3f;}.cls-8{fill:#97c66f;}.cls-9{fill:#863a51;}.cls-10{fill:#fcf8c9;}.cls-11{fill:#ee8eb0;}.cls-12{fill:#f3806c;}.cls-13{fill:#ffe47e;}.cls-14{fill:#e4ecc5;}.cls-15{fill:#fcfbe7;}.cls-16{fill:#feeb74;}</style></defs><path id="Path_157" class="cls-15" d="m63.29,399.53C207.32,262.55-23.33-49.77,449.66,16.6c472.99,66.36,206.65,398.59-22.12,373.69s-508.27,146.23-364.25,9.25Z"/><path id="Path_1" class="cls-7" d="m386.49,312.27l40.64-1.35,22.85-14.14-28.24.14-20.37-2.58,11.19-5.59-7.74-7.18-26.35,15.4,8.02,15.29Z"/><path id="Path_2" class="cls-7" d="m256.09,306.18l34.39,62.67,96.02-56.58-8.02-15.3-84.29,39.02-14.09-24.84-24.01-4.97Z"/><path id="Path_3" class="cls-16" d="m191.42,97.75l-87.43,174.87,116.77,21.04,39.56-8.45,64.18-64.66-133.08-122.8Z"/><path id="Path_4" class="cls-7" d="m201.8,288.7l-18.67-85.84,14.29-24.74,31.59-7.02,28.68,24.35,12.52,83.2-27.55,22.85-40.87-12.81Z"/><path id="Path_5" class="cls-10" d="m222.64,205.7l-88.72-30.64,69.61,78.36,28.59-17.82,35.31,6.05,43.93-94.86-88.72,58.91Z"/><path id="Path_6" class="cls-2" d="m205.42,263.59l7.16,1.35c7.02,1.32,12.49.53,17.65-5.39l1.91-2.19c6.49,3.27,14.26,2.63,20.14-1.64l6.57-4.59-6.69,15.07c-3.38,7.61-9.35,13.01-16.32,14.77-7.61,1.92-15.53-.73-21.25-7.13l-9.17-10.25Z"/><path id="Path_7" class="cls-15" d="m202.02,185.53l29.78-6.04-12.29,18.54-17.49-12.5Z"/><path id="Path_8" class="cls-7" d="m219.81,294.34v11.84h23.98v-5.92l-23.98-5.92Z"/><path id="Path_9" class="cls-6" d="m205.42,313.66l-3.26,29.25,5.79,32.09,64.84-6.16-2.58-54.87-17.5-9.66-32.9,1.86-14.4,7.48Z"/><path id="Path_10" class="cls-6" d="m222.64,368.85l-14.68,6.16-4.22,21.1,28.4,4.8,8.63,15.93h9.59l20.91-8.44,5.76-13.43-4.22-26.11h-50.16Z"/><path id="Path_11" class="cls-6" d="m203.73,396.11l-.26,130.54,9.54,20.72,20.44-15.81,7.31-114.73-8.63-15.93-28.4-4.8Z"/><path id="Path_12" class="cls-16" d="m232.13,567.15l-58.73,11.66-10.12-2.46-6.75-8.58,30.83-11.96,10.28-8.28,5.83-20.86,14.72,7.36,15.26-2.45-1.32,35.59Z"/><path id="Path_13" class="cls-6" d="m277.02,394.96l1.03,130.06-9.54,20.72-20.44-15.81-7.31-114.73,8.63-15.93,27.63-4.31Z"/><path id="Path_14" class="cls-16" d="m249.39,565.51l58.73,11.65,10.12-2.46,6.75-8.58-30.83-11.96-10.28-8.28-5.83-20.86-14.72,7.36-15.26-2.45,1.32,35.59Z"/><path id="Path_15" class="cls-14" d="m205.42,313.66l1.37,13.42,13.02-2.62-6.64-14.83-7.75,4.03Z"/><path id="Path_16" class="cls-14" d="m270.21,313.98l6.81,12.18-15.32-2.68-5.62-17.29,14.13,7.8Z"/><path id="Path_17" class="cls-14" d="m206.79,327.08l12.44,46.85-8.5,19.68-7.26,70.53,79.76,2.05-6.2-71.24-4.22-26.11,4.22-42.69-13.8-2.68h-8.15l-28.4-.4-19.89,4Z"/><path id="Path_18" class="cls-7" d="m202.52,339.66l2.89-26-54.33-4.99-55.11-15.01-3.98,22.51,49.67,18.08,60.86,5.41Z"/><path id="Path_19" class="cls-6" d="m105.33,313.9l-9.36,19.84-23.55-7.41-53.62-16.83-16.65-17.73,7.59-20.68,15.08-6.1,20.83,3.9,4.78.52-22.66-9.84,1.2-7.97,4.97-1.52,30.85,15.81,43.17,20.36-2.63,27.64Z"/><path id="Path_20" class="cls-13" d="m91.69,300.42l-16.66,1.6-3.63,16.34-6.67-15.35-16.66,1.6,12.54-11.08-6.67-15.35,14.42,8.5,12.54-11.08-3.63,16.33,14.42,8.5Z"/><path id="Path_21" class="cls-8" d="m254.89,368.5l-8.18,6.02-13.52-4.71-2.63-6.07-2.18-9.46,1.3-10.78,6.03,5.81,7.3,2.08,5.51-3.76,3.08-7.52,5.89,10.4-.27,9.7-2.34,8.29Z"/><path id="Path_22" class="cls-6" d="m233.22,352.94l8.34,3.77-1.14,1.21-8.31-3.46,1.12-1.52Z"/><path id="Path_23" class="cls-6" d="m252.89,350.7l-7.27,5.55,1.39.93,7.32-5.25-1.43-1.23Z"/><path id="Path_24" class="cls-1" d="m244.56,365.07l-.63,1.64-3.9-1.66"/><path id="Path_25" class="cls-1" d="m244.4,365.09l.98,1.46,3.96-2.8"/><path id="Path_26" class="cls-6" d="m240.41,361.56l7.31-.83-3.14,4.97-4.17-4.14Z"/><line id="Line_1" class="cls-1" x1="236.32" y1="361.43" x2="230.06" y2="359.38"/><line id="Line_2" class="cls-1" x1="236.42" y1="362.36" x2="230.23" y2="364.66"/><line id="Line_3" class="cls-1" x1="236.79" y1="363.21" x2="233.55" y2="368.79"/><line id="Line_4" class="cls-1" x1="252.51" y1="359.58" x2="258.14" y2="356.18"/><line id="Line_5" class="cls-1" x1="252.61" y1="360.51" x2="259.17" y2="361.36"/><line id="Line_6" class="cls-1" x1="252.45" y1="361.43" x2="256.86" y2="366.13"/><g id="Group_5"><path id="Path_27" class="cls-11" d="m486.29,215.28l-3.56-4.66,1.53-11.45-9.65-4.4-6.11-12.42-2.4-8,2.97-23.18,3.81-10.09,12.24-10.61"/><path id="Path_28" class="cls-11" d="m438.11,232.4l-2.75-2.53.67-22.4-9.65-4.4-6.11-12.42-2.4-8,2.97-23.18,3.81-10.09,12.24-10.61"/><path id="Path_29" class="cls-12" d="m406.64,161.32l-6.19,3.81-2.26,9.8,11.04,8.6,117.16-13.69,9.62-6.6,1.11-6.61-2.63-6.51-5.37-2.53-15.9,2.53-106.61,11.21Z"/><path id="Path_30" class="cls-3" d="m508.02,137.11l5.24,2.76,3.81,10.83,1.83,17.32-2.91,11.68-13.65,19.97-4.51,1.65,10.2-64.21Z"/><path id="Path_31" class="cls-11" d="m485.11,130.48l22.91,6.63.08,5.85,3.65,10.6-1.96,7.85,4.57,10.59-4.65,8.2-.94,3.76-5.42,3.87-3.6,14.45-7.44.91-2.61.43-3.42,11.67-.76-53.25-.41-31.55Z"/><path id="Path_32" class="cls-3" d="m483.71,139l5.24,2.76,3.81,10.83,1.83,17.32-2.91,11.68-13.65,19.97-4.51,1.65,10.2-64.22Z"/><path id="Path_33" class="cls-9" d="m461.98,217.18l-3.56-4.66,1.53-11.44-9.65-4.4-6.11-12.42-2.4-8,2.97-23.18,3.81-10.09,12.24-10.61"/><path id="Path_34" class="cls-9" d="m460.8,132.38l22.91,6.63.08,5.85,3.65,10.6-1.96,7.85,4.57,10.59-4.65,8.2-.94,3.76-5.42,3.87-3.6,14.45-7.44.91-2.61.43-3.42,11.67-.76-53.25-.41-31.55Z"/><path id="Path_35" class="cls-3" d="m459.8,145.41l5.24,2.76,3.81,10.83,1.83,17.32-2.91,11.68-13.65,19.97-4.51,1.65,10.2-64.22Z"/><path id="Path_36" class="cls-11" d="m436.89,138.78l22.91,6.63.08,5.85,3.65,10.6-1.96,7.85,4.57,10.59-4.65,8.2-.94,3.76-5.42,3.87-3.6,14.45-7.44.91-3.31,13.29-2.67,7.62-.81-62.07-.41-31.55Z"/><rect id="Rectangle_45" class="cls-4" x="383.93" y="236.61" width="164.32" height="11.2"/><path id="Path_37" class="cls-4" d="m395.33,121.82h148.28l-16.68-36.73c-10.61-23.54-34.1-38.6-59.92-38.41-.39,0-.78.01-1.17.02-27.12.83-50.9,18.35-59.73,44.01l-10.78,31.11Z"/><path id="Path_38" class="cls-5" d="m469.77,40.74c0,5.49-1.62,9.93-3.62,9.93s-3.62-4.45-3.62-9.93,1.62-9.93,3.62-9.93,3.62,4.45,3.62,9.93"/></g></svg>