<?xml version="1.0" encoding="UTF-8"?><svg id="Layer_1" xmlns="http://www.w3.org/2000/svg" xmlns:xlink="http://www.w3.org/1999/xlink" viewBox="0 0 614.26 364.49"><defs><style>.cls-1{clip-path:url(#clippath);}.cls-2{fill:none;}.cls-2,.cls-3,.cls-4,.cls-5{stroke-width:0px;}.cls-6{clip-path:url(#clippath-1);}.cls-7{clip-path:url(#clippath-2);}.cls-3{fill:#b6da9e;}.cls-4{fill:#feeb74;}.cls-5{fill:#f0f7e8;}</style><clipPath id="clippath"><rect class="cls-2" x="16.75" y="152.66" width="181.41" height="194.63"/></clipPath><clipPath id="clippath-1"><rect class="cls-2" x="212.07" y="20.45" width="180.68" height="193.84"/></clipPath><clipPath id="clippath-2"><rect class="cls-2" x="414.86" y="152.62" width="180.68" height="193.84"/></clipPath></defs><g id="Group_54"><g id="Group_30"><path id="Path_57" class="cls-5" d="m144.97,347.16l53.06-56.93v-80.51l-53.06-56.93h-75.04l-53.06,56.93v80.51l53.06,56.93h75.04Z"/><g id="Group_27"><g class="cls-1"><g id="Group_26"><path id="Path_58" class="cls-5" d="m69.93,347.16h75.04l53.06-56.93v-80.51l-53.06-56.93h-75.04l-53.06,56.93v80.51l53.06,56.93Z"/></g></g></g></g><path id="Rectangle_69" class="cls-4" d="m145.01,358.25h-75.12c-5.89,0-10.67-4.78-10.67-10.67h0c0-5.89,4.78-10.67,10.67-10.67h75.12c5.89,0,10.67,4.78,10.67,10.67h0c0,5.89-4.78,10.67-10.67,10.67Z"/><path id="Rectangle_71" class="cls-4" d="m145.01,163.63h-75.12c-5.89,0-10.67-4.78-10.67-10.67h0c0-5.89,4.78-10.67,10.67-10.67h75.12c5.89,0,10.67,4.78,10.67,10.67h0c0,5.89-4.78,10.67-10.67,10.67Z"/><path id="Rectangle_72" class="cls-4" d="m6.08,287.83v-75.12c0-5.89,4.78-10.67,10.67-10.67h0c5.89,0,10.67,4.78,10.67,10.67v75.12c0,5.89-4.78,10.67-10.67,10.67h0c-5.89,0-10.67-4.78-10.67-10.67Z"/><path id="Rectangle_70" class="cls-4" d="m187.49,287.83v-75.12c0-5.89,4.78-10.67,10.67-10.67h0c5.89,0,10.67,4.78,10.67,10.67v75.12c0,5.89-4.78,10.67-10.67,10.67h0c-5.89,0-10.67-4.78-10.67-10.67Z"/></g><g id="Group_44"><path id="Path_70" class="cls-3" d="m74.87,229.34l-14.67,17.37v32.49l33.36,17.95h19.44l32.16-10.97,6.23-32.16-14.71-32.75-33.16-4.16-28.67,12.22Z"/><path id="Path_71" class="cls-3" d="m67.7,202.74l-5.64,4.54h26.91l14.04,13.99h3.74l-11-16.8-28.05-1.73Z"/></g><g id="Group_37"><g id="Group_30-2"><path id="Path_57-2" class="cls-5" d="m339.78,214.16l52.85-56.7v-80.19l-52.85-56.7h-74.73l-52.85,56.7v80.19l52.85,56.7h74.73Z"/><g id="Group_27-2"><g class="cls-6"><g id="Group_26-2"><path id="Path_58-2" class="cls-5" d="m265.04,214.16h74.74l52.85-56.7v-80.19l-52.85-56.7h-74.74l-52.85,56.7v80.19l52.85,56.7Z"/></g></g></g></g><path id="Rectangle_69-2" class="cls-4" d="m339.81,224.91h-74.81c-5.87,0-10.63-4.76-10.63-10.63h0c0-5.87,4.76-10.63,10.63-10.63h74.81c5.87,0,10.63,4.76,10.63,10.63h0c0,5.87-4.76,10.63-10.63,10.63Z"/><path id="Rectangle_71-2" class="cls-4" d="m339.81,31.07h-74.81c-5.87,0-10.63-4.76-10.63-10.63h0c0-5.87,4.76-10.63,10.63-10.63h74.81c5.87,0,10.63,4.76,10.63,10.63h0c0,5.87-4.76,10.63-10.63,10.63Z"/><path id="Rectangle_72-2" class="cls-4" d="m201.44,154.77v-74.81c0-5.87,4.76-10.63,10.63-10.63h0c5.87,0,10.63,4.76,10.63,10.63v74.81c0,5.87-4.76,10.63-10.63,10.63h0c-5.87,0-10.63-4.76-10.63-10.63Z"/><path id="Rectangle_70-2" class="cls-4" d="m382.12,154.77v-74.81c0-5.87,4.76-10.63,10.63-10.63h0c5.87,0,10.63,4.76,10.63,10.63v74.81c0,5.87-4.76,10.63-10.63,10.63h0c-5.87,0-10.63-4.76-10.63-10.63Z"/></g><g id="Group_44-2"><path id="Path_70-2" class="cls-3" d="m271.11,97.16l-14.67,17.37v32.49l33.36,17.95h19.44l32.16-10.97,6.23-32.16-14.71-32.75-33.16-4.16-28.67,12.22Z"/><path id="Path_71-2" class="cls-3" d="m263.94,70.57l-5.64,4.54h26.91l14.04,13.99h3.74l-11-16.8-28.05-1.73Z"/></g><g id="Group_37-2"><g id="Group_30-3"><path id="Path_57-3" class="cls-5" d="m542.57,346.33l52.85-56.7v-80.19l-52.85-56.7h-74.73l-52.85,56.7v80.19l52.85,56.7h74.73Z"/><g id="Group_27-3"><g class="cls-7"><g id="Group_26-3"><path id="Path_58-3" class="cls-5" d="m467.83,346.33h74.74l52.85-56.7v-80.19l-52.85-56.7h-74.74l-52.85,56.7v80.19l52.85,56.7Z"/></g></g></g></g><path id="Rectangle_69-3" class="cls-4" d="m542.61,357.08h-74.81c-5.87,0-10.63-4.76-10.63-10.63h0c0-5.87,4.76-10.63,10.63-10.63h74.81c5.87,0,10.63,4.76,10.63,10.63h0c0,5.87-4.76,10.63-10.63,10.63Z"/><path id="Rectangle_71-3" class="cls-4" d="m542.61,163.24h-74.81c-5.87,0-10.63-4.76-10.63-10.63h0c0-5.87,4.76-10.63,10.63-10.63h74.81c5.87,0,10.63,4.76,10.63,10.63h0c0,5.87-4.76,10.63-10.63,10.63Z"/><path id="Rectangle_72-3" class="cls-4" d="m404.24,286.94v-74.81c0-5.87,4.76-10.63,10.63-10.63h0c5.87,0,10.63,4.76,10.63,10.63v74.81c0,5.87-4.76,10.63-10.63,10.63h0c-5.87,0-10.63-4.76-10.63-10.63Z"/><path id="Rectangle_70-3" class="cls-4" d="m584.91,286.94v-74.81c0-5.87,4.76-10.63,10.63-10.63h0c5.87,0,10.63,4.76,10.63,10.63v74.81c0,5.87-4.76,10.63-10.63,10.63h0c-5.87,0-10.63-4.76-10.63-10.63Z"/></g><g id="Group_34"><path id="Path_61" class="cls-3" d="m505.2,236.62l17.9-7.14,17.63,2.63,12.7,13.42-4.95,31.12-22.12,32.3h-9.31l-5.82-5.77-5.92,3.36h-.22l-5.92-3.36-5.82,5.77h-9.31l-22.12-32.3-4.95-31.12,12.7-13.42,17.63-2.63,17.9,7.14Z"/><path id="Path_62" class="cls-3" d="m505.2,236.62l23.2-22.25,20.15,7.78v-5.1l-23.74-9.06-23.38,27.13,3.77,1.5Z"/><path id="Path_63" class="cls-3" d="m503.06,190.43l15.16,17.56-4.79,15.76-15.56-13.77,5.19-19.55Z"/></g></svg>