<?xml version="1.0" encoding="UTF-8"?><svg id="Layer_1" xmlns="http://www.w3.org/2000/svg" xmlns:xlink="http://www.w3.org/1999/xlink" viewBox="0 0 727.96 1023.2"><defs><style>.cls-1{clip-path:url(#clippath);}.cls-2,.cls-3,.cls-4{fill:none;}.cls-2,.cls-5,.cls-6,.cls-7,.cls-8,.cls-9,.cls-10,.cls-11,.cls-12,.cls-13,.cls-14,.cls-15,.cls-16,.cls-17,.cls-18,.cls-19,.cls-20,.cls-21{stroke-width:0px;}.cls-22{clip-path:url(#clippath-1);}.cls-23{clip-path:url(#clippath-4);}.cls-24{clip-path:url(#clippath-3);}.cls-25{clip-path:url(#clippath-2);}.cls-3{stroke:#145629;stroke-width:4px;}.cls-3,.cls-4{stroke-miterlimit:10;}.cls-5{fill:#f7faee;}.cls-6{fill:#7d1359;}.cls-7{fill:#82104f;}.cls-8{fill:#0b0c0f;}.cls-9{fill:#102f85;}.cls-10{fill:#150d13;}.cls-11{fill:#deb1d3;}.cls-12{fill:#c3001b;}.cls-13{fill:#db0058;}.cls-14{fill:#b95b9f;}.cls-15{fill:#8f2772;}.cls-16{fill:#009d3b;}.cls-17{fill:#f2c71f;}.cls-18{fill:#ffa10b;}.cls-19{fill:#ffbd66;}.cls-20{fill:#feffe6;}.cls-21{fill:#040e27;}.cls-4{stroke:#0b0c0f;stroke-width:.5px;}</style><clipPath id="clippath"><rect class="cls-2" x="40.44" y="-25.01" width="685.05" height="686.83" transform="translate(-74.6 515.07) rotate(-63)"/></clipPath><clipPath id="clippath-1"><rect class="cls-2" x="3.14" y="30.11" width="651.45" height="1119.51"/></clipPath><clipPath id="clippath-2"><path class="cls-2" d="m517.36,316.27c54.37,41.51-34.04,96.3-34.04,96.3-31.13-14.11-98.79-7.47-102.11-7.47s-22.41-16.19-22.41-16.19c0,0,4.98-93.39,14.11-94.64,4.36-.6,25.07-5.07,51.45-5.07,28.89,0,64.58,5.37,93,27.06"/></clipPath><clipPath id="clippath-3"><rect class="cls-2" x="3.14" y="30.11" width="651.45" height="1119.51"/></clipPath><clipPath id="clippath-4"><rect class="cls-2" x="74.49" y="154.46" width="203.33" height="151.04"/></clipPath></defs><g class="cls-1"><g id="Group_296"><path id="Path_776" class="cls-20" d="m499.04,17.33l-143.19,110.57c-9.75,7.68-22.68,9.99-34.49,6.17l-166.08-55.19c-29.2-9.7-57.74,19.53-48.28,49.47l53.77,170.26c3.72,12.08,1.48,25.2-6.04,35.36l-107.93,146.72c-18.98,25.8-1.58,61.72,29.44,60.78l176.42-5.34c12.26-.4,23.88,5.52,30.76,15.67l99.37,145.87c17.47,25.65,56.76,18.62,66.48-11.9l55.26-173.56c3.79-12.05,13.09-21.58,25.05-25.67l169.35-56.57c29.78-9.95,36.66-50.21,11.64-68.13l-142.26-101.92c-10.03-7.31-15.76-19.14-15.28-31.54l5.3-180.83c.93-31.8-34.1-49.65-59.28-30.21"/></g></g><g id="Group_294"><g id="Group_261"><g class="cls-22"><g id="Group_260"><path id="Path_643" class="cls-15" d="m580.39,527.13l19.51-105.33c.51-2.75.28-5.59-.66-8.22l-24.9-69.73c-2.95-8.25-12.02-12.55-20.27-9.6-8.25,2.95-12.55,12.02-9.6,20.27.16.44.33.87.52,1.29l30.14,65.58c1.57,3.42,1.87,7.28.86,10.9l-16.86,60.18"/><path id="Path_644" class="cls-15" d="m339.07,396.88l-23.13,49.46c-2.58,5.5-7.57,8.93-12.99,8.93l-128.32-4.88c-8.15,0-14.76-2.73-14.76-12.12v-5.7c0-9.52,6.8-7.44,15.07-7.24l91.45-7.51c6.33.15,12.04-4.36,14.19-11.21l10.83-34.5c2.93-9.34,12.17-13.81,20.02-9.68l20.78,10.93c7.76,4.08,10.9,14.86,6.86,23.51"/><path id="Path_645" class="cls-21" d="m455.9,761.59s9.4,31.32,10.15,64.86-4.47,305.54-4.47,305.54c0,0,177.36,36.52,193.01,0,0,0-69.96-38.86-126.18-72.45,0,0,12.68-253.56,53.47-306.17l-125.97,8.23Z"/><path id="Path_646" class="cls-21" d="m491.4,427.41s192.33,88.75,66.69,390.56c0,0-103.56,15.03-106.29-84.66s.58-110.86-4.18-110.18-25.48,185.3-110.88,193.5c-42.33,4.07-54.83,73.26-64.3,58.51-56.26-87.64-53.86-354.77,116.88-443.54l102.08-4.19Z"/><path id="Path_647" class="cls-6" d="m352.99,456.8s30.72,35.67,54.5,35.67l28.93-33.69,7.53-97.88h-41.42l-13.21,70.71c-12.69,7.52-24.84,15.94-36.33,25.19"/><path id="Path_648" class="cls-9" d="m545.56,456.8s-55.08,35.67-78.86,35.67l-28.93-33.69-7.53-97.88h65.79l11.19,72.8c13.73,6,26.62,13.77,38.34,23.1"/><path id="Path_649" class="cls-7" d="m592.98,353.38s25.03-150.76-73.74-68.78,6.65,118.97,28.33,104.86,36.27-25.02,45.4-36.09"/><path id="Path_650" class="cls-8" d="m378.9,260.36c-20.4-.69-65.1-8.03-79.82-57.59-4.71-16.05-1.53-33.39,8.57-46.72,6.39-8.45,12.75-19.26,13.1-29.1.72-20.08-2.93-113.57,116.83-94.2,119.76,19.37,155.78-19.31,166.54,60.29,0,0,8.87,50.22-3.95,66.65-12.82,16.43,37.58,97.21-82.36,101.15-75.12,2.47-106.57,1.58-119.59.57-6.43-.5-12.87-.82-19.32-1.04"/><path id="Path_651" class="cls-15" d="m509.69,133.61c-20.4-4.08-107.37,14.39-107.47,33.43,0,0-13.06,47.75-5.81,65.14,7.25,17.39,25.36,23.56,43.66,23.56,0,0-1.95,36.45-4.25,36.73s35.65,3.16,37.67,3.45-4.6-30.63,0-36.02c10.81,1.47,20.19,1.91,23.65-1.99,7.06-7.97,3.98-47.47,5.8-48.19,0,0,27.15-72.02,6.75-76.1"/><path id="Path_652" class="cls-8" d="m471.45,239.98c7.7-6.67,12.96-1.26,0,0-2.72-10.35-3.64-21.1-2.7-31.77,1.53-17.86,1.91-51.34,3.18-56.44s-12.67-9.47-20.07-14.32,65.82-28.42,65.82-28.42l4.65,59.87s18.52,91.8.65,91.29-48.86,8.87-51.16,7.85c-5.26-.79-8.88-5.69-8.09-10.94.14-.94.42-1.85.83-2.71l6.87-14.41Z"/><path id="Path_653" class="cls-19" d="m409.57,200.56l-33.03-47.57,41.68-3.54,33.02-33.81,20.84,31.84,45.22,1.97-51.9,54.26-26.73-25.56-29.09,22.41Z"/><path id="Path_654" class="cls-4" d="m437.58,196.21c-4.05,1.17-3.13,5.88-1.8,8.36"/><path id="Path_655" class="cls-4" d="m436.69,219.76c-3.92,2.94-5.02,7.11-17.3.25"/><path id="Path_656" class="cls-4" d="m420.38,214.48s14.12-14.3,34.3,0"/><path id="Path_657" class="cls-4" d="m420.38,229.21s14.12,14.3,34.3,0"/><path id="Path_658" class="cls-4" d="m435.3,219.76c3.92,2.94,4.72,6.54,17.3.25"/><path id="Path_659" class="cls-14" d="m358.8,388.91s19.09,16.19,22.41,16.19,70.98-6.64,102.11,7.47c0,0,88.41-54.79,34.04-96.3s-135.32-23.24-144.45-22-14.11,94.64-14.11,94.64"/></g></g></g><g id="Group_263"><g class="cls-25"><g id="Group_262"><path id="Path_660" class="cls-13" d="m363.01,336.57l65.03,5.53,26.64,38.46,33.21-29.66,43.7,11.62,7.95,37.24-130.37,70.06-66.52-101.99,20.35-31.24Z"/><path id="Path_661" class="cls-11" d="m368.4,302.77l66.24,5.38,17.95,32.04,21.18-26.43,36.71-2.32,6.8-22.23-140.76-11.95-8.14,25.52Z"/></g></g></g><g id="Group_265"><g class="cls-24"><g id="Group_264"><path id="Path_663" class="cls-7" d="m289.15,365.71s-59.79-140.64,55.49-84.19c115.28,56.44,21.53,117.2-2.87,108.59s-41.14-15.78-52.62-24.4"/><path id="Path_664" class="cls-21" d="m424.61,710.57s-42.58,156.58-65.81,198.77c-79.86,145.06,13.26,147.08-23.08,212.83,0,0-134.1,34.75-156.6,26.03s30.99-56.31,60.48-56.31,18.63-235.08,11.77-267.46,173.24-113.87,173.24-113.87"/><path id="Path_666" class="cls-15" d="m174.63,450.4l-23.58-2.78s-60.19,1.98-68.13-4.63-35.26-22.37-29.86-25.07,50.22,12.42,55.08,13.5c1.71.38,8-.88,15.45-2.68,13.78-3.33,31.53-3.62,31.53-3.62,0,0,10.29,0,19.83.24"/><path id="Path_667" class="cls-10" d="m179.38,431.92l-176.24-7.52v-11.83h176.24v19.35Z"/></g></g></g></g><g id="Group_295"><g class="cls-23"><g id="Group_267"><path id="Path_668" class="cls-16" d="m126.38,199.32s28.55-45.27-51.89-24.65c0,0-.78,82.85,51.89,24.65"/><path id="Path_669" class="cls-3" d="m127.93,196.45c-7.45-3.65-15.21,3.94-31.74-9.78,0,0-6.14-4.33-5.82-10.28"/><path id="Path_670" class="cls-3" d="m96.19,186.67s-12.37-2.24-11.27,2.37"/><path id="Path_671" class="cls-3" d="m109.54,194.55c-.05-.54-4.62-1.25-2.15-10.23"/><path id="Path_672" class="cls-16" d="m235.81,218.18s31.61,43.19,42-39.19c0,0-76.76-31.19-42,39.19"/><path id="Path_673" class="cls-3" d="m237.91,220.68c6.14-5.59,1.93-15.6,20.76-25.92,0,0,6.29-4.12,11.7-1.63"/><path id="Path_674" class="cls-3" d="m258.67,194.77s6.63-10.68,1.94-11.35"/><path id="Path_675" class="cls-3" d="m246.44,204.28c.53.15,2.86-3.84,10.31,1.76"/><path id="Path_676" class="cls-16" d="m112.95,206.04s-38.44-37.25-34.8,45.71c0,0,80.92,17.8,34.79-45.71"/><path id="Path_677" class="cls-3" d="m110.46,203.93c-5.11,6.55.73,15.7-16.1,29.05,0,0-5.5,5.12-11.26,3.58"/><path id="Path_678" class="cls-3" d="m94.37,232.97s-4.73,11.64,0,11.52"/><path id="Path_679" class="cls-3" d="m104.82,221.53c-.55-.06-2.17,4.27-10.45,0"/><path id="Path_680" class="cls-18" d="m107.36,234.15c0,42.85,34.73,71.35,77.58,71.35s77.58-28.5,77.58-71.35-34.73-77.58-77.58-77.58-77.58,34.73-77.58,77.58"/><path id="Path_681" class="cls-12" d="m203.21,158.59c6.79-.71,12.54,3.49,16.83,4.76s27.94,15.56,31.27,27.14c3.33,11.59,7.27,3.91,9.79,16.88s1.01,16.6,3.02,20.22-1.41,24.24-3.82,24.24-7.34,13.18-9.65,13.18-7.74,12.78-14.28,13.03-9.45,10.71-18.51,10-12.27,6.13-17.2,6.64-10.16-2.92-15.09-2.92-6.44,4.12-11.16.3-18.4-9.05-21.32-8.85-12.67-4.43-12.67-7.54-8.15-4.12-8.15-5.83-6.03-13.47-4.93-14.88-6.54-3.92-6.74-7.74-6.34-10.06-6.34-11.77-4.63-7.24,0-13.88-3.52-20.42.8-25.85c4.32-5.43,9.25-17,14.78-20.01s12.57-12.37,15.49-12.37,15.99-5.13,22.33-6.34,4.83-4.12,9.65-1.41,1.13-.39,8.38-.18c7.25.21,6.83,2.09,9.8,1.3s3.12,2.37,7.71,1.89"/><path id="Path_682" class="cls-5" d="m217.47,244.93c.64,3.05-1.32,6.04-4.37,6.67-.41.09-.83.12-1.25.12-.75-.01-1.61-.03-2.58-.05-7.54-.17-3.52-16.08-6.87-16.08s-4.69-9.72,2.18-9.72c5.06,0,11.2,11.08,12.89,19.06"/><path id="Path_683" class="cls-5" d="m245.96,226.59l-6.55.82c-2.03.25-3.47,2.1-3.22,4.12.04.34.13.67.26.99l1.13,2.68c.17.4.26.82.28,1.25l.76,14.73c.1,2.04,1.84,3.61,3.88,3.51.93-.05,1.81-.44,2.46-1.1l7.54-7.64c1.04-1.06,1.35-2.63.79-4.01l-3.26-7.94c-.34-.82-.37-1.73-.09-2.56.64-1.94-.41-4.03-2.35-4.67-.52-.17-1.08-.23-1.63-.16"/><path id="Path_684" class="cls-5" d="m164.74,254.18l-11.43-1.73c-1.36-.21-2.3-1.48-2.09-2.84.08-.52.32-1,.68-1.37.96-.98.95-2.56-.03-3.52-.42-.41-.98-.66-1.57-.71l-9.13-.67c-1.3-.1-2.31-1.18-2.31-2.49v-8.51c0-1.38,1.12-2.49,2.49-2.49h20.41c1.21,0,2.25.87,2.45,2.07l3.36,19.37c.24,1.36-.67,2.65-2.03,2.88-.26.05-.53.05-.8,0"/><path id="Path_685" class="cls-5" d="m136.58,199.21l8.39-7.96c1-.95,2.58-.91,3.52.09.36.38.59.86.66,1.38.18,1.36,1.44,2.32,2.8,2.14.58-.08,1.12-.36,1.52-.8l6.14-6.8c.87-.97,2.35-1.1,3.38-.3l6.72,5.23c1.09.84,1.28,2.41.44,3.5h0s-12.54,16.11-12.54,16.11c-.74.96-2.07,1.24-3.14.67l-17.34-9.24c-1.21-.65-1.67-2.16-1.03-3.37.13-.24.29-.45.48-.63"/><path id="Path_686" class="cls-5" d="m211.36,275.91l-4.81-2.99c-1.18-.74-2.71-.62-3.77.28l-1.84,1.56c-1.35,1.15-1.52,3.17-.37,4.52.46.54,1.08.91,1.77,1.06l6.65,1.43c1.73.37,3.44-.73,3.81-2.47.28-1.32-.29-2.68-1.44-3.39"/><path id="Path_687" class="cls-5" d="m172.62,218.66l-4.81-2.99c-1.18-.74-2.71-.62-3.77.28l-1.84,1.56c-1.35,1.15-1.52,3.17-.37,4.52.46.54,1.08.91,1.77,1.06l6.65,1.43c1.73.37,3.44-.73,3.81-2.47.28-1.32-.29-2.68-1.44-3.39"/><path id="Path_688" class="cls-5" d="m186.72,169.25l-4.81-2.99c-1.18-.74-2.71-.62-3.77.28l-1.84,1.56c-1.35,1.15-1.52,3.17-.37,4.52.46.54,1.08.91,1.77,1.06l6.65,1.43c1.73.37,3.44-.73,3.81-2.47.28-1.32-.29-2.68-1.44-3.39"/><path id="Path_689" class="cls-5" d="m215.23,208.43l5.19-1.76c.49-.17,1.04-.12,1.5.13l8.45,4.5c.75.4,1.67.26,2.27-.35l3.85-3.73c1.02-1.02,1.03-2.67.02-3.69-.24-.25-.54-.44-.86-.58l-4.68-1.39c-1.33-.55-1.97-2.08-1.42-3.41.13-.3.31-.58.53-.82l4.14-4.23c1.01-1.08.95-2.77-.13-3.78-.09-.08-.19-.16-.29-.23l-8.04-4.92c-.86-.53-1.99-.3-2.58.52l-3.68,4.66c-.59.81-1.71,1.04-2.57.52l-8.93-5.39c-.97-.55-2.2-.22-2.76.75-.07.13-.13.26-.18.41l-3.1,7.83c-.57,1.29.02,2.8,1.31,3.36.05.02.09.04.14.06l5.31,1.44c1.34.52,2.01,2.02,1.49,3.36-.12.3-.29.58-.51.82-.98,1.1-.88,2.78.22,3.75.12.11.25.2.38.28l3.45,1.77c.45.24.98.28,1.47.11"/><path id="Path_690" class="cls-17" d="m163.73,267.69c0,.76.62,1.38,1.38,1.38.76,0,1.38-.62,1.38-1.38,0-.76-.62-1.38-1.38-1.38h0c-.76,0-1.38.62-1.38,1.38"/><path id="Path_691" class="cls-17" d="m227.71,261.76c0,.76.62,1.38,1.38,1.38.76,0,1.38-.62,1.38-1.38s-.62-1.38-1.38-1.38h0c-.76,0-1.38.62-1.38,1.38"/><path id="Path_692" class="cls-17" d="m193.52,247.42c0,.76.62,1.38,1.38,1.38.76,0,1.38-.62,1.38-1.38,0-.76-.62-1.38-1.38-1.38h0c-.76,0-1.38.62-1.38,1.38"/><path id="Path_693" class="cls-17" d="m252.18,209.22c0,.76.62,1.38,1.38,1.38s1.38-.62,1.38-1.38c0-.76-.62-1.38-1.38-1.38h0c-.76,0-1.38.62-1.38,1.38"/><path id="Path_694" class="cls-17" d="m227.71,175.19c0,.76.62,1.38,1.38,1.38s1.38-.62,1.38-1.38-.62-1.38-1.38-1.38h0c-.76,0-1.38.62-1.38,1.38"/><path id="Path_695" class="cls-17" d="m194.9,222.4c0,.76.62,1.38,1.38,1.38.76,0,1.38-.62,1.38-1.38,0-.76-.62-1.38-1.38-1.38h0c-.76,0-1.38.62-1.38,1.38"/><path id="Path_696" class="cls-17" d="m158.31,167.17c0,.76.62,1.38,1.38,1.38.76,0,1.38-.62,1.38-1.38s-.62-1.38-1.38-1.38c-.76,0-1.38.62-1.38,1.38"/><path id="Path_697" class="cls-17" d="m140.2,191.1c.68-.34.96-1.17.61-1.85s-1.17-.96-1.85-.61c-.68.34-.96,1.17-.61,1.85.34.68,1.17.96,1.85.62,0,0,0,0,0,0"/><path id="Path_698" class="cls-16" d="m194.61,264.62l2.7-2.19c1.36-1.1,1.57-3.09.47-4.45l-2.58-1.98c-1.4-1.08-2.62-2.37-3.6-3.84-1.08-1.6-2.38-3.43-2.71-3.17l-6.06,4.9c-1.73,1.4-2,3.93-.6,5.66,0,0,0,0,0,0l3.31,4.1c2.24,2.77,6.3,3.2,9.07.96"/><path id="Path_699" class="cls-16" d="m250.53,232.98l2.7-2.19c1.36-1.1,1.57-3.09.47-4.45l-2.57-1.99c-1.4-1.08-2.62-2.37-3.6-3.84-1.08-1.6-2.38-3.43-2.71-3.17l-6.06,4.9c-1.73,1.4-2,3.93-.6,5.66,0,0,0,0,0,0l3.31,4.1c2.24,2.77,6.3,3.2,9.07.96"/><path id="Path_700" class="cls-16" d="m139.73,205.52l2.7-2.19c1.36-1.1,1.57-3.09.47-4.45l-2.58-1.98c-1.4-1.08-2.62-2.37-3.6-3.84-1.08-1.6-2.38-3.43-2.71-3.17l-6.06,4.9c-1.73,1.4-2,3.93-.6,5.66,0,0,0,0,0,0l3.31,4.1c2.24,2.77,6.3,3.2,9.07.96"/><path id="Path_701" class="cls-16" d="m221.05,198.17l2.7-2.19c1.36-1.1,1.57-3.09.47-4.45l-2.58-1.98c-1.4-1.08-2.62-2.37-3.6-3.84-1.08-1.6-2.38-3.43-2.71-3.17l-6.06,4.9c-1.73,1.4-2,3.93-.6,5.66,0,0,0,0,0,0l3.31,4.1c2.24,2.77,6.3,3.2,9.07.96"/></g></g></g></svg>