<?xml version="1.0" encoding="UTF-8"?><svg id="Layer_1" xmlns="http://www.w3.org/2000/svg" xmlns:xlink="http://www.w3.org/1999/xlink" viewBox="0 0 797.31 863.16"><defs><style>.cls-1{clip-path:url(#clippath);}.cls-2,.cls-3{fill:none;}.cls-2,.cls-4,.cls-5,.cls-6,.cls-7,.cls-8,.cls-9,.cls-10,.cls-11,.cls-12,.cls-13,.cls-14,.cls-15,.cls-16,.cls-17,.cls-18{stroke-width:0px;}.cls-3{stroke:#080909;stroke-miterlimit:10;stroke-width:1.62px;}.cls-19{clip-path:url(#clippath-1);}.cls-20{clip-path:url(#clippath-2);}.cls-4{fill:#f9b592;}.cls-5{fill:#f8f9f8;}.cls-6{fill:#513e2f;}.cls-7{fill:#392826;}.cls-8{fill:#080909;}.cls-9{fill:#c04450;}.cls-10{fill:#b1aaa4;}.cls-11{fill:#34271b;}.cls-12{fill:#853950;}.cls-13{fill:#ff9595;}.cls-14{fill:#81aacb;}.cls-15{fill:#ee8eb0;}.cls-16{fill:#f3806d;}.cls-17{fill:#fff;}.cls-18{fill:#feffe6;}</style><clipPath id="clippath"><rect class="cls-2" x="257.76" y="268.84" width="524.73" height="505" transform="translate(-194.64 698.66) rotate(-59)"/></clipPath><clipPath id="clippath-1"><rect class="cls-2" x="6.88" y="79.17" width="349.21" height="336.08" transform="translate(-123.89 275.44) rotate(-59)"/></clipPath><clipPath id="clippath-2"><rect class="cls-2" x="515.51" y=".93" width="196.18" height="211.15" transform="translate(275.78 629.69) rotate(-67)"/></clipPath></defs><g class="cls-1"><g id="Group_288"><path id="Path_772" class="cls-18" d="m414.47,744.67l113.28-78.06c7.91-5.45,17.61-6.69,25.95-3.32l119.4,48.31c21,8.49,44.04-12.51,38.99-35.54l-28.69-130.99c-1.94-9.41.57-19.2,6.79-26.52l89.53-106.81c15.74-18.79,5.21-46.65-17.83-47.16l-131.02-2.9c-9.07-.15-17.37-5.14-21.76-13.07l-64.06-114.32c-11.26-20.1-40.82-16.32-50.01,6.4l-52.28,129.2c-3.55,8.93-11.01,15.73-20.23,18.44l-129.13,36.16c-22.71,6.36-30.43,36.56-13.08,51.11l98.71,82.74c6.89,5.78,10.36,14.93,9.26,24.47l-15.74,136.67c-2.77,24.03,22.01,38.92,41.93,25.2"/></g></g><g id="Group_287"><g class="cls-19"><g id="Group_285"><path id="Path_737" class="cls-18" d="m111.17,395.83l75.39-51.95c5.02-3.6,11.51-4.43,17.27-2.21l79.46,32.15c13.97,5.65,29.31-8.32,25.95-23.65l-19.1-87.17c-1.29-6.27.38-12.78,4.52-17.65l59.58-71.08c10.48-12.5,3.47-31.05-11.87-31.39l-87.19-1.93c-6.04-.1-11.56-3.42-14.48-8.7l-42.63-76.08c-7.5-13.38-27.17-10.86-33.28,4.26l-34.79,85.98c-2.36,5.94-7.33,10.47-13.47,12.28l-85.94,24.06c-15.11,4.23-20.25,24.33-8.7,34.02l65.69,55.07c4.66,4.05,6.98,10.17,6.16,16.29l-10.48,90.95c-1.84,15.99,14.65,25.9,27.91,16.77"/></g></g><path id="Path_738" class="cls-13" d="m645.35,278.49c-29.74,49.5-33.7,101.75-8.83,116.69s69.14-13.08,98.89-62.58,33.7-101.75,8.83-116.69c-24.87-14.94-69.14,13.08-98.89,62.58"/><rect id="Rectangle_235" class="cls-7" x="171.9" y="415.46" width="132.45" height="15.86"/><path id="Path_739" class="cls-13" d="m400.65,528.66c57.43,6.1,106.47-12.35,109.53-41.2s-41.01-57.18-98.44-63.28-106.47,12.35-109.53,41.2,41.01,57.18,98.44,63.28"/><path id="Path_740" class="cls-13" d="m678.69,310.88c0,57.75,23.52,104.57,52.53,104.57s52.53-46.82,52.53-104.57-23.52-104.57-52.53-104.57-52.53,46.82-52.53,104.57"/><path id="Path_741" class="cls-14" d="m447.44,586.24s6.4,42.7,38.43,70.45c0,0-14.94,125.24,11.39,214.19,0,0,69.03,9.25,102.47,4.98,0,0,1.42-164.38,14.94-176.48s12.6,2.59,12.6,2.59c0,0,13.31,178.5,18.35,181.25,5.05,2.75,120.22-.92,120.22-7.34s23.86-237.23-11.47-282.66c0,0-224.75,54.87-306.93-6.98"/><path id="Path_742" class="cls-6" d="m661.79,205.17s11.25,7.6,38.01,2.74c0,0,.61,16.72-5.17,17.33s25.85,9.42,30.1,22.5c0,0-23.72,8.21-23.72,20.98s-24.02,51.39-43.17,40.13-29.19-47.13-27.36-61.11,31.32-42.57,31.32-42.57"/><path id="Path_743" class="cls-6" d="m542.59,222.51s-7.56,5.11-25.54,1.84c0,0-.41,11.24,3.47,11.65s-17.37,6.33-20.23,15.12c0,0,15.94,5.52,15.94,14.1s16.14,34.53,29.02,26.97,19.62-31.67,18.39-41.07-21.05-28.61-21.05-28.61"/><path id="Path_744" class="cls-13" d="m539.29,257.37s-3.94-64.27,31.48-77.65,72.14,11.28,74.24,18.36c2.1,7.08,28.12,169.19,51.73,166.83,0,0-178.51,104.5-161.36-24.11,0,0,14.69-12.84,14.69-15.46s-10.68-59.83-10.79-67.97"/><path id="Path_745" class="cls-6" d="m559.34,289.83s15.46-28.84,38.4-6.06c0,0,55.76-17.39,39.5,47.42,0,0-13.35,30.94-46.87,21.68,0,0-36.3,15.79-52.04-20.78-14-32.52,18.77-46.6,21.01-42.27"/><path id="Path_746" class="cls-11" d="m616.53,306.76c4.99,2.83,2.5,24.96-29.51,28.63-17.17,1.97-37-7-35.59-13.93,2.47-12.15,19.3-3.83,35.73-9.2,11.91-3.89,23.05-9.09,29.38-5.5"/><path id="Path_747" class="cls-3" d="m575.66,268.85s-9.8-12.7,2.06-21.65"/><path id="Path_748" class="cls-13" d="m670.31,246.81c0,9.34-4.54,16.92-10.14,16.92s-10.14-7.58-10.14-16.92,4.54-16.92,10.14-16.92,10.14,7.57,10.14,16.92"/><path id="Path_749" class="cls-6" d="m661.79,205.17s-36.73,5.45-34.59,12.51,9.2,40.68,15.62,40.35,12.62-9.75,12.62-15.1-7.49-20.52-3-20.42,9.34-17.34,9.34-17.34"/><path id="Path_750" class="cls-6" d="m678.69,209.4s-10.46-8.4-28.66-2.08,16.69,6.48,16.69,6.48l11.96-4.4Z"/><rect id="Rectangle_236" class="cls-2" x="169.69" y="175.81" width="617" height="708.34"/><path id="Path_751" class="cls-9" d="m618.23,317.16c2.06,9.24-7.05,19.14-20.36,22.11s-25.77-2.11-27.83-11.34,10.78-21.72,24.09-24.69,22.03,4.69,24.1,13.93"/><path id="Path_752" class="cls-17" d="m564.61,306.44l46.55-8.36,5.09,11.28s-43.4,27.12-51.65,6.78,0-9.69,0-9.69"/><path id="Path_753" class="cls-2" d="m616.53,306.76c4.99,2.83,2.5,24.96-29.51,28.63-17.17,1.97-37-7-35.59-13.93,1.48-7.28,8.12-7.21,16.73-7.14,5.76.05,12.41.1,18.99-2.06,9.09-2.97,17.74-6.71,24.13-6.71,1.82-.06,3.63.36,5.25,1.21"/><path id="Path_754" class="cls-3" d="m571.85,240.49s-3.27-24.09-14.52-16.5c-2.99,2.14-5.02,5.37-5.63,9-1.18,6.05-2.54,16.43,1.03,20.59"/><path id="Path_755" class="cls-8" d="m558.21,240.49c0,4.4,1.92,7.96,4.29,7.96s4.29-3.56,4.29-7.96-1.92-7.97-4.29-7.97-4.29,3.57-4.29,7.97"/><path id="Path_756" class="cls-3" d="m608.96,240.49s-3.27-24.09-14.52-16.5c-2.99,2.14-5.02,5.37-5.63,9-1.18,6.05-2.53,16.44,1.03,20.59"/><path id="Path_757" class="cls-5" d="m754.38,593.23c2.63,28.3-297.33,37.87-307.2-6.89s16.83-96.28,40.87-106.83l.6-24.16s-48.05-7.24-54.64-19.09c-6.58-11.85,32.91-103.35,101.37-95.45,0,0-3.47,98.19,114.65,38.45,6.14-3.11,22.72-46.08,29.48-49.85,0,0,43.06,23.26,107.18,3.87,0,0-13,69.62-12.97,122.37.03,38.52,12.12,63.71,4.84,91.24-12.92,48.84-24.19,46.36-24.19,46.36"/><path id="Path_758" class="cls-8" d="m595.31,240.49c0,4.4,1.92,7.96,4.29,7.96s4.29-3.56,4.29-7.96-1.92-7.97-4.29-7.97-4.29,3.57-4.29,7.97"/><path id="Path_759" class="cls-6" d="m583.94,215.84c0,2.16,6.79.84,15.17.84s15.17,1.32,15.17-.84-6.79-6.97-15.17-6.97-15.17,4.81-15.17,6.97"/><path id="Path_760" class="cls-6" d="m549.23,215.84c0,2.16,6.79.84,15.17.84s15.17,1.32,15.17-.84-6.79-6.97-15.17-6.97-15.17,4.81-15.17,6.97"/><path id="Path_761" class="cls-13" d="m313.18,492.77s-54.69-37.06-59.83-37.06-82.17-6.89-83.64-14.22,68.72-15.82,82.77-12.89,3.8-8.79,11.13-8.79,14.66-4.4,37.37,2.93c22.72,7.33,86.48.32,86.48.32"/><rect id="Rectangle_237" class="cls-2" x="169.69" y="175.81" width="617" height="708.34"/><g id="Group_289"><path id="Path_762" class="cls-15" d="m329.25,366.91l5.56-5.12-1.36-45.35,19.53-8.91,12.38-25.15,4.86-16.2-6.01-46.94-7.72-20.42-24.78-21.48"/><path id="Path_763" class="cls-16" d="m392.99,222.98l12.52,7.71,4.56,19.85-22.36,17.41-237.24-27.72-19.49-13.36-2.25-13.39,5.32-13.19,10.87-5.12,32.2,5.12,215.86,22.68Z"/><path id="Path_764" class="cls-15" d="m231.71,332.25l7.22-9.43-3.1-23.17,19.53-8.91,12.38-25.15,4.86-16.2-6.01-46.94-7.72-20.42-24.78-21.49"/><path id="Path_765" class="cls-4" d="m187.71,173.96l-10.6,5.59-7.71,21.93-3.7,35.08,5.9,23.66,27.65,40.44,9.13,3.34-20.66-130.03Z"/><path id="Path_766" class="cls-15" d="m234.09,160.54l-46.38,13.43-.15,11.85-7.39,21.46,3.96,15.89-9.26,21.45,9.42,16.61,1.9,7.61,10.97,7.83,7.29,29.26,15.07,1.84,5.29.87,6.92,23.62,1.55-107.83.83-63.89Z"/><path id="Path_767" class="cls-4" d="m236.92,177.8l-10.6,5.59-7.71,21.93-3.7,35.08,5.9,23.66,27.65,40.44,9.12,3.34-20.66-130.03Z"/><path id="Path_768" class="cls-12" d="m280.92,336.09l7.22-9.43-3.1-23.17,19.53-8.91,12.38-25.15,4.86-16.2-6.01-46.94-7.72-20.42-24.78-21.48"/><path id="Path_769" class="cls-12" d="m283.3,164.38l-46.38,13.43-.15,11.85-7.4,21.46,3.96,15.89-9.26,21.45,9.42,16.61,1.9,7.61,10.97,7.83,7.29,29.26,15.06,1.84,5.29.87,6.91,23.62,1.55-107.83.83-63.89Z"/><path id="Path_770" class="cls-4" d="m285.34,190.76l-10.6,5.59-7.71,21.93-3.7,35.08,5.9,23.66,27.64,40.44,9.13,3.34-20.66-130.03Z"/><path id="Path_771" class="cls-15" d="m331.72,177.34l-46.38,13.43-.15,11.84-7.39,21.46,3.96,15.89-9.26,21.45,9.42,16.61,1.9,7.61,10.97,7.83,7.29,29.26,15.06,1.84,6.71,26.92,5.4,15.44,1.64-125.69.83-63.88Z"/></g><g id="Group_286"><g class="cls-20"><g id="Group_154"><path id="Path_271" class="cls-5" d="m536.34,18.31c6.21-14.64,26.24-20.14,44.72-12.29,2.93,1.24,5.72,2.78,8.33,4.61,3.95,2.83,8.91,3.86,13.66,2.84,8.53-1.76,17.41-.82,25.38,2.68l.43.18c2.93,1.26,6.13,1.71,9.29,1.31,17.71-1.76,35.17,5.22,46.81,18.69,3.27,3.84,8.05,6.07,13.1,6.11,5.64.13,11.21,1.34,16.4,3.56,18.48,7.85,28.43,26.08,22.22,40.71-2.75,6.2-7.89,11.02-14.24,13.39-5.02,2.04-8.85,6.24-10.42,11.43-.24.78-.52,1.55-.83,2.29-2.5,5.69-7.04,10.23-12.73,12.73-3.41,1.63-6.23,4.29-8.05,7.6l-34.26,60.82c-4.67,8.55-15.39,11.69-23.94,7.02-.98-.54-1.91-1.17-2.77-1.88-14.36-12.12-38.03-23.74-61.63-12.87-8.73,4.14-19.15.42-23.29-8.31-1.11-2.34-1.69-4.9-1.69-7.5l-.47-72.01c-.05-4.83-2.06-9.44-5.57-12.76-9.47-9.05-13.4-21.47-8.92-32.03.89-2.09,2.08-4.04,3.53-5.78,3.61-4.36,4.99-10.15,3.73-15.67-1.18-4.97-.76-10.18,1.21-14.89"/><path id="Path_272" class="cls-10" d="m665.02,179.22c-6.59-4.19-13.49-7.86-20.64-10.99-21.79-9.8-58.86-21.75-101.66-15.81l.08,13.28s69.27-14.29,115.95,24.65l6.27-11.13Z"/><rect id="Rectangle_168" class="cls-10" x="626.57" y="139.79" width="58.45" height="3.11" transform="translate(269.42 689.75) rotate(-67)"/><path id="Path_273" class="cls-10" d="m548.8,157.02l4.1-58.19-3.11-.19-4.1,58.19,3.11.19Z"/><path id="Path_274" class="cls-10" d="m594.61,156.98l16.9-73.33-3.03-.68-16.9,73.33,3.03.68Z"/><rect id="Rectangle_171" class="cls-10" x="633.22" y="145.16" width="70.45" height="3.11" transform="translate(272.18 704.67) rotate(-67)"/></g></g></g></g></svg>