<?xml version="1.0" encoding="UTF-8"?><svg id="Layer_1" xmlns="http://www.w3.org/2000/svg" xmlns:xlink="http://www.w3.org/1999/xlink" viewBox="0 0 183.04 185.34"><defs><style>.cls-1{clip-path:url(#clippath);}.cls-2{fill:none;}.cls-2,.cls-3{stroke-width:0px;}.cls-3{fill:#24b575;}</style><clipPath id="clippath"><rect class="cls-2" x="-12.04" y="4.15" width="183.32" height="175.32" transform="translate(-39.28 116.94) rotate(-61)"/></clipPath></defs><g class="cls-1"><g id="Group_56"><path id="Path_88" class="cls-3" d="m12.09,44.22l46.62,2.22c3.26.16,6.38-1.3,8.35-3.89L95.32,5.41c3.31-4.35,9.52-5.2,13.87-1.89,1.73,1.32,2.99,3.17,3.56,5.28l12.29,45.02c.86,3.14,3.21,5.66,6.28,6.74l44.06,15.4c5.16,1.8,7.89,7.45,6.08,12.61-.72,2.06-2.1,3.82-3.92,5.02l-39.02,25.6c-2.73,1.79-4.4,4.8-4.47,8.06l-1.03,46.66c-.12,5.47-4.65,9.8-10.11,9.68-2.18-.05-4.28-.81-5.98-2.18l-36.41-29.2c-2.54-2.04-5.92-2.7-9.05-1.76l-44.69,13.44c-5.24,1.57-10.76-1.39-12.33-6.63-.63-2.09-.55-4.32.22-6.36l16.52-43.65c1.15-3.05.73-6.47-1.12-9.15L3.48,59.75c-3.12-4.49-2-10.66,2.49-13.78,1.79-1.24,3.94-1.86,6.12-1.75"/></g></g></svg>