<?xml version="1.0" encoding="UTF-8"?><svg id="Layer_1" xmlns="http://www.w3.org/2000/svg" xmlns:xlink="http://www.w3.org/1999/xlink" viewBox="0 0 1062.68 1133.02"><defs><style>.cls-1{clip-path:url(#clippath);}.cls-2,.cls-3,.cls-4,.cls-5,.cls-6,.cls-7,.cls-8,.cls-9,.cls-10,.cls-11,.cls-12,.cls-13,.cls-14,.cls-15,.cls-16,.cls-17,.cls-18,.cls-19,.cls-20,.cls-21,.cls-22,.cls-23,.cls-24,.cls-25,.cls-26,.cls-27,.cls-28,.cls-29,.cls-30{stroke-width:0px;}.cls-2,.cls-31{fill:none;}.cls-32{clip-path:url(#clippath-1);}.cls-33{clip-path:url(#clippath-2);}.cls-3{fill:#f3f6e2;}.cls-4{fill:#faaa6d;}.cls-5{fill:#24b575;}.cls-6{fill:#2a2a2a;}.cls-7{fill:#705a49;}.cls-8{fill:#95aa3b;}.cls-9{fill:#1b482f;}.cls-10{fill:#1c482f;}.cls-11{fill:#cbac72;}.cls-12{fill:#ddb089;}.cls-13{fill:#c79d7c;}.cls-14{fill:#ac9260;}.cls-15{fill:#d7b677;}.cls-16{fill:#a48267;}.cls-17{fill:#b45745;}.cls-18{fill:#ab8056;}.cls-19{fill:#b3cc3e;}.cls-20{fill:#b3cc3f;}.cls-21{fill:#ba816d;}.cls-22{fill:#fecd96;}.cls-23{fill:#fecd9a;}.cls-24{fill:#ffe47e;}.cls-25{fill:#e9c380;}.cls-26{fill:#e4ecc5;}.cls-27{fill:#feed75;}.cls-28{fill:#ffddae;}.cls-29{fill:#ffdfa7;}.cls-30{fill:#ffdcad;}.cls-31{stroke:#e4ecc5;stroke-miterlimit:10;stroke-width:1.89px;}</style><clipPath id="clippath"><rect class="cls-2" x="-28.84" y="0" width="1091.52" height="1133.02"/></clipPath><clipPath id="clippath-1"><rect class="cls-2" x="831.87" y="828.33" width="68.66" height="65.66" transform="translate(-282.79 446.76) rotate(-25)"/></clipPath><clipPath id="clippath-2"><rect class="cls-2" x="768.02" y="551.5" width="32.71" height="34.2" transform="translate(-119.69 916.75) rotate(-57)"/></clipPath></defs><g id="Group_107"><g id="Group_106"><rect id="Rectangle_80" class="cls-18" x="656.78" y="806.47" width="125.72" height="26.71"/><g id="Group_105"><g class="cls-1"><g id="Group_104"><path id="Path_91" class="cls-14" d="m799.46,769.6c0,20.3-16.46,36.76-36.76,36.76s-36.76-16.46-36.76-36.76,16.46-36.76,36.76-36.76,36.76,16.46,36.76,36.76h0"/><path id="Path_92" class="cls-11" d="m781.26,774.25c0,20.3-16.46,36.76-36.76,36.76s-36.76-16.46-36.76-36.76,16.46-36.76,36.76-36.76,36.76,16.46,36.76,36.76h0"/><path id="Path_93" class="cls-15" d="m760.65,766.18c.59,20.29-15.38,37.23-35.67,37.82-20.29.59-37.23-15.38-37.82-35.67-.59-20.29,15.38-37.23,35.67-37.82h0c20.29-.59,37.23,15.38,37.82,35.67"/><path id="Path_94" class="cls-25" d="m739.23,786.56c0,20.3-16.46,36.76-36.76,36.76s-36.76-16.46-36.76-36.76,16.46-36.76,36.76-36.76,36.76,16.46,36.76,36.76h0"/><rect id="Rectangle_81" class="cls-29" x="225.05" y="854.3" width="556.6" height="211.07"/><rect id="Rectangle_82" class="cls-22" x="253.11" y="920.63" width="185.22" height="104.21"/><rect id="Rectangle_83" class="cls-22" x="659.41" y="873.01" width="96.68" height="151.83"/><rect id="Rectangle_84" class="cls-22" x="454.33" y="873.01" width="189.83" height="151.83"/><rect id="Rectangle_85" class="cls-22" x="253.11" y="873.01" width="185.22" height="42.39"/><rect id="Rectangle_86" class="cls-12" x="781.65" y="987.79" width="281.03" height="77.58"/><rect id="Rectangle_87" class="cls-30" x="275.28" y="880.56" width="42.5" height="11.66"/><path id="Path_95" class="cls-30" d="m331.51,936.62c0,3.79-3.07,6.86-6.86,6.86s-6.86-3.07-6.86-6.86c0-3.79,3.07-6.86,6.86-6.86h0c3.79,0,6.86,3.07,6.86,6.86"/><rect id="Rectangle_88" class="cls-17" x="217.36" y="835.56" width="578.24" height="18.73"/><rect id="Rectangle_89" class="cls-13" x="20.2" y="800.9" width="192.3" height="36.77"/><path id="Path_96" class="cls-16" d="m169.27,828.33c0,6.77-5.49,12.26-12.26,12.26s-12.26-5.49-12.25-12.26c0-6.77,5.49-12.26,12.25-12.26s12.26,5.49,12.26,12.26h0"/><path id="Path_97" class="cls-16" d="m79.02,827.33c0-6.77-5.49-12.26-12.26-12.26s-12.25,5.49-12.25,12.26c0,6.77,5.49,12.26,12.26,12.26s12.25-5.49,12.25-12.26h0"/><path id="Path_98" class="cls-13" d="m169.27,824.85c0,6.77-5.49,12.26-12.26,12.26s-12.26-5.49-12.25-12.26c0-6.77,5.49-12.26,12.25-12.26s12.26,5.49,12.26,12.26h0"/><path id="Path_99" class="cls-13" d="m79.02,823.85c0,6.77-5.49,12.26-12.26,12.26s-12.25-5.49-12.25-12.26c0-6.77,5.49-12.26,12.26-12.26s12.25,5.49,12.25,12.26h0"/><path id="Path_100" class="cls-25" d="m748.19,776.75l-4.27-23.5c1.22-1.66,1.68-3.76,1.27-5.78-.62-3.59-4.72-9.19-7.47-8.71s-3.12,6.86-2.49,10.44c.54,3.09,2.64,5.38,4.97,5.65l4.04,21.89h3.95Z"/><path id="Path_101" class="cls-14" d="m742.92,746.04c.78,3.36-.1,6.44-1.96,6.86s-3.99-1.95-4.77-5.31.14-7.64,1.99-8.07,3.96,3.15,4.73,6.51"/><path id="Path_102" class="cls-25" d="m743.31,745.02c.78,3.36-.1,6.44-1.96,6.86s-3.99-1.95-4.77-5.31-.24-6.62,1.61-7.05,4.34,2.13,5.11,5.49"/><rect id="Rectangle_90" class="cls-16" x="89.1" y="820.27" width="45.58" height="16.12"/><rect id="Rectangle_91" class="cls-13" x="91.11" y="824.28" width="5.28" height="3.15"/><rect id="Rectangle_92" class="cls-13" x="97.24" y="824.28" width="5.28" height="3.15"/><rect id="Rectangle_93" class="cls-13" x="91.11" y="828.11" width="5.28" height="3.15"/><rect id="Rectangle_94" class="cls-13" x="97.24" y="828.11" width="5.28" height="3.15"/><rect id="Rectangle_95" class="cls-13" x="91.11" y="832.06" width="5.28" height="3.15"/><rect id="Rectangle_96" class="cls-13" x="97.24" y="832.06" width="5.28" height="3.15"/><rect id="Rectangle_97" class="cls-7" x="5.39" y="834.75" width="221.93" height="43.28"/><path id="Path_103" class="cls-16" d="m51.94,816.8c0-6.77-5.49-12.26-12.26-12.26s-12.25,5.49-12.25,12.26c0,6.77,5.49,12.26,12.26,12.26,6.77,0,12.25-5.49,12.26-12.26"/><rect id="Rectangle_98" class="cls-13" x="10" y="877.59" width="214.72" height="187.78"/><path id="Path_104" class="cls-16" d="m182.24,816.8c0,6.77-5.49,12.26-12.26,12.26s-12.26-5.49-12.25-12.26c0-6.77,5.49-12.26,12.25-12.26s12.26,5.49,12.26,12.26h0"/><path id="Path_105" class="cls-13" d="m182.24,814.18c0,6.77-5.49,12.26-12.26,12.26s-12.26-5.49-12.25-12.26c0-6.77,5.49-12.26,12.25-12.26s12.26,5.49,12.26,12.26h0"/><path id="Path_106" class="cls-13" d="m51.94,814.18c0,6.77-5.49,12.26-12.26,12.26s-12.25-5.49-12.25-12.26c0-6.77,5.49-12.26,12.26-12.26,6.77,0,12.25,5.49,12.26,12.26"/><path id="Path_107" class="cls-7" d="m184.63,1036.81H49.72c-10.19,0-18.45-8.26-18.45-18.45v-81.54c0-10.19,8.26-18.45,18.45-18.45h134.91c10.19,0,18.45,8.26,18.45,18.45v81.54c0,10.19-8.26,18.45-18.45,18.45"/><rect id="Rectangle_99" class="cls-13" x="103.36" y="822.76" width="26.81" height="12"/><path id="Path_108" class="cls-16" d="m143.71,828.33h-1.59c-1.22,0-2.21-.99-2.21-2.21v-14.32c0-1.22.99-2.21,2.21-2.21h1.59c1.22,0,2.21.99,2.21,2.21v14.31c0,1.22-.99,2.21-2.21,2.21"/><path id="Path_109" class="cls-16" d="m170.75,822.04h-1.54c-1.23,0-2.23-1-2.23-2.23h0v-14.67c0-1.23,1-2.23,2.23-2.23h1.54c1.23,0,2.23,1,2.23,2.23h0v14.67c0,1.23-1,2.23-2.23,2.23h0"/><path id="Path_110" class="cls-16" d="m67.08,828.33h-1.54c-1.23,0-2.24-1-2.24-2.24h0v-14.69c0-1.23,1-2.24,2.24-2.24h1.54c1.23,0,2.24,1,2.24,2.24h0v14.7c0,1.23-1,2.24-2.24,2.24h0"/><path id="Path_111" class="cls-16" d="m39.95,821.04h-1.54c-1.23,0-2.23-1-2.23-2.23h0v-14.67c0-1.23,1-2.23,2.23-2.23h1.54c1.23,0,2.23,1,2.23,2.23h0v14.67c0,1.23-1,2.23-2.23,2.23h0"/><path id="Path_112" class="cls-13" d="m143.95,825.33h-2.07c-1.09,0-1.97-.88-1.97-1.97v-10.94c0-1.09.88-1.97,1.97-1.97h2.07c1.09,0,1.97.88,1.97,1.97v10.94c0,1.09-.88,1.97-1.97,1.97"/><path id="Path_113" class="cls-13" d="m171.02,819.04h-2.07c-1.09,0-1.97-.88-1.97-1.97v-10.94c0-1.09.88-1.97,1.97-1.97h2.07c1.09,0,1.97.88,1.97,1.97v10.94c0,1.09-.88,1.97-1.97,1.97"/><path id="Path_114" class="cls-13" d="m67.35,825.33h-2.07c-1.09,0-1.97-.88-1.97-1.97h0v-10.94c0-1.09.88-1.97,1.97-1.97h2.07c1.09,0,1.97.88,1.97,1.97h0v10.94c0,1.09-.88,1.97-1.97,1.97h0"/><path id="Path_115" class="cls-13" d="m40.21,818.04h-2.07c-1.09,0-1.97-.88-1.97-1.97v-10.94c0-1.09.88-1.97,1.97-1.97h2.07c1.09,0,1.97.88,1.97,1.97v10.94c0,1.09-.88,1.97-1.97,1.97"/><rect id="Rectangle_100" class="cls-13" x="0" y="548.17" width="238.72" height="47.34"/><path id="Path_116" class="cls-16" d="m194.07,450.4H44.65L0,548.17h238.72l-44.65-97.77Z"/><rect id="Rectangle_101" class="cls-13" x="44.65" y="122" width="149.42" height="328.4"/><rect id="Rectangle_102" class="cls-13" x="44.65" y="0" width="149.42" height="450.4"/><rect id="Rectangle_103" class="cls-16" x="76.98" y="284.46" width="113.88" height=".87"/><path id="Path_117" class="cls-4" d="m527.55,747.28l-6.57,23.5,4.24,4.92h19.95l3.96-5.6-6.57-22.82h-15Z"/><path id="Path_118" class="cls-4" d="m581.63,764.8l-14.98-.76,7.49.38-7.49-.37c.47-9.58-.97-27.07-6.83-33.22-1.04-1.22-2.58-1.91-4.18-1.88-3.62,0-8.15.93-11.04,8.19-1.22,3.25-1.91,6.67-2.04,10.13h-15c.11-5.37,1.16-10.68,3.1-15.69,4.53-11.37,13.4-17.63,24.98-17.63,5.72-.03,11.18,2.35,15.06,6.55,12.16,12.78,11.1,41.11,10.93,44.3"/><path id="Path_119" class="cls-4" d="m556.72,805.2l-5.16-22.64,6.16-1.81,5.53,24.1-5.35,6.16-1.18-5.81Z"/><path id="Path_120" class="cls-4" d="m560.48,824.58c-5.35.05-9.73-4.24-9.79-9.59-.05-5.35,4.24-9.73,9.59-9.79.06,0,.13,0,.19,0v19.38Z"/><rect id="Rectangle_104" class="cls-4" x="560.48" y="805.2" width="6.51" height="19.38"/><rect id="Rectangle_105" class="cls-4" x="566.99" y="732.83" width="14.3" height="96.89"/><rect id="Rectangle_106" class="cls-4" x="619.92" y="821.24" width="8.36" height="10.93"/><rect id="Rectangle_107" class="cls-4" x="628.28" y="822.21" width="11.26" height="3.33"/><rect id="Rectangle_108" class="cls-4" x="636.04" y="824.6" width="2.93" height="3.33"/><rect id="Rectangle_109" class="cls-4" x="622.01" y="832.18" width="4.44" height="5.79"/><rect id="Rectangle_110" class="cls-30" x="362.96" y="880.56" width="43.31" height="11.66"/><path id="Path_121" class="cls-30" d="m362.96,936.62c0,3.79-3.07,6.86-6.86,6.86s-6.86-3.07-6.86-6.86c0-3.79,3.07-6.86,6.86-6.86h0c3.79,0,6.86,3.07,6.86,6.86"/><path id="Path_122" class="cls-30" d="m572.78,889.57c0,4.3-3.49,7.79-7.79,7.79s-7.79-3.49-7.79-7.79,3.49-7.79,7.79-7.79h0c4.3,0,7.79,3.49,7.79,7.79"/><path id="Path_123" class="cls-30" d="m540.38,889.57c0,4.3-3.49,7.79-7.79,7.79s-7.79-3.49-7.79-7.79,3.49-7.79,7.79-7.79h0c4.3,0,7.79,3.49,7.79,7.79"/><rect id="Rectangle_111" class="cls-30" x="686.58" y="881.8" width="42.35" height="9.59"/><path id="Path_124" class="cls-4" d="m537.49,838.39l6.66-7.45h62.32l9.78,7.45h-78.76Z"/><path id="Path_125" class="cls-28" d="m1040.26,686.43h-236.19c-12.38,0-22.42-10.04-22.42-22.42h0v-177.9c0-12.38,10.04-22.42,22.42-22.42h236.19c12.38,0,22.42,10.04,22.42,22.42v177.9c0,12.38-10.04,22.42-22.42,22.42"/><path id="Path_126" class="cls-23" d="m789.78,778.92h-131.76c-3.21,0-5.81,2.6-5.81,5.81h0v47.42c0,3.21,2.6,5.81,5.81,5.81h131.76c3.21,0,5.81-2.6,5.81-5.81h0v-47.42c0-3.21-2.6-5.81-5.81-5.81h0m-100.74,54.26h-24.22l-4.89-6.91h29.11v6.91Zm0-12.88h-32.27v-13.83h32.27v13.83Zm0-19.9h-32.27v-13.83h32.27v13.83Zm34.86,32.79h-24.22v-6.91h24.22v6.91Zm5.01-12.88h-32.27v-13.83h32.27v13.83Zm0-19.9h-32.27v-13.84h32.27v13.84Zm65.93,32.79h-16.13v-6.91h16.13v6.91Zm0-12.88h-16.13v-13.84h16.13v13.84Zm0-19.9h-16.13v-13.84h16.13v13.84Z"/><path id="Path_127" class="cls-28" d="m1040.26,1019.08h-236.19c-12.38,0-22.42-10.04-22.42-22.42h0v-288.4c0-12.38,10.04-22.42,22.42-22.42h236.19c12.38,0,22.42,10.04,22.42,22.42v288.4c0,12.38-10.04,22.42-22.42,22.42"/><path id="Path_128" class="cls-8" d="m315.11,887.14l-6.64,1.08-7.23-19.47,13.87-25.74-3.68,17.29,3.68,26.84Z"/><path id="Path_129" class="cls-21" d="m1004.24,518.13h0c-5.68,0-10.28,4.6-10.28,10.28h0v93.29c0,5.68,4.6,10.28,10.28,10.28s10.28-4.6,10.28-10.28v-93.29c0-5.68-4.6-10.28-10.28-10.28"/><path id="Path_130" class="cls-21" d="m1004.24,711.21h0c-5.68,0-10.28,4.6-10.28,10.28h0v216.22c0,5.68,4.6,10.28,10.28,10.28s10.28-4.6,10.28-10.28v-216.22c0-5.68-4.6-10.28-10.28-10.28"/><rect id="Rectangle_112" class="cls-28" x="728.92" y="769.6" width="44.28" height="60.13"/><path id="Path_131" class="cls-24" d="m391.34,1072.47l-5.09,7.65,9.74,50.79h30.27l3.47-41.11"/><path id="Path_132" class="cls-24" d="m376.33,1074.59l5.09,7.65-9.74,50.79h-30.27l-3.47-41.11"/><path id="Path_133" class="cls-3" d="m378.83,693.5l-87.14-46.43,53.52,92.11,32.07-11.98,33.95,13.16,62.92-93.29-95.32,46.43Z"/><path id="Path_134" class="cls-20" d="m344.64,781.06l-1.31-93.29,20.1-22.73,34.36-.64,24.71,31.4-4.53,85.26-33.49,21.97-39.84-21.97Z"/><path id="Path_135" class="cls-20" d="m369.08,792.61v14.57h29.51v-15.55l-29.51.98Z"/><path id="Path_136" class="cls-27" d="m363.39,776.18l-95.36-25.05,116.86-160.71,112.91,145.33-79.98,39.47-54.43.95Z"/><path id="Path_137" class="cls-9" d="m346.15,922.2l-7.94,36.96-.27,132.75,11.74,25.5,25.16-19.46,8.99-141.19-10.62-19.6-27.07-14.97Z"/><path id="Path_138" class="cls-9" d="m419.02,922.31l9.71,42.94.99,124.65-11.74,25.5-25.16-19.46-8.99-141.18,10.62-19.6,24.57-12.85Z"/><path id="Path_139" class="cls-9" d="m438.33,819.36l-7.61-18.46h-94.1l-7.61,18.46,19.49,119.56-1.05,39.73h72.45l-4.07-40.47,22.51-118.82Z"/><path id="Path_140" class="cls-31" d="m383.83,802.08s-33.23,30.51-17.19,26.64,13.19-9.05,17.19-26.64Z"/><path id="Path_141" class="cls-31" d="m385.68,802.08s33.23,30.51,17.19,26.64-13.19-9.05-17.19-26.64Z"/><path id="Path_142" class="cls-31" d="m383.83,841.83c-12.42,8.05,0-39.75,0-39.75,0,0,20.47,44.98,9.32,40.66"/><path id="Path_143" class="cls-31" d="m383.64,906.8s-29.86,12.73-15.45,11.11,11.85-3.77,15.45-11.11Z"/><path id="Path_144" class="cls-31" d="m385.31,906.8s29.86,12.73,15.45,11.11-11.85-3.77-15.45-11.11Z"/><path id="Path_145" class="cls-31" d="m383.64,923.38c-11.16,3.36,0-16.58,0-16.58,0,0,18.39,18.76,8.38,16.96"/><path id="Path_146" class="cls-26" d="m386.85,906.8c0,1.61-1.31,2.92-2.92,2.92s-2.92-1.31-2.92-2.92c0-1.61,1.31-2.92,2.92-2.92s2.92,1.31,2.92,2.92h0"/><path id="Path_147" class="cls-26" d="m387.39,801.45c0,1.61-1.31,2.92-2.92,2.92s-2.92-1.31-2.92-2.92c0-1.61,1.31-2.92,2.92-2.92s2.92,1.31,2.92,2.92h0"/><path id="Path_148" class="cls-31" d="m338.26,896.69s20.08,22.84,45.67,10.11"/><path id="Path_149" class="cls-31" d="m429.31,896.69s-20.08,22.84-45.67,10.11"/><path id="Path_150" class="cls-20" d="m336.88,801.53l9.46,40.92-31.23,44.7-6.64,1.08-7.23-19.47,10.18-8.46,8.59-42.35,16.86-16.43Z"/><path id="Path_151" class="cls-8" d="m450.6,887.14l6.64,1.08,7.23-19.47-13.87-25.74,3.68,17.29-3.68,26.84Z"/><path id="Path_152" class="cls-20" d="m431.43,801.38l-12.06,41.07,31.23,44.7,6.64,1.08,7.23-19.47-10.18-8.46-8.59-42.35-14.26-16.58Z"/></g></g></g></g><path id="Path_153" class="cls-19" d="m894.98,276.77l-29.99,25-18.67,29.87,38.65,53.48-24.92,38-23.88,23.68,10.15,2.57,23.08-20.29,18.8-28.37-30.84,106.74,7.78,38.12h11.63l-5.54-38.12,25.89-43.46h13.7l23.83,42.08-14.9,33.61,20.45,1.39,13.17-51.29-37.77-94.71,22.97,35.79,14.8,33.14h12.78l-14.49-39.19-39-43.51,32.4-51.72-50.06-52.8Z"/><path id="Path_154" class="cls-10" d="m875.36,357.53l-4.9-5.23-7.07-25,12.75-24.42,10.99,34.31-11.77,20.35Z"/><path id="Path_155" class="cls-10" d="m910.72,357.53l-4.9-5.23-7.07-25,12.75-24.42,10.99,34.31-11.77,20.35Z"/><path id="Path_156" class="cls-6" d="m889.05,371.27l-2.67-7.77-2.63,6.52-1.32-.53,4.06-10.05,3.02,8.8,6.57-8.98,4.96,7.29,1.95-7.96,4.52,7.91-1.24.71-2.75-4.81-1.86,7.6-5.63-8.27-6.99,9.56Z"/></g><g class="cls-32"><g id="Group_118"><path id="Path_167" class="cls-5" d="m856.22,831.88l13.63,10.94c.95.76,2.22,1.01,3.39.66l16.74-5.03c1.96-.59,4.03.52,4.62,2.48.23.78.21,1.62-.08,2.38l-6.19,16.35c-.43,1.14-.28,2.42.42,3.43l9.96,14.36c1.17,1.68.75,3.99-.93,5.16-.67.46-1.47.7-2.29.66l-17.46-.83c-1.22-.06-2.39.49-3.13,1.46l-10.58,13.91c-1.24,1.63-3.57,1.95-5.2.71-.65-.49-1.12-1.19-1.33-1.98l-4.6-16.86c-.32-1.18-1.2-2.12-2.35-2.52l-16.5-5.77c-1.93-.68-2.95-2.79-2.28-4.72.27-.77.78-1.43,1.47-1.88l14.62-9.59c1.02-.67,1.65-1.8,1.67-3.02l.38-17.47c.05-2.05,1.74-3.67,3.79-3.62.81.02,1.6.3,2.24.81"/></g></g><g class="cls-33"><g id="Group_120"><path id="Path_169" class="cls-5" d="m794.11,556.65l-1.02,8.65c-.07.6.16,1.2.62,1.6l6.54,5.74c.77.67.84,1.84.17,2.61-.27.31-.63.51-1.03.59l-8.54,1.7c-.6.12-1.1.52-1.34,1.08l-3.44,8c-.4.94-1.49,1.37-2.43.97-.37-.16-.68-.44-.88-.79l-4.26-7.59c-.3-.53-.84-.88-1.44-.94l-8.67-.8c-1.02-.09-1.76-.99-1.67-2.01.04-.4.21-.79.48-1.08l5.91-6.39c.41-.45.58-1.07.45-1.66l-1.92-8.49c-.22-1,.4-1.98,1.4-2.21.4-.09.81-.05,1.18.12l7.91,3.64c.55.25,1.19.22,1.72-.09l7.48-4.45c.88-.52,2.01-.23,2.53.64.21.35.29.76.25,1.16"/></g></g></svg>