<?xml version="1.0" encoding="UTF-8"?><svg id="Layer_1" xmlns="http://www.w3.org/2000/svg" xmlns:xlink="http://www.w3.org/1999/xlink" viewBox="0 0 673.21 774.81"><defs><style>.cls-1{stroke-width:.76px;}.cls-1,.cls-2,.cls-3,.cls-4{fill:none;}.cls-1,.cls-2,.cls-4{stroke-miterlimit:10;}.cls-1,.cls-4{stroke:#1a1818;}.cls-2{stroke:#120f0e;stroke-width:1.51px;}.cls-5{clip-path:url(#clippath);}.cls-3,.cls-6,.cls-7,.cls-8,.cls-9,.cls-10,.cls-11,.cls-12,.cls-13,.cls-14,.cls-15,.cls-16,.cls-17,.cls-18,.cls-19,.cls-20,.cls-21,.cls-22{stroke-width:0px;}.cls-23{clip-path:url(#clippath-1);}.cls-24{clip-path:url(#clippath-4);}.cls-25{clip-path:url(#clippath-3);}.cls-26{clip-path:url(#clippath-2);}.cls-27{clip-path:url(#clippath-7);}.cls-28{clip-path:url(#clippath-8);}.cls-29{clip-path:url(#clippath-6);}.cls-30{clip-path:url(#clippath-5);}.cls-31{clip-path:url(#clippath-9);}.cls-32{clip-path:url(#clippath-20);}.cls-33{clip-path:url(#clippath-21);}.cls-34{clip-path:url(#clippath-24);}.cls-35{clip-path:url(#clippath-23);}.cls-36{clip-path:url(#clippath-22);}.cls-37{clip-path:url(#clippath-25);}.cls-38{clip-path:url(#clippath-14);}.cls-39{clip-path:url(#clippath-13);}.cls-40{clip-path:url(#clippath-12);}.cls-41{clip-path:url(#clippath-10);}.cls-42{clip-path:url(#clippath-15);}.cls-43{clip-path:url(#clippath-17);}.cls-44{clip-path:url(#clippath-16);}.cls-45{clip-path:url(#clippath-19);}.cls-46{clip-path:url(#clippath-11);}.cls-47{clip-path:url(#clippath-18);}.cls-4{stroke-width:.88px;}.cls-6{fill:#60c2ef;}.cls-7{fill:#62c1ee;}.cls-8{fill:#386599;}.cls-9{fill:#120e0e;}.cls-10{fill:#dbe8ff;}.cls-11{fill:#9d5f1d;}.cls-12{fill:#90b7ff;}.cls-13{fill:#b5faff;}.cls-14{fill:#ff7878;}.cls-15{fill:#ff6940;}.cls-16{fill:#fff790;}.cls-17{fill:#fced89;}.cls-18{fill:#ff4050;}.cls-19{fill:#ffac83;}.cls-20{fill:#feffe6;}.cls-21{fill:#00348b;}.cls-22{fill:#00336f;}</style><clipPath id="clippath"><polygon class="cls-3" points="720.14 184.84 544.48 722.4 -28.04 517.38 147.63 -20.18 720.14 184.84"/></clipPath><clipPath id="clippath-1"><rect class="cls-3" x="404.72" y="266.09" width="223.27" height="79.57"/></clipPath><clipPath id="clippath-2"><rect class="cls-3" x="87.79" y="6.02" width="154.2" height="175.65" transform="translate(-24.83 95.02) rotate(-30)"/></clipPath><clipPath id="clippath-3"><rect class="cls-3" x="92.14" y="93.84" width="343.28" height="702.15"/></clipPath><clipPath id="clippath-4"><rect class="cls-3" x="432.49" y="189.88" width="195.5" height="116"/></clipPath><clipPath id="clippath-5"><rect class="cls-3" x="432.49" y="189.88" width="195.5" height="116"/></clipPath><clipPath id="clippath-6"><rect class="cls-3" x="568.18" y="214.36" width="12.82" height="17.25"/></clipPath><clipPath id="clippath-7"><rect class="cls-3" x="470.72" y="218.54" width="7.48" height="19.52"/></clipPath><clipPath id="clippath-8"><rect class="cls-3" x="568" y="220.84" width="17.75" height="12.02"/></clipPath><clipPath id="clippath-9"><rect class="cls-3" x="504.17" y="189.88" width="17.76" height="12.02"/></clipPath><clipPath id="clippath-10"><rect class="cls-3" x="572.41" y="194.4" width="14.33" height="16.08"/></clipPath><clipPath id="clippath-11"><rect class="cls-3" x="567.56" y="194.69" width="17.9" height="11.78"/></clipPath><clipPath id="clippath-12"><rect class="cls-3" x="517.19" y="259.62" width="14.33" height="16.08"/></clipPath><clipPath id="clippath-13"><rect class="cls-3" x="518.27" y="255.31" width="8.25" height="19.32"/></clipPath><clipPath id="clippath-14"><rect class="cls-3" x="590.61" y="254.53" width="14.33" height="16.08"/></clipPath><clipPath id="clippath-15"><rect class="cls-3" x="585.76" y="254.83" width="17.9" height="11.78"/></clipPath><clipPath id="clippath-16"><rect class="cls-3" x="452.24" y="203.24" width="6.02" height="19.78"/></clipPath><clipPath id="clippath-17"><rect class="cls-3" x="443.15" y="211.43" width="19.89" height="4.09"/></clipPath><clipPath id="clippath-18"><rect class="cls-3" x="458.78" y="232.86" width="7.76" height="7.76"/></clipPath><clipPath id="clippath-19"><rect class="cls-3" x="438.23" y="216.92" width="7.76" height="7.76"/></clipPath><clipPath id="clippath-20"><rect class="cls-3" x="508.26" y="195.5" width="7.76" height="7.76"/></clipPath><clipPath id="clippath-21"><rect class="cls-3" x="578.47" y="231.21" width="2.84" height="2.84"/></clipPath><clipPath id="clippath-22"><rect class="cls-3" x="575.08" y="231.21" width="2.84" height="2.84"/></clipPath><clipPath id="clippath-23"><rect class="cls-3" x="577.06" y="235.5" width="2.84" height="2.84"/></clipPath><clipPath id="clippath-24"><rect class="cls-3" x="494.88" y="213.15" width="41.29" height="14.7"/></clipPath><clipPath id="clippath-25"><rect class="cls-3" x="432.49" y="246.94" width="38.73" height="17.52"/></clipPath></defs><g class="cls-5"><g id="Group_306"><path id="Path_783" class="cls-20" d="m605.78,473.21l-156.45,11.62c-10.92.81-20.21,6.62-24.83,15.52l-66.17,127.58c-11.64,22.43-47.34,20.27-60.41-3.66l-74.36-136.09c-5.47-9.71-14.94-16.51-25.89-18.6l-157.77-30.66c-27.74-5.39-39.75-37.5-20.32-54.33l110.5-95.73c7.72-6.68,11.11-17.07,8.83-27.02l-31.34-146.53c-5.51-25.77,22.77-43.45,47.85-29.92l142.65,76.93c9.96,5.37,21.68,6.08,31.35,1.9l138.4-59.9c24.34-10.53,53.82,10.65,49.89,35.84l-22.34,143.27c-1.56,10,2.38,20.55,10.54,28.2l116.87,109.51c20.55,19.26,10.49,50.03-17.02,52.07"/></g></g><g id="Group_305"><g id="Group_302"><g class="cls-23"><g id="Group_248"><path id="Path_395" class="cls-12" d="m452.51,335.23c4.51-.36,8.92-1.52,13.02-3.41,13.01-6.06,48.37-18.78,81.46,2.66,41.54,26.9,73.02-1.6,71.39-14.38s-3.57-18.11,4.54-21.58,10.71-36.03-25.64-28.94c-36.35,7.09-51.28,12.92-68.15,5.35s-74.32-16.64-78.53,2.94c-4.22,19.58-70.42,49.42-36.02,53.68,28.37,3.51,28.27,4.49,37.92,3.68"/><path id="Path_396" class="cls-10" d="m458.26,277.84s9.54-9.94,18.59-7.43c9.05,2.51,29.85,4.55,25.93,14.93-3.91,10.39-57.49,14.71-54.13,6.55,2.29-5.25,5.56-10.01,9.61-14.05"/><path id="Path_397" class="cls-10" d="m492.64,316.38c8.49,1.63,56.59,1.05,64.23,4.6s23.95,16.89,32.2,3.89,13.42-32.09,0-36.31-58.15-16.34-62.59-4.22-16.24,15.2-21.19,15.2-17.02,16-12.63,16.85"/><path id="Path_398" class="cls-10" d="m418.39,319.8c8.67,2.69,21.67,11.32,34.46,3.21,12.79-8.11,17.35-15.03,27.97-8.78s6.55-12.5-2.14-12.5-40.68-6.75-45.01,0-18.53,17.06-15.27,18.07"/><path id="Path_399" class="cls-10" d="m583.08,282.28c3.79,4.04,20.08-1.88,19.12,25.85s8.89-14.9,14.66-15.41,12.98-5.83,5.05-11.14-45.44-6.34-38.82.7"/><path id="Path_400" class="cls-10" d="m555.17,326.4c11.1-.79,26.17,17.12,44.39,3.16s4.57,9.64,0,9.64-32.91,3.34-41.69-4.92-9.25-7.41-2.7-7.88"/></g></g></g><g id="Group_303"><g id="Group_155"><g class="cls-26"><g id="Group_154"><path id="Path_271" class="cls-8" d="m208.84,15.76c-7.12-12.33-23.19-16.38-35.89-9.05-2.02,1.16-3.88,2.58-5.54,4.22-2.59,2.57-6.31,3.66-9.87,2.88-6.43-1.28-13.11-.16-18.77,3.13l-.3.17c-2.06,1.19-4.45,1.69-6.82,1.43-13.32-1.12-26.04,5.78-32.36,17.56-1.75,3.34-5.14,5.5-8.9,5.67-4.17.27-8.21,1.5-11.83,3.59-12.71,7.33-17.23,23.28-10.11,35.61,2.92,5.06,7.52,8.95,12.99,11,4.34,1.78,7.84,5.16,9.78,9.44.31.65.64,1.3,1.01,1.94,2.69,4.66,6.8,8.34,11.74,10.48,2.97,1.38,5.51,3.54,7.35,6.24l35.97,50.95c5.76,8.16,15.87,9.88,21.07,3.52,8.87-10.85,24.88-21.59,44.54-13.07,9.75,4.23,18.37-3.27,16.3-14.36l-11.52-61.69c-.82-3.84-.06-7.84,2.11-11.11,5.86-8.16,6.44-18.99,1.47-27.73-1.01-1.75-2.23-3.37-3.63-4.83-3.44-3.58-5.37-8.34-5.41-13.3.03-4.46-1.14-8.85-3.37-12.71"/><path id="Path_272" class="cls-8" d="m137.96,157.84c4.28-3.79,8.9-7.17,13.82-10.09,22.22-13.74,48.39-19.69,74.37-16.9l2.13,11.37s-54.8-9.95-83.73,24.95l-6.58-9.32Z"/><rect id="Rectangle_168" class="cls-13" x="137.55" y="98.92" width="2.27" height="52.33" transform="translate(-43.96 86.1) rotate(-30)"/><path id="Path_273" class="cls-13" d="m222.28,134.97l-12.7-49.7,2.32-.26,12.7,49.7-2.32.26Z"/><path id="Path_274" class="cls-13" d="m187.59,136.45l-24.91-62.25,2.19-.68,24.91,62.25-2.19.68Z"/><rect id="Rectangle_171" class="cls-8" x="128.86" y="98.56" width="2.27" height="63.08" transform="translate(-47.63 82.43) rotate(-30)"/></g></g></g><g id="Group_182"><g class="cls-25"><g id="Group_181"><path id="Path_337" class="cls-21" d="m326.06,124.43s52.02-25.04,37.81,75.1c0,0-22.5-32.92-22.77-29.61s15.6,15.6,8.42,38.37c-7.18,22.77-35.75,28.43-36.58,28.43s-3.92,60.99,35.88,63.5c0,0-2.08,8.66-7.59,8.15,0,0,5.34,4.24,8.91,2.54,0,0-39.32,20.74-63.03,13.21"/><path id="Path_338" class="cls-21" d="m328.77,106.37l-88.43,42.58,21.46,106.65,28.01,50.48,15.99-29.72"/><path id="Path_339" class="cls-6" d="m307.9,426.71l-7.26-67.01c-1.16-10.73-9.69-19.17-20.43-20.22l-35.66-3.5,31.68,75.85,31.68,14.88Z"/><path id="Path_340" class="cls-6" d="m287,365.89l-17.2,3.68c-7.69,1.64-11.91,11.77-8.9,16.79l18.46,30.7c2.69,4.42,5.84,8.55,9.4,12.3l13.69,14.54c3.11,3.31,9.84,4.06,14.38,1.6l55.17-42.37-10.3-7.72-48.17,30.79c-1.92.97-4.69.51-5.7-.95l-12.65-16.88-11.71-18.63"/><path id="Path_341" class="cls-6" d="m284.87,414.23s-.1,50.96,3.96,60.44-57.57,18.63-66.04,0c0,0,3.05-46.04-1.35-60.44"/><path id="Path_342" class="cls-6" d="m196.08,345.26l15.68-5.02,12.7,3.85,7.9,36.59-29.7,15.07-7.9-43.32,1.32-7.17Z"/><path id="Path_343" class="cls-22" d="m223.54,458.84s-12.76-38.33-18.69-44.97,11.62-74.38,3.72-72.59c0,0,23.17-9.78,53.41-3.6,2.26.46,13.87.29,15.86,1.55,26.93,17.06,24.35,91.53,8.73,122.78,0,0-21.91,11.55-63.03-3.18"/><path id="Path_344" class="cls-6" d="m208.57,341.28l-24.3,5.19c-10.86,2.32-16.83,16.63-12.57,23.72l26.08,43.37c3.79,6.25,8.24,12.08,13.27,17.38l19.34,20.54c4.4,4.67,13.9,5.73,20.31,2.26l93.7-72.58-10.83-11.44-87.43,58.81c-2.71,1.37-6.62.72-8.06-1.35l-17.95-25.92-16.54-26.32"/><path id="Path_345" class="cls-6" d="m311.02,230.18c-.79-3.01-1-6.15-.63-9.24.4-3.3.61-6.62.61-9.95,0-36.74-23.99-66.53-53.58-66.53s-52.58,28.59-53.53,64.29c-.39-.03-.77-.06-1.16-.06-8.62.12-15.51,7.2-15.39,15.82-.02,5.19,2.48,10.06,6.71,13.06.76,2.78,2.62,5.13,5.15,6.51-3.62,5.21-5.55,11.4-5.54,17.74,0,16.88,13.31,30.57,29.73,30.57,1.51,0,3.02-.12,4.51-.35,3.16,13.26,6.02,29.36,6.04,44.45,0,6.79,4.89,12.58,11.46,13.25.12.01.25.02.38.03,7.65.64,14.05-5.92,13.69-13.81-.43-9.27-.78-22.22.52-23.66h0c3.81,1.24,7.79,1.89,11.79,1.92,26.34,0,41.79-29.75,41.79-64.04.01-6.75-.84-13.47-2.54-20.01"/><path id="Path_346" class="cls-21" d="m309.03,193.36l-95.42,2.56s-35.38,87.55,34.56,88.63c0,0,11.08,59.33-62.77,33.03,0,0-28.19-6.77-53.55,6.14,0,0,2.35-10.8,12.68-13.62s-34.55-8.52-52.39-36.22c0,0,27.94-9.63,42.73-50.48s14.79-109.17,111.75-92.97c0,0,9.63-19.49,62.92-24.65,0,0,17.61-3.05,25.59-11.03"/><path id="Path_347" class="cls-21" d="m318.2,93.84s4.67,15.08-11.2,25.44"/><path id="Path_348" class="cls-21" d="m213.47,191.47s-4.05,28.48,6.72,32.04c0,0,12.7-23.88,29.96-27.18,0,0-.14,9.23,23.75,3.56,0,0,59.29,16.41,36.87-13.06"/><path id="Path_349" class="cls-9" d="m295.88,229.25c0,6.13-2.32,11.09-5.18,11.09s-5.18-4.97-5.18-11.09,2.32-11.09,5.18-11.09,5.18,4.97,5.18,11.09"/><path id="Path_350" class="cls-2" d="m280.7,228.31c1.96-16.1,28.09-21.15,23.19,1.66"/><path id="Path_351" class="cls-9" d="m259.62,229.25c0,6.13-2.32,11.09-5.18,11.09s-5.18-4.97-5.18-11.09,2.32-11.09,5.18-11.09,5.18,4.97,5.18,11.09"/><path id="Path_352" class="cls-2" d="m241.73,228.31c1.96-16.1,28.09-21.15,23.19,1.66"/><path id="Path_353" class="cls-7" d="m272.16,215.39s0,16.25,15.48,20.84c1.9.56,2.74,2.27,1.75,3.65-3.45,4.79-10.85,14.12-17.23,15.74"/><path id="Path_354" class="cls-4" d="m272.16,215.39s0,16.25,15.48,20.84c1.9.56,2.74,2.27,1.75,3.65-3.45,4.79-10.85,14.12-17.23,15.74"/><path id="Path_355" class="cls-7" d="m260.27,274.07s15.27,13.87,33.18-2.25"/><path id="Path_356" class="cls-1" d="m260.27,274.07s15.27,13.87,33.18-2.25"/><path id="Path_357" class="cls-22" d="m434.95,779.14c-9.57-16.04-83.77-191.65-89.68-213.18s-58.98-75.75-58.98-75.75c0,0,7.06-10.36,8.72-16.67s-4.32-7.23-7.97-7.23c-7.34,0-8.39,18.25-18.68,14.92s-3.03-14.96-18.28-3.96-23.71-18.64-33.49-7.63c-2.65,2.99,10.95,20.58,10.95,20.58,0,0-21.9,7.31-29.76,27.97-11.53,30.32-.59,83.55-1.34,95.35-1.58,24.75-38.98,159.74-5.7,174.26s117.06,8.82,117.66-9.85-46.4-178.38-45.34-200.68c.1-2.15.12-4.7.06-7.55,12.18,21.63,28.37,44.8,30.07,51.41,6.18,24.02,36.24,163.93,48.68,167.42,34.97,9.8,99.65,1.62,93.08-9.4"/><path id="Path_358" class="cls-11" d="m280.48,494.59s-12.17,19.19,14.08,42.82,0,1.29,0,1.29c0,0-16.72,31.49-22.75-29.95"/><path id="Path_359" class="cls-11" d="m269.57,495.58s-20.5,10.22-11.96,46.34-.75,1.22-.75,1.22c0,0-32.17,13.02-1.42-48.18"/><path id="Path_360" class="cls-17" d="m252.32,545.99s-7.95,44.75-8.14,48.08,12.76.55,13.87,0,6.47-47.71,4.62-48.08-10.35,0-10.35,0"/><path id="Path_361" class="cls-17" d="m272.2,525.93s14.7,45.31,28.2,50.67l-9.25,11.28s-16.8-10.64-20.52-42.92l1.57-19.03Z"/><path id="Path_362" class="cls-17" d="m277.76,495.1l-.04-.14-7.54-.84c-2.4-.83-14.74.84-14.74.84,6.45,56.31-9.4,51.22-9.4,51.22,8.69,4.53,20.16,2.87,23.85.12,2.43-1.8,2.7-22.97,1.93-37.56,33.43,27.34,20.18,34.73,20.18,34.73,8.94-3.32,16.08-12.4,17.04-16.7.95-4.28-28.83-32.6-31.27-31.67m-6.53,5.85l.19.02-.17.18c0-.07-.01-.14-.02-.2"/><path id="Path_363" class="cls-17" d="m233.6,493.97l12.9,3.32-3.47,11.42-12.41-3.2,2.98-11.54Z"/><path id="Path_364" class="cls-17" d="m225.98,487.79l4.03,1.28-2.65,8.36-4.48-1.95,3.1-7.69Z"/><path id="Path_365" class="cls-17" d="m288.23,489.06l-4.03,1.28,2.65,8.36,4.48-1.95-3.1-7.69Z"/><path id="Path_366" class="cls-6" d="m333.59,369.72s19.82-27.54,25.36-27.54,48.04-9.24,47.3-5.17-36.58,12.93-41.75,12.93-4.7,14.36-.89,14.36,21.39-6.14,20.33,1.06-13.34,2.54-17.36,8.68-18.46,6.41-22.15,7.12-10.83-11.44-10.83-11.44"/><path id="Path_367" class="cls-6" d="m388.07,343.83s16.42,1.53,15.51,3.35c-3.06,6.05-20.86-1.01-20.86-1.01"/><path id="Path_368" class="cls-6" d="m376.04,345.52s15.91,4.36,14.69,5.99c-4.06,5.43-20.36-4.62-20.36-4.62"/><path id="Path_369" class="cls-6" d="m361.71,395.41s17.61-22.74,21.89-22.74,37.09-7.13,36.52-3.99-28.25,9.99-32.24,9.99-3.63,11.09-.69,11.09,16.52-4.74,15.7.82-10.3,1.96-13.41,6.7-16.24,5.4-19.08,5.95-8.69-7.81-8.69-7.81"/><path id="Path_370" class="cls-6" d="m406.09,373.94s12.68,1.18,11.97,2.58c-2.36,4.67-16.1-.78-16.1-.78"/><path id="Path_371" class="cls-6" d="m396.8,375.25s12.28,3.37,11.34,4.63c-3.14,4.19-15.72-3.57-15.72-3.57"/></g></g></g></g><g id="Group_304"><g class="cls-24"><g id="Group_246"><g id="Group_245"><g class="cls-30"><g id="Group_244"><path id="Path_372" class="cls-19" d="m626.9,251.81c0,29.86-41.68,54.06-93.08,54.06s-93.09-24.2-93.09-54.06,41.68-54.06,93.08-54.06,93.08,24.2,93.08,54.06"/><path id="Path_373" class="cls-14" d="m450.09,206.15c-9.4,10.13-15.5,26.98-13.95,34.42s14.88,22.32,23.25,22.32,48.06-5.27,45.58,4.96,21.7,19.22,24.8,11.78,26.05-19.84,30.7-18.91,16.43,17.05,23.87,17.05,8.99-14.88,21.08-15.81,1.24-17.36,12.09-17.36,13.33-8.87,7.13-12.09-23.56-31.94-38.45-31.94-38.45-5.58-44.65-5.58-18.6-2.79-27.9,0-32.56,2.42-36.9,2.76-20.88,2.17-26.66,8.4"/><g id="Group_186"><g id="Group_185"><g class="cls-29"><g id="Group_184"><path id="Path_374" class="cls-15" d="m578.14,214.36l-9.96,17.25,4.81-1.91,8.01-12.8-2.86-2.54Z"/></g></g></g></g><g id="Group_189"><g id="Group_188"><g class="cls-27"><g id="Group_187"><path id="Path_375" class="cls-16" d="m474.67,218.54l-3.95,19.52,3.95-3.35,3.52-14.68-3.52-1.5Z"/></g></g></g></g><g id="Group_192"><g id="Group_191"><g class="cls-28"><g id="Group_190"><path id="Path_376" class="cls-16" d="m568,223.83l17.76,9.03-2.17-4.71-13.21-7.32-2.38,2.99Z"/></g></g></g></g><g id="Group_195"><g id="Group_194"><g class="cls-31"><g id="Group_193"><path id="Path_377" class="cls-16" d="m504.17,192.87l17.76,9.03-2.17-4.7-13.21-7.32-2.38,2.99Z"/></g></g></g></g><g id="Group_198"><g id="Group_197"><g class="cls-41"><g id="Group_196"><path id="Path_378" class="cls-16" d="m574.99,210.48l11.75-16.08-4.99,1.39-9.34,11.87,2.58,2.83Z"/></g></g></g></g><g id="Group_201"><g id="Group_200"><g class="cls-46"><g id="Group_199"><path id="Path_379" class="cls-18" d="m567.56,197.72l17.9,8.75-2.24-4.67-13.32-7.11-2.34,3.03Z"/></g></g></g></g><g id="Group_204"><g id="Group_203"><g class="cls-40"><g id="Group_202"><path id="Path_380" class="cls-16" d="m519.76,275.7l11.75-16.08-4.99,1.39-9.34,11.87,2.57,2.83Z"/></g></g></g></g><g id="Group_207"><g id="Group_206"><g class="cls-39"><g id="Group_205"><path id="Path_381" class="cls-18" d="m526.52,274.13l-6.55-18.81-1.7,4.89,4.45,14.43,3.8-.51Z"/></g></g></g></g><g id="Group_210"><g id="Group_209"><g class="cls-38"><g id="Group_208"><path id="Path_382" class="cls-16" d="m593.19,270.61l11.75-16.08-4.99,1.39-9.34,11.87,2.57,2.83Z"/></g></g></g></g><g id="Group_213"><g id="Group_212"><g class="cls-42"><g id="Group_211"><path id="Path_383" class="cls-18" d="m585.76,257.86l17.9,8.75-2.24-4.67-13.32-7.11-2.34,3.03Z"/></g></g></g></g><g id="Group_216"><g id="Group_215"><g class="cls-44"><g id="Group_214"><path id="Path_384" class="cls-16" d="m455.87,223.02l2.39-19.78-3.68,3.65-2.35,14.92,3.63,1.21Z"/></g></g></g></g><g id="Group_219"><g id="Group_218"><g class="cls-43"><g id="Group_217"><path id="Path_385" class="cls-18" d="m443.15,215.53l19.89-1.11-4.24-2.98-15.1.3-.55,3.79Z"/></g></g></g></g><g id="Group_222"><g id="Group_221"><g class="cls-47"><g id="Group_220"><path id="Path_386" class="cls-18" d="m466.53,236.74c0,2.14-1.74,3.88-3.88,3.88s-3.88-1.74-3.88-3.88,1.74-3.88,3.88-3.88c0,0,0,0,0,0,2.14,0,3.88,1.74,3.88,3.88"/></g></g></g></g><g id="Group_225"><g id="Group_224"><g class="cls-45"><g id="Group_223"><path id="Path_387" class="cls-18" d="m445.99,220.8c0,2.14-1.74,3.88-3.88,3.88s-3.88-1.74-3.88-3.88,1.74-3.88,3.88-3.88,3.88,1.74,3.88,3.88h0"/></g></g></g></g><g id="Group_228"><g id="Group_227"><g class="cls-32"><g id="Group_226"><path id="Path_388" class="cls-18" d="m515.89,200.35c-.54,2.07-2.66,3.31-4.73,2.77-2.07-.54-3.31-2.66-2.77-4.73.54-2.07,2.66-3.31,4.73-2.77,0,0,0,0,0,0,2.07.54,3.31,2.66,2.77,4.73"/></g></g></g></g><g id="Group_231"><g id="Group_230"><g class="cls-33"><g id="Group_229"><path id="Path_389" class="cls-18" d="m581.26,232.98c-.2.76-.97,1.21-1.73,1.01-.76-.2-1.21-.97-1.01-1.73.2-.76.97-1.21,1.73-1.01.76.2,1.21.97,1.01,1.73,0,0,0,0,0,0"/></g></g></g></g><g id="Group_234"><g id="Group_233"><g class="cls-36"><g id="Group_232"><path id="Path_390" class="cls-18" d="m577.87,232.98c-.2.76-.97,1.21-1.73,1.02-.76-.2-1.21-.97-1.02-1.73s.97-1.21,1.73-1.02c0,0,0,0,0,0,.76.2,1.21.97,1.01,1.73"/></g></g></g></g><g id="Group_237"><g id="Group_236"><g class="cls-35"><g id="Group_235"><path id="Path_391" class="cls-15" d="m579.85,237.27c-.2.76-.97,1.21-1.73,1.01-.76-.2-1.21-.97-1.01-1.73.2-.76.97-1.21,1.73-1.01.76.2,1.21.97,1.01,1.73,0,0,0,0,0,0"/></g></g></g></g><path id="Path_392" class="cls-18" d="m512.13,220.84s20.07,10.93,43.35-2.3"/><g id="Group_240"><g id="Group_239"><g class="cls-34"><g id="Group_238"><path id="Path_393" class="cls-16" d="m510.15,227.85l26.01-9.52-19.25-5.18-22.04,6.02,15.28,8.68Z"/></g></g></g></g><g id="Group_243"><g id="Group_242"><g class="cls-37"><g id="Group_241"><path id="Path_394" class="cls-16" d="m453.94,246.94l-21.46,17.52,19.88-1.42,18.85-12.91-17.28-3.19Z"/></g></g></g></g></g></g></g></g></g></g><circle id="Ellipse_5" class="cls-12" cx="414.52" cy="277.01" r="17.61"/><circle id="Ellipse_6" class="cls-12" cx="653.79" cy="230.06" r="18.51"/><circle id="Ellipse_7" class="cls-12" cx="469.6" cy="162.34" r="8.58"/><path id="Path_780" class="cls-10" d="m408.47,268.64s11.72,7,15.01,14.95,7.39-3.82,7.39-5.8-19.46-17.75-19.6-14.9-2.79,5.75-2.79,5.75Z"/><path id="Path_781" class="cls-10" d="m646.3,221.25s11.72,7,15.01,14.95,7.39-3.82,7.39-5.8-19.46-17.75-19.6-14.9-2.79,5.75-2.79,5.75Z"/><path id="Path_782" class="cls-10" d="m466.49,157.42s3.26,1.95,4.17,4.16,2.06-1.06,2.06-1.61-5.41-4.94-5.45-4.14c-.1.6-.37,1.15-.78,1.6Z"/></g></svg>