<?xml version="1.0" encoding="UTF-8"?><svg id="Layer_1" xmlns="http://www.w3.org/2000/svg" xmlns:xlink="http://www.w3.org/1999/xlink" viewBox="0 0 772.56 1019.31"><defs><style>.cls-1{clip-path:url(#clippath);}.cls-2,.cls-3,.cls-4{fill:none;}.cls-2,.cls-5,.cls-6,.cls-7,.cls-8,.cls-9,.cls-10,.cls-11,.cls-12,.cls-13,.cls-14,.cls-15,.cls-16,.cls-17,.cls-18{stroke-width:0px;}.cls-19{clip-path:url(#clippath-1);}.cls-20{clip-path:url(#clippath-2);}.cls-3{stroke-width:2px;}.cls-3,.cls-4{stroke:#1a1818;stroke-miterlimit:10;}.cls-5{fill:#472831;}.cls-6{fill:#5d4b99;}.cls-7{fill:#302279;}.cls-8{fill:#3aaf8c;}.cls-9{fill:#1a1818;}.cls-10{fill:#0b0c0f;}.cls-11{fill:#b74e64;}.cls-12{fill:#7e70b1;}.cls-13{fill:#ff8fa9;}.cls-14{fill:#fff;}.cls-15{fill:#fdf;}.cls-16{fill:#e73660;}.cls-17{fill:#feffe6;}.cls-18{fill:#f6b9c4;}</style><clipPath id="clippath"><rect class="cls-2" x="19.65" y="183.72" width="528.37" height="549.01" transform="translate(-195.46 211.63) rotate(-31)"/></clipPath><clipPath id="clippath-1"><rect class="cls-2" x="152.16" y="11.96" width="618.79" height="1163.36"/></clipPath><clipPath id="clippath-2"><rect class="cls-2" x="134.75" y="342.34" width="234.42" height="123.26" transform="translate(-13.99 9.07) rotate(-2.01)"/></clipPath></defs><g class="cls-1"><g id="Group_134"><path id="Path_221" class="cls-17" d="m394.37,691.88l-118.52-81.68c-8.27-5.7-18.43-7-27.15-3.47l-124.92,50.55c-21.97,8.88-46.08-13.09-40.79-37.19l30.02-137.05c2.03-9.85-.59-20.08-7.1-27.75L12.22,343.54c-16.47-19.65-5.45-48.81,18.66-49.34l137.08-3.03c9.49-.16,18.17-5.38,22.77-13.68l67.03-119.61c11.79-21.04,42.71-17.08,52.33,6.69l54.69,135.18c3.71,9.34,11.52,16.46,21.17,19.3l135.1,37.83c23.76,6.65,31.84,38.25,13.68,53.48l-103.27,86.57c-7.21,6.04-10.83,15.62-9.68,25.61l16.47,143c2.89,25.15-23.03,40.72-43.87,26.36"/></g></g><g id="Group_255"><g class="cls-19"><g id="Group_254"><path class="cls-13" d="m526.2,348.88h0s-22.52,26.48-33.59,71.57c-10.08,41.07-8.45,100.65-14.83,109.27-9.28,12.55-90.17,17.51-138.84,19.37-13.83-.97-30.77-2.7-35.49-5.54-8.35-5.01-32.63-11.15-40.25-5.81-7.62,5.34,35.02,9.05,15.45,11.34-12.24,1.43-6.98,1.62-21.65,2.88-8.78.75-26.35-7.2-31.48-4.7-14.95,7.29,69.53,17.89,69.7,17.91h0s183.36,21.98,203.82,14.11c20.45-7.87,57.43-146.33,66.87-185.67,9.44-39.34-39.7-44.74-39.7-44.74Z"/><path id="Path_469" class="cls-13" d="m512.09,253.38c-15.94,0-28.87,12.92-28.87,28.87,0,15.94,12.92,28.87,28.87,28.87,15.94,0,28.87-12.92,28.87-28.87s-12.92-28.87-28.87-28.87m0,43.4c-8.03,0-14.54-6.51-14.54-14.53,0-8.03,6.51-14.54,14.53-14.54,8.03,0,14.54,6.51,14.54,14.53h0c0,8.03-6.51,14.54-14.54,14.54h0"/><path id="Path_470" class="cls-16" d="m530.79,271.95c-4.46-2.3-9.87-1.25-13.92,2.2.45-5.3-1.83-10.32-6.29-12.62-1.77-.91-3.74-1.33-5.73-1.21-7.29.37-12.36,7.47-10.86,14.61l4.1,19.57c1.08,5.13,6.11,8.42,11.24,7.34.64-.13,1.26-.33,1.85-.59l18.32-8.01c6.69-2.92,9.53-11.17,5.6-17.33-1.06-1.68-2.55-3.05-4.31-3.96"/><path id="Path_471" class="cls-13" d="m733.02,226.6c-20.95,0-37.94,16.98-37.94,37.93s16.98,37.94,37.93,37.94c20.95,0,37.94-16.98,37.94-37.93h0c0-20.95-16.98-37.94-37.93-37.94"/><rect id="Rectangle_219" class="cls-10" x="152.16" y="531.01" width="191.54" height="15.42"/><path id="Path_473" class="cls-5" d="m703.74,682.79s-23.65-259.02-19.62-269.29,33.59-71.57,33.59-71.57c0,0-144.93-8.24-156.37-7.04s-25.9,139.46-26.54,152.07,27.74,195.83,27.74,195.83h141.2Z"/><path id="Path_474" class="cls-5" d="m574.6,337c-75.19-15.77-56.34,23.98-76.37,48.63-5.4,6.65-19.72,67.02-20.79,74.11s94.53,16.85,94.53,16.85c0,0,7.37-65.51,17.71-68.61s-15.08-70.98-15.08-70.98"/><path id="Path_475" class="cls-5" d="m551.11,755.73l123.59-20.43s2.04,131.77-20.43,229.82l50.05,208.37s-44.94,4.09-49.03,0-38.71-192.81-38.71-202.45,9.97-145.01,11.14-149.29-58.23,17.12-58.23,17.12c0,0-23.55,105.95-23.55,111.83s63.67,199.05,63.67,199.05c0,0,2.14,11.77-34.78,8.56,0,0-67.96-184.07-64.21-214.03s32.26-179.7,40.48-188.57"/><path id="Path_476" class="cls-10" d="m509.15,825.84s164.7-23.97,200.14,0-53.16-370.04-41.7-431.55c0,0-68.8,11.47-118.83-11.47,0,0-19.67,91.28-13.93,164.25,14.48,184.02-18.09,229.47-25.67,278.76"/><path id="Path_477" class="cls-10" d="m666.79,401.22s32.89-62.9,50.92-59.28l-25.06-11.19s-21.74-4.86-42.11,65.47l16.25,5Z"/><path id="Path_478" class="cls-10" d="m556.64,403.61s-8.22-65.86,28.82-70.18l-24.12,1.46s-9.18,4.67-12.58,47.93l7.88,20.79Z"/><path id="Path_479" class="cls-8" d="m615.8,491.97l-4.93,12.7h-22.69l-1.58-11.16-16.26-2.55,3.48-36.36,25.94-4.05,22.59,5.65,8.18,34.7-14.73,1.06Z"/><path id="Path_480" class="cls-10" d="m599.06,476.13c-1.76,5.13-5.77,6.28-10.9,4.52s-6.29-4.68-4.53-9.81,2.12-6.51,7.25-4.75,9.93,4.91,8.18,10.03"/><path id="Path_481" class="cls-10" d="m601.34,476.13c1.76,5.13,5.77,6.28,10.9,4.52s6.29-4.68,4.53-9.81-2.12-6.51-7.25-4.75-9.93,4.91-8.18,10.03"/><path id="Path_482" class="cls-13" d="m717.7,341.94s49.14,5.4,39.7,44.74-46.42,177.8-66.87,185.67-154.06-1.7-154.06-1.7l-1.68-27.18s121.13-2.58,134.5-20.68c6.38-8.62,4.75-68.21,14.83-109.27,11.07-45.08,33.59-71.57,33.59-71.57"/><path id="Path_483" class="cls-5" d="m717.71,341.94c75.32,15.15,44.26,81.29,39.24,88.23s3.47,55.93,1.66,62.88-93.52-21.79-93.52-21.79c0,0,19.05-63.11,10.77-70.04s41.84-59.28,41.84-59.28"/><path id="Path_485" class="cls-13" d="m723.16,233.99l-2.86-73.49c-.57-14.71-4.89-29.02-12.56-41.58-4.72-7.74-12.98-12.63-22.04-13.05l-130.14-6c-20.27-.93-37.46,14.74-38.4,35.02-.03.56-.04,1.13-.04,1.69v91.55h0c-10.97,13.41-15.94,27.77-12.91,41.38,7.85,35.24,66.4,52.3,131.83,38.98h.01c15.02-2.86,27.52-5.67,37.92-8.36,29.91-7.72,50.39-35.26,49.17-66.13"/><path id="Path_486" class="cls-11" d="m544.79,250.91s-4.38-.96-2.41-20.57,8.8-18.45,8.8-18.45l4.46,1.57s-12.66,7.21-10.84,37.45"/><path id="Path_487" class="cls-3" d="m555.64,213.46c-7.17,0-25.36-16.43-20.17-37.63s36.27,6.62,36.27,6.62"/><path id="Path_488" class="cls-9" d="m565.93,189.87c0,8.39-2.99,15.19-6.68,15.19s-6.68-6.8-6.68-15.19,2.99-15.19,6.68-15.19,6.68,6.8,6.68,15.19"/><path id="Path_489" class="cls-18" d="m681.3,132.15c10.01-13.34-10.17-8.62-9.25-11.17s1.84-4.07,0-26.46-24.19-19.26-24.19-19.26c-3.09-72.14-60.83-25.66-60.83-25.66-18.56-13.4-14.43-37.64-14.43-37.64-8.77,4.56-3.18,28.31-3.18,28.31-93.51-56.86-82.87,44.12-82.87,44.12,0,0-44.98,5.93-34.96,55.57,3.29,16.31,12.9,30.47,26.8,37.03,3.72,1.86,7.81,2.87,11.97,2.97,0,0-3.44,10.88-22.97,4.04,0,0,25.9,28.44,44.85-10.26,0,0,8.7-6.2,11.6-5.35s31.35,19.28,63.04-18.01c0,0,85.73-6.62,94.44-18.23"/><path id="Path_490" class="cls-13" d="m602.92,313v23.01s-6.51,55.97,34,1.61l-.86-29.13"/><path id="Path_491" class="cls-4" d="m586.53,224.73s-27.67-23.79,3.88-28.4"/><path id="Path_492" class="cls-3" d="m613.28,182.46s38.48-27.82,44.91-6.62c6.43,21.2-13.69,36.04-22.57,36.04"/><path id="Path_493" class="cls-9" d="m646.94,183.06c0,8.39-2.99,15.19-6.68,15.19s-6.68-6.8-6.68-15.19,2.99-15.19,6.68-15.19,6.68,6.8,6.68,15.19"/><path id="Path_494" class="cls-18" d="m607.78,158.44c-.28-3.59,10.65,3.63,23.35,2.64s22.39-9.81,22.67-6.22-9.31,13.55-22.02,14.54-23.72-7.38-24-10.97"/><path id="Path_495" class="cls-18" d="m564.03,162.11c0,3.6-10.33-4.44-23.08-4.44s-23.08,8.04-23.08,4.44,10.33-12.79,23.08-12.79,23.08,9.19,23.08,12.79"/><path id="Path_496" class="cls-3" d="m578.6,267.71l8.49,2.88c14.81,5.02,31.11,2.9,44.15-5.74l5.68-3.77"/><path id="Path_497" class="cls-16" d="m753.38,255.31c-4.46-2.3-9.87-1.25-13.92,2.2.45-5.3-1.83-10.32-6.29-12.62-1.77-.91-3.74-1.33-5.73-1.21-7.29.37-12.36,7.47-10.86,14.61l4.1,19.57c1.08,5.13,6.11,8.42,11.24,7.34.64-.13,1.26-.33,1.85-.59l18.32-8.01c6.69-2.92,9.53-11.17,5.6-17.33-1.06-1.68-2.55-3.05-4.31-3.96"/></g></g></g><g id="Group_257"><g class="cls-20"><g id="Group_256"><path id="Path_534" class="cls-6" d="m349,379.09c.41-3.64-2.21-6.93-5.85-7.34-.24-.03-.48-.04-.72-.04-32.76-.14-164.49-.56-181.27,1.69-18.58,2.49-34.24,30.61-21.01,77.78.78,2.75,3.23,4.7,6.09,4.82,28.03,1.24,171.66,7.48,182.79,4.76,10.12-2.47,17.6-60.79,19.96-81.67"/><path id="Path_535" class="cls-12" d="m329.36,460.75l37.74-17.77s13.6-80.64-24.33-70.29c-34.38,9.38-14.33,84.17-13.41,88.05"/><path id="Path_536" class="cls-14" d="m343.39,456.4c-2.92-6.42-5.39-13.04-7.4-19.8-4.43-14.97-5.05-26.47-1.83-34.19,1.8-4.62,5.54-8.21,10.23-9.82,3.07-1.2,6.32-1.88,9.62-2.03,2.58-.12,5.14.62,7.25,2.12,5.7,4.28,5.16,13.34,4.58,22.92-.05.77-.09,1.55-.14,2.33-.12,3.69-.58,7.36-1.37,10.96-.77,3.05-1.88,5.09-3.51,6.44-2.38,1.97-5.22,1.88-7.42,1.58-2.69-.36-5.1-2.77-6.78-6.76-1.39-3.31-2.02-6.89-1.85-10.47.07-2.65.96-5.22,2.54-7.34,1.91-2.36,4.81-3.69,7.84-3.6l.06,6.54c-.88-.05-1.76.22-2.45.78-.62.62-1.04,1.42-1.21,2.28-.49,2.56-.31,5.21.52,7.68.82,2.69,1.92,4.12,2.38,4.45,1.56.19,2.01,0,2.21-.16.22-.18.79-.84,1.34-2.99.68-3.2,1.08-6.46,1.18-9.73.04-.79.09-1.57.14-2.36.34-3.86.4-7.74.17-11.61-.29-2.96-1-4.82-2.16-5.69-1.76-1.32-5.47-1.03-10.74.84-2.94,1-5.28,3.26-6.39,6.17-2.58,6.19-1.87,16.47,2.04,29.74,1.93,6.47,4.29,12.8,7.07,18.96l-5.92,2.78Z"/><path id="Path_537" class="cls-15" d="m330.36,362.55c.43,12.24-9.34,16.97-21.58,17.39s-22.31-3.61-22.74-15.84c-.32-9.1,8.19-12.42,19.18-15.96,3.79-1.22,4.96-7.88,4.96-7.88,0,0,19.74,10.05,20.17,22.29"/><path id="Path_538" class="cls-15" d="m259.17,365.04c.43,12.24-9.34,16.97-21.57,17.39s-22.31-3.61-22.74-15.84c-.32-9.1,8.19-12.42,19.18-15.96,3.79-1.22,4.96-7.88,4.96-7.88,0,0,19.74,10.05,20.17,22.29"/><path id="Path_539" class="cls-7" d="m214.61,422.32c.02.47-.35.86-.82.88s-.86-.35-.88-.82.35-.86.82-.88h0c.47-.02.86.35.88.82"/><path id="Path_540" class="cls-7" d="m311.11,397.89c.02.47-.35.86-.82.88-.47.02-.86-.35-.88-.82s.35-.86.82-.88.86.35.88.82h0"/><path id="Path_541" class="cls-7" d="m331.56,374.51c.02.47-.35.86-.82.88-.47.02-.86-.35-.88-.82-.02-.47.35-.86.82-.88h0c.47-.02.86.35.88.82"/><path id="Path_542" class="cls-7" d="m292.88,418.73c.02.47-.35.86-.82.88-.47.02-.86-.35-.88-.82s.35-.86.82-.88c.47-.02.86.35.88.82h0"/><path id="Path_543" class="cls-7" d="m333.85,439.87c.02.47-.35.86-.82.88-.47.02-.86-.35-.88-.82-.02-.47.35-.86.82-.88h0c.47-.02.86.35.88.82"/><path id="Path_544" class="cls-7" d="m358.45,442.89c.02.47-.35.86-.82.88-.47.02-.86-.35-.88-.82-.02-.47.35-.86.82-.88h0c.47-.02.86.35.88.82"/><path id="Path_545" class="cls-7" d="m331.25,455.13c.02.47-.35.86-.82.88-.47.02-.86-.35-.88-.82-.02-.47.35-.86.82-.88h0c.47-.02.86.35.88.82"/><path id="Path_546" class="cls-7" d="m326.52,423.41c.02.47-.35.86-.82.88-.47.02-.86-.35-.88-.82-.02-.47.35-.86.82-.88h0c.47-.02.86.35.88.82"/><path id="Path_547" class="cls-7" d="m333.72,387.54c.02.47-.35.86-.82.88-.47.02-.86-.35-.88-.82-.02-.47.35-.86.82-.88h0c.47-.02.86.35.88.82"/><path id="Path_548" class="cls-7" d="m363.93,385.64c.02.47-.35.86-.82.88-.47.02-.86-.35-.88-.82-.02-.47.35-.86.82-.88h0c.47-.02.86.35.88.82"/><path id="Path_549" class="cls-7" d="m342.06,419.48c.02.47-.35.86-.82.88-.47.02-.86-.35-.88-.82s.35-.86.82-.88h0c.47-.02.86.35.88.82"/><path id="Path_550" class="cls-7" d="m262.27,395.15c.02.47-.35.86-.82.88-.47.02-.86-.35-.88-.82-.02-.47.35-.86.82-.88h0c.47-.02.86.35.88.82"/><path id="Path_551" class="cls-7" d="m156.8,376.36c.02.47-.35.86-.82.88-.47.02-.86-.35-.88-.82-.02-.47.35-.86.82-.88h0c.47-.02.86.35.88.82"/><path id="Path_552" class="cls-7" d="m237.71,385.55c.02.47-.35.86-.82.88-.47.02-.86-.35-.88-.82-.02-.47.35-.86.82-.88h0c.47-.02.86.35.88.82"/><path id="Path_553" class="cls-7" d="m301.25,440.17c.02.47-.35.86-.82.88s-.86-.35-.88-.82.35-.86.82-.88h0c.47-.02.86.35.88.82"/><path id="Path_554" class="cls-7" d="m287.08,437.34c.02.47-.35.86-.82.88-.47.02-.86-.35-.88-.82s.35-.86.82-.88c.47-.02.86.35.88.82"/><path id="Path_555" class="cls-7" d="m164.74,445.8c.02.47-.35.86-.82.88-.47.02-.86-.35-.88-.82-.02-.47.35-.86.82-.88h0c.47-.02.86.35.88.82"/><path id="Path_556" class="cls-7" d="m157.35,392.26c.02.47-.35.86-.82.88-.47.02-.86-.35-.88-.82-.02-.47.35-.86.82-.88h0c.47-.02.86.35.88.82"/><path id="Path_557" class="cls-7" d="m138.37,416.59c.02.47-.35.86-.82.88-.47.02-.86-.35-.88-.82-.02-.47.35-.86.82-.88h0c.47-.02.86.35.88.82"/><path id="Path_558" class="cls-7" d="m236.82,447.5c.02.47-.35.86-.82.88s-.86-.35-.88-.82.35-.86.82-.88.86.35.88.82h0"/><path id="Path_559" class="cls-14" d="m340.57,449.77s-.32,8.51-.84,10.21,1.5,3.38,5.32,1.93,10.74-3.59,11.79-2.97,5.54-3.72,1.98-5.63-7.62-.17-12.5-6.82"/><path id="Path_560" class="cls-15" d="m200,367.11c.43,12.24-9.34,16.97-21.58,17.39s-22.31-3.61-22.74-15.84c-.32-9.1,8.19-12.42,19.18-15.96,3.78-1.22,4.96-7.88,4.96-7.88,0,0,19.75,10.05,20.18,22.29"/></g></g></g></svg>