<?xml version="1.0" encoding="UTF-8"?><svg xmlns="http://www.w3.org/2000/svg" xmlns:xlink="http://www.w3.org/1999/xlink" viewBox="0 0 344.47 344.47"><defs><style>.cls-1{clip-path:url(#clippath);}.cls-2{fill:none;}.cls-2,.cls-3,.cls-4,.cls-5,.cls-6,.cls-7,.cls-8,.cls-9{stroke-width:0px;}.cls-10{mix-blend-mode:multiply;}.cls-11{clip-path:url(#clippath-1);}.cls-12{clip-path:url(#clippath-2);}.cls-13{font-size:12px;}.cls-13,.cls-14,.cls-15,.cls-16,.cls-17,.cls-18,.cls-19,.cls-20{isolation:isolate;}.cls-13,.cls-14,.cls-15,.cls-16,.cls-17,.cls-19,.cls-7,.cls-20{fill:#cbd869;}.cls-13,.cls-14,.cls-15,.cls-16,.cls-17,.cls-19,.cls-20{font-family:CrystalUniverse-Regular, 'Crystal Universe Regular';}.cls-14{font-size:12px;}.cls-15{font-size:12px;}.cls-16{font-size:12px;}.cls-17{font-size:12px;}.cls-19{font-size:12px;}.cls-3{fill:#4e9743;}.cls-4{fill:#4dab4b;}.cls-5{fill:#0b2617;}.cls-6{fill:#203421;}.cls-8{fill:#d4d8af;}.cls-9{fill:#6bb86f;}.cls-20{font-size:11px;}</style><clipPath id="clippath"><rect class="cls-2" x="1.9" y="1.9" width="340.68" height="340.68"/></clipPath><clipPath id="clippath-1"><rect class="cls-2" x="1.9" y="1.9" width="340.68" height="340.68"/></clipPath><clipPath id="clippath-2"><rect class="cls-2" x="57.46" y="55.66" width="115.13" height="206.6"/></clipPath></defs><g class="cls-18"><g id="Layer_1"><g class="cls-1"><g id="Group_23"><g id="Group_22"><g class="cls-11"><g id="Group_21"><path id="Path_49" class="cls-5" d="m340.1,172.24c0,92.71-75.16,167.87-167.87,167.87S4.37,264.95,4.37,172.24,79.53,4.37,172.24,4.37c92.71,0,167.87,75.15,167.87,167.86h0"/><path id="Path_50" class="cls-4" d="m172.24,342.57c-94.1-.06-170.33-76.39-170.27-170.49.04-68.4,40.98-130.14,103.97-156.8,86.83-36.26,186.62,4.74,222.88,91.58,36.04,86.32-4.25,185.56-90.27,222.32-20.97,8.88-43.52,13.43-66.3,13.39m0-335.73C80.88,6.9,6.86,81.02,6.91,172.38c.04,66.41,39.79,126.36,100.95,152.25,84.36,35.09,181.2-4.85,216.29-89.21,34.82-83.71-4.22-179.84-87.54-215.58-20.37-8.62-42.26-13.04-64.38-13"/><path id="Path_51" class="cls-7" d="m152.28,226.17H57.46L172.59,55.66l116.41,170.51h-136.73Z"/><path id="Path_52" class="cls-9" d="m126.93,226.17v-62.49l19.03-31.84h55.23l16.99,28.77v65.56l-45.63,36.09-45.63-36.09Z"/><path id="Path_53" class="cls-8" d="m172.56,174.77l-88.74-56.55,53.1,85.74,35.64-8.75,35.64,8.75,53.1-85.74-88.74,56.55Z"/><path id="Path_54" class="cls-3" d="m151.76,143.08h42.7l-22.1,22.1-20.6-22.1Z"/><path id="Path_55" class="cls-6" d="m195.93,219.79l-1.04-1.04-10.72,10.71-10.87-10.88-1.04,1.04.02.02-9.83,9.82-10.87-10.88-1.04,1.04,11.91,11.91,10.86-10.85,10.85,10.85,11.76-11.75Z"/><g id="Group_20"><g id="Group_19" class="cls-10"><g class="cls-12"><g id="Group_18"><path id="Path_56" class="cls-9" d="m172.56,262.26l.03-206.6-56.36,83.22-32.41-20.65,22.23,35.9-48.59,72.04h69.47l45.63,36.1Z"/></g></g></g></g></g></g></g><g id="C" class="cls-18"><text class="cls-13" transform="translate(83.7 59.89) rotate(-38.58)"><tspan x="0" y="0">C</tspan></text></g><g id="O" class="cls-18"><text class="cls-17" transform="translate(108.41 40.8) rotate(-24.33)"><tspan x="0" y="0">O</tspan></text></g><g id="O-2" class="cls-18"><text class="cls-14" transform="translate(137.07 28.4) rotate(-9.96)"><tspan x="0" y="0">O</tspan></text></g><g id="K" class="cls-18"><text class="cls-13" transform="translate(167.86 23.65) rotate(3.54)"><tspan x="0" y="0">K</tspan></text></g><g id="I" class="cls-18"><text class="cls-20" transform="translate(196.11 25.32) rotate(13.06)"><tspan x="0" y="0">I</tspan></text></g><g id="N" class="cls-18"><text class="cls-13" transform="translate(209.22 28.95) rotate(23.35)"><tspan x="0" y="0">N</tspan></text></g><g id="G" class="cls-18"><text class="cls-16" transform="translate(237.68 41.78) rotate(37.65)"><tspan x="0" y="0">G</tspan></text></g><g id="F" class="cls-18"><text class="cls-13" transform="translate(71.6 241.71) rotate(52.84)"><tspan x="0" y="0">F</tspan></text></g><g id="O-3" class="cls-18"><text class="cls-13" transform="translate(89.46 264.87) rotate(38.52)"><tspan x="0" y="0">O</tspan></text></g><g id="R" class="cls-18"><text class="cls-13" transform="translate(112.48 282.88) rotate(24.13)"><tspan x="0" y="0">R</tspan></text></g><g id="C-2" class="cls-18"><text class="cls-13" transform="translate(147.68 296.73) rotate(5.37)"><tspan x="0" y="0">C</tspan></text></g><g id="L" class="cls-18"><text class="cls-13" transform="translate(176.82 299.23) rotate(-8.89)"><tspan x="0" y="0">L</tspan></text></g><g id="O-4" class="cls-18"><text class="cls-13" transform="translate(205.65 294.47) rotate(-23.37)"><tspan x="0" y="0">O</tspan></text></g><g id="D" class="cls-18"><text class="cls-19" transform="translate(232.38 282.64) rotate(-37.81)"><tspan x="0" y="0">D</tspan></text></g><g id="Z" class="cls-18"><text class="cls-15" transform="translate(255.45 264.74) rotate(-52.92)"><tspan x="0" y="0">Z</tspan></text></g></g></g></g></g></svg>