<?xml version="1.0" encoding="UTF-8"?><svg xmlns="http://www.w3.org/2000/svg" xmlns:xlink="http://www.w3.org/1999/xlink" viewBox="0 0 347.93 347.93"><defs><style>.cls-1{clip-path:url(#clippath);}.cls-2{fill:none;}.cls-2,.cls-3,.cls-4,.cls-5,.cls-6,.cls-7,.cls-8,.cls-9{stroke-width:0px;}.cls-10{mix-blend-mode:multiply;}.cls-11{clip-path:url(#clippath-1);}.cls-12{clip-path:url(#clippath-2);}.cls-13{isolation:isolate;}.cls-3{fill:#4e9743;}.cls-4{fill:#4dab4b;}.cls-5{fill:#0b2617;}.cls-6{fill:#203421;}.cls-7{fill:#cbd869;}.cls-8{fill:#d4d8af;}.cls-9{fill:#6bb86f;}</style><clipPath id="clippath"><rect class="cls-2" x="3.63" y="3.63" width="340.68" height="340.68"/></clipPath><clipPath id="clippath-1"><rect class="cls-2" x="3.63" y="3.63" width="340.68" height="340.68"/></clipPath><clipPath id="clippath-2"><rect class="cls-2" x="59.19" y="57.39" width="115.13" height="206.6"/></clipPath></defs><g class="cls-13"><g id="Layer_1"><g class="cls-1"><g id="Group_23"><g id="Group_22"><g class="cls-11"><g id="Group_21"><path id="Path_49" class="cls-5" d="m341.83,173.97c0,92.71-75.16,167.87-167.87,167.87S6.1,266.67,6.1,173.97,81.26,6.1,173.97,6.1c92.71,0,167.87,75.15,167.87,167.86h0"/><path id="Path_50" class="cls-4" d="m173.97,344.3c-94.1-.06-170.33-76.39-170.27-170.49.04-68.4,40.98-130.14,103.97-156.8,86.83-36.26,186.62,4.74,222.88,91.58,36.04,86.32-4.25,185.56-90.27,222.32-20.97,8.88-43.52,13.43-66.3,13.39m0-335.73c-91.37.06-165.39,74.18-165.33,165.54.04,66.41,39.79,126.36,100.95,152.25,84.36,35.09,181.2-4.85,216.29-89.21,34.82-83.71-4.22-179.84-87.54-215.58-20.37-8.62-42.26-13.04-64.38-13"/><path id="Path_51" class="cls-7" d="m154,227.9H59.19L174.32,57.39l116.41,170.51h-136.73Z"/><path id="Path_52" class="cls-9" d="m128.66,227.9v-62.49l19.03-31.84h55.23l16.99,28.77v65.56l-45.63,36.09-45.63-36.09Z"/><path id="Path_53" class="cls-8" d="m174.29,176.5l-88.74-56.55,53.1,85.74,35.64-8.75,35.64,8.75,53.1-85.74-88.74,56.55Z"/><path id="Path_54" class="cls-3" d="m153.49,144.81h42.7l-22.1,22.1-20.6-22.1Z"/><path id="Path_55" class="cls-6" d="m197.66,221.51l-1.04-1.04-10.72,10.71-10.87-10.88-1.04,1.04.02.02-9.83,9.82-10.87-10.88-1.04,1.04,11.91,11.91,10.86-10.85,10.85,10.85,11.76-11.75Z"/><g id="Group_20"><g id="Group_19" class="cls-10"><g class="cls-12"><g id="Group_18"><path id="Path_56" class="cls-9" d="m174.29,263.99l.03-206.6-56.36,83.22-32.41-20.65,22.23,35.9-48.59,72.04h69.47l45.63,36.1Z"/></g></g></g></g></g></g></g></g></g></g></g></svg>