<?xml version="1.0" encoding="UTF-8"?><svg id="Layer_1" xmlns="http://www.w3.org/2000/svg" xmlns:xlink="http://www.w3.org/1999/xlink" viewBox="0 0 699.57 1086.26"><defs><style>.cls-1{clip-path:url(#clippath);}.cls-2,.cls-3,.cls-4{fill:none;}.cls-2,.cls-5,.cls-6,.cls-7,.cls-8,.cls-9,.cls-10,.cls-11,.cls-12,.cls-13,.cls-14,.cls-15{stroke-width:0px;}.cls-16{clip-path:url(#clippath-1);}.cls-3{stroke:#1a482f;stroke-width:2.94px;}.cls-3,.cls-4{stroke-miterlimit:10;}.cls-4{stroke:#727c46;stroke-width:7px;}.cls-5{fill:#f3f6e1;}.cls-6{fill:#727c46;}.cls-7{fill:#4e962d;}.cls-8{fill:#5c633f;}.cls-9{fill:#1a482f;}.cls-10{fill:#17b975;}.cls-11{fill:#b3cc42;}.cls-12{fill:#97c670;}.cls-13{fill:#ffe47d;}.cls-14{fill:#ffee75;}.cls-15{fill:#e4edc5;}</style><clipPath id="clippath"><rect class="cls-2" x="270.32" y="221.39" width="397.25" height="849.64"/></clipPath><clipPath id="clippath-1"><rect class="cls-2" x="349.42" y="171.18" width="199.56" height="210.25" transform="translate(-72.26 197.51) rotate(-23)"/></clipPath></defs><g id="Group_178"><path id="Path_336" class="cls-10" d="m-126.28,243.75l222.11-8.78c15.51-.61,29.72-8.82,38.01-21.94L252.52,25.07c20.87-33.05,70.58-27.82,84.12,8.85l76.99,208.53c5.38,14.56,17.57,25.55,32.62,29.37l215.42,54.79c37.88,9.64,48.27,58.53,17.58,82.73l-174.53,137.66c-12.19,9.61-18.86,24.61-17.86,40.1l14.46,221.81c2.54,39.01-40.75,64-73.25,42.29l-184.85-123.45c-12.91-8.62-29.23-10.34-43.65-4.59L-6.92,805.46c-36.31,14.47-73.45-18.98-62.85-56.6l60.28-213.95c4.21-14.94.8-31-9.13-42.94l-142.08-170.95c-24.98-30.07-4.65-75.73,34.41-77.27"/></g><g id="Group_173"><path id="Path_305" class="cls-11" d="m571.7,649.9l50.6,15.6-43.34,40.89,11.8,24.86,76.82-75.66-110.12-56.68,14.25,50.99Z"/><path id="Path_306" class="cls-14" d="m424.74,221.39l-154.43,308.86,206.24,37.17,69.86-14.92,113.37-114.22-235.05-216.88Z"/><path id="Path_307" class="cls-11" d="m443.08,558.65l-32.97-151.61,25.25-43.69,55.8-12.39,50.65,43.01,22.11,146.95-48.65,40.37-72.19-22.64Z"/><path id="Path_308" class="cls-5" d="m479.88,412.05l-156.7-54.12,122.95,138.4,50.49-31.48,62.37,10.69,77.59-167.54-156.7,104.05Z"/><path id="Path_309" class="cls-7" d="m445.46,380.09l52.6-10.66-21.7,32.74-30.9-22.07Z"/><path id="Path_310" class="cls-11" d="m474.88,568.62v20.91h42.35v-10.46l-42.35-10.45Z"/><path id="Path_311" class="cls-9" d="m449.46,602.74l-5.75,51.66,10.23,56.68,114.53-10.87-4.56-96.91-30.91-17.06-58.12,3.29-25.42,13.21Z"/><path id="Path_312" class="cls-9" d="m479.88,700.21l-25.93,10.87-7.46,37.28,50.16,8.47,15.24,28.13h16.94l36.94-14.91,10.17-23.72-7.46-46.11h-88.6Z"/><path id="Path_313" class="cls-9" d="m446.49,748.36l-.46,230.56,16.85,36.59,36.11-27.93,12.91-202.63-15.24-28.13-50.16-8.47Z"/><path id="Path_314" class="cls-13" d="m435.73,1015.77l-18.16,14.63-54.45,21.13,11.92,15.16,17.88,4.35,103.73-20.58,2.33-62.86-26.95,4.33-26.01-13-10.29,36.84Z"/><path id="Path_315" class="cls-9" d="m575.94,746.33l1.82,229.71-16.85,36.59-36.11-27.93-12.91-202.64,15.24-28.13,48.81-7.62Z"/><path id="Path_316" class="cls-13" d="m527.13,1047.57l103.73,20.58,17.88-4.35,11.92-15.16-54.45-21.13-18.15-14.63-10.29-36.84-26.01,13-26.95-4.33,2.33,62.86Z"/><path id="Path_317" class="cls-15" d="m449.46,602.74l2.42,23.7,23-4.62-11.72-26.19-13.7,7.12Z"/><path id="Path_318" class="cls-15" d="m563.91,603.3l12.03,21.51-27.06-4.74-9.92-30.54,24.95,13.77Z"/><path id="Path_319" class="cls-15" d="m451.89,626.44l21.97,82.76-15.02,34.76-12.81,124.58,140.87,3.62-10.96-125.82-7.46-46.11,7.46-75.4-24.37-4.73h-14.39l-50.17-.7-35.12,7.06Z"/><path id="Path_320" class="cls-12" d="m536.84,699.6l-14.45,10.63-23.88-8.32-4.65-10.73-3.85-16.71,2.29-19.03,10.65,10.27,12.89,3.68,9.74-6.64,5.45-13.29,10.4,18.37-.47,17.13-4.12,14.65Z"/><path id="Path_321" class="cls-9" d="m498.56,672.11l14.72,6.66-2.02,2.14-14.68-6.12,1.97-2.69Z"/><path id="Path_322" class="cls-9" d="m533.31,668.15l-12.85,9.8,2.45,1.64,12.93-9.27-2.53-2.17Z"/><path id="Path_323" class="cls-3" d="m518.6,693.54l-1.11,2.9-6.88-2.93"/><path id="Path_324" class="cls-3" d="m518.31,693.57l1.74,2.57,7-4.95"/><path id="Path_325" class="cls-9" d="m511.27,687.33l12.91-1.47-5.54,8.78-7.37-7.31Z"/><line id="Line_7" class="cls-3" x1="504.04" y1="687.1" x2="492.99" y2="683.49"/><line id="Line_8" class="cls-3" x1="504.23" y1="688.75" x2="493.28" y2="692.82"/><line id="Line_9" class="cls-3" x1="504.87" y1="690.25" x2="499.15" y2="700.11"/><line id="Line_10" class="cls-3" x1="532.63" y1="683.84" x2="542.58" y2="677.84"/><line id="Line_11" class="cls-3" x1="532.82" y1="685.49" x2="544.4" y2="686.99"/><line id="Line_12" class="cls-3" x1="532.53" y1="687.1" x2="540.32" y2="695.41"/><path id="Path_326" class="cls-11" d="m449.46,602.74l-102.65,60.82,84.85,71.53,11.8-24.86-43.34-40.89,43.59-14.93"/><path id="Path_327" class="cls-11" d="m453.11,706.49l-25.29,10.79,3.84,17.8,8.8,27.64v7.42l6.02,8.77,7.46-67.83-.83-4.59Z"/><path id="Path_328" class="cls-11" d="m569.3,702.65l25.29,10.8-3.84,17.8-8.8,27.64v7.42l-6.02,8.77-7.46-67.83.83-4.59Z"/><g id="Group_172"><g class="cls-1"><g id="Group_171"><path id="Path_329" class="cls-6" d="m454.83,516.65l12.65,2.39c12.39,2.34,22.05.94,31.17-9.53l3.37-3.87h0c11.59,5.76,24.72,4.69,35.58-2.9l11.61-8.11-11.82,26.61c-5.97,13.44-16.52,22.99-28.83,26.09-13.45,3.4-27.42-1.29-37.53-12.59l-16.19-18.1Z"/><path id="Path_330" class="cls-5" d="m537.59,502.74c-10.85,7.59-23.98,8.65-35.58,2.9l-3.38,3.87c-9.11,10.47-18.77,11.86-31.17,9.53l-6.88-1.3s4.97,12.25,11.01,12.25,61.28-6.62,64.15-13.52c2.1-5.32,3.92-10.75,5.45-16.26l-3.62,2.53Z"/><path id="Path_331" class="cls-8" d="m516.38,542c0-4.98-7.56-9.02-16.9-9.02s-16.9,4.04-16.9,9.02c0,.78.18,1.54.53,2.24,7.8,4.14,16.86,5.24,25.43,3.09,2.42-.61,4.77-1.47,7.01-2.55.52-.83.81-1.79.82-2.78"/><path id="Path_332" class="cls-11" d="m482.59,478.2l19.42-22.21-1.11,23.99"/><path id="Path_333" class="cls-4" d="m482.59,478.2l19.42-22.21-1.11,23.99"/></g></g></g></g><g id="Group_176"><g class="cls-16"><g id="Group_154"><path id="Path_271" class="cls-15" d="m519.7,187.02c-6.66-15.69-26.22-22.39-43.7-14.97-2.77,1.17-5.4,2.67-7.82,4.47-3.73,2.81-8.57,3.68-13.05,2.37-8.07-2.26-16.67-1.67-24.36,1.67l-.41.17c-2.81,1.19-5.91,1.53-8.9.95-16.87-2.77-33.9,3.97-44.29,17.54-2.91,3.86-7.53,6.04-12.35,5.84-5.37-.13-10.71.89-15.65,3.01-17.47,7.42-26.24,26.15-19.58,41.83,2.81,6.51,7.91,11.76,14.35,14.74,5.08,2.55,8.9,7.06,10.58,12.5.26.82.57,1.64.91,2.45,2.57,5.99,7.1,10.92,12.86,13.98,3.45,1.96,6.26,4.86,8.11,8.36l35.81,65.56c5.73,10.49,18.2,13.71,25.99,6.63,13.3-12.1,35.6-23.25,58.86-10.74,11.53,6.2,23.88-1.88,23.37-15.5l-2.83-75.76c-.26-4.86,1.47-9.62,4.79-13.18,8.72-9.1,11.95-21.99,7.14-33.3-.95-2.23-2.18-4.33-3.67-6.24-3.67-4.72-5.23-10.75-4.31-16.66.89-5.31.26-10.76-1.84-15.72"/><path id="Path_272" class="cls-12" d="m402.92,350.5c6.15-4.1,12.64-7.65,19.4-10.62,20.57-9.32,55.78-20.22,97.33-12.01l.52,13.96s-67.46-18.19-110.71,20.66l-6.55-12Z"/><rect id="Rectangle_168" class="cls-12" x="408.62" y="279.73" width="2.94" height="62.64" transform="translate(-88.94 184.99) rotate(-23)"/><path id="Path_273" class="cls-12" d="m514,332.42l-6.61-61.43,2.99-.05,6.6,61.43-2.99.05Z"/><path id="Path_274" class="cls-12" d="m469.81,330.29l-19.67-77.95,2.89-.58,19.67,77.95-2.9.58Z"/><rect id="Rectangle_171" class="cls-12" x="396.66" y="278.37" width="2.94" height="75.5" transform="translate(-91.88 180.72) rotate(-23)"/></g></g></g></svg>