<?xml version="1.0" encoding="UTF-8"?><svg id="Layer_1" xmlns="http://www.w3.org/2000/svg" viewBox="0 0 715.01 582.8"><defs><style>.cls-1{fill:none;stroke:#1a482f;stroke-miterlimit:10;stroke-width:2.94px;}.cls-2{fill:#f3f6e1;}.cls-2,.cls-3,.cls-4,.cls-5,.cls-6,.cls-7,.cls-8,.cls-9,.cls-10,.cls-11,.cls-12,.cls-13,.cls-14,.cls-15{stroke-width:0px;}.cls-3{fill:#f9b592;}.cls-4{fill:#55525a;}.cls-5{fill:#1a482f;}.cls-6{fill:#b3cc42;}.cls-7{fill:#97c670;}.cls-8{fill:#853950;}.cls-9{fill:#ee8eb0;}.cls-10{fill:#f3806d;}.cls-11{fill:#ffe47d;}.cls-12{fill:#ffffc7;}.cls-13{fill:#ffec74;}.cls-14{fill:#e4edc5;}.cls-15{fill:#feffe6;}</style></defs><path id="Path_157" class="cls-15" d="m61.14,400.16C205.17,263.18-25.48-49.14,447.51,17.23c472.99,66.36,206.65,398.59-22.12,373.69s-508.27,146.23-364.25,9.25Z"/><path id="Path_1" class="cls-6" d="m384.34,312.9l40.64-1.35,22.85-14.14-28.24.14-20.37-2.58,11.19-5.59-7.74-7.18-26.35,15.4,8.02,15.29Z"/><path id="Path_2" class="cls-6" d="m253.93,306.81l34.39,62.67,96.02-56.58-8.02-15.3-84.29,39.02-14.09-24.84-24.01-4.97Z"/><path id="Path_3" class="cls-13" d="m189.27,98.38l-87.43,174.87,116.77,21.04,39.56-8.45,64.18-64.66-133.08-122.8Z"/><path id="Path_4" class="cls-6" d="m199.65,289.33l-18.67-85.84,14.29-24.74,31.59-7.02,28.68,24.35,12.52,83.2-27.55,22.85-40.87-12.81Z"/><path id="Path_5" class="cls-12" d="m220.48,206.33l-88.72-30.64,69.61,78.36,28.59-17.82,35.31,6.05,43.93-94.86-88.72,58.91Z"/><path id="Path_6" class="cls-2" d="m203.26,264.22l7.16,1.35c7.02,1.32,12.49.53,17.65-5.39l1.91-2.19c6.49,3.27,14.26,2.63,20.14-1.64l6.57-4.59-6.69,15.07c-3.38,7.61-9.35,13.01-16.32,14.77-7.61,1.92-15.53-.73-21.25-7.13l-9.17-10.25Z"/><path id="Path_7" class="cls-15" d="m199.87,186.16l29.78-6.04-12.29,18.54-17.49-12.5Z"/><path id="Path_8" class="cls-6" d="m217.66,294.97v11.84h23.98v-5.92l-23.98-5.92Z"/><path id="Path_9" class="cls-5" d="m203.26,314.29l-3.26,29.25,5.79,32.09,64.84-6.16-2.58-54.87-17.5-9.66-32.9,1.86-14.4,7.48Z"/><path id="Path_10" class="cls-5" d="m220.48,369.48l-14.68,6.16-4.22,21.1,28.4,4.8,8.63,15.93h9.59l20.91-8.44,5.76-13.43-4.22-26.11h-50.16Z"/><path id="Path_11" class="cls-5" d="m201.58,396.74l-.26,130.54,9.54,20.72,20.44-15.81,7.31-114.73-8.63-15.93-28.4-4.8Z"/><path id="Path_12" class="cls-13" d="m229.98,567.78l-58.73,11.66-10.12-2.46-6.75-8.58,30.83-11.96,10.28-8.28,5.83-20.86,14.72,7.36,15.26-2.45-1.32,35.59Z"/><path id="Path_13" class="cls-5" d="m274.87,395.59l1.03,130.06-9.54,20.72-20.44-15.81-7.31-114.73,8.63-15.93,27.63-4.31Z"/><path id="Path_14" class="cls-13" d="m247.24,566.14l58.73,11.65,10.12-2.46,6.75-8.58-30.83-11.96-10.28-8.28-5.83-20.86-14.72,7.36-15.26-2.45,1.32,35.59Z"/><path id="Path_15" class="cls-14" d="m203.26,314.29l1.37,13.42,13.02-2.62-6.64-14.83-7.75,4.03Z"/><path id="Path_16" class="cls-14" d="m268.06,314.61l6.81,12.18-15.32-2.68-5.62-17.29,14.13,7.8Z"/><path id="Path_17" class="cls-14" d="m204.64,327.71l12.44,46.85-8.5,19.68-7.26,70.53,79.76,2.05-6.2-71.24-4.22-26.11,4.22-42.69-13.8-2.68h-8.15l-28.4-.4-19.89,4Z"/><path id="Path_18" class="cls-6" d="m200.37,340.29l2.89-26-54.33-4.99-55.11-15.01-3.98,22.51,49.67,18.08,60.86,5.41Z"/><path id="Path_19" class="cls-5" d="m103.18,314.53l-9.36,19.84-23.55-7.41-53.62-16.83L0,292.4l7.59-20.68,15.08-6.1,20.83,3.9,4.78.52-22.66-9.84,1.2-7.97,4.97-1.52,30.85,15.81,43.17,20.36-2.63,27.64Z"/><path id="Path_20" class="cls-11" d="m89.54,301.05l-16.66,1.6-3.63,16.34-6.67-15.35-16.66,1.6,12.54-11.08-6.67-15.35,14.42,8.5,12.54-11.08-3.63,16.33,14.42,8.5Z"/><path id="Path_21" class="cls-7" d="m252.74,369.13l-8.18,6.02-13.52-4.71-2.63-6.07-2.18-9.46,1.3-10.78,6.03,5.81,7.3,2.08,5.51-3.76,3.08-7.52,5.89,10.4-.27,9.7-2.34,8.29Z"/><path id="Path_22" class="cls-5" d="m231.06,353.57l8.34,3.77-1.14,1.21-8.31-3.46,1.12-1.52Z"/><path id="Path_23" class="cls-5" d="m250.74,351.33l-7.27,5.55,1.39.93,7.32-5.25-1.43-1.23Z"/><path id="Path_24" class="cls-1" d="m242.41,365.7l-.63,1.64-3.9-1.66"/><path id="Path_25" class="cls-1" d="m242.24,365.72l.98,1.46,3.96-2.8"/><path id="Path_26" class="cls-5" d="m238.26,362.19l7.31-.83-3.14,4.97-4.17-4.14Z"/><line id="Line_1" class="cls-1" x1="234.16" y1="362.06" x2="227.91" y2="360.01"/><line id="Line_2" class="cls-1" x1="234.27" y1="362.99" x2="228.07" y2="365.29"/><line id="Line_3" class="cls-1" x1="234.64" y1="363.84" x2="231.4" y2="369.42"/><line id="Line_4" class="cls-1" x1="250.35" y1="360.21" x2="255.99" y2="356.81"/><line id="Line_5" class="cls-1" x1="250.46" y1="361.14" x2="257.02" y2="361.99"/><line id="Line_6" class="cls-1" x1="250.29" y1="362.06" x2="254.71" y2="366.76"/><path id="Path_27" class="cls-9" d="m484.13,215.91l-3.56-4.66,1.53-11.45-9.65-4.4-6.11-12.42-2.4-8,2.97-23.18,3.81-10.09,12.24-10.61"/><path id="Path_28" class="cls-9" d="m435.96,233.03l-2.75-2.53.67-22.4-9.65-4.4-6.11-12.42-2.4-8,2.97-23.18,3.81-10.09,12.24-10.61"/><path id="Path_29" class="cls-10" d="m404.48,161.95l-6.19,3.81-2.26,9.8,11.04,8.6,117.16-13.69,9.62-6.6,1.11-6.61-2.63-6.51-5.37-2.53-15.9,2.53-106.61,11.21Z"/><path id="Path_30" class="cls-3" d="m505.86,137.74l5.24,2.76,3.81,10.83,1.83,17.32-2.91,11.68-13.65,19.97-4.51,1.65,10.2-64.21Z"/><path id="Path_31" class="cls-9" d="m482.96,131.11l22.91,6.63.08,5.85,3.65,10.6-1.96,7.85,4.57,10.59-4.65,8.2-.94,3.76-5.42,3.87-3.6,14.45-7.44.91-2.61.43-3.42,11.67-.76-53.25-.41-31.55Z"/><path id="Path_32" class="cls-3" d="m481.55,139.63l5.24,2.76,3.81,10.83,1.83,17.32-2.91,11.68-13.65,19.97-4.51,1.65,10.2-64.22Z"/><path id="Path_33" class="cls-8" d="m459.83,217.81l-3.56-4.66,1.53-11.44-9.65-4.4-6.11-12.42-2.4-8,2.97-23.18,3.81-10.09,12.24-10.61"/><path id="Path_34" class="cls-8" d="m458.65,133.01l22.91,6.63.08,5.85,3.65,10.6-1.96,7.85,4.57,10.59-4.65,8.2-.94,3.76-5.42,3.87-3.6,14.45-7.44.91-2.61.43-3.42,11.67-.76-53.25-.41-31.55Z"/><path id="Path_35" class="cls-3" d="m457.64,146.04l5.24,2.76,3.81,10.83,1.83,17.32-2.91,11.68-13.65,19.97-4.51,1.65,10.2-64.22Z"/><path id="Path_36" class="cls-9" d="m434.74,139.41l22.91,6.63.08,5.85,3.65,10.6-1.96,7.85,4.57,10.59-4.65,8.2-.94,3.76-5.42,3.87-3.6,14.45-7.44.91-3.31,13.29-2.67,7.62-.81-62.07-.41-31.55Z"/><rect id="Rectangle_45" class="cls-4" x="381.78" y="237.24" width="164.32" height="11.2"/><path id="Path_37" class="cls-4" d="m393.18,122.45h148.28l-16.68-36.73c-10.61-23.54-34.1-38.6-59.92-38.41-.39,0-.78.01-1.17.02-27.12.83-50.9,18.35-59.73,44.01l-10.78,31.11Z"/></svg>