<?xml version="1.0" encoding="UTF-8"?><svg id="Layer_1" xmlns="http://www.w3.org/2000/svg" xmlns:xlink="http://www.w3.org/1999/xlink" viewBox="0 0 668.18 720.13"><defs><style>.cls-1{clip-path:url(#clippath);}.cls-2,.cls-3,.cls-4{fill:none;}.cls-2,.cls-5,.cls-6,.cls-7,.cls-8,.cls-9,.cls-10,.cls-11,.cls-12,.cls-13,.cls-14,.cls-15,.cls-16,.cls-17,.cls-18,.cls-19,.cls-20{stroke-width:0px;}.cls-21{clip-path:url(#clippath-1);}.cls-22{clip-path:url(#clippath-2);}.cls-3{stroke:#080909;stroke-width:2px;}.cls-3,.cls-4{stroke-miterlimit:10;}.cls-4{stroke:#160e0d;stroke-width:3.28px;}.cls-5{fill:#f8b9ae;}.cls-6{fill:#f2e5ce;}.cls-7{fill:#542f2b;}.cls-8{fill:#3b2123;}.cls-9{fill:#0a638f;}.cls-10{fill:#160e0d;}.cls-11{fill:#160c0c;}.cls-12{fill:#310c12;}.cls-13{fill:#f39598;}.cls-14{fill:#fff;}.cls-15{fill:#ef6252;}.cls-16{fill:#ff9f9f;}.cls-17{fill:#e3abc8;}.cls-18{fill:#feffe6;}.cls-19{fill:#ffc636;}.cls-20{fill:#ea495c;}</style><clipPath id="clippath"><rect class="cls-2" x="22.12" y="41.55" width="514.36" height="534.45" transform="translate(-119.14 187.95) rotate(-31)"/></clipPath><clipPath id="clippath-1"><rect class="cls-2" x="113.72" y="87.25" width="204.77" height="152.63" transform="translate(-34.99 61.54) rotate(-15.01)"/></clipPath><clipPath id="clippath-2"><rect class="cls-2" x="179.29" y="223.52" width="485.87" height="485.64"/></clipPath></defs><g class="cls-1"><g id="Group_319"><path id="Path_790" class="cls-18" d="m386.91,536.24l-115.38-79.51c-8.06-5.55-17.94-6.82-26.43-3.38l-121.61,49.2c-21.39,8.65-44.85-12.74-39.72-36.2l29.23-133.41c1.97-9.59-.58-19.55-6.91-27.02L14.9,197.13c-16.03-19.13-5.3-47.52,18.16-48.03l133.44-2.95c9.24-.16,17.69-5.23,22.16-13.32L253.91,16.39c11.47-20.48,41.58-16.63,50.94,6.51l53.24,131.59c3.62,9.1,11.22,16.03,20.61,18.79l131.52,36.83c23.13,6.48,31,37.24,13.32,52.06l-100.54,84.27c-7.02,5.88-10.55,15.2-9.43,24.93l16.04,139.2c2.82,24.48-22.42,39.64-42.71,25.66"/></g></g><g id="Group_321"><g class="cls-21"><g id="Group_152"><path id="Path_260" class="cls-8" d="m286.89,105.5l-24.75-25.6c-7.7-7.97-21.39-4.58-24.62,6.1l-5.3,17.46c-23.62,5.21-45.72,15.78-64.6,30.91l-17.08-6.87c-10.32-4.24-21.69,4.02-20.39,15.03l4.43,37.53c-2.77,10.1-2.39,19.9,1.7,28.54,13.7,28.87,40.7,44.73,111.91,10.94,75.64-35.89,76-64.74,62.29-93.6-4.45-9.39-12.77-16.25-23.6-20.44"/><path id="Path_261" class="cls-7" d="m283.9,112.22l-24.55-25.69c-5.48-5.74-14.58-5.94-20.32-.46-1.82,1.74-3.15,3.93-3.86,6.35l-5.08,17.36c-23.19,5-44.88,15.38-63.32,30.3l-16.94-7.17c-7.31-3.09-15.74.33-18.83,7.64-.98,2.32-1.34,4.86-1.03,7.37l4.65,37.43c-2.65,10.05-2.21,19.81,1.89,28.44,13.7,28.87,40.39,44.88,110.19,11.76,74.14-35.18,74.28-63.92,60.58-92.79-4.46-9.39-12.68-16.28-23.38-20.54"/><path id="Path_262" class="cls-17" d="m282.32,109.97l-24.75-25.6c-7.7-7.97-21.39-4.58-24.62,6.1l-5.3,17.46c-23.62,5.21-45.72,15.78-64.6,30.91l-17.08-6.87c-10.32-4.24-21.69,4.02-20.39,15.03l4.43,37.53c-2.77,10.1-2.39,19.9,1.7,28.54,13.7,28.87,40.7,44.73,111.91,10.94,75.64-35.89,76-64.74,62.29-93.61-4.45-9.39-12.77-16.25-23.6-20.44"/><path id="Path_263" class="cls-6" d="m194.02,119.47c-11.06,5.21-21.45,11.71-30.97,19.38l-17.08-6.87c-10.32-4.24-21.69,4.02-20.39,15.03l4.43,37.54c-2.77,10.1-2.39,19.9,1.7,28.54"/><path id="Path_264" class="cls-8" d="m276.49,112.74l-24.75-25.6c-7.7-7.97-21.39-4.58-24.62,6.1l-5.92,16.15c-10.99,2.35-21.74,7.49-33.01,12.84-11.06,5.21-21.45,11.71-30.97,19.38l-17.07-6.87c-10.32-4.24-21.69,4.02-20.39,15.03l4.43,37.53c-2.77,10.1-2.39,19.9,1.7,28.54,13.7,28.87,40.7,44.73,111.91,10.94,75.64-35.89,76-64.74,62.29-93.6-4.45-9.39-12.77-16.25-23.6-20.44"/><path id="Path_265" class="cls-7" d="m273.51,119.46l-24.55-25.69c-5.48-5.74-14.58-5.94-20.32-.46-1.82,1.74-3.15,3.93-3.86,6.35l-5.08,17.36c-23.19,5-44.88,15.38-63.32,30.3l-16.94-7.17c-7.31-3.09-15.74.33-18.83,7.64-.98,2.32-1.34,4.86-1.03,7.37l4.65,37.43c-2.65,10.05-2.21,19.81,1.89,28.44,13.7,28.87,40.39,44.88,110.19,11.76,74.14-35.18,74.28-63.92,60.58-92.79-4.46-9.39-12.68-16.28-23.38-20.54"/><path id="Path_266" class="cls-8" d="m250.97,152.15c3.41,7.18.35,15.77-6.83,19.17-7.18,3.41-15.77.35-19.17-6.83-3.41-7.18-.35-15.76,6.83-19.17,7.18-3.41,15.77-.35,19.17,6.83,0,0,0,0,0,0"/><path id="Path_267" class="cls-8" d="m186.21,182.88c3.41,7.18.35,15.77-6.83,19.17-7.18,3.41-15.77.35-19.17-6.83-3.41-7.18-.35-15.76,6.83-19.17,7.18-3.41,15.77-.35,19.17,6.83,0,0,0,0,0,0"/><path id="Path_268" class="cls-17" d="m254.73,150.36c3.41,7.18.35,15.77-6.83,19.17-7.18,3.41-15.77.35-19.17-6.83-3.41-7.18-.35-15.76,6.83-19.17,7.18-3.41,15.77-.35,19.17,6.83,0,0,0,0,0,0"/><path id="Path_269" class="cls-6" d="m189.97,181.09c3.41,7.18.35,15.77-6.83,19.17-7.18,3.41-15.77.35-19.17-6.83-3.41-7.18-.35-15.76,6.83-19.17,7.18-3.41,15.77-.35,19.17,6.83,0,0,0,0,0,0"/><path id="Path_270" class="cls-8" d="m187.66,121.12s21.54-10.39,21.17-9.02c-.37,1.37-12.05,9.34-13.64,9.82s-7.52-.8-7.52-.8"/></g></g></g><g id="Group_320"><g class="cls-22"><g id="Group_150"><path id="Path_239" class="cls-9" d="m483.85,577.52l-195.67-4.17s1.88,0-25.24,30.33,7.35,74.4,7.35,74.4l100.77,31.08c3.58-55.19-31.69-70.53-29.29-75.48s17.68-23.1,17.68-23.1c11.71,3.82,41.37-.81,41.37-.81,10.64,9.61,38.43,89.2,38.43,89.2,0,0,75.82-23.33,78.22-41.51s-33.62-79.94-33.62-79.94"/><path id="Path_240" class="cls-20" d="m516.24,470.97c-17.38,4.13-33.31,6.91-40.62,6.02,0,0,20.24,39.21,8.23,101.31l-195.67-4.17s-36.49-52.13-8.64-126.8c4.01-10.74,16-33.07,26.65-37.32,8.58-3.42,36.26,7.04,36.26,7.04l30.34,2.78,45.08-2.76s10.72-22.01,75.05-28.78c10.02-1.05,19.29-2.25,27.8-3.51"/><path id="Path_241" class="cls-20" d="m247.31,447.22c9.82,17.92,21.48,31.21,34.58,31.97,0,0-13.99-87.25,49.86-8.51,56.81,70.06-19.26-81.33-37.23-118.24"/><path id="Path_242" class="cls-5" d="m294.53,352.44c-2.22-4.57-3.56-7.39-3.64-7.81-.74-3.84-11.22-31.9-11.22-31.9,0,0,7.14-5.61,8.53-8.23,7.09-13.33,4.57-15.06.87-17.09-5.27-2.88-17.17,6.34-21.74,6.69-8.15.63-8.86-15.92-9.91-21.65-1.35-7.39-1.66-11.69-8.88-10.84-7.37.86-6.16,8.59-6,11.59.46,8.52,4.42,11.82-3.72,16.83s-5.08-21.54-16.24-20.05c-14.53,1.94-2.56,15.36-2.56,28.2s-6.58,7.52-6.58,7.52c-13.56-10.25-17.15-25.42-25.57-13.86-3.86,5.3,8.28,20.36,13.66,25.15,8.46,7.52-6.6,3.98-9.09,4.07-9.61.37-12.41-3.42-13.11,4.48-1.15,13.02,33.61,20.46,33.61,20.46,0,0,12.77,61.81,34.39,101.23"/><path id="Path_243" class="cls-16" d="m296.3,420.7c4.61-.29,8.95,2.21,11.01,6.34,3.64,7.13,1.78,25.33,3.5,27.98,13.68,20.99,135.26,23.95,118.02-15.59l25.7-8.81,4.97,19.2s-27.08,157.05,15.37,179.65-186.59,56.45-211.93-25.78,38.96-147.72,33.36-182.98"/><path id="Path_244" class="cls-5" d="m520.71,384.79l-4.47,86.18c27.45-6.53,58.54-16.44,65.05-20.64,6.34-4.05,14.19-4.93,21.27-2.4,44.94,30.54,34.65,2.4,34.65,2.4,13.72,5.83,10.64-9.26,10.64-9.26,25.73-7.2-16.12-39.55-16.12-39.55,27.45,10.54,32.74,3.71,32.74,3.71,7.9-18.06-53.04-31.6-53.04-31.6,3.39-76.18-20.88-4.51-20.88-4.51,0,0-23.73,8.85-69.83,15.68"/><path id="Path_245" class="cls-10" d="m315.44,333.49s-45.05-56.12,21.34-71.87c0,0,20.82-72.01,84.39-18,0,0,70.89-27.57,69.76,48.38,0,0,62.64,39.53,6.19,87.2,0,0,25.88,15.19-5.63,40.51l-34.72,17.2c-13.17,6.52-28.64,6.46-41.74-.18l-64.75-32.78-18-59.07-16.84-11.39Z"/><path id="Path_246" class="cls-5" d="m465.17,366.3c-5.87-5.87-17.42-1.2-17.42-1.2-3.3,17.12-11.88,12.91-11.88,12.91l-.27.27c-.22-4.23-.69-8.44-1.41-12.61.57-7.88,1.03-16.28,1.52-25.17,1.88-33.76-13.28-58.21-53.13-60.63-45.85-2.79-65.97,26.62-69.95,72.56-21.88,12.13-23.82,22.13-23.82,43.02,0,36.56,32.93,62.81,85.88,62.81,14.38,0,25.45-2.44,33.97-6.73,36.51-14.83,44.55-49.76,44.55-49.76,19.16-.63,21.26-26.16,11.95-35.47"/><path id="Path_247" class="cls-11" d="m400.59,349.97c0,8.76-3.32,15.87-7.41,15.87s-7.41-7.1-7.41-15.87,3.32-15.87,7.41-15.87,7.41,7.1,7.41,15.87"/><path id="Path_248" class="cls-11" d="m347.86,349.97c0,8.76-3.32,15.87-7.41,15.87s-7.41-7.1-7.41-15.87,3.32-15.87,7.41-15.87,7.41,7.1,7.41,15.87"/><path id="Path_249" class="cls-3" d="m352.48,379.24l-2.72-7.07c-1.14-2.96-.26-6.31,2.17-8.33l13.73-11.4"/><path id="Path_250" class="cls-11" d="m398.75,317.27c0,2.33-5.02-3.21-11.22-3.21s-11.22,5.54-11.22,3.21,5.02-10.26,11.22-10.26,11.22,7.92,11.22,10.26"/><path id="Path_251" class="cls-11" d="m351.66,317.27c0,2.33-5.02-3.21-11.22-3.21s-11.22,5.54-11.22,3.21,5.02-10.26,11.22-10.26,11.22,7.92,11.22,10.26"/><path id="Path_252" class="cls-4" d="m321.02,336.29c2.8-23.04,35.22-12.37,28.2,20.26"/><path id="Path_253" class="cls-4" d="m374.67,336.29c2.8-23.04,35.22-12.37,28.2,20.26"/><path id="Path_254" class="cls-12" d="m327.17,398.45c2.56-15.43,10.94,2.75,53.11-12.92,23.38-8.69,26.8,2.98,20.31,14.56-4.71,8.4-14.62,16.75-25.92,17.29-29.02,1.38-50.36-1.69-47.5-18.92"/><path id="Path_255" class="cls-15" d="m356.04,417.67l15.96-.18c.88-.03,1.77-.07,2.67-.11,11.3-.54,21.22-8.89,25.92-17.29,0,0-52.68-1.35-44.55,17.58"/><path id="Path_256" class="cls-14" d="m394.1,382.51c-3.49-.03-8.04.87-13.81,3.02-25.44,9.45-38.58,6.59-45.57,6.21,0,0-3.3,10.05,2.32,10.87s68.43,9.84,57.06-20.1"/><path id="Path_257" class="cls-13" d="m431.83,375.65c0,4.65-5.43,8.43-12.12,8.43s-12.12-3.77-12.12-8.43,5.43-8.43,12.12-8.43,12.12,3.77,12.12,8.43"/><path id="Path_258" class="cls-13" d="m324.75,382.51c0,4.65-5.43,8.43-12.12,8.43s-12.12-3.77-12.12-8.43,5.43-8.43,12.12-8.43,12.12,3.77,12.12,8.43"/><path id="Path_259" class="cls-19" d="m347.43,497.74l12.63,24.2,26.92-4.54c2.26-.38,4.4,1.14,4.79,3.4.22,1.31-.2,2.65-1.13,3.6l-19.11,19.49,12.63,24.2c1.06,2.03.27,4.54-1.76,5.6-1.18.61-2.58.63-3.77.04l-24.44-12.16-19.11,19.49c-1.6,1.64-4.23,1.66-5.87.06-.95-.93-1.4-2.26-1.2-3.57l4-27-24.44-12.15c-2.05-1.02-2.89-3.51-1.87-5.56.59-1.19,1.72-2.03,3.03-2.25l26.92-4.54,4-27c.34-2.27,2.45-3.83,4.71-3.5,1.31.19,2.46,1.01,3.07,2.18"/></g></g></g></svg>