<?xml version="1.0" encoding="UTF-8"?><svg id="Layer_1" xmlns="http://www.w3.org/2000/svg" xmlns:xlink="http://www.w3.org/1999/xlink" viewBox="0 0 769.11 458.52"><defs><style>.cls-1{clip-path:url(#clippath);}.cls-2,.cls-3,.cls-4{fill:none;}.cls-2,.cls-5,.cls-6,.cls-7,.cls-8,.cls-9,.cls-10,.cls-11,.cls-12,.cls-13{stroke-width:0px;}.cls-3{stroke:#090a0a;stroke-width:2px;}.cls-3,.cls-4{stroke-miterlimit:10;}.cls-4{stroke:#171110;stroke-width:3.28px;}.cls-5{fill:#f8b9ae;}.cls-6{fill:#24b575;}.cls-7{fill:#2f1216;}.cls-8{fill:#181010;}.cls-9{fill:#171110;}.cls-10{fill:#f49599;}.cls-11{fill:#fff;}.cls-12{fill:#ee6252;}.cls-13{fill:#fcfbe7;}</style><clipPath id="clippath"><rect class="cls-2" x="341.42" y="140.82" width="223.51" height="226.24"/></clipPath></defs><g id="Group_53"><path id="Path_87" class="cls-13" d="m735.11,306.41c74.63-91.36,7.74-182.23-53.16-222.03-60.9-39.79-261.56,22.52-262.2,20.7-16.42-46.84-242.06-232.26-351.86,40.53C-41.91,418.4-1.6,456.5,96.81,458.47c98.41,1.97,560.64-56.99,638.3-152.06Z"/><path id="Polygon_1" class="cls-6" d="m336.23,281.74l-39.83,25.9,12.6-64.83,27.23,38.93Z"/><g class="cls-1"><g id="Group_51"><path id="Path_73" class="cls-9" d="m367.09,246.8s-43.42-54.09,20.57-69.27c0,0,20.06-69.41,81.34-17.35,0,0,68.32-26.57,67.24,46.63,0,0,60.38,38.1,5.96,84.05,0,0,24.94,14.64-5.42,39.04l-33.46,16.58c-12.69,6.29-27.6,6.22-40.23-.17l-62.41-31.59-17.35-56.94-16.23-10.98Z"/><path id="Path_74" class="cls-5" d="m511.4,278.43c-5.66-5.66-16.79-1.16-16.79-1.16-3.18,16.5-11.45,12.45-11.45,12.45l-.26.26c-.21-4.08-.66-8.13-1.36-12.15.55-7.59.99-15.69,1.47-24.25,1.81-32.53-12.8-56.1-51.21-58.44-44.19-2.69-66.24,32.2-70.08,76.48-11.91,5.39-20.3,14.79-20.3,34.91,0,35.24,31.74,60.53,82.77,60.53,13.86,0,24.53-2.35,32.74-6.48,35.19-14.29,42.94-47.96,42.94-47.96,18.47-.61,20.49-25.21,11.52-34.18"/><path id="Path_75" class="cls-8" d="m446.88,262.69c0,8.45-3.2,15.29-7.14,15.29s-7.14-6.85-7.14-15.29,3.2-15.29,7.14-15.29,7.14,6.85,7.14,15.29"/><path id="Path_76" class="cls-8" d="m396.06,262.69c0,8.45-3.2,15.29-7.14,15.29s-7.14-6.85-7.14-15.29,3.2-15.29,7.14-15.29,7.14,6.85,7.14,15.29"/><path id="Path_77" class="cls-3" d="m402.78,290.9v-15.28l12.7-10.55"/><path id="Path_78" class="cls-8" d="m402.59,241.34c-.89,2.07-3.91-5.05-10.24-7.78s-13.57-.03-12.68-2.09,9.04-6.87,15.37-4.14,8.44,11.95,7.55,14.01"/><path id="Path_79" class="cls-8" d="m447.38,231.17c0,2.25-4.84-3.1-10.81-3.1s-10.81,5.34-10.81,3.1,4.84-9.88,10.81-9.88,10.81,7.64,10.81,9.88"/><path id="Path_80" class="cls-4" d="m372.46,249.5c2.7-22.2,33.94-11.92,27.18,19.53"/><path id="Path_81" class="cls-4" d="m424.17,249.5c2.7-22.2,33.94-11.92,27.18,19.53"/><path id="Path_82" class="cls-7" d="m378.4,309.41c2.47-14.87,10.55,2.65,51.19-12.45,22.53-8.37,25.83,2.87,19.57,14.03-4.54,8.09-14.09,16.14-24.99,16.66-27.97,1.33-48.53-1.62-45.78-18.24"/><path id="Path_83" class="cls-12" d="m406.22,327.93l15.38-.17c.85-.03,1.71-.07,2.57-.11,10.89-.52,20.45-8.57,24.99-16.66,0,0-50.78-1.3-42.94,16.94"/><path id="Path_84" class="cls-11" d="m442.9,294.05c-3.36-.03-7.75.84-13.31,2.91-24.52,9.11-37.18,6.35-43.92,5.99,0,0-3.18,9.69,2.24,10.48s65.96,9.49,54.99-19.38"/><path id="Path_85" class="cls-10" d="m479.27,287.44c0,4.49-5.23,8.12-11.68,8.12s-11.68-3.64-11.68-8.12,5.23-8.12,11.68-8.12,11.68,3.64,11.68,8.12"/><path id="Path_86" class="cls-10" d="m376.06,294.05c0,4.49-5.23,8.12-11.68,8.12s-11.68-3.64-11.68-8.12,5.23-8.12,11.68-8.12,11.68,3.64,11.68,8.12"/></g></g><path class="cls-6" d="m180.88,310.3h-1.49c-.44,0-.69.23-.69.69v1.06c0,.46.25.69.69.69h1.44c1.1,0,1.65-.11,1.65-1.19s-.5-1.24-1.61-1.24Z"/><path class="cls-6" d="m129.49,276.93v-2.48c0-1.1-.16-1.65-1.67-1.65s-1.67.55-1.67,1.65v2.5c0,.44.25.69.69.69h1.97c.46-.02.69-.25.69-.71Z"/><path class="cls-6" d="m221.23,303.88h-1.17c-.41,0-.71.3-.71.71v1.7c0,.41.3.71.71.71h1.17c1.1,0,1.65-.14,1.65-1.56s-.55-1.56-1.65-1.56Z"/><path class="cls-6" d="m123.22,219.36c1.7,0,1.81-1.08,1.81-2.84v-3.3c0-1.77-.11-2.84-1.81-2.84s-1.81,1.08-1.81,2.84v3.3c0,1.77.11,2.84,1.81,2.84Z"/><path class="cls-6" d="m219.77,275.97h1.17c1.1,0,1.65-.14,1.65-1.56s-.55-1.56-1.65-1.56h-1.17c-.41,0-.71.3-.71.71v1.7c0,.41.3.71.71.71Z"/><path class="cls-6" d="m149.21,241.77c-1.51,0-1.67.55-1.67,1.65v2.5c0,.44.25.69.69.69h1.97c.46-.02.69-.25.69-.71v-2.48c0-1.1-.16-1.65-1.67-1.65Z"/><path class="cls-6" d="m160.17,303.88h-1.24c-.44,0-.69.23-.69.69v6.79c0,.44.25.69.69.69h1.24c1.1,0,1.65-.18,1.65-1.56v-5.05c0-1.42-.55-1.56-1.65-1.56Z"/><path class="cls-6" d="m207.63,303.88h-1.17c-.41,0-.71.3-.71.71v1.7c0,.41.3.71.71.71h1.17c1.1,0,1.65-.14,1.65-1.56s-.55-1.56-1.65-1.56Z"/><path class="cls-6" d="m161.12,272.8c-1.51,0-1.67.55-1.67,1.65v2.5c0,.44.25.69.69.69h1.97c.46-.02.69-.25.69-.71v-2.48c0-1.1-.16-1.65-1.67-1.65Z"/><path class="cls-6" d="m134.62,303.47c-1.7,0-1.81,1.08-1.81,2.84v3.3c0,1.77.11,2.84,1.81,2.84s1.81-1.08,1.81-2.84v-3.3c0-1.77-.11-2.84-1.81-2.84Z"/><path class="cls-6" d="m254.03,303.47c-1.7,0-1.81,1.08-1.81,2.84v3.3c0,1.77.11,2.84,1.81,2.84s1.81-1.08,1.81-2.84v-3.3c0-1.77-.11-2.84-1.81-2.84Z"/><path class="cls-6" d="m253.5,215.58h1.97c.46-.02.69-.25.69-.71v-2.48c0-1.1-.16-1.65-1.67-1.65s-1.67.55-1.67,1.65v2.5c0,.44.25.69.69.69Z"/><path class="cls-6" d="m193.72,281.43c1.7,0,1.81-1.08,1.81-2.84v-3.3c0-1.77-.11-2.84-1.81-2.84s-1.81,1.08-1.81,2.84v3.3c0,1.77.11,2.84,1.81,2.84Z"/><path class="cls-6" d="m281.29,272.85h-1.17c-.41,0-.71.3-.71.71v1.7c0,.41.3.71.71.71h1.17c1.1,0,1.65-.14,1.65-1.56s-.55-1.56-1.65-1.56Z"/><path class="cls-6" d="m290.61,184.58H106.61c-12.7,0-23,10.3-23,23v113c0,12.7,10.3,23,23,23h184c12.7,0,23-10.3,23-23v-113c0-12.7-10.3-23-23-23Zm-41.74,27.81c0-2.89.46-5.96,5.62-5.96s5.62,3.07,5.62,5.96v9.72c0,.5-.23.78-.69.78h-2.57c-.44,0-.69-.23-.69-.69v-2c0-.46-.23-.69-.69-.69h-1.97c-.44,0-.69.23-.69.69v2c0,.46-.23.69-.69.69h-2.57c-.44,0-.69-.28-.69-.78v-9.72Zm-13.12,5.14l2.59-.57c.46-.09.71.11.76.6.09,1.1.94,1.74,2.02,1.74s1.95-.67,1.81-1.28c-.44-1.95-7.34-1.51-7.34-6.79-.02-.69.39-4.75,5.53-4.75,4.72,0,5.83,3.07,5.96,4.72.02.41-.18.67-.6.76l-2.61.57c-.46.09-.69-.11-.76-.57-.16-.94-.92-1.54-2-1.54-.89,0-1.44.53-1.35,1.06.32,1.79,7.57,1.74,7.57,7.02,0,.69-.78,4.75-6.21,4.75-4.82,0-5.85-3.16-5.96-4.95-.02-.41.18-.67.6-.76Zm-12.96-10c0-.46.25-.69.69-.69h2.52c.46,0,.69.23.69.69v14.68c0,.44-.23.69-.69.69h-2.52c-.44,0-.69-.25-.69-.69v-14.68Zm-21.03,31.03c0-.46.23-.69.69-.69h2.57c.44,0,.69.25.69.69v5.73c0,.44.25.69.69.69h2.2c.46,0,.69-.25.69-.69v-5.73c0-.44.25-.69.69-.69h2.57c.46,0,.69.23.69.69v14.68c0,.44-.23.69-.69.69h-2.57c-.44,0-.69-.25-.69-.69v-3.62c0-.46-.23-.69-.69-.69h-2.2c-.44,0-.69.23-.69.69v3.62c0,.44-.23.69-.69.69h-2.57c-.44,0-.69-.25-.69-.69v-14.68Zm-22.98-31.03c0-.46.25-.69.69-.69h2.52c.46,0,.69.23.69.69v14.68c0,.44-.23.69-.69.69h-2.52c-.44,0-.69-.25-.69-.69v-14.68Zm1.17,36.4h3.55c.46,0,.69.23.69.69v2.57c0,.44-.23.69-.69.69h-3.55c-.44,0-.69.23-.69.69v.73c0,.44.25.69.69.69h5.55c.46,0,.69.23.69.69v2.57c0,.46-.23.69-.69.69h-9.63c-.44,0-.69-.25-.69-.69v-14.68c0-.46.25-.69.69-.69h9.63c.46,0,.69.23.69.69v2.57c0,.44-.23.69-.69.69h-5.55c-.44,0-.69.23-.69.69v.73c0,.44.25.69.69.69Zm-34.41-36.4c0-.46.25-.69.69-.69h9.63c.46,0,.69.23.69.69v2.57c0,.44-.23.69-.69.69h-5.55c-.44,0-.69.23-.69.69v.73c0,.44.25.69.69.69h3.55c.46,0,.69.23.69.69v2.57c0,.44-.23.69-.69.69h-3.55c-.44,0-.69.23-.69.69v.73c0,.44.25.69.69.69h5.55c.46,0,.69.23.69.69v2.57c0,.46-.23.69-.69.69h-9.63c-.44,0-.69-.25-.69-.69v-14.68Zm-14.5,0c0-.46.25-.69.69-.69h3.37c.39,0,.64.16.8.53l3.12,7.64c.09.21.28.16.28-.07v-7.41c0-.46.25-.69.69-.69h2.57c.46,0,.69.23.69.69v14.68c0,.44-.23.69-.69.69h-3.37c-.39,0-.64-.16-.8-.53l-3.12-7.64c-.09-.21-.28-.16-.28.07v7.41c0,.44-.23.69-.69.69h-2.57c-.44,0-.69-.25-.69-.69v-14.68Zm-13.58,4.47c0-1.51.32-5.57,5.76-5.57s5.76,4.06,5.76,5.57v5.73c0,1.51-.32,5.57-5.76,5.57s-5.76-4.06-5.76-5.57v-5.73Zm3.08,60.16c0,.44-.23.69-.69.69h-5.55c-.44,0-.69.23-.69.69v.73c0,.44.25.69.69.69h3.55c.46,0,.69.23.69.69v2.57c0,.44-.23.69-.69.69h-3.55c-.44,0-.69.23-.69.69v.73c0,.44.25.69.69.69h5.55c.46,0,.69.23.69.69v2.57c0,.46-.23.69-.69.69h-9.63c-.44,0-.69-.25-.69-.69v-14.68c0-.46.25-.69.69-.69h9.63c.46,0,.69.23.69.69v2.57Zm6.29,9.43c-.44,0-.69.23-.69.69v2c0,.46-.23.69-.69.69h-2.57c-.44,0-.69-.28-.69-.78v-9.72c0-2.89.46-5.96,5.62-5.96s5.62,3.07,5.62,5.96v9.72c0,.5-.23.78-.69.78h-2.57c-.44,0-.69-.23-.69-.69v-2c0-.46-.23-.69-.69-.69h-1.97Zm13.54,29.24c0,1.51-.32,5.57-5.76,5.57s-5.76-4.06-5.76-5.57v-5.73c0-1.51.32-5.57,5.76-5.57s5.76,4.06,5.76,5.57v5.73Zm-.86-25.87c-.44,0-.69-.25-.69-.69v-10.73c0-.46-.23-.69-.69-.69h-3.21c-.44,0-.69-.25-.69-.69v-2.57c0-.46.25-.69.69-.69h11.74c.46,0,.69.23.69.69v2.57c0,.44-.23.69-.69.69h-3.21c-.44,0-.69.23-.69.69v10.73c0,.44-.23.69-.69.69h-2.57Zm13.36,30.34c0,.46-.23.69-.69.69h-9.06c-.44,0-.69-.25-.69-.69v-14.68c0-.46.25-.69.69-.69h2.57c.46,0,.69.23.69.69v10.73c0,.44.25.69.69.69h5.11c.46,0,.69.23.69.69v2.57Zm-1.31-61.38c-.44,0-.69-.23-.69-.69v-2c0-.46-.23-.69-.69-.69h-1.97c-.44,0-.69.23-.69.69v2c0,.46-.23.69-.69.69h-2.57c-.44,0-.69-.28-.69-.78v-9.72c0-2.89.46-5.96,5.62-5.96s5.62,3.07,5.62,5.96v9.72c0,.5-.23.78-.69.78h-2.57Zm14.27,56.54c0,3.76-1.42,5.53-5.73,5.53h-5.11c-.44,0-.69-.25-.69-.69v-14.65c0-.46.23-.69.69-.71h5.11c4.31,0,5.73,1.74,5.73,5.5v5.02Zm.91-26.28c0,.5-.23.78-.69.78h-2.57c-.44,0-.69-.23-.69-.69v-2c0-.46-.23-.69-.69-.69h-1.97c-.44,0-.69.23-.69.69v2c0,.46-.23.69-.69.69h-2.57c-.44,0-.69-.28-.69-.78v-9.72c0-2.89.46-5.96,5.62-5.96s5.62,3.07,5.62,5.96v9.72Zm6.14-30.94c0,.44-.23.69-.69.69h-2.57c-.44,0-.69-.25-.69-.69v-9.04c0-.16-.21-.18-.25-.02l-2.22,9.15c-.09.39-.34.6-.76.6h-1.51c-.41,0-.67-.21-.76-.6l-2.22-9.15c-.05-.16-.25-.14-.25.02v9.04c0,.44-.23.69-.69.69h-2.57c-.46,0-.69-.25-.69-.69v-14.68c0-.46.23-.69.69-.69h4.75c.41,0,.64.23.73.62l1.63,6.67c.05.23.23.23.28,0l1.63-6.67c.09-.39.32-.62.73-.62h4.75c.46,0,.69.23.69.69v14.68Zm-.07-41.77v10.73c0,.44-.23.69-.69.69h-2.57c-.44,0-.69-.25-.69-.69v-10.73c0-.46-.23-.69-.69-.69h-3.21c-.44,0-.69-.25-.69-.69v-2.57c0-.46.25-.69.69-.69h11.74c.46,0,.69.23.69.69v2.57c0,.44-.23.69-.69.69h-3.21c-.44,0-.69.23-.69.69Zm8.33,104.52h-5.66c-.44,0-.69-.25-.69-.69v-14.65c0-.46.23-.69.69-.71h4.82c4.31,0,5.96,1.74,5.96,5.5,0,.78-.23,2.29-1.17,3.33.94.44,1.63,1.58,1.63,3,0,2.84-1.26,4.22-5.57,4.22Zm5.91-43.83c0,.44-.23.69-.69.69h-5.78c-.44,0-.69.23-.69.69v.73c0,.44.25.69.69.69h3.78c.46,0,.69.23.69.69v2.57c0,.44-.23.69-.69.69h-3.78c-.44,0-.69.23-.69.69v4.68c0,.44-.23.69-.69.69h-2.71c-.44,0-.69-.25-.69-.69v-14.68c0-.46.25-.69.69-.69h9.86c.46,0,.69.23.69.69v2.57Zm12.56,38.67c0,1.51-.32,5.57-5.76,5.57s-5.76-4.06-5.76-5.57v-10.21c0-.46.25-.69.69-.69h2.57c.46,0,.69.23.69.69v8.99c0,1.77.11,2.84,1.81,2.84s1.81-1.08,1.81-2.84v-8.99c0-.46.25-.69.69-.69h2.57c.46,0,.69.23.69.69v10.21Zm-11.64-31.03v-5.73c0-1.51.32-5.57,5.76-5.57s5.76,4.06,5.76,5.57v5.73c0,1.51-.32,5.57-5.76,5.57s-5.76-4.06-5.76-5.57Zm12.42-38.67c0,.44-.23.69-.69.69h-3.21c-.44,0-.69.23-.69.69v10.73c0,.44-.23.69-.69.69h-2.57c-.44,0-.69-.25-.69-.69v-10.73c0-.46-.23-.69-.69-.69h-3.21c-.44,0-.69-.25-.69-.69v-2.57c0-.46.25-.69.69-.69h11.74c.46,0,.69.23.69.69v2.57Zm.46-18.92c0,.44-.23.69-.69.69h-2.57c-.44,0-.69-.25-.69-.69v-9.04c0-.16-.21-.18-.25-.02l-2.22,9.15c-.09.39-.34.6-.76.6h-1.51c-.41,0-.67-.21-.76-.6l-2.22-9.15c-.05-.16-.25-.14-.25.02v9.04c0,.44-.23.69-.69.69h-2.57c-.46,0-.69-.25-.69-.69v-14.68c0-.46.23-.69.69-.69h4.75c.41,0,.64.23.73.62l1.63,6.67c.05.23.23.23.28,0l1.63-6.67c.09-.39.32-.62.73-.62h4.75c.46,0,.69.23.69.69v14.68Zm.56,47.39c0-.46.25-.69.69-.69h2.57c.46,0,.69.23.69.69v8.99c0,1.77.11,2.84,1.81,2.84s1.81-1.08,1.81-2.84v-8.99c0-.46.25-.69.69-.69h2.57c.46,0,.69.23.69.69v10.21c0,1.51-.32,5.57-5.76,5.57s-5.76-4.06-5.76-5.57v-10.21Zm11.69,46.4h-2.61c-.23,0-.44-.11-.53-.32l-2.38-4.61c-.05-.07-.11-.11-.18-.11h-.92c-.41,0-.71.3-.71.71v3.62c0,.41-.3.71-.71.71h-2.57c-.41,0-.71-.3-.71-.71v-14.63c0-.41.3-.71.71-.71h5.02c4.08,0,5.73,1.74,5.73,5.5,0,2.13-.53,3.62-1.74,4.5-.09.07-.11.18-.07.3l2.43,4.52c.32.6-.05,1.24-.76,1.24Zm1.05-105.89c0,.44-.23.69-.69.69h-5.55c-.44,0-.69.23-.69.69v.73c0,.44.25.69.69.69h3.55c.46,0,.69.23.69.69v2.57c0,.44-.23.69-.69.69h-3.55c-.44,0-.69.23-.69.69v.73c0,.44.25.69.69.69h5.55c.46,0,.69.23.69.69v2.57c0,.46-.23.69-.69.69h-9.63c-.44,0-.69-.25-.69-.69v-14.68c0-.46.25-.69.69-.69h9.63c.46,0,.69.23.69.69v2.57Zm1.19,27.78h3.3c.39,0,.64.16.78.53l1.7,4.27c.09.21.23.21.32,0l1.7-4.27c.14-.37.39-.53.78-.53h3.28c.53,0,.76.32.53.8l-4.11,9.17c-.05.09-.05.18-.05.27v5.11c0,.44-.23.69-.69.69h-3.21c-.44,0-.69-.25-.69-.69v-5.11c0-.09,0-.18-.05-.27l-4.13-9.17c-.23-.48,0-.8.53-.8Zm-.26,46.37v-14.63c0-.41.3-.71.71-.71h5.02c4.08,0,5.73,1.74,5.73,5.5,0,2.13-.53,3.62-1.74,4.5-.09.07-.11.18-.07.3l2.43,4.52c.32.6-.05,1.24-.76,1.24h-2.61c-.23,0-.44-.11-.53-.32l-2.39-4.61c-.05-.07-.11-.11-.18-.11h-.92c-.41,0-.71.3-.71.71v3.62c0,.41-.3.71-.71.71h-2.57c-.41,0-.71-.3-.71-.71Zm11.62,31.74h-2.61c-.23,0-.44-.11-.53-.32l-2.39-4.61c-.05-.07-.11-.11-.18-.11h-.92c-.41,0-.71.3-.71.71v3.62c0,.41-.3.71-.71.71h-2.57c-.41,0-.71-.3-.71-.71v-14.63c0-.41.3-.71.71-.71h5.02c4.08,0,5.73,1.74,5.73,5.5,0,2.13-.53,3.62-1.74,4.5-.09.07-.11.18-.07.3l2.43,4.52c.32.6-.05,1.24-.76,1.24Zm6.17-.69c0,.44-.23.69-.69.69h-2.52c-.44,0-.69-.25-.69-.69v-14.68c0-.46.25-.69.69-.69h2.52c.46,0,.69.23.69.69v14.68Zm-5.18-65.98c-.02-.41.18-.67.6-.76l2.59-.57c.46-.09.71.11.76.6.09,1.1.94,1.74,2.02,1.74s1.95-.67,1.81-1.28c-.44-1.95-7.34-1.51-7.34-6.79-.02-.69.39-4.75,5.53-4.75,4.72,0,5.83,3.07,5.96,4.72.02.41-.18.67-.6.76l-2.61.57c-.46.09-.69-.11-.76-.57-.16-.94-.92-1.54-2-1.54-.89,0-1.44.53-1.35,1.06.32,1.79,7.57,1.74,7.57,7.02,0,.69-.78,4.75-6.21,4.75-4.82,0-5.85-3.16-5.96-4.95Zm19.68,53.88c0,.44-.23.69-.69.69h-3.21c-.44,0-.69.23-.69.69v10.73c0,.44-.23.69-.69.69h-2.57c-.44,0-.69-.25-.69-.69v-10.73c0-.46-.23-.69-.69-.69h-3.21c-.44,0-.69-.25-.69-.69v-2.57c0-.46.25-.69.69-.69h11.74c.46,0,.69.23.69.69v2.57Zm.4-33.49l-4.1,9.17c-.05.09-.05.18-.05.27v5.11c0,.44-.23.69-.69.69h-3.21c-.44,0-.69-.25-.69-.69v-5.11c0-.09,0-.18-.05-.27l-4.13-9.17c-.23-.48,0-.8.53-.8h3.3c.39,0,.64.16.78.53l1.7,4.27c.09.21.23.21.32,0l1.7-4.27c.14-.37.39-.53.78-.53h3.28c.53,0,.76.32.53.8Zm-2.12-15.78c-.44,0-.69-.25-.69-.69v-10.73c0-.46-.23-.69-.69-.69h-3.21c-.44,0-.69-.25-.69-.69v-2.57c0-.46.25-.69.69-.69h11.74c.46,0,.69.23.69.69v2.57c0,.44-.23.69-.69.69h-3.21c-.44,0-.69.23-.69.69v10.73c0,.44-.23.69-.69.69h-2.57Zm14.15,56.9c0,1.51-.32,5.57-5.76,5.57s-5.76-4.06-5.76-5.57v-5.73c0-1.51.32-5.57,5.76-5.57s5.76,4.06,5.76,5.57v5.73Zm.56-38.67c0,.44-.23.69-.69.69h-5.55c-.44,0-.69.23-.69.69v.73c0,.44.25.69.69.69h3.55c.46,0,.69.23.69.69v2.57c0,.44-.23.69-.69.69h-3.55c-.44,0-.69.23-.69.69v.73c0,.44.25.69.69.69h5.55c.46,0,.69.23.69.69v2.57c0,.46-.23.69-.69.69h-9.63c-.44,0-.69-.25-.69-.69v-14.68c0-.46.25-.69.69-.69h9.63c.46,0,.69.23.69.69v2.57Zm1.73-65.32h2.73c.41,0,.71.21.76.6l1.31,9.56c.05.23.23.23.27,0l1.54-9.56c.07-.39.34-.6.76-.6h1.97c.41,0,.69.21.76.6l1.54,9.56c.05.23.23.23.27,0l1.31-9.56c.05-.39.34-.6.76-.6h2.73c.48,0,.71.28.62.76l-2.82,14.7c-.07.39-.34.6-.76.6h-3.23c-.41,0-.67-.21-.76-.6l-1.26-5.64c-.05-.23-.23-.23-.28,0l-1.26,5.64c-.09.39-.34.6-.76.6h-3.23c-.41,0-.69-.21-.76-.6l-2.82-14.7c-.09-.48.14-.76.62-.76Zm4.4,108.46c0,.44-.23.69-.69.69h-2.57c-.44,0-.69-.25-.69-.69v-2.57c0-.46.25-.69.69-.69h2.57c.46,0,.69.23.69.69v2.57Zm0-5.05c-.02.44-.23.69-.69.69h-2.57c-.44,0-.67-.25-.69-.69l-.46-9.63c-.02-.46.25-.69.69-.69h3.49c.46,0,.71.23.69.69l-.46,9.63Zm6.75-26.08c0,.5-.23.78-.69.78h-2.57c-.44,0-.69-.23-.69-.69v-2c0-.46-.23-.69-.69-.69h-1.97c-.44,0-.69.23-.69.69v2c0,.46-.23.69-.69.69h-2.57c-.44,0-.69-.28-.69-.78v-9.72c0-2.89.46-5.96,5.62-5.96s5.62,3.07,5.62,5.96v9.72Zm13.51.78h-2.61c-.23,0-.44-.11-.53-.32l-2.39-4.61c-.05-.07-.11-.11-.18-.11h-.92c-.41,0-.71.3-.71.71v3.62c0,.41-.3.71-.71.71h-2.57c-.41,0-.71-.3-.71-.71v-14.63c0-.41.3-.71.71-.71h5.02c4.08,0,5.73,1.74,5.73,5.5,0,2.13-.53,3.62-1.74,4.5-.09.07-.11.18-.07.3l2.43,4.52c.32.6-.05,1.24-.76,1.24Z"/><path class="cls-6" d="m267.62,272.8c-1.51,0-1.67.55-1.67,1.65v2.5c0,.44.25.69.69.69h1.97c.46-.02.69-.25.69-.71v-2.48c0-1.1-.16-1.65-1.67-1.65Z"/><path class="cls-6" d="m179.41,307h1.24c1.1,0,1.65-.14,1.65-1.56s-.55-1.56-1.65-1.56h-1.24c-.44,0-.69.23-.69.69v1.74c0,.46.25.69.69.69Z"/></g></svg>