<?xml version="1.0" encoding="UTF-8"?><svg id="Layer_1" xmlns="http://www.w3.org/2000/svg" xmlns:xlink="http://www.w3.org/1999/xlink" viewBox="0 0 776.42 1023.05"><defs><style>.cls-1{stroke-width:.38px;}.cls-1,.cls-2,.cls-3{fill:none;}.cls-1,.cls-3{stroke:#040504;stroke-miterlimit:10;}.cls-4{clip-path:url(#clippath);}.cls-2,.cls-5,.cls-6,.cls-7,.cls-8,.cls-9,.cls-10,.cls-11,.cls-12,.cls-13,.cls-14,.cls-15,.cls-16,.cls-17,.cls-18{stroke-width:0px;}.cls-19{clip-path:url(#clippath-1);}.cls-20{clip-path:url(#clippath-2);}.cls-5{fill:#608b9a;}.cls-6{fill:#250d12;}.cls-7{fill:#200d24;}.cls-8{fill:#d53f1c;}.cls-9{fill:#810b37;}.cls-10{fill:#fff;}.cls-11{fill:#ef7579;}.cls-12{fill:#ffe57a;}.cls-13{fill:#e62754;}.cls-14{fill:#feffe6;}.cls-15{fill:#ffd800;}.cls-16{fill:#ea3e3b;}.cls-17{fill:#040504;}.cls-18{fill:#00669e;}.cls-3{stroke-width:.5px;}</style><clipPath id="clippath"><rect class="cls-2" x="26.52" y="40.9" width="723.38" height="751.63" transform="translate(-41.8 790.15) rotate(-88)"/></clipPath><clipPath id="clippath-1"><rect class="cls-2" x="103.92" y="42.55" width="478.82" height="1010.9"/></clipPath><clipPath id="clippath-2"><rect class="cls-2" x="10.98" y="7.79" width="168.49" height="210.35"/></clipPath></defs><g class="cls-4"><g id="Group_316"><path id="Path_789" class="cls-14" d="m738.93,464.03l-182.16,75.19c-12.72,5.25-21.78,15.94-24.23,28.59l-35.11,181.13c-6.18,31.85-49.38,43.15-73.12,19.11l-134.97-136.66c-9.8-9.67-23.5-14.3-37.16-12.54l-198.17,24.23c-34.85,4.26-60.11-30.14-42.74-58.22l98.74-159.65c6.89-11.02,7.37-24.87,1.27-36.34L23.91,222.71c-15.36-29.22,12.24-61.78,46.7-55.09l195.99,37.99c13.5,2.7,27.49-.95,37.94-9.92l144.18-126.92c25.35-22.32,67.67-8.04,71.61,24.17l22.4,183.13c1.56,12.79,9.86,24.09,22.18,30.21l176.47,87.71c31.03,15.43,29.59,56.81-2.45,70.03"/></g></g><g id="Group_313"><g class="cls-19"><g id="Group_269"><path id="Path_703" class="cls-11" d="m377.38,708.2s-18.92,64.19-37.17,84.47c0,0,5.4,114.2-29.06,194.61,0,0,8.04,38.23,8.04,48.21s-43.63,24.18-77.27,4.73c0,0,27.33-30.49,27.33-57.3s-28.38-127.21,16.29-182.93c0,0-12.09-78.32-8.41-104.08s59.4-65.71,63.6-30.49,36.63,42.76,36.63,42.76"/><path id="Path_704" class="cls-11" d="m419.23,710.01s13.79,65.93,32.03,86.2c0,0-5.41,114.2,29.06,194.62,0,0-8.04,38.22-8.04,48.21s43.63,24.18,77.27,4.73c0,0-27.33-30.49-27.33-57.29s28.38-127.21-16.3-182.93c0,0,3.92-77.59.24-103.35s-51.23-66.44-55.43-31.22-31.5,41.04-31.5,41.04"/><path id="Path_705" class="cls-7" d="m561.41,156.67s36.77-76.3-48.73-107.56-125.41,58.84-124.76,69.87c0,0-44.4-15.63-72.89,33.1-28.5,48.73-13.79,87.34-13.79,87.34,0,0-161.81,45.96-121.35,143.41,0,0-3.68,41.37,45.05,62.52,0,0-37.7,144.34,48.72,133.3,0,0,65.27,108.48,135.15,15.63,0,0,108.52,34.92,102.27-39.49,0,0,88.04-75.54,40.33-145.41,0,0,77.25-53.96-14.2-141.43,0,0,83.64-31.15,24.21-111.28"/><path id="Path_706" class="cls-11" d="m503.23,372.53s54.44,96.77,57.02,123.99-38.62,105.84-43.41,106.71c0,0,5.19,91.57-7,69.94,0,0-5.1-53.75-6.61-51.52s2.58,16.7-2.18,24.92-9.51,12.41-13.08,8.84.4-12.72,2.51-14.12,6.6-15.82,3.3-19.7-8.59-19.4-5.02-28.08,12.6-5.49,11.42-19.9,16.92-69.4,23.27-74.18c0,0-37.94-29.92-40.05-39.01,0,0-23.17-26.19-21.35-37.37s25.38-59.88,30.82-57.48c3.77,1.81,7.26,4.16,10.36,6.96"/><path id="Path_707" class="cls-11" d="m483.04,498.62s-10.05,19.33-15.72,23.96,11.59,10.05,18.03,27.31c0,0-84,57.46-167.48-7.73,0,0,18.04-21.64,30.41-26.02,0,0-10.21-25.35-10.21-31.26s132.46,4.57,138.71,9.15l6.25,4.58Z"/><path id="Path_708" class="cls-11" d="m109.91,199.66c-18.41-12.49,21.05-22,21.05-22-24.45,1.06-26.81-5.72-26.81-5.72,9.57-9.88,49.92-2.08,49.92-2.08,13.37-46.74,28.52,3.69,34.88,29.86.7,1.21,1.27,2.5,1.67,3.84,4.45,15.82,61.63,50.22,85.93,89.25,15.17,5.84,33.34,17.27,50.81,32.89,34.48,30.83,53.16,66.19,41.72,78.98s-48.66-1.82-83.14-32.65c-10.32-9.14-19.69-19.32-27.94-30.36-24.51-25.13-71.03-74.08-99.95-112.25l-.18.08c-3.93-4.87-12.8-11.63-19.06-11.5-43.54,12.22-16.96-9.17-16.96-9.17-31.49,14.53-11.94-9.17-11.94-9.17"/><path id="Path_709" class="cls-13" d="m443.15,356.67s26.09-.71,34.9-1.27c28.71-1.83,39.59,47.29,45.02,53.91,0,0-33.44-9.32-28.61-2.27,0,0,2.83,3.38,4.49,16.15,3.49,26.83-2.59,57.7-16.56,77.26,0,0-49.83,28.38-128.33,5.19-9.26-2.73-15.72-11.11-15.99-20.76-.31-11.7-6.01-41.39-13.8-63.85-7.38-21.3-21.57-35.93-23.18-36.59,0,0,38.16-29.81,20.53-63.68,0,0,19.9,16.46,39.64,32.33,12.52,10.07,41.75.75,54.21,2.44s18.56,8.21,27.67,1.15"/><path id="Path_710" class="cls-11" d="m388.31,219.11c4.24-10.7,18.23-27.68,48.8-26.94,23.96,0,42.23,11.32,42.23,35.29,0,0,1.03,24.85,0,30.42-.81,4.43,27.02,19.83,13.06,46.5-9.97,18.95-30.81,29.55-52,26.46l.65.6c-1.72,7.81,2.24,30.69,2.24,30.69-7.2,12.9-32.77-2.18-32.77-2.18,5.16-37.74-9.89-66.01-9.89-66.01-3.06-4.62-5.76-9.47-8.08-14.5-7.57-17.35-8.49-49.64-4.25-60.34"/><path id="Path_711" class="cls-18" d="m485.36,549.89s-94.68,54.6-167.06-7.88c0,0-57.3,62.69-41.79,177.09,0,0,25.42,23.05,96.51,16.16,0,0,13.79-63.34,13.79-76.69,7.4,1.24,14.89,1.86,22.4,1.88,0,0,5.79,54.51,16.47,76.1,0,0,65.35,7.67,85.48-13.61,0,0-1.28-153.41-25.8-173.04"/><path id="Path_712" class="cls-1" d="m437.11,237.75s-4.64-20.91-19.34-4.93c-10.68,11.6,4.08,22.17,8.52,20.73"/><path id="Path_713" class="cls-17" d="m419.94,240.25c0,5.99,2.51,10.84,5.6,10.84s5.6-4.85,5.6-10.84-2.51-10.84-5.6-10.84-5.6,4.85-5.6,10.84"/><path id="Path_714" class="cls-1" d="m451.68,237.75s4.64-20.91,19.34-4.93c10.68,11.6-4.08,22.17-8.52,20.73"/><path id="Path_715" class="cls-17" d="m455.07,240.25c0,5.99,2.51,10.84,5.6,10.84s5.6-4.85,5.6-10.84-2.51-10.84-5.6-10.84-5.6,4.85-5.6,10.84"/><path id="Path_716" class="cls-3" d="m449.33,266.27l3.19-6.38s-4.56-24.53-11.46-30.27"/><path id="Path_717" class="cls-6" d="m475.28,294.09c-1.61-11.15-9.08,1.57-43.21-11.2-18.93-7.08-22.11,1.15-17.15,9.69,3.6,6.19,11.48,12.54,20.74,13.34,23.8,2.05,41.42.64,39.62-11.82"/><path id="Path_718" class="cls-16" d="m450.95,306.81l-13.1-.71c-.72-.06-1.45-.12-2.19-.18-9.27-.8-17.15-7.15-20.74-13.34,0,0,43.32.96,36.03,14.23"/><path id="Path_719" class="cls-10" d="m420.82,280.22c3.87.3,7.66,1.2,11.25,2.67,20.6,7.71,31.48,6.14,37.23,6.12,0,0,2.39,7.32-2.25,7.71s-56.53,4.54-46.23-16.5"/><path id="Path_720" class="cls-7" d="m405.93,223.38c.31,2.1,5.99-4.15,13.97-5.32s15.22,3.19,14.91,1.09-8.05-9.86-16.02-8.69-13.16,10.82-12.85,12.92"/><path id="Path_721" class="cls-7" d="m447.03,224.61c.31,2.1,5.99-4.15,13.97-5.32s15.22,3.19,14.91,1.09-8.05-9.86-16.02-8.69-13.16,10.82-12.85,12.92"/><line id="Line_21" class="cls-3" x1="442.5" y1="263.22" x2="444.72" y2="257.67"/><path id="Path_722" class="cls-15" d="m433.76,394.9l-8.77,18.75c-.87,1.86-2.83,2.94-4.87,2.69l-20.54-2.54c-2.59-.32-4.96,1.52-5.28,4.11-.19,1.5.36,3.01,1.47,4.04l15.12,14.13c1.5,1.4,1.92,3.61,1.06,5.46l-8.77,18.75c-1.11,2.37-.08,5.19,2.29,6.29,1.37.64,2.97.59,4.29-.15l18.11-10.02c1.79-.99,4.02-.72,5.52.68l15.12,14.13c1.91,1.78,4.91,1.68,6.69-.23,1.03-1.11,1.47-2.64,1.19-4.13l-3.93-20.32c-.39-2.01.56-4.05,2.36-5.04l18.11-10.01c2.29-1.26,3.12-4.14,1.85-6.43-.73-1.33-2.06-2.22-3.56-2.41l-20.54-2.55c-2.04-.25-3.68-1.79-4.06-3.8l-3.93-20.32c-.5-2.57-2.98-4.25-5.55-3.75-1.49.29-2.75,1.27-3.39,2.64"/><path id="Path_723" class="cls-5" d="m511.16,722.93s.61-11.7-.23-12.31-72.67,14.26-90.82,10.57c0,0,2.99,13.89,5.57,15.35s67.73,7.73,85.48-13.61"/><path id="Path_724" class="cls-5" d="m373.57,737.35s4.41-11.91,3.67-12.83-85.25-10.09-104.24-20.12c0,0-1.1,15.4,1.3,17.8s72.76,31.18,99.27,15.14"/><path id="Path_725" class="cls-7" d="m469.91,203.15s-21.34,19.58-49.55-9.41-3.86-32.17,10.79-30.19,38.76,39.6,38.76,39.6"/><path id="Path_726" class="cls-7" d="m392.56,279.44s53.3,64.32,9.06,100.3-36.31-26.22-54.61-20.73-25-49.12-12.8-59.32,58.35-20.25,58.35-20.25"/></g></g></g><g id="Group_312"><g class="cls-20"><g id="Group_271"><path id="Path_727" class="cls-8" d="m14.75,34.38c7.19-23.44,104.09-25.4,132.39,12.21,28.3,37.6-7.67,47.86-2.88,49.82,3.64,1.48-5.41,70.64-10,103.97,4.04,2.33,7.67,5.32,10.73,8.83,0,0-1.74,7.57-13.21,8.8-1.36.13-2.73.17-4.1.12-40.3.45-105.33-19.24-107.19-21.61-1.91-2.44,4.8-121.12,4.8-121.12-14.87-15.14-17.75-17.58-10.56-41.03"/><path id="Path_728" class="cls-9" d="m13.22,43.62c4.12-2.51,4.85-10.85,3.84-11.47s26.62-16.18,27.47-4.08c.85,12.09,89.04,169.94,89.79,185.53.3,6.3-7.7.99-12.11,1.12s-13.46-4.34-21.79-1.97-20.1.43-22.01-1.76-16.08-10.85-23.82-9.93-20.12-.13-20.24-5.52-3.41-5.65-6.19-5.65-10.54,2.13-7.69-5.57c2.85-7.7,3.13-8.64,2.84-9.58-.19-.63-.67-31.36,0-51.63-.48-.08-.98-.17-1.53-.32-7.52-1.95-1.95-7.49,2.2-11.42.33-3.42.76-5.58,1.31-5.74.84-.25,1.74-1.62,2.57-3.66-.2-1.11-.49-2.2-.88-3.25l-2.66.47,6.32-9.97c.43-3.82.15-7.68-.83-11.39v-.02c-2.4,4.27-4.98,14.93-7.57,14.93-2.8,0,2.18-14.01,4.44-19.98-4.78-4.89-12.35-6.42-11.35-11.57,1.28-6.6-6.26-15.08-2.14-17.59"/><path id="Path_729" class="cls-8" d="m24.25,29.62c7.13-23.06,103.19-24.99,131.25,12.01,28.06,37-7.61,47.08-2.85,49.01,3.61,1.46-5.37,69.49-9.92,102.29,4,2.29,7.6,5.23,10.65,8.69,0,0-1.73,7.45-13.09,8.66-1.35.13-2.71.17-4.07.11-39.95.44-104.42-18.93-106.26-21.25-1.9-2.4,4.76-119.16,4.76-119.16-14.74-14.89-17.59-17.29-10.46-40.36"/><path id="Path_730" class="cls-12" d="m153.38,201.61s17.12-115.61,12.36-117.5,30.91-11.8,2.85-48.14S44.48,1.53,37.34,24.18s-4.28,25.01,10.46,39.64c0,0-6.66,114.67-4.76,117.03,1.9,2.36,70.86,22.65,110.32,20.76"/></g></g></g></svg>